<svg xmlns="http://www.w3.org/2000/svg" xmlns:xlink="http://www.w3.org/1999/xlink" width="117.473" height="119.15" viewBox="0 0 117.473 119.15">
  <defs>
    <clipPath id="clip-path">
      <rect id="Rectángulo_404783" data-name="Rectángulo 404783" width="70" height="70" transform="translate(652 6994.167)" fill="#fff" stroke="#707070" stroke-width="1"/>
    </clipPath>
  </defs>
  <g id="Grupo_1105571" data-name="Grupo 1105571" transform="translate(-621.527 -6963.85)">
    <g id="Grupo_1103880" data-name="Grupo 1103880">
      <circle id="Elipse_11687" data-name="Elipse 11687" cx="50" cy="50" r="50" transform="translate(636 6980)" fill="#b299db"/>
      <g id="Elipse_11688" data-name="Elipse 11688" transform="translate(633 6977)" fill="none" stroke="#4f08c2" stroke-width="1">
        <circle cx="53" cy="53" r="53" stroke="none"/>
        <circle cx="53" cy="53" r="52.5" fill="none"/>
      </g>
      <g id="Enmascarar_grupo_1098919" data-name="Enmascarar grupo 1098919" clip-path="url(#clip-path)">
        <g id="brazo-mecanico" transform="translate(652 6994.167)">
          <path id="Trazado_881215" data-name="Trazado 881215" d="M5.876,60.68H39.66v8.155H5.876Zm0,0" fill="#226c8a"/>
          <path id="Trazado_881216" data-name="Trazado 881216" d="M31.505,42.041,18.691,21.071l-9.32,3.495,11.65,20.969Zm0,0" fill="#ffcd34"/>
          <path id="Trazado_881217" data-name="Trazado 881217" d="M54.528,1.937,49.1,13.6a1.149,1.149,0,0,0,1.063,1.631h11.49a1.156,1.156,0,0,0,1.165-1.151.488.488,0,0,0-.015-.146l-1-7.922L56.494,1.7a1.164,1.164,0,0,0-1.966.233Zm0,0" fill="#2f7a92"/>
          <path id="Trazado_881218" data-name="Trazado 881218" d="M12.866,11.752,47.815,1.267l8.9,5.33a2.9,2.9,0,0,1,.99,3.976,2.4,2.4,0,0,1-.16.247,2.888,2.888,0,0,1-3.815.742L50.145,9.422,19.856,19.906" fill="#ffcd34"/>
          <path id="Trazado_881219" data-name="Trazado 881219" d="M53.64,15.246H58.3v4.66H53.64Zm0,0" fill="#53a2ab"/>
          <path id="Trazado_881220" data-name="Trazado 881220" d="M50.145,19.906h11.65v4.66H50.145Zm0,0" fill="#fbb03b"/>
          <path id="Trazado_881221" data-name="Trazado 881221" d="M48.98,24.566l-3.495,3.495,4.66,10.485H53.64V24.566Zm0,0" fill="#ffcd34"/>
          <path id="Trazado_881222" data-name="Trazado 881222" d="M62.96,24.566l3.495,3.495-4.66,10.485H58.3V24.566Zm0,0" fill="#ffcd34"/>
          <path id="Trazado_881223" data-name="Trazado 881223" d="M8.206,51.36H21.021v9.32H8.206Zm0,0" fill="#53a2ab"/>
          <path id="Trazado_881224" data-name="Trazado 881224" d="M23.351,57.04h2.33v.291h-2.33Zm0,0"/>
          <path id="Trazado_881225" data-name="Trazado 881225" d="M28.011,57.04h2.33v.291h-2.33Zm0,0"/>
          <path id="Trazado_881226" data-name="Trazado 881226" d="M19.856,18.741a6.99,6.99,0,1,1-6.99-6.99A6.99,6.99,0,0,1,19.856,18.741Zm0,0" fill="#2f7a92"/>
          <path id="Trazado_881227" data-name="Trazado 881227" d="M15.2,18.741a2.33,2.33,0,1,1-2.33-2.33A2.33,2.33,0,0,1,15.2,18.741Zm0,0" fill="#ffcd34"/>
          <path id="Trazado_881228" data-name="Trazado 881228" d="M26.846,39.711a5.824,5.824,0,0,1,5.825,5.825V60.68H21.021V45.536A5.823,5.823,0,0,1,26.846,39.711Zm0,0" fill="#2f7a92"/>
          <path id="Trazado_881229" data-name="Trazado 881229" d="M29.175,45.536a2.33,2.33,0,1,1-2.33-2.33A2.33,2.33,0,0,1,29.175,45.536Zm0,0" fill="#ffcd34"/>
          <path id="Trazado_881230" data-name="Trazado 881230" d="M40.825,59.515h-6.99V45.536a6.959,6.959,0,0,0-1.34-4.106L20.452,21.712a8.914,8.914,0,0,0,.291-.889l28.25-9.786-.961,2.068a2.3,2.3,0,0,0,.146,2.213,2.334,2.334,0,0,0,1.966,1.092h2.33v2.33h-2.33a1.168,1.168,0,0,0-1.165,1.165V23.4a1.18,1.18,0,0,0-.83.335l-3.495,3.495a1.187,1.187,0,0,0-.247,1.3l4.66,10.485a1.163,1.163,0,0,0,1.063.7h3.495a1.168,1.168,0,0,0,1.165-1.165V25.731h2.33V38.546a1.168,1.168,0,0,0,1.165,1.165H61.78a1.163,1.163,0,0,0,1.063-.7L67.5,28.527a1.161,1.161,0,0,0-.247-1.3L63.76,23.736a1.155,1.155,0,0,0-.83-.335V19.906a1.168,1.168,0,0,0-1.165-1.165h-2.33v-2.33h2.17a2.324,2.324,0,0,0,2.33-2.315,1.922,1.922,0,0,0-.015-.291l-1-7.936a1.2,1.2,0,0,0-.423-.757L57.266.859A2.344,2.344,0,0,0,53.96.713a2.433,2.433,0,0,0-.539.728L52.751,2.9,47.931,0,12.662,10.6a8.138,8.138,0,0,0-3.976,15.13l11.17,20.111V50.2H7.041v9.32H4.711V67.67H.051V70h69.9V67.67H40.825Zm11.65-31.454h-2.33v2.33h2.33v1.165H51.31v2.33h1.165v3.495H50.9l-4.034-9.058,2.592-2.592h3.015Zm12.6.262-4.034,9.058H59.465V33.886H60.63v-2.33H59.465V30.391h2.33v-2.33h-2.33v-2.33h3.014ZM60.63,23.4H51.31v-2.33h9.32Zm-3.495-4.66H54.8v-2.33h2.33ZM55.591,2.432a1.872,1.872,0,0,0,.175.175L60.7,6.626l.947,7.456H53.654c-.029,0-.044.015-.073.015H50.145L51.353,11.5l1.777,1.063a4.058,4.058,0,0,0,4.223-6.932c-.015-.014-.03-.014-.044-.029l-2.5-1.5Zm.524,5.17a1.731,1.731,0,0,1-1.777,2.971L50.291,8.14,21.006,18.275a8.194,8.194,0,0,0-3.99-6.553L47.669,2.534ZM7.041,18.741a5.825,5.825,0,0,1,11.65,0,5.64,5.64,0,0,1-.743,2.782l-.262.16.088.146A5.8,5.8,0,0,1,7.041,18.741ZM12.866,26.9A8.118,8.118,0,0,0,19.1,23.984l8.97,14.679a6.907,6.907,0,0,0-7.456,3.728l-8.65-15.552a6.256,6.256,0,0,0,.9.058Zm9.32,18.639a4.66,4.66,0,0,1,9.32,0v13.98h-9.32ZM9.371,52.525H19.856v6.99H9.371ZM7.041,67.67V61.845H38.5V67.67Zm0,0"/>
          <path id="Trazado_881231" data-name="Trazado 881231" d="M26.846,49.03a3.495,3.495,0,1,0-3.495-3.495A3.487,3.487,0,0,0,26.846,49.03Zm0-4.66a1.165,1.165,0,1,1-1.165,1.165A1.169,1.169,0,0,1,26.846,44.371Zm0,0"/>
          <path id="Trazado_881232" data-name="Trazado 881232" d="M12.866,22.236a3.495,3.495,0,1,0-3.495-3.495A3.487,3.487,0,0,0,12.866,22.236Zm0-4.66A1.165,1.165,0,1,1,11.7,18.741,1.169,1.169,0,0,1,12.866,17.576Zm0,0"/>
          <path id="Trazado_881233" data-name="Trazado 881233" d="M10.536,53.69h2.33v2.33h-2.33Zm0,0"/>
          <path id="Trazado_881234" data-name="Trazado 881234" d="M23.351,56.02h2.33v2.33h-2.33Zm0,0"/>
          <path id="Trazado_881235" data-name="Trazado 881235" d="M28.011,56.02h2.33v2.33h-2.33Zm0,0"/>
        </g>
      </g>
      <g id="Trazado_879043" data-name="Trazado 879043" transform="translate(646.174 6969.821) rotate(41)" fill="none">
        <path d="M16.471,0,32.941,28.467H0L14.037,4.206Z" stroke="none"/>
        <path d="M 16.47053527832031 3.993585586547852 L 3.467817306518555 26.46679878234863 L 29.4732666015625 26.46679878234863 L 16.47053527832031 3.993585586547852 M 16.47053337097168 0 L 32.94108200073242 28.46679878234863 L 3.814697265625e-06 28.46679878234863 L 16.47053337097168 0 Z" stroke="none" fill="#2f0474"/>
      </g>
    </g>
  </g>
</svg>
