<svg xmlns="http://www.w3.org/2000/svg" width="74.267" height="75.294" viewBox="0 0 74.267 75.294">
  <g id="Grupo_1105673" data-name="Grupo 1105673" transform="translate(-909.029 -2870.03)">
    <g id="Grupo_1104502" data-name="Grupo 1104502" transform="translate(287.502 -4093.82)">
      <g id="Grupo_1103880" data-name="Grupo 1103880" transform="translate(627.498 6969.821)">
        <circle id="Elipse_11687" data-name="Elipse 11687" cx="30.626" cy="30.626" r="30.626" transform="translate(5.208 6.235)" fill="#b299db"/>
        <g id="Elipse_11688" data-name="Elipse 11688" transform="translate(3.37 4.397)" fill="none" stroke="#4f08c2" stroke-width="1">
          <circle cx="32.463" cy="32.463" r="32.463" stroke="none"/>
          <circle cx="32.463" cy="32.463" r="31.963" fill="none"/>
        </g>
        <g id="Trazado_879043" data-name="Trazado 879043" transform="translate(11.439 0) rotate(41)" fill="none">
          <path d="M10.088,0,20.177,17.436H0L8.6,2.576Z" stroke="none"/>
          <path d="M 10.08840084075928 3.99358081817627 L 3.467815399169922 15.43625545501709 L 16.70898818969727 15.43625545501709 L 10.08840084075928 3.99358081817627 M 10.08840179443359 -3.814697265625e-06 L 20.17680168151855 17.43625450134277 L 1.9073486328125e-06 17.43625450134277 L 10.08840179443359 -3.814697265625e-06 Z" stroke="none" fill="#2f0474"/>
        </g>
      </g>
      <g id="ai" transform="translate(643.118 6985.855)">
        <g id="Grupo_1103876" data-name="Grupo 1103876" transform="translate(0.603 0.603)">
          <path id="Trazado_879033" data-name="Trazado 879033" d="M277.246,30.25a6.049,6.049,0,0,0-2.1-4.591.321.321,0,0,1-.052-.435,5.147,5.147,0,0,0-3.383-8.18.321.321,0,0,1-.258-.419A4.867,4.867,0,0,0,265.2,10.5a.321.321,0,0,1-.418-.228,3.668,3.668,0,0,0-3.546-2.77,3.733,3.733,0,0,0-3.678,3.734V42.4a5.073,5.073,0,0,0,5.016,5.072,5,5,0,0,0,4.54-2.944.325.325,0,0,1,.4-.176A4.984,4.984,0,0,0,274,39.607c0-1.17-1.08-2.583-1.93-3.52a.321.321,0,0,1,.147-.523C274.726,34.81,277.246,32.929,277.246,30.25Z" transform="translate(-237.616 -7.503)" fill="#fe99a0"/>
          <path id="Trazado_879034" data-name="Trazado 879034" d="M366.638,68.192c.851.938,1.93,2.35,1.93,3.52a4.983,4.983,0,0,1-5.987,4.882,4.985,4.985,0,0,0,3.976-4.882c0-1.17-1.079-2.583-1.93-3.52a.321.321,0,0,1,.147-.523c2.508-.754,5.028-2.635,5.028-5.314a6.05,6.05,0,0,0-2.1-4.591.322.322,0,0,1-.052-.435,5.146,5.146,0,0,0-3.383-8.18.32.32,0,0,1-.258-.419,4.869,4.869,0,0,0-3.61-6.3,4.868,4.868,0,0,1,5.621,6.3.32.32,0,0,0,.258.419,5.147,5.147,0,0,1,3.383,8.18.322.322,0,0,0,.052.435,6.05,6.05,0,0,1,2.1,4.591c0,2.679-2.52,4.56-5.028,5.314A.321.321,0,0,0,366.638,68.192Z" transform="translate(-332.183 -39.524)" fill="#fd8087"/>
          <path id="Trazado_879035" data-name="Trazado 879035" d="M12.745,30.249A6.054,6.054,0,0,1,15.09,25.46,5.147,5.147,0,0,1,18.686,17a4.867,4.867,0,0,1,6.453-6.363,3.667,3.667,0,0,1,7.3.532V42.477a5,5,0,0,1-9.67,1.78,4.984,4.984,0,0,1-6.775-4.651c0-1.345,1.426-3.009,2.291-3.906C15.617,35.06,12.745,33.109,12.745,30.249Z" transform="translate(-12.495 -7.503)" fill="#99e6fc"/>
          <path id="Trazado_879036" data-name="Trazado 879036" d="M188.922,11.166V42.473a5,5,0,0,1-6,4.9,5,5,0,0,0,3.992-4.9V11.166a3.669,3.669,0,0,0-2.662-3.528,3.669,3.669,0,0,1,4.673,3.528Z" transform="translate(-168.982 -7.498)" fill="#62dbfb"/>
          <circle id="Elipse_11681" data-name="Elipse 11681" cx="2.573" cy="2.573" r="2.573" transform="translate(7.661 34.566)" fill="#6fd7a3"/>
          <path id="Trazado_879037" data-name="Trazado 879037" d="M129.8,439.843a2.575,2.575,0,0,1-3.417,2.431,2.574,2.574,0,0,0,0-4.862,2.575,2.575,0,0,1,3.417,2.431Z" transform="translate(-116.99 -402.705)" fill="#3ec3a4"/>
          <circle id="Elipse_11682" data-name="Elipse 11682" cx="8.318" cy="8.318" r="8.318" transform="translate(11.622 11.669)" fill="#f2fbff"/>
          <path id="Trazado_879038" data-name="Trazado 879038" d="M254.38,160.905a8.322,8.322,0,0,1-9.323,8.258,8.318,8.318,0,0,0,0-16.514,8.322,8.322,0,0,1,9.323,8.257Z" transform="translate(-226.123 -140.919)" fill="#dff6fd"/>
          <circle id="Elipse_11683" data-name="Elipse 11683" cx="2.573" cy="2.573" r="2.573" transform="translate(1.851 25.908)" fill="#6fd7a3"/>
          <path id="Trazado_879039" data-name="Trazado 879039" d="M57.558,332.2a2.575,2.575,0,0,1-3.417,2.431,2.574,2.574,0,0,0,0-4.862,2.575,2.575,0,0,1,3.417,2.431Z" transform="translate(-50.562 -303.721)" fill="#3ec3a4"/>
          <circle id="Elipse_11684" data-name="Elipse 11684" cx="2.573" cy="2.573" r="2.573" transform="translate(0 15.315)" fill="#6fd7a3"/>
          <path id="Trazado_879040" data-name="Trazado 879040" d="M34.542,200.492a2.575,2.575,0,0,1-3.417,2.431,2.574,2.574,0,0,0,0-4.862,2.575,2.575,0,0,1,3.417,2.431Z" transform="translate(-29.397 -182.605)" fill="#3ec3a4"/>
          <circle id="Elipse_11685" data-name="Elipse 11685" cx="2.573" cy="2.573" r="2.573" transform="translate(3.082 6.123)" fill="#6fd7a3"/>
          <path id="Trazado_879041" data-name="Trazado 879041" d="M72.857,86.2a2.575,2.575,0,0,1-3.417,2.431,2.574,2.574,0,0,0,0-4.862A2.575,2.575,0,0,1,72.857,86.2Z" transform="translate(-64.63 -77.507)" fill="#3ec3a4"/>
          <circle id="Elipse_11686" data-name="Elipse 11686" cx="2.573" cy="2.573" r="2.573" transform="translate(9.947 0.374)" fill="#6fd7a3"/>
          <path id="Trazado_879042" data-name="Trazado 879042" d="M158.216,14.72a2.575,2.575,0,0,1-3.417,2.431,2.574,2.574,0,0,0,0-4.862,2.575,2.575,0,0,1,3.417,2.431Z" transform="translate(-143.124 -11.774)" fill="#3ec3a4"/>
        </g>
        <g id="Grupo_1103879" data-name="Grupo 1103879" transform="translate(0 0)">
          <path id="Trazado_879043-2" data-name="Trazado 879043" d="M269.8,26.015a.6.6,0,0,1-.528-.894,3.638,3.638,0,0,0,.466-1.771,5.46,5.46,0,0,0-1.895-4.135.928.928,0,0,1-.14-1.254,4.5,4.5,0,0,0,.906-2.723,4.565,4.565,0,0,0-3.893-4.5.923.923,0,0,1-.744-1.208A4.263,4.263,0,0,0,258.5,4.169a.925.925,0,0,1-1.206-.649,3.061,3.061,0,0,0-2.963-2.313,3,3,0,0,0-2.137.9,3.181,3.181,0,0,0-.936,2.234v7.934a.6.6,0,1,1-1.206,0V4.337a4.4,4.4,0,0,1,1.291-3.088A4.2,4.2,0,0,1,254.335,0a4.267,4.267,0,0,1,4.047,2.939A5.473,5.473,0,0,1,265.215,9.6a5.782,5.782,0,0,1,4.605,5.636,5.7,5.7,0,0,1-.995,3.233,6.664,6.664,0,0,1,2.123,4.878,4.831,4.831,0,0,1-.615,2.353A.6.6,0,0,1,269.8,26.015Z" transform="translate(-230.113 0)"/>
          <path id="Trazado_879044" data-name="Trazado 879044" d="M255.656,348.2a5.522,5.522,0,0,1-3.917-1.638,5.668,5.668,0,0,1-1.687-4.038v-6.6a.6.6,0,1,1,1.206,0v6.6a4.47,4.47,0,0,0,1.332,3.183,4.325,4.325,0,0,0,3.079,1.286,4.409,4.409,0,0,0,3.992-2.59.928.928,0,0,1,1.129-.5,4.38,4.38,0,0,0,5.706-4.176,5.683,5.683,0,0,0-1.773-3.115.924.924,0,0,1,.421-1.506,8.647,8.647,0,0,0,2.381-1.126.6.6,0,1,1,.683.994,9.763,9.763,0,0,1-2.3,1.154,6.051,6.051,0,0,1,1.8,3.6,5.587,5.587,0,0,1-7.047,5.393,5.619,5.619,0,0,1-4.983,3.08Z" transform="translate(-230.113 -307.017)"/>
          <path id="Trazado_879045" data-name="Trazado 879045" d="M353.608,279.833a.6.6,0,0,1-.568-.4c-.192-.541-1.381-.968-3.028-1.087a.6.6,0,1,1,.087-1.2c1.6.115,3.6.536,4.078,1.886a.6.6,0,0,1-.568.805Z" transform="translate(-321.518 -254.85)"/>
          <path id="Trazado_879046" data-name="Trazado 879046" d="M182.349,12.875a.6.6,0,0,1-.6-.6v-8a3.068,3.068,0,0,0-3.064-3.064,3.022,3.022,0,0,0-1.926.682.6.6,0,1,1-.761-.936,4.27,4.27,0,0,1,6.958,3.319v8A.6.6,0,0,1,182.349,12.875Z" transform="translate(-161.807 0)"/>
          <path id="Trazado_879047" data-name="Trazado 879047" d="M77.514,39a.6.6,0,0,1-.577-.781,5.488,5.488,0,0,1,4.429-3.8.6.6,0,0,1,.175,1.194,4.276,4.276,0,0,0-3.45,2.96A.6.6,0,0,1,77.514,39Z" transform="translate(-70.896 -31.642)"/>
          <path id="Trazado_879048" data-name="Trazado 879048" d="M19.969,135.046a.6.6,0,0,1-.593-.494,5.755,5.755,0,0,1,2.477-5.832.6.6,0,1,1,.668,1,4.548,4.548,0,0,0-1.958,4.609.6.6,0,0,1-.594.712Z" transform="translate(-17.903 -118.274)"/>
          <path id="Trazado_879049" data-name="Trazado 879049" d="M8.139,255.376a.6.6,0,0,1-.355-.116,5.577,5.577,0,0,1-2.542-4.465,6.668,6.668,0,0,1,.785-3.138.6.6,0,0,1,1.064.57,5.457,5.457,0,0,0-.642,2.568,4.434,4.434,0,0,0,2.046,3.491.6.6,0,0,1-.356,1.091Z" transform="translate(-4.992 -227.445)"/>
          <path id="Trazado_879050" data-name="Trazado 879050" d="M50.355,392.288a.612.612,0,0,1-.1-.008,5.564,5.564,0,0,1-4.675-5.513,3.5,3.5,0,0,1,.322-1.376.6.6,0,1,1,1.107.48,2.319,2.319,0,0,0-.222.9,4.362,4.362,0,0,0,3.664,4.322.6.6,0,0,1-.1,1.2Z" transform="translate(-42.088 -354.061)"/>
          <path id="Trazado_879051" data-name="Trazado 879051" d="M154.472,487.213h-.043a5.564,5.564,0,0,1-2.9-1.062.6.6,0,0,1,.713-.974,4.359,4.359,0,0,0,2.273.832.6.6,0,0,1-.042,1.2Z" transform="translate(-139.286 -446.047)"/>
          <path id="Trazado_879052" data-name="Trazado 879052" d="M218.294,364.175a.6.6,0,0,1-.29-1.133,4.4,4.4,0,0,0,2.289-3.859v-6.67a.6.6,0,0,1,1.206,0v6.67a5.6,5.6,0,0,1-2.916,4.917A.6.6,0,0,1,218.294,364.175Z" transform="translate(-200.354 -323.606)"/>
          <path id="Trazado_879053" data-name="Trazado 879053" d="M337.8,175.833q-.1,0-.207,0a.6.6,0,1,1,.042-1.206,2,2,0,0,0,1.414-.334.811.811,0,0,0,.21-.621.6.6,0,1,1,1.206-.011,2,2,0,0,1-.575,1.5A2.9,2.9,0,0,1,337.8,175.833Z" transform="translate(-310.078 -159.141)"/>
          <path id="Elipse_11687-2" data-name="Elipse 11687" d="M-4.324-7.5A3.18,3.18,0,0,1-1.148-4.324,3.18,3.18,0,0,1-4.324-1.148,3.18,3.18,0,0,1-7.5-4.324,3.18,3.18,0,0,1-4.324-7.5Zm0,5.146a1.972,1.972,0,0,0,1.97-1.97,1.972,1.972,0,0,0-1.97-1.97,1.972,1.972,0,0,0-1.97,1.97A1.972,1.972,0,0,0-4.324-2.354Z" transform="translate(15.161 42.065)"/>
          <path id="Línea_4307" data-name="Línea 4307" d="M-1.091-1.834a.6.6,0,0,1-.367-.125l-5.806-4.46a.6.6,0,0,1-.111-.846.6.6,0,0,1,.846-.111l5.806,4.46a.6.6,0,0,1,.111.846A.6.6,0,0,1-1.091-1.834Z" transform="translate(15.195 17.762)"/>
          <path id="Línea_4308" data-name="Línea 4308" d="M-6.9-3.173A.6.6,0,0,1-7.434-3.5a.6.6,0,0,1,.259-.813L-1.13-7.434a.6.6,0,0,1,.813.259.6.6,0,0,1-.259.813L-6.621-3.241A.6.6,0,0,1-6.9-3.173Z" transform="translate(14.212 31.68)"/>
          <path id="Línea_4309" data-name="Línea 4309" d="M-.352-5.4a.608.608,0,0,1-.082-.006L-6.979-6.3A.6.6,0,0,1-7.5-6.979.6.6,0,0,1-6.816-7.5L-.272-6.6a.6.6,0,0,1,.516.679A.6.6,0,0,1-.352-5.4Z" transform="translate(12.623 25.735)"/>
          <path id="Trazado_879054" data-name="Trazado 879054" d="M288.184,128.672a.6.6,0,0,1-.5-.943,5.5,5.5,0,0,1,4.875-2.417.6.6,0,0,1-.018,1.206,4.307,4.307,0,0,0-3.86,1.891A.6.6,0,0,1,288.184,128.672Z" transform="translate(-264.623 -115.232)"/>
          <path id="Línea_4310" data-name="Línea 4310" d="M-6.9,1.015A.6.6,0,0,1-7.241.907a.6.6,0,0,1-.151-.84l5.075-7.309a.6.6,0,0,1,.84-.151.6.6,0,0,1,.151.84L-6.4.756A.6.6,0,0,1-6.9,1.015Z" transform="translate(19.042 35.113)"/>
          <path id="Línea_4311" data-name="Línea 4311" d="M-3.5.634A.6.6,0,0,1-4.046.3L-7.44-6.633a.6.6,0,0,1,.276-.807.6.6,0,0,1,.807.276L-2.963-.235a.6.6,0,0,1-.276.807A.6.6,0,0,1-3.5.634Z" transform="translate(21.154 12.758)"/>
          <path id="Elipse_11688-2" data-name="Elipse 11688" d="M1.421-7.5a8.931,8.931,0,0,1,8.921,8.921,8.931,8.931,0,0,1-8.921,8.921A8.931,8.931,0,0,1-7.5,1.421,8.931,8.931,0,0,1,1.421-7.5Zm0,16.635A7.723,7.723,0,0,0,9.135,1.421,7.723,7.723,0,0,0,1.421-6.294,7.723,7.723,0,0,0-6.294,1.421,7.723,7.723,0,0,0,1.421,9.135Z" transform="translate(19.122 19.169)"/>
          <path id="Trazado_879055" data-name="Trazado 879055" d="M253.99,390.323a6.993,6.993,0,0,1-3.665-1.157.6.6,0,0,1,.672-1c.129.086,3.178,2.082,5.186.075a.6.6,0,1,1,.853.853A4.174,4.174,0,0,1,253.99,390.323Z" transform="translate(-230.119 -356.851)"/>
          <path id="Trazado_879056" data-name="Trazado 879056" d="M396.031,193.954a.6.6,0,0,1-.486-.96,2.571,2.571,0,0,0,.662-1.91,1.212,1.212,0,0,0-.532-.759.607.607,0,0,1-.229-.819.6.6,0,0,1,.81-.239,2.4,2.4,0,0,1,1.125,1.535,3.612,3.612,0,0,1-.863,2.9A.6.6,0,0,1,396.031,193.954Z" transform="translate(-363.743 -173.979)"/>
          <path id="Trazado_879057" data-name="Trazado 879057" d="M301.907,404.577a3.483,3.483,0,0,1-3.608-3,.6.6,0,1,1,1.178-.259,2.4,2.4,0,0,0,3.034,2.008.6.6,0,1,1,.165,1.2A5.613,5.613,0,0,1,301.907,404.577Z" transform="translate(-274.466 -368.606)"/>
          <path id="Trazado_879058" data-name="Trazado 879058" d="M363.684,337.66a.6.6,0,0,1-.532-.318c-1.383-2.577-.011-4.232.908-4.747a.6.6,0,0,1,.594,1.05c-.168.1-1.577,1.007-.439,3.127a.6.6,0,0,1-.531.889Z" transform="translate(-333.575 -305.774)"/>
          <path id="Trazado_879059" data-name="Trazado 879059" d="M406.587,189.094a.6.6,0,0,1-.135-1.191,1.825,1.825,0,0,0,1.158-.638.731.731,0,0,0,.042-.615.6.6,0,0,1,1.163-.322,1.954,1.954,0,0,1-.168,1.554,2.966,2.966,0,0,1-1.924,1.2A.6.6,0,0,1,406.587,189.094Z" transform="translate(-373.503 -170.935)"/>
          <g id="Grupo_1103877" data-name="Grupo 1103877" transform="translate(15.747 16.712)">
            <path id="Trazado_879060" data-name="Trazado 879060" d="M203.783,215.642a.6.6,0,0,1-.564-.39l-2.05-5.432-2.069,5.434a.6.6,0,1,1-1.127-.429l2.5-6.553a.754.754,0,0,1,1.4-.015l2.48,6.57a.6.6,0,0,1-.564.816Z" transform="translate(-197.932 -207.789)"/>
            <path id="Línea_4312" data-name="Línea 4312" d="M-3.193-6.294H-6.9a.6.6,0,0,1-.6-.6.6.6,0,0,1,.6-.6h3.7a.6.6,0,0,1,.6.6A.6.6,0,0,1-3.193-6.294Z" transform="translate(8.278 12.514)"/>
          </g>
          <g id="Grupo_1103878" data-name="Grupo 1103878" transform="translate(23.167 16.614)">
            <path id="Línea_4313" data-name="Línea 4313" d="M-6.9.353a.6.6,0,0,1-.6-.6V-6.9a.6.6,0,0,1,.6-.6.6.6,0,0,1,.6.6V-.25A.6.6,0,0,1-6.9.353Z" transform="translate(7.5 7.5)"/>
          </g>
          <path id="Trazado_879061" data-name="Trazado 879061" d="M253.951,68.6A7.226,7.226,0,0,1,250.32,67.4a.6.6,0,0,1,.683-.994,5.426,5.426,0,0,0,3.637.9,2.856,2.856,0,0,0,1.85-1.547.6.6,0,1,1,1.057.581,4.045,4.045,0,0,1-2.634,2.14A4.172,4.172,0,0,1,253.951,68.6Z" transform="translate(-230.119 -60.188)"/>
          <path id="Trazado_879062" data-name="Trazado 879062" d="M286.6,54.442a.6.6,0,0,1-.565-.813h0c.006-.017.618-1.72-.387-2.481a.6.6,0,1,1,.729-.962c1.723,1.306.828,3.761.789,3.865A.6.6,0,0,1,286.6,54.442Z" transform="translate(-262.621 -46.036)"/>
          <path id="Trazado_879063" data-name="Trazado 879063" d="M321.151,81.06a3.358,3.358,0,0,1-2.117-1.2.6.6,0,0,1,.913-.788c.325.374.966.864,1.277.773A.6.6,0,0,1,321.563,81,1.46,1.46,0,0,1,321.151,81.06Z" transform="translate(-293.412 -72.52)"/>
          <path id="Trazado_879064" data-name="Trazado 879064" d="M389.073,277.931a.6.6,0,0,1-.491-.952c.131-.184,1.319-1.783,2.624-1.13a.6.6,0,0,1-.54,1.079c-.275-.138-.855.408-1.1.751A.6.6,0,0,1,389.073,277.931Z" transform="translate(-357.398 -253.519)"/>
          <path id="Trazado_879065" data-name="Trazado 879065" d="M380.609,399.207l-.159,0A.6.6,0,0,1,380.48,398a2.131,2.131,0,0,0,1.574-.418.824.824,0,0,0,.233-.576.609.609,0,0,1,.557-.641.6.6,0,0,1,.645.538,2.016,2.016,0,0,1-.54,1.49A3.068,3.068,0,0,1,380.609,399.207Z" transform="translate(-349.482 -364.484)"/>
          <path id="Trazado_879066" data-name="Trazado 879066" d="M382.921,118.158a.6.6,0,0,1-.207-.037c-2.292-.837-2.352-2.642-2.064-3.48a.6.6,0,0,1,1.143.387c-.071.223-.333,1.351,1.335,1.959a.6.6,0,0,1-.207,1.17Z" transform="translate(-350.095 -105.046)"/>
          <path id="Elipse_11689" data-name="Elipse 11689" d="M-4.324-7.5A3.18,3.18,0,0,1-1.148-4.324,3.18,3.18,0,0,1-4.324-1.148,3.18,3.18,0,0,1-7.5-4.324,3.18,3.18,0,0,1-4.324-7.5Zm0,5.146a1.972,1.972,0,0,0,1.97-1.97,1.972,1.972,0,0,0-1.97-1.97,1.972,1.972,0,0,0-1.97,1.97A1.972,1.972,0,0,0-4.324-2.354Z" transform="translate(9.351 33.408)"/>
          <path id="Elipse_11690" data-name="Elipse 11690" d="M-4.324-7.5A3.18,3.18,0,0,1-1.148-4.324,3.18,3.18,0,0,1-4.324-1.148,3.18,3.18,0,0,1-7.5-4.324,3.18,3.18,0,0,1-4.324-7.5Zm0,5.146a1.972,1.972,0,0,0,1.97-1.97,1.972,1.972,0,0,0-1.97-1.97,1.972,1.972,0,0,0-1.97,1.97A1.972,1.972,0,0,0-4.324-2.354Z" transform="translate(7.5 22.814)"/>
          <path id="Elipse_11691" data-name="Elipse 11691" d="M-4.324-7.5A3.18,3.18,0,0,1-1.148-4.324,3.18,3.18,0,0,1-4.324-1.148,3.18,3.18,0,0,1-7.5-4.324,3.18,3.18,0,0,1-4.324-7.5Zm0,5.146a1.972,1.972,0,0,0,1.97-1.97,1.972,1.972,0,0,0-1.97-1.97,1.972,1.972,0,0,0-1.97,1.97A1.972,1.972,0,0,0-4.324-2.354Z" transform="translate(10.582 13.622)"/>
          <path id="Elipse_11692" data-name="Elipse 11692" d="M-4.324-7.5A3.18,3.18,0,0,1-1.148-4.324,3.18,3.18,0,0,1-4.324-1.148,3.18,3.18,0,0,1-7.5-4.324,3.18,3.18,0,0,1-4.324-7.5Zm0,5.146a1.972,1.972,0,0,0,1.97-1.97,1.972,1.972,0,0,0-1.97-1.97,1.972,1.972,0,0,0-1.97,1.97A1.972,1.972,0,0,0-4.324-2.354Z" transform="translate(17.447 7.873)"/>
        </g>
      </g>
    </g>
  </g>
</svg>
