<svg xmlns="http://www.w3.org/2000/svg" width="190" height="111.641" viewBox="0 0 190 111.641">
  <g id="Grupo_1104803" data-name="Grupo 1104803" transform="translate(-390.332 -1103.359)">
    <rect id="Rectángulo_404091" data-name="Rectángulo 404091" width="190" height="72" rx="10" transform="translate(390.332 1143)" fill="#005dff"/>
    <g id="inteligencia-artificial_3_" data-name="inteligencia-artificial (3)" transform="translate(435.088 1103.359)">
      <path id="Trazado_878063" data-name="Trazado 878063" d="M61.243,22a50.443,50.443,0,0,0-10.474,1.1L26.014,36.42a50.237,50.237,0,0,0,3.577,74.84l36.964,10.946A50.246,50.246,0,0,0,61.243,22Z" transform="translate(-10.998 -17.485)" fill="#4f08c2"/>
      <path id="Trazado_878064" data-name="Trazado 878064" d="M232.044,70.917a5.841,5.841,0,0,1-1.137-5.254,16.791,16.791,0,0,0,.884-6.653C229.9,40.045,212.4,26.526,192.846,26.526a37.9,37.9,0,0,0-4.583.279c-.154.034-.307.071-.461.107V42.075a6.679,6.679,0,0,0-2.553,8.436,76.445,76.445,0,0,1,3.795,12.708,5.209,5.209,0,0,0,.335,7.385V87.058a12.191,12.191,0,0,0-.828,5.564c.44,5.3,4.275,8.6,7.415,10.43a101.61,101.61,0,0,1,12.187,8.079,1.634,1.634,0,0,1,1.574-.279c3.49,1.059,5.908,2.567,9.971,2.386a6.665,6.665,0,0,0,5.177-2.941c2.4-3.513,1.728-6.805,1.842-7.889,0-3.123,2.462-4.439,3.3-5.462a2.429,2.429,0,0,0,.667-2.341l-.2-.774a.7.7,0,0,1,.235-.712l2.331-1.912a.891.891,0,0,0,.326-.689V87.171a.561.561,0,0,1,.378-.531c1.421-.493,6.362-2.351,6.362-4.366C240.125,80.97,235.853,75.518,232.044,70.917Z" transform="translate(-149.003 -21.086)" fill="#e8f8fc"/>
      <path id="Trazado_878065" data-name="Trazado 878065" d="M74.539,43.462V28.06a50.146,50.146,0,0,0-24.09,13.18,37.532,37.532,0,0,0,3.4,51.652,10.416,10.416,0,0,1,3.075,10.289l-2.894,12.9a50.033,50.033,0,0,0,31.652,11.225,50.845,50.845,0,0,0,5.312-.279c.027-3.452.043-7.537.046-7.648.068-2.078.976-2.522,3.172-6.591a1.627,1.627,0,0,1,.646-.616A100.872,100.872,0,0,0,82.55,104c-10.79-6.289-6.434-15.662-6.434-15.662V71.7a4.933,4.933,0,0,1-.31-7.17,77.386,77.386,0,0,0-3.845-12.92c-2.307-5.281,2.579-8.146,2.579-8.146Z" transform="translate(-35.433 -22.306)" fill="#ade9f7"/>
      <g id="Grupo_1103003" data-name="Grupo 1103003" transform="translate(56.031 33.223)">
        <path id="Trazado_878066" data-name="Trazado 878066" d="M296,166.1h-9.737a2.051,2.051,0,1,1,0-4.1H296a2.051,2.051,0,1,1,0,4.1Z" transform="translate(-284.215 -162.003)" fill="#1d8df2"/>
      </g>
      <g id="Grupo_1103004" data-name="Grupo 1103004" transform="translate(65.175 30.672)">
        <ellipse id="Elipse_11636" data-name="Elipse 11636" cx="4.602" cy="4.602" rx="4.602" ry="4.602" fill="#3feadd"/>
      </g>
      <path id="Trazado_878067" data-name="Trazado 878067" d="M293.949,89.661l-1.9,2.069h-5.713a2.1,2.1,0,0,0-2.117,1.914,2.051,2.051,0,0,0,2.046,2.187h6.684a2.051,2.051,0,0,0,1.51-.664l2.639-2.874A4.61,4.61,0,0,1,293.949,89.661Z" transform="translate(-228.184 -71.273)" fill="#1d8df2"/>
      <g id="Grupo_1103005" data-name="Grupo 1103005" transform="translate(65.175 12.148)">
        <ellipse id="Elipse_11637" data-name="Elipse 11637" cx="4.602" cy="4.602" rx="4.602" ry="4.602" fill="#fef156"/>
      </g>
      <path id="Trazado_878068" data-name="Trazado 878068" d="M293.949,230.425l-1.9-2.069h-5.713a2.1,2.1,0,0,1-2.117-1.914,2.051,2.051,0,0,1,2.046-2.187h6.684a2.051,2.051,0,0,1,1.51.664l2.639,2.874A4.61,4.61,0,0,0,293.949,230.425Z" transform="translate(-228.184 -178.264)" fill="#1d8df2"/>
      <g id="Grupo_1103006" data-name="Grupo 1103006" transform="translate(65.175 49.196)">
        <ellipse id="Elipse_11638" data-name="Elipse 11638" cx="4.602" cy="4.602" rx="4.602" ry="4.602" fill="#ae79fd"/>
      </g>
      <g id="Grupo_1103007" data-name="Grupo 1103007" transform="translate(8.343 33.223)">
        <path id="Trazado_878069" data-name="Trazado 878069" d="M53.729,166.1h9.736a2.051,2.051,0,1,0,0-4.1H53.729a2.051,2.051,0,1,0,0,4.1Z" transform="translate(-51.678 -162.003)" fill="#1d8df2"/>
      </g>
      <g id="Grupo_1103008" data-name="Grupo 1103008" transform="translate(3.831 30.672)">
        <ellipse id="Elipse_11639" data-name="Elipse 11639" cx="4.602" cy="4.602" rx="4.602" ry="4.602" fill="#3feadd"/>
      </g>
      <path id="Trazado_878070" data-name="Trazado 878070" d="M59.476,89.661l1.9,2.069H67.09a2.1,2.1,0,0,1,2.117,1.914,2.051,2.051,0,0,1-2.046,2.187H60.476a2.051,2.051,0,0,1-1.51-.664l-2.639-2.874A4.61,4.61,0,0,0,59.476,89.661Z" transform="translate(-47.03 -71.273)" fill="#1d8df2"/>
      <g id="Grupo_1103009" data-name="Grupo 1103009" transform="translate(3.831 12.148)">
        <ellipse id="Elipse_11640" data-name="Elipse 11640" cx="4.602" cy="4.602" rx="4.602" ry="4.602" fill="#ae79fd"/>
      </g>
      <path id="Trazado_878071" data-name="Trazado 878071" d="M59.476,230.425l1.9-2.069H67.09a2.1,2.1,0,0,0,2.117-1.914,2.051,2.051,0,0,0-2.046-2.187H60.476a2.051,2.051,0,0,0-1.51.664l-2.639,2.874A4.61,4.61,0,0,1,59.476,230.425Z" transform="translate(-47.03 -178.264)" fill="#1d8df2"/>
      <g id="Grupo_1103010" data-name="Grupo 1103010" transform="translate(3.831 49.196)">
        <ellipse id="Elipse_11641" data-name="Elipse 11641" cx="4.602" cy="4.602" rx="4.602" ry="4.602" fill="#fef156"/>
      </g>
      <g id="Grupo_1103011" data-name="Grupo 1103011" transform="translate(37.055 52.199)">
        <path id="Trazado_878072" data-name="Trazado 878072" d="M191.685,266.32v-9.737a2.051,2.051,0,0,1,4.1,0v9.737a2.051,2.051,0,0,1-4.1,0Z" transform="translate(-191.685 -254.533)" fill="#1d8df2"/>
      </g>
      <g id="Grupo_1103012" data-name="Grupo 1103012" transform="translate(34.504 61.344)">
        <ellipse id="Elipse_11642" data-name="Elipse 11642" cx="4.602" cy="4.602" rx="4.602" ry="4.602" fill="#3feadd"/>
      </g>
      <path id="Trazado_878073" data-name="Trazado 878073" d="M260.107,264.267l-2.069-1.9v-5.713a2.1,2.1,0,0,0-1.914-2.117,2.051,2.051,0,0,0-2.187,2.046v6.684a2.051,2.051,0,0,0,.664,1.51l2.874,2.639A4.61,4.61,0,0,1,260.107,264.267Z" transform="translate(-204.115 -202.333)" fill="#1d8df2"/>
      <g id="Grupo_1103013" data-name="Grupo 1103013" transform="translate(53.028 61.344)">
        <ellipse id="Elipse_11643" data-name="Elipse 11643" cx="4.602" cy="4.602" rx="4.602" ry="4.602" fill="#fef156"/>
      </g>
      <path id="Trazado_878074" data-name="Trazado 878074" d="M119.343,264.267l2.069-1.9v-5.713a2.1,2.1,0,0,1,1.914-2.117,2.051,2.051,0,0,1,2.187,2.046v6.684a2.051,2.051,0,0,1-.664,1.51l-2.874,2.639A4.611,4.611,0,0,0,119.343,264.267Z" transform="translate(-97.124 -202.333)" fill="#1d8df2"/>
      <g id="Grupo_1103014" data-name="Grupo 1103014" transform="translate(15.979 61.344)">
        <ellipse id="Elipse_11644" data-name="Elipse 11644" cx="4.602" cy="4.602" rx="4.602" ry="4.602" fill="#ae79fd"/>
      </g>
      <g id="Grupo_1103015" data-name="Grupo 1103015" transform="translate(37.055 4.511)">
        <path id="Trazado_878075" data-name="Trazado 878075" d="M191.685,24.047v9.736a2.051,2.051,0,0,0,4.1,0V24.047a2.051,2.051,0,0,0-4.1,0Z" transform="translate(-191.685 -21.996)" fill="#1d8df2"/>
      </g>
      <g id="Grupo_1103016" data-name="Grupo 1103016" transform="translate(34.504 0)">
        <ellipse id="Elipse_11645" data-name="Elipse 11645" cx="4.602" cy="4.602" rx="4.602" ry="4.602" fill="#3feadd"/>
      </g>
      <path id="Trazado_878076" data-name="Trazado 878076" d="M260.107,29.794l-2.069,1.9v5.713a2.1,2.1,0,0,1-1.914,2.117,2.051,2.051,0,0,1-2.187-2.046V30.794a2.051,2.051,0,0,1,.664-1.51l2.874-2.639A4.61,4.61,0,0,0,260.107,29.794Z" transform="translate(-204.115 -21.18)" fill="#1d8df2"/>
      <g id="Grupo_1103017" data-name="Grupo 1103017" transform="translate(53.028 0)">
        <ellipse id="Elipse_11646" data-name="Elipse 11646" cx="4.602" cy="4.602" rx="4.602" ry="4.602" fill="#ae79fd"/>
      </g>
      <path id="Trazado_878077" data-name="Trazado 878077" d="M119.343,29.794l2.069,1.9v5.713a2.1,2.1,0,0,0,1.914,2.117,2.051,2.051,0,0,0,2.187-2.046V30.794a2.051,2.051,0,0,0-.664-1.51l-2.874-2.639A4.61,4.61,0,0,1,119.343,29.794Z" transform="translate(-97.124 -21.18)" fill="#1d8df2"/>
      <g id="Grupo_1103018" data-name="Grupo 1103018" transform="translate(15.979 0)">
        <ellipse id="Elipse_11647" data-name="Elipse 11647" cx="4.602" cy="4.602" rx="4.602" ry="4.602" fill="#fef156"/>
      </g>
      <path id="Trazado_878078" data-name="Trazado 878078" d="M156.342,131.4a4.626,4.626,0,0,0,4.626-4.626V107.787a4.626,4.626,0,0,0-4.626-4.626H137.28a4.626,4.626,0,0,0-4.626,4.626v18.984a4.626,4.626,0,0,0,4.626,4.626Z" transform="translate(-107.705 -82.005)" fill="#ae79fd"/>
      <path id="Trazado_878079" data-name="Trazado 878079" d="M137.28,131.4h11.108a4.933,4.933,0,0,1-.311-7.17,77.384,77.384,0,0,0-3.845-12.92c-2.307-5.281,2.578-8.146,2.578-8.146H137.28a4.626,4.626,0,0,0-4.626,4.626v18.984A4.626,4.626,0,0,0,137.28,131.4Z" transform="translate(-107.705 -82.005)" fill="#9c58fe"/>
      <g id="Grupo_1103021" data-name="Grupo 1103021" transform="translate(29.081 27.209)">
        <g id="Grupo_1103019" data-name="Grupo 1103019">
          <path id="Trazado_878080" data-name="Trazado 878080" d="M164.322,148.4a1.539,1.539,0,0,1-1.439-1l-3.536-9.37-3.57,9.374a1.538,1.538,0,1,1-2.875-1.095l4.748-12.466.014-.035a1.819,1.819,0,0,1,1.687-1.134h0a1.818,1.818,0,0,1,1.687,1.13l.017.042,4.7,12.466a1.539,1.539,0,0,1-1.439,2.082Z" transform="translate(-152.8 -132.676)" fill="#2fd0e2"/>
        </g>
        <g id="Grupo_1103020" data-name="Grupo 1103020" transform="translate(1.481 9.539)">
          <path id="Trazado_878081" data-name="Trazado 878081" d="M168.605,182.267H161.56a1.538,1.538,0,0,1,0-3.076h7.045a1.538,1.538,0,0,1,0,3.076Z" transform="translate(-160.022 -179.191)" fill="#2fd0e2"/>
        </g>
      </g>
      <g id="Grupo_1103023" data-name="Grupo 1103023" transform="translate(44.041 27.209)">
        <g id="Grupo_1103022" data-name="Grupo 1103022">
          <path id="Trazado_878082" data-name="Trazado 878082" d="M227.288,148.4a1.538,1.538,0,0,1-1.538-1.538V134.214a1.538,1.538,0,0,1,3.076,0v12.644A1.538,1.538,0,0,1,227.288,148.4Z" transform="translate(-225.75 -132.676)" fill="#3feadd"/>
        </g>
      </g>
    </g>
    <g id="Polígono_5" data-name="Polígono 5" transform="matrix(0.602, 0.799, -0.799, 0.602, 439.384, 1160.359)" fill="none">
      <path d="M16,0,32,28H0Z" stroke="none"/>
      <path d="M 15.99999904632568 6.046697616577148 L 5.169540405273438 25 L 26.83045768737793 25 L 15.99999904632568 6.046697616577148 M 15.99999904632568 0 L 32 28 L -1.9073486328125e-06 28 L 15.99999904632568 0 Z" stroke="none" fill="#ffd504"/>
    </g>
  </g>
</svg>
