<svg xmlns="http://www.w3.org/2000/svg" xmlns:xlink="http://www.w3.org/1999/xlink" width="85" height="85" viewBox="0 0 85 85">
  <defs>
    <clipPath id="clip-path">
      <rect id="Rectángulo_404661" data-name="Rectángulo 404661" width="52" height="52" transform="translate(301.855 4441)" fill="#fff" stroke="#707070" stroke-width="1"/>
    </clipPath>
  </defs>
  <g id="Grupo_1105654" data-name="Grupo 1105654" transform="translate(-284.855 -4424)">
    <g id="Grupo_156312" data-name="Grupo 156312" transform="translate(284.855 4424)">
      <path id="Elipse_5845" data-name="Elipse 5845" d="M42.5,0A42.5,42.5,0,1,1,0,42.5,42.5,42.5,0,0,1,42.5,0Z" transform="translate(0 0)" fill="#4f08c2"/>
    </g>
    <g id="Enmascarar_grupo_1098922" data-name="Enmascarar grupo 1098922" clip-path="url(#clip-path)">
      <g id="mensaje" transform="translate(300.942 4440.158)">
        <path id="Trazado_881270" data-name="Trazado 881270" d="M24.305,52.466A23.395,23.395,0,0,1,13.263,8.449a.787.787,0,0,1,.744,1.386A21.821,21.821,0,1,0,42.795,40.664a.787.787,0,1,1,1.332.837A23.376,23.376,0,0,1,24.305,52.466Z" fill="#fff"/>
        <path id="Trazado_881271" data-name="Trazado 881271" d="M46.857,31.43l-.055,0a.787.787,0,0,1-.731-.838c.034-.5.052-1.011.052-1.515A21.85,21.85,0,0,0,43.515,18.72a.787.787,0,0,1,1.384-.748,23.428,23.428,0,0,1,2.8,11.1c0,.54-.019,1.086-.055,1.623A.787.787,0,0,1,46.857,31.43Z" fill="#fff"/>
        <path id="Trazado_881272" data-name="Trazado 881272" d="M34.354,9.607A.783.783,0,0,1,34,9.525a21.643,21.643,0,0,0-6.67-2.06.787.787,0,0,1,.216-1.558A23.213,23.213,0,0,1,34.7,8.116a.787.787,0,0,1-.351,1.491Z" fill="#fff"/>
        <g id="Grupo_1105627" data-name="Grupo 1105627">
          <g id="Grupo_1105626" data-name="Grupo 1105626">
            <path id="Trazado_881273" data-name="Trazado 881273" d="M27.31,39.12H14.093a8.108,8.108,0,0,1-8.1-8.1V29.292A13.183,13.183,0,0,1,19.177,16.109h3.05A13.183,13.183,0,0,1,35.41,29.292v1.729A8.109,8.109,0,0,1,27.31,39.12ZM19.177,17.682a11.623,11.623,0,0,0-11.61,11.61v1.729a6.533,6.533,0,0,0,6.526,6.526H27.31a6.534,6.534,0,0,0,6.526-6.526V29.292a11.623,11.623,0,0,0-11.61-11.61Z" fill="#fff"/>
            <path id="Trazado_881274" data-name="Trazado 881274" d="M28.186,35.633a.787.787,0,1,1,0-1.573,1.587,1.587,0,0,0,1.37-1.735v-2.3c0-3.724-2.541-6.755-5.665-6.755h-6.38c-3.124,0-5.665,3.03-5.665,6.755v2.3a1.587,1.587,0,0,0,1.37,1.735.787.787,0,1,1,0,1.573,3.145,3.145,0,0,1-2.943-3.308v-2.3a8.964,8.964,0,0,1,2.078-5.844,6.754,6.754,0,0,1,5.159-2.484h6.38a6.754,6.754,0,0,1,5.159,2.484,8.964,8.964,0,0,1,2.078,5.844v2.3A3.145,3.145,0,0,1,28.186,35.633Z" fill="#fff"/>
            <g id="Grupo_1105625" data-name="Grupo 1105625">
              <circle id="Elipse_11883" data-name="Elipse 11883" cx="1.236" cy="1.236" r="1.236" transform="translate(24.09 28.325)" fill="#fff"/>
              <circle id="Elipse_11884" data-name="Elipse 11884" cx="1.236" cy="1.236" r="1.236" transform="translate(14.841 28.325)" fill="#fff"/>
              <path id="Trazado_881275" data-name="Trazado 881275" d="M18.307,31.722H23.1a.787.787,0,0,1,.787.787,3.182,3.182,0,1,1-6.363,0A.787.787,0,0,1,18.307,31.722Zm3.8,1.573H19.3a1.608,1.608,0,0,0,2.806,0Z" fill="#fff"/>
            </g>
            <path id="Trazado_881276" data-name="Trazado 881276" d="M20.7,17.682a.787.787,0,0,1-.787-.787V12.363a.787.787,0,1,1,1.573,0V16.9A.787.787,0,0,1,20.7,17.682Z" fill="#fff"/>
          </g>
          <path id="Trazado_881277" data-name="Trazado 881277" d="M20.7,13.149a.784.784,0,0,1-.539-.214l-2.8-2.634a2.488,2.488,0,0,1,0-3.654A2.761,2.761,0,0,1,20.7,6.333a2.761,2.761,0,0,1,3.336.315,2.488,2.488,0,0,1,0,3.654l-2.8,2.634A.784.784,0,0,1,20.7,13.149ZM19.237,7.487a1.148,1.148,0,0,0-.792.306.916.916,0,0,0,0,1.363L20.7,11.282l2.257-2.126a.916.916,0,0,0,0-1.363,1.18,1.18,0,0,0-1.585,0l-.133.126a.787.787,0,0,1-1.078,0l-.133-.126A1.148,1.148,0,0,0,19.237,7.487Z" fill="#fff"/>
        </g>
        <g id="Grupo_1105628" data-name="Grupo 1105628">
          <path id="Trazado_881278" data-name="Trazado 881278" d="M32.048,17.845a.787.787,0,0,1-.652-1.227l2.266-3.356v-7.2a4.851,4.851,0,0,1,4.846-4.846h9.56a4.851,4.851,0,0,1,4.846,4.846v5.364a4.851,4.851,0,0,1-4.846,4.846h-10.5l-5.3,1.539A.786.786,0,0,1,32.048,17.845Zm6.46-15.053a3.276,3.276,0,0,0-3.273,3.273V13.5a.786.786,0,0,1-.135.44L33.916,15.7l3.324-.964a.786.786,0,0,1,.219-.031H48.068a3.276,3.276,0,0,0,3.273-3.273V6.065a3.276,3.276,0,0,0-3.273-3.273Z" fill="#fff"/>
          <path id="Trazado_881279" data-name="Trazado 881279" d="M42.059,38.75A4.115,4.115,0,0,1,38.9,32l.846-1.015a2.1,2.1,0,0,1,2.953-.268.787.787,0,0,1-1.007,1.208.524.524,0,0,0-.738.067l-.846,1.015a2.543,2.543,0,1,0,3.907,3.256l.846-1.015a.524.524,0,0,0-.067-.738A.787.787,0,0,1,45.8,33.3a2.1,2.1,0,0,1,.268,2.953l-.846,1.015A4.11,4.11,0,0,1,42.059,38.75Z" fill="#fff"/>
          <path id="Trazado_881280" data-name="Trazado 881280" d="M29.483,44.877a.787.787,0,0,1-.07-1.57l2.427-.22a5.618,5.618,0,0,0,3.833-2.012l3.654-4.385A.787.787,0,1,1,40.535,37.7L36.88,42.082a7.181,7.181,0,0,1-4.9,2.571l-2.427.22Q29.518,44.877,29.483,44.877Z" fill="#fff"/>
          <path id="Trazado_881281" data-name="Trazado 881281" d="M28.827,51.853a.787.787,0,0,1-.787-.787V39.12H13.363v9.073a.787.787,0,0,1-1.573,0V38.333a.787.787,0,0,1,.787-.787h16.25a.787.787,0,0,1,.787.787V51.066A.787.787,0,0,1,28.827,51.853Z" fill="#fff"/>
        </g>
        <g id="Grupo_1105629" data-name="Grupo 1105629">
          <circle id="Elipse_11885" data-name="Elipse 11885" cx="1.236" cy="1.236" r="1.236" transform="translate(38.231 7.585)" fill="#fff"/>
          <circle id="Elipse_11886" data-name="Elipse 11886" cx="1.236" cy="1.236" r="1.236" transform="translate(42.225 7.585)" fill="#fff"/>
          <circle id="Elipse_11887" data-name="Elipse 11887" cx="1.236" cy="1.236" r="1.236" transform="translate(46.219 7.585)" fill="#fff"/>
        </g>
      </g>
    </g>
  </g>
</svg>
