<svg xmlns="http://www.w3.org/2000/svg" xmlns:xlink="http://www.w3.org/1999/xlink" width="85" height="85" viewBox="0 0 85 85">
  <defs>
    <clipPath id="clip-path">
      <rect id="Rectángulo_405018" data-name="Rectángulo 405018" width="52" height="52" transform="translate(301.855 4556.365)" fill="#fff" stroke="#707070" stroke-width="1"/>
    </clipPath>
  </defs>
  <g id="Grupo_1105653" data-name="Grupo 1105653" transform="translate(-285.145 -4541.365)">
    <g id="Grupo_156312" data-name="Grupo 156312" transform="translate(285.145 4541.365)">
      <path id="Elipse_5845" data-name="Elipse 5845" d="M42.5,0A42.5,42.5,0,1,1,0,42.5,42.5,42.5,0,0,1,42.5,0Z" transform="translate(0 0)" fill="#4f08c2"/>
    </g>
    <g id="Enmascarar_grupo_1098923" data-name="Enmascarar grupo 1098923" clip-path="url(#clip-path)">
      <g id="mensaje_1_" data-name="mensaje (1)" transform="translate(300.31 4554.862)">
        <g id="Grupo_1105632" data-name="Grupo 1105632">
          <path id="Trazado_881270" data-name="Trazado 881270" d="M31.986,37.687H18.434a3.617,3.617,0,0,1-3.613-3.613V31.507a9.214,9.214,0,0,1,9.2-9.2h8.306a9.205,9.205,0,0,1,9.107,7.868.8.8,0,0,1-1.593.232,7.629,7.629,0,0,0-7.514-6.49H24.024a7.6,7.6,0,0,0-7.593,7.593v2.566a2.005,2.005,0,0,0,2,2H31.986a.8.8,0,0,1,0,1.61Z" fill="#fff"/>
          <g id="Grupo_1105630" data-name="Grupo 1105630">
            <circle id="Elipse_11888" data-name="Elipse 11888" cx="1.609" cy="1.609" r="1.609" transform="translate(20.548 28.184)" fill="#fff"/>
            <circle id="Elipse_11889" data-name="Elipse 11889" cx="1.609" cy="1.609" r="1.609" transform="translate(32.589 28.184)" fill="#fff"/>
          </g>
          <g id="Grupo_1105631" data-name="Grupo 1105631">
            <path id="Trazado_881271" data-name="Trazado 881271" d="M31.986,43.5H18.859a9.613,9.613,0,0,1-9.334-7.321h-.13a3.016,3.016,0,0,1-3.013-3.013V28.543A3.016,3.016,0,0,1,9.395,25.53h1.161a15.737,15.737,0,0,1,14.425-9.446h6.393A15.737,15.737,0,0,1,45.8,25.53H46.96a3.016,3.016,0,0,1,3.013,3.013V31.4a.8.8,0,0,1-1.61,0V28.543a1.4,1.4,0,0,0-1.4-1.4H45.64a1.423,1.423,0,0,0-.234.02.8.8,0,0,1-.882-.5,14.044,14.044,0,0,0-13.15-8.966H24.981A14.044,14.044,0,0,0,11.83,26.66a.8.8,0,0,1-.882.5,1.423,1.423,0,0,0-.234-.02H9.395a1.4,1.4,0,0,0-1.4,1.4v4.624a1.4,1.4,0,0,0,1.4,1.4h.785a.8.8,0,0,1,.794.67,7.973,7.973,0,0,0,7.886,6.65H31.986a.8.8,0,0,1,0,1.61Z" fill="#fff"/>
            <path id="Trazado_881272" data-name="Trazado 881272" d="M45.643,30.8a.8.8,0,0,1-.8-.784,25.661,25.661,0,0,0-.357-3.5.8.8,0,0,1,1.583-.292,26.95,26.95,0,0,1,.383,3.755.8.8,0,0,1-.784.825Z" fill="#fff"/>
            <path id="Trazado_881273" data-name="Trazado 881273" d="M10.711,30.8H10.69a.8.8,0,0,1-.784-.825,26.95,26.95,0,0,1,.383-3.755.8.8,0,0,1,1.583.292h0a25.771,25.771,0,0,0-.357,3.5A.805.805,0,0,1,10.711,30.8Z" fill="#fff"/>
          </g>
        </g>
        <g id="Grupo_1105636" data-name="Grupo 1105636">
          <g id="Grupo_1105635" data-name="Grupo 1105635">
            <g id="Grupo_1105634" data-name="Grupo 1105634">
              <g id="Grupo_1105633" data-name="Grupo 1105633">
                <path id="Trazado_881274" data-name="Trazado 881274" d="M43.7,53.5a.8.8,0,0,1-.257-.042L41.483,52.8A9.518,9.518,0,0,1,35,43.773V36.03a.8.8,0,0,1,.546-.762l7.9-2.684a.8.8,0,0,1,.518,0l7.9,2.684a.8.8,0,0,1,.546.762v7.743A9.519,9.519,0,0,1,45.926,52.8l-1.964.662A.8.8,0,0,1,43.7,53.5Zm-7.093-16.9v7.166A7.91,7.91,0,0,0,42,51.273l1.707.576,1.707-.576a7.91,7.91,0,0,0,5.386-7.5V36.607L43.7,34.2Z" fill="#fff"/>
              </g>
            </g>
          </g>
          <path id="Trazado_881275" data-name="Trazado 881275" d="M42.534,46.337a.8.8,0,0,1-.569-.236l-1.8-1.8A.8.8,0,0,1,41.3,43.158l1.236,1.236,4.45-4.45a.8.8,0,0,1,1.138,1.138L43.1,46.1A.8.8,0,0,1,42.534,46.337Z" fill="#fff"/>
        </g>
        <g id="Grupo_1105638" data-name="Grupo 1105638">
          <path id="Trazado_881276" data-name="Trazado 881276" d="M10.534,21.068H8.947A6.271,6.271,0,0,1,2.684,14.8V7.767A6.271,6.271,0,0,1,8.947,1.5H22.826A6.271,6.271,0,0,1,29.09,7.767v6.071a.8.8,0,1,1-1.61,0V7.767a4.659,4.659,0,0,0-4.654-4.654H8.947A4.659,4.659,0,0,0,4.294,7.767V14.8a4.659,4.659,0,0,0,4.654,4.654h1.587a.8.8,0,1,1,0,1.61Z" fill="#fff"/>
          <g id="Grupo_1105637" data-name="Grupo 1105637">
            <path id="Trazado_881277" data-name="Trazado 881277" d="M22.24,9.708H9.533a.8.8,0,0,1,0-1.61H22.24a.8.8,0,0,1,0,1.61Z" fill="#fff"/>
            <path id="Trazado_881278" data-name="Trazado 881278" d="M15.722,14.474H9.533a.8.8,0,0,1,0-1.61h6.188a.8.8,0,0,1,0,1.61Z" fill="#fff"/>
          </g>
        </g>
      </g>
    </g>
  </g>
</svg>
