<svg id="inteligencia-artificial_4_" data-name="inteligencia-artificial (4)" xmlns="http://www.w3.org/2000/svg" width="96.308" height="96.308" viewBox="0 0 96.308 96.308">
  <path id="Trazado_878104" data-name="Trazado 878104" d="M0,48.154A48.154,48.154,0,1,1,61.834,94.337c-.313.093-9.271-1.434-13.68-1.434s-13.367,1.526-13.68,1.434A48.175,48.175,0,0,1,0,48.154Z" fill="#4f08c2"/>
  <path id="Trazado_878105" data-name="Trazado 878105" d="M139.973,104.987A34.987,34.987,0,1,1,104.987,70,34.987,34.987,0,0,1,139.973,104.987Z" transform="translate(-56.833 -56.833)" fill="#2f0474"/>
  <path id="Trazado_878106" data-name="Trazado 878106" d="M415.587,252.821v10.6a2.822,2.822,0,0,1-2.822,2.822H396.071a2.822,2.822,0,0,1-2.822-2.822v-10.6A2.822,2.822,0,0,1,396.071,250h16.694A2.822,2.822,0,0,1,415.587,252.821Z" transform="translate(-319.279 -202.975)" fill="#aba6d5"/>
  <path id="Trazado_878107" data-name="Trazado 878107" d="M442.075,252.821v10.6a2.822,2.822,0,0,1-2.822,2.822H428.7a2.822,2.822,0,0,1-2.822-2.822v-10.6A2.822,2.822,0,0,1,428.7,250h10.557A2.822,2.822,0,0,1,442.075,252.821Z" transform="translate(-345.768 -202.975)" fill="#c1bde0"/>
  <path id="Trazado_878108" data-name="Trazado 878108" d="M427.673,272.093a1.411,1.411,0,0,1-1.411,1.411H414.036a1.411,1.411,0,0,1,0-2.822h12.227A1.411,1.411,0,0,1,427.673,272.093Zm-2.8,4.232h-9.452a1.411,1.411,0,1,0,0,2.822h9.452a1.411,1.411,0,1,0,0-2.822Z" transform="translate(-335.01 -219.767)" fill="#6a61b4"/>
  <path id="Trazado_878109" data-name="Trazado 878109" d="M61.382,122.822v24.453a2.822,2.822,0,0,1-2.822,2.822H22.822A2.822,2.822,0,0,1,20,147.275V122.822A2.822,2.822,0,0,1,22.822,120H58.561A2.822,2.822,0,0,1,61.382,122.822Z" transform="translate(-16.238 -97.428)" fill="#ea552d"/>
  <path id="Trazado_878110" data-name="Trazado 878110" d="M83.729,150.1H53.822A2.822,2.822,0,0,1,51,147.275V122.822A2.822,2.822,0,0,1,53.822,120H83.729a2.822,2.822,0,0,1,2.822,2.822v24.453A2.822,2.822,0,0,1,83.729,150.1Z" transform="translate(-41.407 -97.428)" fill="#f76937"/>
  <path id="Trazado_878111" data-name="Trazado 878111" d="M123.079,142.09v5.225a1.994,1.994,0,0,1-1.881,2.09H100.483a1.994,1.994,0,0,1-1.881-2.09V142.09a1.994,1.994,0,0,1,1.881-2.09H121.2A1.994,1.994,0,0,1,123.079,142.09Z" transform="translate(-80.055 -113.666)" fill="#ea552d"/>
  <path id="Trazado_878112" data-name="Trazado 878112" d="M35,141.881A1.881,1.881,0,0,1,36.881,140h4.7a1.881,1.881,0,1,1,0,3.762h-4.7A1.881,1.881,0,0,1,35,141.881Zm1.881,7.524h4.7a1.881,1.881,0,1,0,0-3.762h-4.7a1.881,1.881,0,1,0,0,3.762Zm23.513,4.7H36.881A1.881,1.881,0,0,0,35,155.989v4.7a1.881,1.881,0,0,0,1.881,1.881H60.394a1.881,1.881,0,0,0,1.881-1.881v-4.7A1.881,1.881,0,0,0,60.394,154.108Z" transform="translate(-28.416 -113.666)" fill="#ff956a"/>
  <path id="Trazado_878113" data-name="Trazado 878113" d="M362.337,130.094v10.6a2.822,2.822,0,0,1-2.821,2.822H342.821A2.822,2.822,0,0,1,340,140.7v-10.6a2.822,2.822,0,0,1,2.822-2.822h16.694A2.821,2.821,0,0,1,362.337,130.094Z" transform="translate(-276.046 -103.333)" fill="#9bcf1b"/>
  <path id="Trazado_878114" data-name="Trazado 878114" d="M383.167,148.809v2.822a1.411,1.411,0,1,1-2.822,0v-2.822a1.411,1.411,0,0,1,2.822,0Zm-6.584-5.173a1.411,1.411,0,0,0-1.411,1.411v6.584a1.411,1.411,0,1,0,2.821,0v-6.584A1.411,1.411,0,0,0,376.583,143.636Zm-5.173,5.643A1.411,1.411,0,0,0,370,150.69v.941a1.411,1.411,0,1,0,2.821,0v-.941A1.411,1.411,0,0,0,371.411,149.279Z" transform="translate(-300.403 -116.618)" fill="#dbf3a0"/>
  <path id="Trazado_878115" data-name="Trazado 878115" d="M57.739,334.681H53.072a2.822,2.822,0,0,1-2.822-2.822V327a2.822,2.822,0,0,1,2.822-2.821h4.668A2.822,2.822,0,0,1,60.561,327v4.856A2.822,2.822,0,0,1,57.739,334.681Z" transform="translate(-40.798 -263.203)" fill="#9bcf1b"/>
  <path id="Trazado_878116" data-name="Trazado 878116" d="M88.562,327v4.856a2.822,2.822,0,0,1-2.822,2.822H77.15a2.822,2.822,0,0,1-2.822-2.822V327a2.822,2.822,0,0,1,2.822-2.821H85.74A2.821,2.821,0,0,1,88.562,327Z" transform="translate(-60.347 -263.203)" fill="#b9e746"/>
  <path id="Trazado_878117" data-name="Trazado 878117" d="M69.65,346a1.411,1.411,0,1,1-1.411-1.411A1.411,1.411,0,0,1,69.65,346Zm3.442-1.411A1.411,1.411,0,1,0,74.5,346,1.411,1.411,0,0,0,73.091,344.591Zm4.852,0A1.411,1.411,0,1,0,79.354,346,1.411,1.411,0,0,0,77.944,344.591Z" transform="translate(-54.258 -279.773)" fill="#7fa32f"/>
  <path id="Trazado_878118" data-name="Trazado 878118" d="M139.4,30.1h-6.583A2.822,2.822,0,0,1,130,27.275V2.822A2.822,2.822,0,0,1,132.822,0H139.4a2.822,2.822,0,0,1,2.822,2.822V27.275A2.822,2.822,0,0,1,139.4,30.1Z" transform="translate(-105.547)" fill="#e9cc5a"/>
  <path id="Trazado_878119" data-name="Trazado 878119" d="M202.194,2.822V27.275a2.664,2.664,0,0,1-2.472,2.822H163.472A2.664,2.664,0,0,1,161,27.275V2.822A2.664,2.664,0,0,1,163.472,0h36.251A2.664,2.664,0,0,1,202.194,2.822Z" transform="translate(-130.716)" fill="#fff04a"/>
  <path id="Trazado_878120" data-name="Trazado 878120" d="M302.638,30.306a2.351,2.351,0,1,1-2.351-2.351A2.351,2.351,0,0,1,302.638,30.306Zm5.561-2.351a2.351,2.351,0,1,0,2.351,2.351A2.351,2.351,0,0,0,308.2,27.955Zm-5.561,9.277a2.351,2.351,0,1,1-2.351-2.351A2.351,2.351,0,0,1,302.638,37.232ZM308.2,34.88a2.351,2.351,0,1,0,2.351,2.351A2.351,2.351,0,0,0,308.2,34.88Zm-5.561,9.277a2.351,2.351,0,1,1-2.351-2.351A2.351,2.351,0,0,1,302.638,44.157Zm5.561-2.351a2.351,2.351,0,1,0,2.351,2.351A2.351,2.351,0,0,0,308.2,41.806Z" transform="translate(-241.894 -22.697)" fill="#eac23f"/>
  <path id="Trazado_878121" data-name="Trazado 878121" d="M211.386,38.3a9.62,9.62,0,0,1-1.079,4.44,9.665,9.665,0,0,1-13.023-13.023,9.665,9.665,0,0,1,14.1,8.583Z" transform="translate(-159.3 -23.25)" fill="#f76937"/>
  <path id="Trazado_878122" data-name="Trazado 878122" d="M192.711,45.569A9.663,9.663,0,1,1,180,32.859a9.666,9.666,0,0,0,12.71,12.71Z" transform="translate(-141.418 -26.678)" fill="#ea552d"/>
  <path id="Trazado_878123" data-name="Trazado 878123" d="M210.633,373.271v13.017a48.461,48.461,0,0,1-27.36,0V373.271a13.68,13.68,0,1,1,27.36,0Z" transform="translate(-148.799 -291.952)" fill="#55a4f9"/>
  <path id="Trazado_878124" data-name="Trazado 878124" d="M193.62,231.818V239a15.048,15.048,0,0,1-15.048,15.048h-7.524A15.048,15.048,0,0,1,156,239v-7.182h6.84l5.344,2.054a18.47,18.47,0,0,0,13.252,0l5.344-2.054Z" transform="translate(-126.656 -188.213)" fill="#55a4f9"/>
  <path id="Trazado_878125" data-name="Trazado 878125" d="M210.633,372.772a8.55,8.55,0,0,1-8.55,8.55h-10.26a8.55,8.55,0,0,1-8.55-8.55,13.68,13.68,0,0,1,27.36,0Z" transform="translate(-148.799 -291.547)" fill="#86befb"/>
  <path id="Trazado_878126" data-name="Trazado 878126" d="M227.645,322.186a8.55,8.55,0,1,1-8.55-8.55A8.55,8.55,0,0,1,227.645,322.186Z" transform="translate(-170.941 -254.641)" fill="#a7d0fc"/>
  <path id="Trazado_878127" data-name="Trazado 878127" d="M244.658,344.329a3.42,3.42,0,1,1-3.42-3.42A3.42,3.42,0,0,1,244.658,344.329Z" transform="translate(-193.084 -276.784)" fill="#76b6fa"/>
  <path id="Trazado_878128" data-name="Trazado 878128" d="M162.84,65.39v6.84a3.42,3.42,0,0,1-6.84,0V65.39a3.42,3.42,0,1,1,6.84,0Zm17.1-6.84a3.42,3.42,0,0,0-3.42,3.42v6.84a3.42,3.42,0,1,0,6.84,0V61.97A3.42,3.42,0,0,0,179.94,58.55Zm10.26,5.13a3.42,3.42,0,0,0-3.42,3.42v6.84a3.42,3.42,0,1,0,6.84,0V67.1A3.42,3.42,0,0,0,190.2,63.68ZM169.68,50a3.42,3.42,0,0,0-3.42,3.42V68.81a3.42,3.42,0,0,0,6.84,0V53.42A3.42,3.42,0,0,0,169.68,50Z" transform="translate(-126.656 -40.595)" fill="#a7d0fc"/>
  <path id="Trazado_878129" data-name="Trazado 878129" d="M193.62,96.166v6.758a2.451,2.451,0,0,0-.255,3.037l.255.383v2.471a6.95,6.95,0,0,1-.54,2.76c-1.749,4.4-6.343,6.991-11.365,6.991h-13.81a11.9,11.9,0,0,1-11.9-11.82c0-.028,0-.374,0-.4l.222-.07a3.036,3.036,0,0,0-.222-3.35V94.456a3.474,3.474,0,0,1,3.3-3.5,3.42,3.42,0,0,1,3.545,3.418v8.55a2.368,2.368,0,0,0-.266,3.043l.266.377h3.42v-3.42a2.431,2.431,0,0,0,.12-3.279l-.12-.141V80.694a3.42,3.42,0,1,1,6.84,0V99.5a2.183,2.183,0,0,0-.253,3.133l.253.287v3.42h3.42l.2-.264a2.4,2.4,0,0,0-.2-3.155V90.954a3.42,3.42,0,1,1,6.84,0v11.97a2.286,2.286,0,0,0-.1,3.322l.1.1h3.42l.248-.258a2.121,2.121,0,0,0-.248-3.162v-6.84a3.42,3.42,0,0,1,3.545-3.418,3.474,3.474,0,0,1,3.295,3.5Z" transform="translate(-126.656 -62.739)" fill="#86befb"/>
  <path id="Trazado_878130" data-name="Trazado 878130" d="M166.26,143.788h6.84v3.42h-6.84ZM156,150.628h6.84v-3.42H156Zm10.26-15.39h6.84v-3.42h-6.84Zm10.26,15.39h6.84v-3.42h-6.84Zm10.26-3.42v3.42h6.84v-3.42Z" transform="translate(-126.656 -107.023)" fill="#55a4f9"/>
  <path id="Trazado_878131" data-name="Trazado 878131" d="M222.822,1.411v4.7a1.411,1.411,0,1,1-2.822,0v-4.7a1.411,1.411,0,1,1,2.822,0Zm8.051,4.256a1.411,1.411,0,0,0-2-2L225.552,7a1.411,1.411,0,1,0,2,1.995Zm.883,5.619h-2.822a1.411,1.411,0,0,0,0,2.822h2.822a1.411,1.411,0,1,0,0-2.822Z" transform="translate(-178.618)" fill="#fff5f5"/>
</svg>
