<svg xmlns="http://www.w3.org/2000/svg" width="83.711" height="87.469" viewBox="0 0 83.711 87.469">
  <g id="chatbot_1_" data-name="chatbot (1)" transform="translate(-11)">
    <path id="Trazado_877677" data-name="Trazado 877677" d="M52.855,22A41.855,41.855,0,0,0,26.132,96.069l.171-.08V93.74a6.67,6.67,0,0,1,6.663-6.663H72.745a6.67,6.67,0,0,1,6.663,6.663v2.249l.171.08A41.855,41.855,0,0,0,52.855,22Z" transform="translate(0 -18.242)" fill="#005dff"/>
    <g id="Grupo_1102068" data-name="Grupo 1102068" transform="translate(20.422 29.555)">
      <g id="Grupo_1102054" data-name="Grupo 1102054" transform="translate(19.108 35.795)">
        <path id="Trazado_877678" data-name="Trazado 877678" d="M178,382.523h26.651v3.486H178Z" transform="translate(-178 -382.523)" fill="#fff"/>
      </g>
      <g id="Grupo_1102055" data-name="Grupo 1102055" transform="translate(19.108 35.795)">
        <path id="Trazado_877679" data-name="Trazado 877679" d="M178,382.523h6.834v3.486H178Z" transform="translate(-178 -382.523)" fill="#eaf6ff"/>
      </g>
      <g id="Grupo_1102056" data-name="Grupo 1102056" transform="translate(5.71 39.11)">
        <path id="Trazado_877680" data-name="Trazado 877680" d="M146.189,401.93H106.41a6.834,6.834,0,0,0-6.834,6.833v2.329a41.855,41.855,0,0,0,53.447,0v-2.329A6.834,6.834,0,0,0,146.189,401.93Z" transform="translate(-99.576 -401.93)" fill="#d8ecfe"/>
      </g>
      <path id="Trazado_877681" data-name="Trazado 877681" d="M106.68,408.764a6.834,6.834,0,0,1,6.834-6.833h-7.1a6.834,6.834,0,0,0-6.834,6.833v2.329a41.955,41.955,0,0,0,7.1,4.764Z" transform="translate(-93.867 -362.82)" fill="#c4e2ff"/>
      <g id="Grupo_1102057" data-name="Grupo 1102057" transform="translate(26.688 45.272)">
        <path id="Trazado_877682" data-name="Trazado 877682" d="M228.765,445.079l4.889-5.667a.854.854,0,0,0-.647-1.412h-9.778a.854.854,0,0,0-.647,1.412l4.889,5.667A.854.854,0,0,0,228.765,445.079Z" transform="translate(-222.373 -438)" fill="#fff"/>
      </g>
      <path id="Trazado_877683" data-name="Trazado 877683" d="M226.106,439.412a.854.854,0,0,1,.647-1.412h-3.524a.854.854,0,0,0-.647,1.412l4.889,5.667a.854.854,0,0,0,1.294,0l1.115-1.293Z" transform="translate(-195.685 -392.728)" fill="#eaf6ff"/>
      <g id="Grupo_1102060" data-name="Grupo 1102060" transform="translate(0 16.571)">
        <g id="Grupo_1102058" data-name="Grupo 1102058">
          <path id="Trazado_877684" data-name="Trazado 877684" d="M71.577,281.4v-7.415A20.4,20.4,0,0,1,71.969,270H70.721a4.568,4.568,0,0,0-4.568,4.568v3.883a4.568,4.568,0,0,0,4.568,4.568h1.026A7.814,7.814,0,0,1,71.577,281.4Z" transform="translate(-66.153 -269.999)" fill="#fff"/>
        </g>
        <g id="Grupo_1102059" data-name="Grupo 1102059" transform="translate(59.05 0)">
          <path id="Trazado_877685" data-name="Trazado 877685" d="M413.05,270H411.8a20.393,20.393,0,0,1,.392,3.985V281.4a7.828,7.828,0,0,1-.169,1.619h1.026a4.568,4.568,0,0,0,4.568-4.568v-3.883A4.568,4.568,0,0,0,413.05,270Z" transform="translate(-411.802 -270)" fill="#fff"/>
        </g>
      </g>
      <g id="Grupo_1102061" data-name="Grupo 1102061" transform="translate(5.253 0)">
        <path id="Trazado_877686" data-name="Trazado 877686" d="M143.269,208.965H104.9a7.994,7.994,0,0,1-7.994-7.994v-7.415A20.556,20.556,0,0,1,117.459,173h13.247a20.556,20.556,0,0,1,20.556,20.556v7.415A7.994,7.994,0,0,1,143.269,208.965Z" transform="translate(-96.903 -173)" fill="#d8ecfe"/>
      </g>
      <path id="Trazado_877687" data-name="Trazado 877687" d="M105.8,200.971v-2.657a11.113,11.113,0,0,1,3.3-15.928A20.539,20.539,0,0,1,126.359,173h-8.9A20.556,20.556,0,0,0,96.9,193.556v7.415a7.994,7.994,0,0,0,7.994,7.994h8.9A7.994,7.994,0,0,1,105.8,200.971Z" transform="translate(-91.649 -173)" fill="#c4e2ff"/>
      <g id="Grupo_1102062" data-name="Grupo 1102062" transform="translate(12.105 7.761)">
        <path id="Trazado_877688" data-name="Trazado 877688" d="M148.142,240.691a11.131,11.131,0,0,1,0-22.261h18.395a11.131,11.131,0,0,1,0,22.261Z" transform="translate(-137.011 -218.43)" fill="#116d9a"/>
      </g>
      <g id="Grupo_1102063" data-name="Grupo 1102063" transform="translate(12.105 7.761)">
        <path id="Trazado_877689" data-name="Trazado 877689" d="M144.184,229.561a11.143,11.143,0,0,1,11.131-11.131h-7.173a11.131,11.131,0,0,0,0,22.261h7.173A11.143,11.143,0,0,1,144.184,229.561Z" transform="translate(-137.011 -218.43)" fill="#005e89"/>
      </g>
      <g id="Grupo_1102064" data-name="Grupo 1102064" transform="translate(25.353 20.148)">
        <path id="Trazado_877690" data-name="Trazado 877690" d="M227.573,295.046H215.7a1.142,1.142,0,0,1-1.142-1.142v-1.827a1.142,1.142,0,0,1,1.142-1.142h11.877a1.142,1.142,0,0,1,1.142,1.142V293.9A1.142,1.142,0,0,1,227.573,295.046Z" transform="translate(-214.554 -290.935)" fill="#fed402"/>
      </g>
      <g id="Grupo_1102067" data-name="Grupo 1102067" transform="translate(19.243 13.524)">
        <g id="Grupo_1102065" data-name="Grupo 1102065">
          <path id="Trazado_877691" data-name="Trazado 877691" d="M182.9,257.417h-2.969a1.142,1.142,0,0,1-1.142-1.142v-2.969a1.142,1.142,0,0,1,1.142-1.142H182.9a1.142,1.142,0,0,1,1.142,1.142v2.969A1.142,1.142,0,0,1,182.9,257.417Z" transform="translate(-178.791 -252.164)" fill="#fed402"/>
        </g>
        <g id="Grupo_1102066" data-name="Grupo 1102066" transform="translate(21.127)">
          <path id="Trazado_877692" data-name="Trazado 877692" d="M306.57,257.417H303.6a1.142,1.142,0,0,1-1.142-1.142v-2.969a1.142,1.142,0,0,1,1.142-1.142h2.969a1.142,1.142,0,0,1,1.142,1.142v2.969A1.142,1.142,0,0,1,306.57,257.417Z" transform="translate(-302.459 -252.164)" fill="#fed402"/>
        </g>
      </g>
    </g>
    <g id="Grupo_1102084" data-name="Grupo 1102084" transform="translate(13.794 14.35)">
      <g id="Grupo_1102074" data-name="Grupo 1102074" transform="translate(55.01)">
        <g id="Grupo_1102069" data-name="Grupo 1102069">
          <path id="Trazado_877693" data-name="Trazado 877693" d="M351.279,84H370.54a1.926,1.926,0,0,1,1.926,1.926v19.261a1.926,1.926,0,0,1-1.926,1.926H358.667a.512.512,0,0,0-.362.15l-3.724,3.724a.578.578,0,0,1-.986-.409v-2.953a.513.513,0,0,0-.513-.513h-1.8a1.926,1.926,0,0,1-1.926-1.926V85.926A1.926,1.926,0,0,1,351.279,84Z" transform="translate(-349.353 -84)" fill="#79d3fe"/>
        </g>
        <g id="Grupo_1102073" data-name="Grupo 1102073" transform="translate(4.381 9.909)">
          <g id="Grupo_1102070" data-name="Grupo 1102070" transform="translate(10.934)">
            <path id="Trazado_877694" data-name="Trazado 877694" d="M439.854,145.417h1.708a.854.854,0,0,0,.854-.854v-1.708a.854.854,0,0,0-.854-.854h-1.708a.854.854,0,0,0-.854.854v1.708A.854.854,0,0,0,439.854,145.417Z" transform="translate(-439 -142)" fill="#fff"/>
          </g>
          <g id="Grupo_1102071" data-name="Grupo 1102071" transform="translate(5.467)">
            <path id="Trazado_877695" data-name="Trazado 877695" d="M407.854,145.417h1.708a.854.854,0,0,0,.854-.854v-1.708a.854.854,0,0,0-.854-.854h-1.708a.854.854,0,0,0-.854.854v1.708A.854.854,0,0,0,407.854,145.417Z" transform="translate(-407 -142)" fill="#fff"/>
          </g>
          <g id="Grupo_1102072" data-name="Grupo 1102072">
            <path id="Trazado_877696" data-name="Trazado 877696" d="M375.854,145.417h1.708a.854.854,0,0,0,.854-.854v-1.708a.854.854,0,0,0-.854-.854h-1.708a.854.854,0,0,0-.854.854v1.708A.854.854,0,0,0,375.854,145.417Z" transform="translate(-375 -142)" fill="#fff"/>
          </g>
        </g>
      </g>
      <g id="Grupo_1102083" data-name="Grupo 1102083">
        <g id="Grupo_1102082" data-name="Grupo 1102082">
          <g id="Grupo_1102076" data-name="Grupo 1102076" transform="translate(0)">
            <g id="Grupo_1102075" data-name="Grupo 1102075">
              <path id="Trazado_877697" data-name="Trazado 877697" d="M48.54,84H29.279a1.926,1.926,0,0,0-1.926,1.926v19.261a1.926,1.926,0,0,0,1.926,1.926H41.153a.512.512,0,0,1,.362.15l3.724,3.724a.578.578,0,0,0,.986-.409v-2.953a.512.512,0,0,1,.513-.513h1.8a1.926,1.926,0,0,0,1.926-1.926V85.926A1.926,1.926,0,0,0,48.54,84Z" transform="translate(-27.353 -84)" fill="#4f08c2"/>
            </g>
          </g>
          <g id="Grupo_1102077" data-name="Grupo 1102077">
            <path id="Trazado_877698" data-name="Trazado 877698" d="M32.708,105.187V85.926A1.926,1.926,0,0,1,34.635,84H29.278a1.926,1.926,0,0,0-1.926,1.926v19.261a1.926,1.926,0,0,0,1.926,1.926h5.356A1.926,1.926,0,0,1,32.708,105.187Z" transform="translate(-27.352 -84)" fill="#2f0474"/>
          </g>
          <g id="Grupo_1102081" data-name="Grupo 1102081" transform="translate(3.869 4.698)">
            <g id="Grupo_1102078" data-name="Grupo 1102078">
              <path id="Trazado_877699" data-name="Trazado 877699" d="M60.269,114.063H51.281a1.281,1.281,0,1,1,0-2.563h8.988a1.281,1.281,0,1,1,0,2.563Z" transform="translate(-50 -111.5)" fill="#fff"/>
            </g>
            <g id="Grupo_1102079" data-name="Grupo 1102079" transform="translate(0 5.296)">
              <path id="Trazado_877700" data-name="Trazado 877700" d="M64.094,145.063H51.281a1.281,1.281,0,0,1,0-2.563H64.094a1.281,1.281,0,1,1,0,2.563Z" transform="translate(-50 -142.5)" fill="#fff"/>
            </g>
            <g id="Grupo_1102080" data-name="Grupo 1102080" transform="translate(0 10.592)">
              <path id="Trazado_877701" data-name="Trazado 877701" d="M64.094,176.063H51.281a1.281,1.281,0,0,1,0-2.563H64.094a1.281,1.281,0,1,1,0,2.563Z" transform="translate(-50 -173.5)" fill="#fff"/>
            </g>
          </g>
        </g>
      </g>
    </g>
    <path id="Trazado_877702" data-name="Trazado 877702" d="M170.685,0H130.708A1.708,1.708,0,0,0,129,1.708V19.646a1.708,1.708,0,0,0,1.708,1.708h16.2a.513.513,0,0,1,.442.254l2.405,4.107a.854.854,0,0,0,1.474,0l2.405-4.107a.513.513,0,0,1,.442-.254h16.61a1.708,1.708,0,0,0,1.708-1.708V1.708A1.708,1.708,0,0,0,170.685,0Z" transform="translate(-97.841)" fill="#fed402"/>
    <g id="Grupo_1102085" data-name="Grupo 1102085" transform="translate(31.159)">
      <path id="Trazado_877703" data-name="Trazado 877703" d="M134.125,19.646V1.708A1.708,1.708,0,0,1,135.834,0h-5.125A1.708,1.708,0,0,0,129,1.708V19.646a1.708,1.708,0,0,0,1.708,1.708h5.125A1.708,1.708,0,0,1,134.125,19.646Z" transform="translate(-129 0)" fill="#fac600"/>
    </g>
    <g id="Grupo_1102086" data-name="Grupo 1102086" transform="translate(37.48 3.502)">
      <path id="Trazado_877704" data-name="Trazado 877704" d="M168.05,23.063h-.769a1.281,1.281,0,1,1,0-2.563h.769a1.281,1.281,0,1,1,0,2.563Z" transform="translate(-166 -20.5)" fill="#fff"/>
    </g>
    <g id="Grupo_1102087" data-name="Grupo 1102087" transform="translate(42.691 3.502)">
      <path id="Trazado_877705" data-name="Trazado 877705" d="M220.759,23.063H197.781a1.281,1.281,0,0,1,0-2.563h22.978a1.281,1.281,0,0,1,0,2.563Z" transform="translate(-196.5 -20.5)" fill="#fff"/>
    </g>
    <g id="Grupo_1102088" data-name="Grupo 1102088" transform="translate(37.48 9.054)">
      <path id="Trazado_877706" data-name="Trazado 877706" d="M195.47,55.563H167.281a1.281,1.281,0,1,1,0-2.563H195.47a1.281,1.281,0,0,1,0,2.563Z" transform="translate(-166 -53)" fill="#fff"/>
    </g>
    <g id="Grupo_1102089" data-name="Grupo 1102089" transform="translate(37.48 14.607)">
      <path id="Trazado_877707" data-name="Trazado 877707" d="M180.692,88.063H167.281a1.281,1.281,0,1,1,0-2.563h13.411a1.281,1.281,0,0,1,0,2.563Z" transform="translate(-166 -85.5)" fill="#fff"/>
    </g>
  </g>
</svg>
