<svg id="Grupo_1105245" data-name="Grupo 1105245" xmlns="http://www.w3.org/2000/svg" xmlns:xlink="http://www.w3.org/1999/xlink" width="126.666" height="173.323" viewBox="0 0 126.666 173.323">
  <defs>
    <clipPath id="clip-path">
      <rect id="Rectángulo_404831" data-name="Rectángulo 404831" width="126.666" height="173.323" fill="none"/>
    </clipPath>
    <clipPath id="clip-path-3">
      <path id="Trazado_880188" data-name="Trazado 880188" d="M4.539,36.188l3.414,1.984A7.181,7.181,0,0,1,11.2,32.551L7.783,30.567a7.177,7.177,0,0,0-3.244,5.621" transform="translate(-4.539 -30.567)" fill="none"/>
    </clipPath>
    <linearGradient id="linear-gradient" x1="-0.6" y1="12.859" x2="-0.431" y2="12.859" gradientUnits="objectBoundingBox">
      <stop offset="0" stop-color="#9e9eb8"/>
      <stop offset="0.094" stop-color="#9e9eb8"/>
      <stop offset="0.279" stop-color="#aeaece"/>
      <stop offset="0.487" stop-color="#bcbce1"/>
      <stop offset="0.632" stop-color="#c1c1e8"/>
      <stop offset="0.972" stop-color="#acacc7"/>
      <stop offset="1" stop-color="#acacc7"/>
    </linearGradient>
    <clipPath id="clip-path-5">
      <path id="Trazado_880203" data-name="Trazado 880203" d="M58.465,17.175,53.046,20.3a4.975,4.975,0,0,0-1.508,1.44l-2.975,4.213a6.411,6.411,0,0,1-1.953,1.859L21.867,42.1a2.641,2.641,0,0,1-1.954.4l-2.992-.77a2.056,2.056,0,0,0-1.513.309L9.991,45.161a3.01,3.01,0,0,0-1.36,2.355l.291,108.731c0,.862.62,1.214,1.37.78l48.471-27.984a3.017,3.017,0,0,0,1.363-2.357L59.834,17.955c0-.611-.314-.965-.762-.965a1.219,1.219,0,0,0-.608.185" transform="translate(-8.631 -16.99)" fill="none"/>
    </clipPath>
    <linearGradient id="linear-gradient-2" x1="0.228" y1="1.151" x2="0.239" y2="1.151" gradientUnits="objectBoundingBox">
      <stop offset="0" stop-color="#2462e0"/>
      <stop offset="0.126" stop-color="#2462e0"/>
      <stop offset="0.617" stop-color="#3e81ea"/>
      <stop offset="0.948" stop-color="#529af2"/>
      <stop offset="1" stop-color="#529af2"/>
    </linearGradient>
    <clipPath id="clip-path-7">
      <path id="Trazado_880214" data-name="Trazado 880214" d="M40.054,60.568A7.8,7.8,0,0,0,42,64.919a6.3,6.3,0,0,0,1.32,1.168l.6.386a37.766,37.766,0,0,0,7.562,3.808,25.808,25.808,0,0,0,3.035.89l10.91,2.47c.96.219,1.426-.658,1.072-2.021a5.934,5.934,0,0,0-1.244-2.305,3.9,3.9,0,0,0-1.208-.977l-7.72-3.723a115.428,115.428,0,0,0-11.061-4.66L42.043,58.8a2.09,2.09,0,0,0-.686-.13c-.847,0-1.358.7-1.3,1.9" transform="translate(-40.05 -58.667)" fill="none"/>
    </clipPath>
    <linearGradient id="linear-gradient-3" x1="-3.4" y1="2.797" x2="-3.318" y2="2.797" gradientUnits="objectBoundingBox">
      <stop offset="0" stop-color="#caccde"/>
      <stop offset="0.263" stop-color="#caccde"/>
      <stop offset="0.603" stop-color="#cdcee0"/>
      <stop offset="0.869" stop-color="#d6d7e7"/>
      <stop offset="1" stop-color="#dfdeee"/>
    </linearGradient>
    <clipPath id="clip-path-8">
      <path id="Trazado_880215" data-name="Trazado 880215" d="M65.9,74.812l-10.91-2.47a25.8,25.8,0,0,1-3.035-.89,37.766,37.766,0,0,1-7.562-3.808l-.6-.386a6.3,6.3,0,0,1-1.32-1.168,7.8,7.8,0,0,1-1.946-4.351c-.068-1.5.742-2.216,1.989-1.771l3.224,1.158A115.425,115.425,0,0,1,56.8,65.786l7.72,3.723a3.9,3.9,0,0,1,1.208.977,5.933,5.933,0,0,1,1.244,2.305c.317,1.223-.025,2.054-.792,2.054a1.211,1.211,0,0,1-.281-.033m-26.541-14.8A12.687,12.687,0,0,0,42.524,67.1,10.213,10.213,0,0,0,44.671,69l.6.386a39.938,39.938,0,0,0,8.006,4.032,27.165,27.165,0,0,0,3.215.945l10.91,2.469c1.832.414,2.711-1.244,2.038-3.838a11.288,11.288,0,0,0-2.36-4.381,7.589,7.589,0,0,0-2.3-1.861l-7.722-3.72a117.374,117.374,0,0,0-11.246-4.74l-3.224-1.156a3.318,3.318,0,0,0-1.119-.215c-1.38,0-2.208,1.141-2.12,3.093" transform="translate(-39.349 -56.92)" fill="none"/>
    </clipPath>
    <linearGradient id="linear-gradient-4" x1="-2.565" y1="2.474" x2="-2.501" y2="2.474" xlink:href="#linear-gradient-3"/>
    <clipPath id="clip-path-9">
      <path id="Trazado_880216" data-name="Trazado 880216" d="M43.069,56.067l-3.077,1.892a2.47,2.47,0,0,1,2.171-.065l3.224,1.156a117.375,117.375,0,0,1,11.246,4.74l7.722,3.72a7.589,7.589,0,0,1,2.3,1.861,11.288,11.288,0,0,1,2.36,4.381c.469,1.809.184,3.162-.651,3.676l3.077-1.894c.833-.513,1.119-1.866.65-3.675a11.258,11.258,0,0,0-2.36-4.38,7.524,7.524,0,0,0-2.3-1.861L59.71,61.9a116.551,116.551,0,0,0-11.248-4.74L45.238,56a3.346,3.346,0,0,0-1.117-.214,1.971,1.971,0,0,0-1.052.279" transform="translate(-39.992 -55.788)" fill="none"/>
    </clipPath>
    <linearGradient id="linear-gradient-5" x1="-1.645" y1="2.564" x2="-1.602" y2="2.564" gradientUnits="objectBoundingBox">
      <stop offset="0" stop-color="#caccde"/>
      <stop offset="0.263" stop-color="#caccde"/>
      <stop offset="0.851" stop-color="#eae9f2"/>
      <stop offset="1" stop-color="#eae9f2"/>
    </linearGradient>
    <clipPath id="clip-path-10">
      <path id="Trazado_880217" data-name="Trazado 880217" d="M17.853,63.557c0,1.049,2.44,31.646,21.8,31.646S61.2,66.132,61.2,63.55l-43.348.007" transform="translate(-17.853 -63.55)" fill="none"/>
    </clipPath>
    <linearGradient id="linear-gradient-6" x1="-0.688" y1="2.122" x2="-0.649" y2="2.122" gradientUnits="objectBoundingBox">
      <stop offset="0" stop-color="#caccde"/>
      <stop offset="0.371" stop-color="#caccde"/>
      <stop offset="0.969" stop-color="#eae9f2"/>
      <stop offset="1" stop-color="#eae9f2"/>
    </linearGradient>
    <clipPath id="clip-path-12">
      <path id="Trazado_880219" data-name="Trazado 880219" d="M33.335,64.792c-3.337-2-3.262-5.175.174-7.1a13.51,13.51,0,0,1,12.26.122c3.337,2,3.26,5.175-.174,7.1a12.541,12.541,0,0,1-6.015,1.41,12.441,12.441,0,0,1-6.245-1.533m5.186-10.944c-.788.01-1.752.117-2.526.2-.012,0-1.246.147-2.554.446-.416.1-.967.236-1.378.349-.369.105-.859.266-1.224.382-.456.145-1.051.384-1.492.565-.362.149-.832.374-1.188.534a16.551,16.551,0,0,0-1.537.825c-.655.4-1.512.957-2.12,1.425a19.985,19.985,0,0,0-1.9,1.665,16.592,16.592,0,0,0-1.4,1.585c-.219.291-.519.675-.718.979-.3.464-.681,1.1-.954,1.585a12.832,12.832,0,0,0-.733,1.575c-.256.666-.536,1.575-.73,2.262-.909,3.711,1.056,7.623,5.916,10.53,8.343,4.988,22.066,5.125,30.649.311,5.143-2.886,7.274-6.9,6.362-10.72-.13-.5-.316-1.174-.491-1.665-.185-.519-.473-1.2-.71-1.7a17.187,17.187,0,0,0-1.705-2.8A18.238,18.238,0,0,0,55.62,59.5a20.551,20.551,0,0,0-3.082-2.255c-.423-.257-1.007-.566-1.448-.792-.346-.177-.818-.391-1.174-.546a24.257,24.257,0,0,0-2.572-.937,23.992,23.992,0,0,0-2.539-.628c-.955-.189-1.956-.316-2.52-.369-.374-.035-.877-.084-1.253-.1s-.877-.037-1.254-.04h-.15c-.352,0-.777.012-1.106.015" transform="translate(-17.853 -53.833)" fill="none"/>
    </clipPath>
    <linearGradient id="linear-gradient-7" x1="-0.564" y1="1.772" x2="-0.53" y2="1.772" gradientUnits="objectBoundingBox">
      <stop offset="0" stop-color="#caccde"/>
      <stop offset="0.56" stop-color="#eae9f2"/>
      <stop offset="1" stop-color="#eae9f2"/>
    </linearGradient>
    <clipPath id="clip-path-14">
      <rect id="Rectángulo_404811" data-name="Rectángulo 404811" width="25.567" height="31.696" fill="none"/>
    </clipPath>
    <clipPath id="clip-path-15">
      <path id="Trazado_880222" data-name="Trazado 880222" d="M21.46,59.173c.19.164.459.364.658.518.546.421,1.316.925,1.9,1.284.491.3,1.161.673,1.68.919a24.271,24.271,0,0,0,2.634,1.116c.4.152.949.332,1.365.444.755.207,1.771.454,2.536.621.406.089.95.18,1.363.23.4.05.924.122,1.32.164s.929.079,1.328.1.93.038,1.328.043.935-.01,1.336-.017.96-.037,1.368-.078c.8-.077,1.849-.212,2.636-.331.429-.063.994-.18,1.415-.281.384-.094.9-.214,1.279-.322.458-.129,1.061-.322,1.513-.466.536-.174,1.231-.451,1.747-.673.693-.3,1.593-.742,2.255-1.1.565-.311,1.286-.777,1.822-1.134.371-.244.847-.6,1.191-.882.256-.212.551-.469.842-.73a17.178,17.178,0,0,1-2.761,1.891c-8.225,4.587-21.293,4.455-29.187-.3a16.578,16.578,0,0,1-2.233-1.6c.229.205.461.409.661.581m-.661-.581c-.234-.207-.464-.418-.66-.6.209.2.428.4.66.6m34.181,0q.408-.346.768-.7c-.227.214-.5.459-.768.7" transform="translate(-20.139 -57.892)" fill="none"/>
    </clipPath>
    <linearGradient id="linear-gradient-8" x1="-0.945" y1="10.669" x2="-0.898" y2="10.669" gradientUnits="objectBoundingBox">
      <stop offset="0" stop-color="#a8a4b5"/>
      <stop offset="0.235" stop-color="#a8a4b5"/>
      <stop offset="1" stop-color="#dbd3e2"/>
    </linearGradient>
    <clipPath id="clip-path-16">
      <path id="Trazado_880223" data-name="Trazado 880223" d="M17.037,47.58c-.21,1.348-.256,2.315-.312,2.637-.284,1.652-2.049,10.974,4.665,17.428s13.205,7.82,21.46,7.82c10.89,0,22.225-10.815,22.225-18.191A40.068,40.068,0,0,0,63.6,45.967c-.94-3.159-8.592-4.408-17.43-4.408-13.018,0-28.612,2.711-29.13,6.021" transform="translate(-16.305 -41.559)" fill="none"/>
    </clipPath>
    <linearGradient id="linear-gradient-9" x1="-0.488" y1="1.954" x2="-0.456" y2="1.954" xlink:href="#linear-gradient-6"/>
    <clipPath id="clip-path-17">
      <path id="Trazado_880224" data-name="Trazado 880224" d="M39.187,35.441c-.859.01-1.907.125-2.749.217-.013,0-1.358.16-2.783.486-.453.1-1.052.256-1.5.379-.4.115-.935.291-1.335.419-.5.157-1.144.416-1.625.615-.393.16-.905.406-1.293.581a18.068,18.068,0,0,0-1.674.9c-.713.436-1.649,1.046-2.31,1.553A22.2,22.2,0,0,0,21.854,42.4a18.275,18.275,0,0,0-1.53,1.725c-.236.319-.563.735-.78,1.067-.331.506-.74,1.2-1.039,1.725a13.216,13.216,0,0,0-.8,1.715c-.277.725-.585,1.717-.8,2.464-.987,4.042,1.151,8.3,6.446,11.468,9.086,5.432,24.031,5.582,33.379.337,5.6-3.144,7.922-7.511,6.928-11.675-.14-.548-.344-1.279-.535-1.812-.2-.568-.516-1.308-.773-1.854A18.855,18.855,0,0,0,60.5,44.513a19.88,19.88,0,0,0-2.688-2.92,22.048,22.048,0,0,0-3.357-2.454c-.459-.284-1.1-.62-1.577-.865-.376-.192-.892-.424-1.278-.595a27.13,27.13,0,0,0-2.8-1.021,26.391,26.391,0,0,0-2.764-.685c-1.041-.2-2.13-.344-2.746-.4-.409-.038-.954-.092-1.363-.105s-.957-.04-1.366-.043c-.048,0-.1,0-.152,0-.386,0-.855.013-1.218.018" transform="translate(-16.676 -35.423)" fill="none"/>
    </clipPath>
    <linearGradient id="linear-gradient-10" x1="-0.476" y1="2.17" x2="-0.445" y2="2.17" xlink:href="#linear-gradient-7"/>
    <clipPath id="clip-path-19">
      <path id="Trazado_880229" data-name="Trazado 880229" d="M19.267,66.209l-.955,4.625q-1.616,7.812-2.581,15.96l-1.33,11.2a4.037,4.037,0,0,0,1.7,3.815,1.814,1.814,0,0,0,2.749-1.244l4.7-15.477q.641-2.107,1.1-4.334a56.411,56.411,0,0,0,1.136-10.987l.008-.882a5.7,5.7,0,0,0-2.479-4.866c-.3-.172-.849-.132-.952-.359a2.5,2.5,0,0,0-.468-.043,2.863,2.863,0,0,0-2.631,2.594" transform="translate(-14.375 -63.615)" fill="none"/>
    </clipPath>
    <linearGradient id="linear-gradient-11" x1="-1.129" y1="1.683" x2="-1.037" y2="1.683" gradientUnits="objectBoundingBox">
      <stop offset="0" stop-color="#caccde"/>
      <stop offset="1" stop-color="#dfdeee"/>
    </linearGradient>
    <clipPath id="clip-path-20">
      <path id="Trazado_880230" data-name="Trazado 880230" d="M16.677,103a4.037,4.037,0,0,1-1.7-3.815l1.33-11.2q.965-8.138,2.581-15.96l.955-4.625c.371-1.789,1.634-2.828,3.1-2.551.1.227.65.187.95.359a5.7,5.7,0,0,1,2.479,4.866l-.008.882a56.425,56.425,0,0,1-1.136,10.987q-.461,2.225-1.1,4.334l-4.7,15.477a1.909,1.909,0,0,1-1.769,1.525,1.957,1.957,0,0,1-.98-.281m1.807-36.944-.955,4.627Q15.887,78.627,14.9,86.913l-1.331,11.2c-.337,2.861,1.061,5.99,3.24,7.249s4.435.239,5.225-2.362l4.7-15.479c.451-1.487.839-3.02,1.163-4.588A59.971,59.971,0,0,0,29.1,71.3l.007-.885c.027-3.349-1.7-6.569-4.035-7.919a5,5,0,0,0-1.547-.586,4.134,4.134,0,0,0-.762-.072c-2.054,0-3.745,1.624-4.283,4.223" transform="translate(-13.523 -61.835)" fill="none"/>
    </clipPath>
    <linearGradient id="linear-gradient-12" x1="-1.106" y1="1.542" x2="-1.018" y2="1.542" xlink:href="#linear-gradient-11"/>
    <clipPath id="clip-path-21">
      <path id="Trazado_880231" data-name="Trazado 880231" d="M22.266,61.5l-2.88.782a3.9,3.9,0,0,1,1.747-.058,5,5,0,0,1,1.547.586c2.335,1.35,4.062,4.57,4.035,7.919l-.007.885a59.971,59.971,0,0,1-1.2,11.634c-.324,1.568-.712,3.1-1.163,4.588l-4.7,15.479a3.859,3.859,0,0,1-2.549,2.793l2.88-.783a3.847,3.847,0,0,0,2.549-2.791l4.7-15.479c.451-1.487.838-3.02,1.164-4.59a59.811,59.811,0,0,0,1.2-11.632l.008-.885c.025-3.349-1.7-6.569-4.037-7.919a4.916,4.916,0,0,0-1.547-.586,4.121,4.121,0,0,0-.762-.072,3.7,3.7,0,0,0-.985.13" transform="translate(-17.095 -61.367)" fill="none"/>
    </clipPath>
    <linearGradient id="linear-gradient-13" x1="-0.548" y1="1.575" x2="-0.498" y2="1.575" gradientUnits="objectBoundingBox">
      <stop offset="0" stop-color="#d2d3e5"/>
      <stop offset="0.68" stop-color="#d2d3e5"/>
      <stop offset="0.813" stop-color="#eae9f2"/>
      <stop offset="1" stop-color="#eae9f2"/>
    </linearGradient>
    <clipPath id="clip-path-23">
      <rect id="Rectángulo_404821" data-name="Rectángulo 404821" width="27.668" height="35.588" fill="none"/>
    </clipPath>
    <clipPath id="clip-path-24">
      <path id="Trazado_880235" data-name="Trazado 880235" d="M73.064,53.474C80.7,49.216,86.81,52.943,86.7,61.8S80.31,81.283,72.672,85.539s-13.745.531-13.636-8.325,6.389-19.484,14.029-23.74" transform="translate(-59.034 -51.713)" fill="none"/>
    </clipPath>
    <linearGradient id="linear-gradient-14" x1="-2.03" y1="1.909" x2="-1.993" y2="1.909" gradientUnits="objectBoundingBox">
      <stop offset="0" stop-color="#fff"/>
      <stop offset="0.215" stop-color="#f5f5f7"/>
      <stop offset="0.571" stop-color="#dcdde4"/>
      <stop offset="1" stop-color="#b6b8c6"/>
    </linearGradient>
    <clipPath id="clip-path-25">
      <path id="Trazado_880240" data-name="Trazado 880240" d="M55.306,49.923a13.571,13.571,0,0,0-6.267,10.6,4.593,4.593,0,0,0,1.528,3.907q5.076,3.766,10.15,7.525c-1.129-.835-1.8-2.4-1.776-4.538A15.774,15.774,0,0,1,66.223,55.1a5.223,5.223,0,0,1,4.64-.6c-.346-.152-.808-.357-1.156-.509l-.576-.256-1.158-.509-1.156-.509c-.174-.075-.4-.177-.578-.254l-1.158-.509-1.156-.508c-.174-.079-.4-.179-.58-.256-.346-.152-.808-.357-1.156-.509s-.808-.357-1.156-.509c-.172-.075-.4-.179-.576-.256-.347-.152-.81-.356-1.156-.509a3.293,3.293,0,0,0-1.33-.267,5.552,5.552,0,0,0-2.667.788" transform="translate(-49.039 -49.135)" fill="none"/>
    </clipPath>
    <linearGradient id="linear-gradient-15" x1="-2.524" y1="3.126" x2="-2.47" y2="3.126" gradientUnits="objectBoundingBox">
      <stop offset="0" stop-color="#d1d2d9"/>
      <stop offset="0.356" stop-color="#d1d2d9"/>
      <stop offset="0.366" stop-color="#dadbe2"/>
      <stop offset="0.387" stop-color="#e5e6ee"/>
      <stop offset="0.416" stop-color="#ecedf5"/>
      <stop offset="0.496" stop-color="#eeeff7"/>
      <stop offset="0.601" stop-color="#ecedf5"/>
      <stop offset="0.64" stop-color="#e5e6ee"/>
      <stop offset="0.667" stop-color="#dadbe2"/>
      <stop offset="0.681" stop-color="#d1d2d9"/>
      <stop offset="1" stop-color="#d1d2d9"/>
    </linearGradient>
    <clipPath id="clip-path-26">
      <path id="Trazado_880241" data-name="Trazado 880241" d="M55.306,49.923a13.571,13.571,0,0,0-6.267,10.6,4.593,4.593,0,0,0,1.528,3.907l1.789,1.328a4.964,4.964,0,0,1-1.345-3.825,14.157,14.157,0,0,1,6.534-11.061,5.277,5.277,0,0,1,3.361-.765l-.449-.2L59.3,49.4a3.293,3.293,0,0,0-1.33-.267,5.551,5.551,0,0,0-2.666.788" transform="translate(-49.039 -49.135)" fill="none"/>
    </clipPath>
    <linearGradient id="linear-gradient-16" x1="-3.818" y1="4.949" x2="-3.735" y2="4.949" gradientUnits="objectBoundingBox">
      <stop offset="0" stop-color="#ff1f41"/>
      <stop offset="0.356" stop-color="#ff1f41"/>
      <stop offset="0.362" stop-color="#ff2d4d"/>
      <stop offset="0.374" stop-color="#ff435f"/>
      <stop offset="0.388" stop-color="#ff546d"/>
      <stop offset="0.405" stop-color="#ff6077"/>
      <stop offset="0.429" stop-color="#ff677d"/>
      <stop offset="0.496" stop-color="#ff697f"/>
      <stop offset="0.595" stop-color="#ff677d"/>
      <stop offset="0.631" stop-color="#ff6077"/>
      <stop offset="0.657" stop-color="#ff546d"/>
      <stop offset="0.678" stop-color="#ff4360"/>
      <stop offset="0.681" stop-color="#ff405d"/>
      <stop offset="1" stop-color="#ff405d"/>
    </linearGradient>
    <clipPath id="clip-path-28">
      <path id="Trazado_880243" data-name="Trazado 880243" d="M64.206,56.63a9.751,9.751,0,0,0-4.5,7.623,3.113,3.113,0,0,0,1.346,2.966L66.5,70.191A3.037,3.037,0,0,1,65.191,67.3a9.493,9.493,0,0,1,4.381-7.413,2.976,2.976,0,0,1,3.047-.229q-2.641-1.636-5.282-3.269a2.272,2.272,0,0,0-1.218-.329,3.98,3.98,0,0,0-1.914.565" transform="translate(-59.701 -56.065)" fill="none"/>
    </clipPath>
    <linearGradient id="linear-gradient-17" x1="-5.177" y1="4.467" x2="-5.088" y2="4.467" gradientUnits="objectBoundingBox">
      <stop offset="0" stop-color="#b9bccc"/>
      <stop offset="0.261" stop-color="#b9bccc"/>
      <stop offset="0.644" stop-color="#c0c3d1"/>
      <stop offset="1" stop-color="#c0c3d1"/>
    </linearGradient>
    <clipPath id="clip-path-29">
      <path id="Trazado_880244" data-name="Trazado 880244" d="M67.369,58.577a9.493,9.493,0,0,0-4.381,7.413c-.02,1.8.782,2.925,2,3.118q2.022.321,4.044.64c-.919-.145-1.522-.987-1.5-2.343a7.129,7.129,0,0,1,3.289-5.567c1.139-.635,2.135-.513,2.7.2l-.256-.321c-.04-.048-.089-.11-.129-.159l-.256-.319c-.077-.1-.179-.225-.257-.321-.037-.048-.089-.112-.127-.16l-.256-.319-.256-.321c-.04-.047-.09-.11-.129-.159l-.256-.321c-.078-.094-.18-.224-.257-.319-.037-.048-.089-.112-.127-.16l-.256-.319a2.14,2.14,0,0,0-1.73-.808,3.867,3.867,0,0,0-1.862.55" transform="translate(-62.988 -58.027)" fill="none"/>
    </clipPath>
    <linearGradient id="linear-gradient-18" x1="-6.661" y1="5.199" x2="-6.552" y2="5.199" gradientUnits="objectBoundingBox">
      <stop offset="0" stop-color="#c0c3d1"/>
      <stop offset="0.261" stop-color="#c0c3d1"/>
      <stop offset="0.644" stop-color="#ced0d8"/>
      <stop offset="1" stop-color="#ced0d8"/>
    </linearGradient>
    <clipPath id="clip-path-31">
      <path id="Trazado_880246" data-name="Trazado 880246" d="M65.144,52.465a6.548,6.548,0,0,0-2.891.912A15.74,15.74,0,0,0,54.968,65.7a6.781,6.781,0,0,0,.645,3.159c.294.566,7.378,14.363,7.724,15.071.013,0,.04-1.137.04-1.137.038.027-.232-.232-.5-.491a5.815,5.815,0,0,1-.493-.493,14.327,14.327,0,0,1-.616-4.587,3.451,3.451,0,0,1,.012-.347A24.7,24.7,0,0,1,63.4,69a33.088,33.088,0,0,1,5.743-9.88,24.965,24.965,0,0,1,6.037-5.28c.205-.127.411-.242.616-.359,1.375-.783,4.67-1.381,5.93-1.639a1.085,1.085,0,0,0-.246-.129c-.8.025-15.716.727-16.332.753" transform="translate(-54.968 -51.712)" fill="none"/>
    </clipPath>
    <linearGradient id="linear-gradient-19" x1="-2.048" y1="2.297" x2="-2.007" y2="2.297" gradientUnits="objectBoundingBox">
      <stop offset="0" stop-color="#c0c3d4"/>
      <stop offset="0.276" stop-color="#c0c3d4"/>
      <stop offset="0.497" stop-color="#dadce6"/>
      <stop offset="0.631" stop-color="#e4e6ed"/>
      <stop offset="1" stop-color="#e4e6ed"/>
    </linearGradient>
  </defs>
  <g id="Grupo_1105244" data-name="Grupo 1105244" clip-path="url(#clip-path)">
    <g id="Grupo_1105181" data-name="Grupo 1105181">
      <g id="Grupo_1105180" data-name="Grupo 1105180" clip-path="url(#clip-path)">
        <path id="Trazado_880178" data-name="Trazado 880178" d="M10.232,119.013.847,113.594c-1.254-.725-1.1-2,.352-2.836L52.765,80.987a5.481,5.481,0,0,1,4.911-.2l9.385,5.42c1.254.723,1.1,2-.352,2.835L15.143,118.809a5.481,5.481,0,0,1-4.911.2" transform="translate(0 53.823)" fill="#2f0474"/>
        <path id="Trazado_880179" data-name="Trazado 880179" d="M58.976,15.566c1.582-.914,2.885-.17,2.888,1.647l.291,108.928a6.354,6.354,0,0,1-2.87,4.971L10.457,159.3c-1.582.914-2.883.17-2.89-1.647L7.278,48.728a6.349,6.349,0,0,1,2.871-4.971Z" transform="translate(4.879 10.172)" fill="#e6e6fa"/>
        <path id="Trazado_880180" data-name="Trazado 880180" d="M9.081,103.214l-3.416-1.986a2.268,2.268,0,0,1-.952-2.083l3.416,1.986a2.273,2.273,0,0,0,.952,2.083" transform="translate(3.159 66.458)" fill="#9e9eb8"/>
        <path id="Trazado_880181" data-name="Trazado 880181" d="M9.577,102.609l-.944.028c-1.1.033-1.871-.817-1.876-2.3l1.158.237c.005,1.315.686,2.068,1.662,2.038" transform="translate(4.53 67.255)" fill="#c1c1e8"/>
        <path id="Trazado_880182" data-name="Trazado 880182" d="M38.028,13.645l3.416,1.984a2.3,2.3,0,0,0-2.313.222l-3.416-1.984a2.291,2.291,0,0,1,2.313-.222" transform="translate(23.94 8.998)" fill="#acacc7"/>
        <path id="Trazado_880183" data-name="Trazado 880183" d="M40.721,15.526c.147.277.3.556.443.835-.461-.87-1.467-1.084-2.619-.418l-.785-.889c1.3-.753,2.44-.511,2.961.471" transform="translate(25.311 9.795)" fill="#c1c1e8"/>
        <path id="Trazado_880184" data-name="Trazado 880184" d="M9.9,43.865,6.481,41.881,55.309,13.69l3.416,1.984Z" transform="translate(4.344 9.176)" fill="#acacc7"/>
        <path id="Trazado_880185" data-name="Trazado 880185" d="M8.245,144.844l-3.416-1.986L4.539,33.932l3.416,1.984Z" transform="translate(3.042 22.745)" fill="#9e9eb8"/>
        <path id="Trazado_880186" data-name="Trazado 880186" d="M8.034,144.286l-1.159-.237L6.584,35.121l1.159.237Z" transform="translate(4.413 23.542)" fill="#c1c1e8"/>
        <path id="Trazado_880187" data-name="Trazado 880187" d="M9.311,43.956l-.785-.887,48.83-28.192.783.887Z" transform="translate(5.715 9.973)" fill="#c1c1e8"/>
      </g>
    </g>
    <g id="Grupo_1105183" data-name="Grupo 1105183" transform="translate(7.582 51.056)">
      <g id="Grupo_1105182" data-name="Grupo 1105182" clip-path="url(#clip-path-3)">
        <rect id="Rectángulo_404801" data-name="Rectángulo 404801" width="9.92" height="9.577" transform="matrix(0.5, -0.866, 0.866, 0.5, -3.3, 5.704)" fill="url(#linear-gradient)"/>
      </g>
    </g>
    <g id="Grupo_1105185" data-name="Grupo 1105185">
      <g id="Grupo_1105184" data-name="Grupo 1105184" clip-path="url(#clip-path)">
        <path id="Trazado_880189" data-name="Trazado 880189" d="M7.743,37.614l-1.159-.239a7.177,7.177,0,0,1,3.244-5.621l.785.889a6.352,6.352,0,0,0-2.87,4.971" transform="translate(4.413 21.286)" fill="#c1c1e8"/>
        <path id="Trazado_880190" data-name="Trazado 880190" d="M10.057,101.423l-.944.028c-.59.018-1-.438-1-1.233l1.159.239c0,.623.324.979.787.965" transform="translate(5.437 67.178)" fill="#0950e0"/>
        <path id="Trazado_880191" data-name="Trazado 880191" d="M39.579,16.916c.147.279.3.556.443.835-.219-.413-.695-.514-1.243-.2L38,16.665c.7-.4,1.3-.276,1.583.251" transform="translate(25.469 11.012)" fill="#0950e0"/>
        <path id="Trazado_880192" data-name="Trazado 880192" d="M35.538,20.585l-.785-.887,5.417-3.128.785.889Z" transform="translate(23.295 11.106)" fill="#0950e0"/>
        <path id="Trazado_880193" data-name="Trazado 880193" d="M34.723,20.768l-1.007-.676a5.693,5.693,0,0,1,1.732-1.65l.783.889a4.931,4.931,0,0,0-1.508,1.438" transform="translate(22.6 12.361)" fill="#0950e0"/>
        <path id="Trazado_880194" data-name="Trazado 880194" d="M32.941,24.32l-1.006-.676,2.975-4.214,1.006.676Z" transform="translate(21.407 13.024)" fill="#0950e0"/>
        <path id="Trazado_880195" data-name="Trazado 880195" d="M31.684,24.488,30.9,23.6a5.682,5.682,0,0,0,1.73-1.649l1.006.676a6.388,6.388,0,0,1-1.951,1.859" transform="translate(20.712 14.715)" fill="#0950e0"/>
        <path id="Trazado_880196" data-name="Trazado 880196" d="M16.871,38.112l-.785-.887L40.83,22.939l.783.889Z" transform="translate(10.782 15.376)" fill="#0950e0"/>
        <path id="Trazado_880197" data-name="Trazado 880197" d="M15.61,32.776l-.563-.932a2.36,2.36,0,0,0,1.735-.352l.783.887a2.655,2.655,0,0,1-1.956.4" transform="translate(10.086 21.109)" fill="#0950e0"/>
        <path id="Trazado_880198" data-name="Trazado 880198" d="M13.82,32.173l-.563-.932,2.99.77.563.932Z" transform="translate(8.886 20.941)" fill="#0950e0"/>
        <path id="Trazado_880199" data-name="Trazado 880199" d="M13,32.5l-.785-.887a2.343,2.343,0,0,1,1.735-.351l.563.93A2.062,2.062,0,0,0,13,32.5" transform="translate(8.19 20.921)" fill="#0950e0"/>
        <path id="Trazado_880200" data-name="Trazado 880200" d="M9.76,35.467l-.785-.887,5.417-3.128.785.889Z" transform="translate(6.016 21.082)" fill="#0950e0"/>
        <path id="Trazado_880201" data-name="Trazado 880201" d="M9.1,36.568l-1.159-.239a3.836,3.836,0,0,1,1.734-3l.785.887A3.013,3.013,0,0,0,9.1,36.568" transform="translate(5.32 22.337)" fill="#0950e0"/>
        <path id="Trazado_880202" data-name="Trazado 880202" d="M9.387,144.092l-1.159-.239L7.937,35.124l1.159.237Z" transform="translate(5.32 23.544)" fill="#0950e0"/>
      </g>
    </g>
    <g id="Grupo_1105187" data-name="Grupo 1105187" transform="translate(14.416 28.379)">
      <g id="Grupo_1105186" data-name="Grupo 1105186" clip-path="url(#clip-path-5)">
        <rect id="Rectángulo_404803" data-name="Rectángulo 404803" width="147.401" height="114.835" transform="translate(-60.829 105.354) rotate(-60)" fill="url(#linear-gradient-2)"/>
      </g>
    </g>
    <g id="Grupo_1105189" data-name="Grupo 1105189">
      <g id="Grupo_1105188" data-name="Grupo 1105188" clip-path="url(#clip-path)">
        <path id="Trazado_880204" data-name="Trazado 880204" d="M6.144,50.928l-.414.241a.878.878,0,0,0,.366-.8l.414-.241a.871.871,0,0,1-.366.8" transform="translate(3.841 33.6)" fill="#c1c1e8"/>
        <path id="Trazado_880205" data-name="Trazado 880205" d="M5.974,44.962l.414-.241-.025,9.028-.414.241Z" transform="translate(3.988 29.977)" fill="#c1c1e8"/>
        <path id="Trazado_880206" data-name="Trazado 880206" d="M4.684,43.651,5.1,43.41a.879.879,0,0,1,.89.085l-.414.241a.883.883,0,0,0-.89-.085" transform="translate(3.14 29.041)" fill="#c1c1e8"/>
        <path id="Trazado_880207" data-name="Trazado 880207" d="M5.217,43.668l.414-.241a2.762,2.762,0,0,1,1.249,2.161l-.414.242a2.767,2.767,0,0,0-1.249-2.163" transform="translate(3.497 29.11)" fill="#c1c1e8"/>
        <path id="Trazado_880208" data-name="Trazado 880208" d="M5.732,43.639A2.767,2.767,0,0,1,6.981,45.8L6.954,54.83c0,.792-.568,1.114-1.256.717a2.767,2.767,0,0,1-1.249-2.163l.027-9.028c0-.792.568-1.114,1.256-.717" transform="translate(2.982 29.138)" fill="#9b9bb8"/>
        <path id="Trazado_880209" data-name="Trazado 880209" d="M6.144,59.785l-.414.241a.876.876,0,0,0,.366-.8l.414-.242a.872.872,0,0,1-.366.8" transform="translate(3.841 39.537)" fill="#c1c1e8"/>
        <path id="Trazado_880210" data-name="Trazado 880210" d="M5.974,53.82l.414-.241-.025,9.026-.414.241Z" transform="translate(3.988 35.915)" fill="#c1c1e8"/>
        <path id="Trazado_880211" data-name="Trazado 880211" d="M4.684,52.508l.414-.241a.879.879,0,0,1,.89.085l-.414.241a.883.883,0,0,0-.89-.085" transform="translate(3.14 34.978)" fill="#c1c1e8"/>
        <path id="Trazado_880212" data-name="Trazado 880212" d="M5.217,52.525l.414-.241a2.762,2.762,0,0,1,1.249,2.163l-.414.242a2.767,2.767,0,0,0-1.249-2.165" transform="translate(3.497 35.047)" fill="#c1c1e8"/>
        <path id="Trazado_880213" data-name="Trazado 880213" d="M5.732,52.5a2.767,2.767,0,0,1,1.249,2.165l-.027,9.026c0,.792-.568,1.114-1.256.717a2.767,2.767,0,0,1-1.249-2.163l.027-9.026c0-.793.568-1.116,1.256-.718" transform="translate(2.982 35.075)" fill="#9b9bb8"/>
      </g>
    </g>
    <g id="Grupo_1105191" data-name="Grupo 1105191" transform="translate(66.895 97.992)">
      <g id="Grupo_1105190" data-name="Grupo 1105190" clip-path="url(#clip-path-7)">
        <rect id="Rectángulo_404805" data-name="Rectángulo 404805" width="20.584" height="29.483" transform="translate(-3.225 14.498) rotate(-77.652)" fill="url(#linear-gradient-3)"/>
      </g>
    </g>
    <g id="Grupo_1105193" data-name="Grupo 1105193" transform="translate(65.725 95.074)">
      <g id="Grupo_1105192" data-name="Grupo 1105192" clip-path="url(#clip-path-8)">
        <rect id="Rectángulo_404806" data-name="Rectángulo 404806" width="26.453" height="34.482" transform="translate(-4.328 19.397) rotate(-77.652)" fill="url(#linear-gradient-4)"/>
      </g>
    </g>
    <g id="Grupo_1105195" data-name="Grupo 1105195" transform="translate(66.799 93.183)">
      <g id="Grupo_1105194" data-name="Grupo 1105194" clip-path="url(#clip-path-9)">
        <rect id="Rectángulo_404807" data-name="Rectángulo 404807" width="38.725" height="33.611" transform="translate(-8.449 4.061) rotate(-25.67)" fill="url(#linear-gradient-5)"/>
      </g>
    </g>
    <g id="Grupo_1105197" data-name="Grupo 1105197" transform="translate(29.82 106.148)">
      <g id="Grupo_1105196" data-name="Grupo 1105196" clip-path="url(#clip-path-10)">
        <rect id="Rectángulo_404808" data-name="Rectángulo 404808" width="43.348" height="31.652" fill="url(#linear-gradient-6)"/>
      </g>
    </g>
    <g id="Grupo_1105199" data-name="Grupo 1105199">
      <g id="Grupo_1105198" data-name="Grupo 1105198" clip-path="url(#clip-path)">
        <path id="Trazado_880218" data-name="Trazado 880218" d="M40.367,63.933a13.509,13.509,0,0,1-12.26-.124c-3.339-2-3.26-5.175.174-7.1a13.515,13.515,0,0,1,12.26.124c3.337,2,3.26,5.175-.174,7.1" transform="translate(17.195 37.067)" fill="#c0baca"/>
      </g>
    </g>
    <g id="Grupo_1105201" data-name="Grupo 1105201" transform="translate(29.82 89.918)">
      <g id="Grupo_1105200" data-name="Grupo 1105200" clip-path="url(#clip-path-12)">
        <rect id="Rectángulo_404810" data-name="Rectángulo 404810" width="48.395" height="53.776" transform="translate(-13.704 22.535) rotate(-60)" fill="url(#linear-gradient-7)"/>
      </g>
    </g>
    <g id="Grupo_1105206" data-name="Grupo 1105206">
      <g id="Grupo_1105205" data-name="Grupo 1105205" clip-path="url(#clip-path)">
        <g id="Grupo_1105204" data-name="Grupo 1105204" transform="translate(30.853 106.104)" style="mix-blend-mode: multiply;isolation: isolate">
          <g id="Grupo_1105203" data-name="Grupo 1105203">
            <g id="Grupo_1105202" data-name="Grupo 1105202" clip-path="url(#clip-path-14)">
              <path id="Trazado_880220" data-name="Trazado 880220" d="M44.038,94.545a16.76,16.76,0,0,1-4.8.675C24.852,95.22,19.986,78,18.471,69.195a81.335,81.335,0,0,1,7.675-5.034c.695-.4,1.116-.636,1.116-.636a3.444,3.444,0,0,1,.593.636c3.025,4.137,1.094,17.5,3.165,23.72,1.784,5.352,7.055,7.032,13.018,6.665" transform="translate(-18.472 -63.523)" fill="#ebebeb"/>
            </g>
          </g>
        </g>
        <path id="Trazado_880221" data-name="Trazado 880221" d="M48.251,68.858c-6.125,3.536-16.085,3.518-22.249-.04s-6.194-9.309-.068-12.845,16.085-3.518,22.247.04,6.2,9.309.07,12.845" transform="translate(14.318 35.75)" fill="#d4d5e6"/>
      </g>
    </g>
    <g id="Grupo_1105208" data-name="Grupo 1105208" transform="translate(33.638 96.698)">
      <g id="Grupo_1105207" data-name="Grupo 1105207" clip-path="url(#clip-path-15)">
        <rect id="Rectángulo_404813" data-name="Rectángulo 404813" width="35.609" height="7.181" transform="translate(0)" fill="url(#linear-gradient-8)"/>
      </g>
    </g>
    <g id="Grupo_1105210" data-name="Grupo 1105210" transform="translate(27.234 69.416)">
      <g id="Grupo_1105209" data-name="Grupo 1105209" clip-path="url(#clip-path-16)">
        <rect id="Rectángulo_404814" data-name="Rectángulo 404814" width="51.398" height="59.809" transform="matrix(0.405, -0.915, 0.915, 0.405, -14.175, 28.358)" fill="url(#linear-gradient-9)"/>
      </g>
    </g>
    <g id="Grupo_1105212" data-name="Grupo 1105212" transform="translate(27.854 59.167)">
      <g id="Grupo_1105211" data-name="Grupo 1105211" clip-path="url(#clip-path-17)">
        <rect id="Rectángulo_404815" data-name="Rectángulo 404815" width="52.711" height="58.569" transform="translate(-14.925 24.546) rotate(-60)" fill="url(#linear-gradient-10)"/>
      </g>
    </g>
    <g id="Grupo_1105214" data-name="Grupo 1105214">
      <g id="Grupo_1105213" data-name="Grupo 1105213" clip-path="url(#clip-path)">
        <path id="Trazado_880225" data-name="Trazado 880225" d="M59.231,54.361a10.751,10.751,0,0,1-.249,3.262c-.85,2.823-3.107,5.417-6.95,7.558-6.523,3.638-15.656,4.73-23.727,3.316-2.517-.568-3.459-.78-4.69-11.538-.165-3.027.874-3.242,1.8-3.1,7.832,2.405,17.775,1.749,24.527-2.014,4.4-2.457,6.578-5.749,6.489-9.023.005-.067.01-.155.015-.22a.855.855,0,0,1,.351.281s2.07,3.942,2.439,11.477" transform="translate(15.818 28.558)" fill="#003447"/>
        <path id="Trazado_880226" data-name="Trazado 880226" d="M37.481,57.092a5.4,5.4,0,0,1-.835-.058l.17-1.014c.025.005,2.484.384,3.663-1.263l.837.6a4.6,4.6,0,0,1-3.835,1.735" transform="translate(24.564 36.704)" fill="#0bf"/>
        <path id="Trazado_880227" data-name="Trazado 880227" d="M34.128,58.532h-.309a2.58,2.58,0,0,1-1.834-.777,3.033,3.033,0,0,1-.864-2.145l0-.89A2.849,2.849,0,0,1,33.713,51.8l.3-.017a2.576,2.576,0,0,1,1.887.688,2.963,2.963,0,0,1,.935,2.086l.028.929a3.071,3.071,0,0,1-.844,2.225,2.619,2.619,0,0,1-1.889.818m.02-5.31-.06,0-.294.017a1.431,1.431,0,0,0-1.231,1.485l0,.89A1.588,1.588,0,0,0,33,56.738a1.154,1.154,0,0,0,.815.354h.309a1.193,1.193,0,0,0,.855-.381,1.62,1.62,0,0,0,.438-1.178l-.028-.929a1.509,1.509,0,0,0-.469-1.069,1.145,1.145,0,0,0-.775-.314" transform="translate(20.861 34.71)" fill="#0bf"/>
        <path id="Trazado_880228" data-name="Trazado 880228" d="M42.077,55.719a1.633,1.633,0,0,1-.73-.174,2.7,2.7,0,0,1-1.321-2.013l-.164-.889a3.576,3.576,0,0,1,1.251-3.623l.2-.122a1.641,1.641,0,0,1,1.54-.114A2.573,2.573,0,0,1,44.212,50.7l.192.915a3.524,3.524,0,0,1-1.343,3.8l-.214.11a1.687,1.687,0,0,1-.77.19m.122-5.632a.274.274,0,0,0-.14.047l-.2.122a2.284,2.284,0,0,0-.578,2.126l.164.889a1.385,1.385,0,0,0,.54.982.2.2,0,0,0,.207-.005l.214-.11A2.245,2.245,0,0,0,43,51.916L42.8,51a1.259,1.259,0,0,0-.519-.894.2.2,0,0,0-.084-.02" transform="translate(26.673 32.607)" fill="#0bf"/>
      </g>
    </g>
    <g id="Grupo_1105216" data-name="Grupo 1105216" transform="translate(24.01 106.257)">
      <g id="Grupo_1105215" data-name="Grupo 1105215" clip-path="url(#clip-path-19)">
        <rect id="Rectángulo_404817" data-name="Rectángulo 404817" width="18.205" height="40.283" transform="translate(-6.842 1.188) rotate(-10.069)" fill="url(#linear-gradient-11)"/>
      </g>
    </g>
    <g id="Grupo_1105218" data-name="Grupo 1105218" transform="translate(22.588 103.284)">
      <g id="Grupo_1105217" data-name="Grupo 1105217" clip-path="url(#clip-path-20)">
        <rect id="Rectángulo_404818" data-name="Rectángulo 404818" width="18.834" height="45.738" transform="translate(-3.248 0.197) rotate(-3.799)" fill="url(#linear-gradient-12)"/>
      </g>
    </g>
    <g id="Grupo_1105220" data-name="Grupo 1105220" transform="translate(28.554 102.502)">
      <g id="Grupo_1105219" data-name="Grupo 1105219" clip-path="url(#clip-path-21)">
        <rect id="Rectángulo_404819" data-name="Rectángulo 404819" width="33.218" height="45.008" transform="translate(-19.372 11.184) rotate(-30)" fill="url(#linear-gradient-13)"/>
      </g>
    </g>
    <g id="Grupo_1105227" data-name="Grupo 1105227">
      <g id="Grupo_1105226" data-name="Grupo 1105226" clip-path="url(#clip-path)">
        <path id="Trazado_880232" data-name="Trazado 880232" d="M73.064,53.473C80.7,49.215,86.81,52.945,86.7,61.8S80.312,81.283,72.672,85.539s-13.745.53-13.636-8.325,6.389-19.483,14.029-23.742" transform="translate(39.571 34.663)" fill="#d7d8e2"/>
        <path id="Trazado_880233" data-name="Trazado 880233" d="M70.451,54c6.362-3.546,11.447-.441,11.356,6.933S76.486,77.16,70.124,80.7s-11.447.443-11.356-6.932S64.089,57.546,70.451,54" transform="translate(39.392 35.213)" fill="#cdcedb"/>
        <path id="Trazado_880234" data-name="Trazado 880234" d="M65.225,55.052c3.808-2.121,6.852-.264,6.8,4.149a15.14,15.14,0,0,1-6.992,11.834c-3.808,2.123-6.852.264-6.8-4.149a15.151,15.151,0,0,1,6.994-11.834" transform="translate(39.033 36.314)" fill="#b9bbce"/>
        <g id="Grupo_1105225" data-name="Grupo 1105225" transform="translate(98.605 86.376)" style="mix-blend-mode: multiply;isolation: isolate">
          <g id="Grupo_1105224" data-name="Grupo 1105224">
            <g id="Grupo_1105223" data-name="Grupo 1105223" clip-path="url(#clip-path-23)">
              <g id="Grupo_1105222" data-name="Grupo 1105222" transform="translate(0.001 0)">
                <g id="Grupo_1105221" data-name="Grupo 1105221" clip-path="url(#clip-path-24)">
                  <rect id="Rectángulo_404820" data-name="Rectángulo 404820" width="44.437" height="49.085" transform="translate(-17.679 7.649) rotate(-30)" fill="url(#linear-gradient-14)"/>
                </g>
              </g>
            </g>
          </g>
        </g>
        <path id="Trazado_880236" data-name="Trazado 880236" d="M54.509,78.019l2.46-1.43a1.4,1.4,0,0,0,.685-1.355l-1.306-11.9-3.242,1.884Z" transform="translate(35.598 42.453)" fill="#ff1f41"/>
        <path id="Trazado_880237" data-name="Trazado 880237" d="M53.106,68.214,56.35,66.33V58.865l-3.244,1.884Z" transform="translate(35.597 39.458)" fill="#eb1d3b"/>
        <path id="Trazado_880238" data-name="Trazado 880238" d="M55.772,62l-6.644-5c.022.436.414,8.173.688,9.85.058.351,1.938,1.007,2.1,2.009.459,2.8,1.189,7.884,1.54,10.366a2.663,2.663,0,0,0,1.535,2.049c.965.441,2.115.964,2.181.99l-1.4-12.8Z" transform="translate(32.931 38.208)" fill="#ff405d"/>
        <path id="Trazado_880239" data-name="Trazado 880239" d="M56.012,48.964a4.455,4.455,0,0,0-2.6.653,11.584,11.584,0,0,0-5.35,9.055,4.542,4.542,0,0,0,.72,2.739q.882,1.225,1.764,2.452a5.338,5.338,0,0,1-.844-3.21,13.563,13.563,0,0,1,6.265-10.6,5.222,5.222,0,0,1,3.052-.767q-1.5-.16-3-.319" transform="translate(32.214 32.809)" fill="#ff1f41"/>
      </g>
    </g>
    <g id="Grupo_1105229" data-name="Grupo 1105229" transform="translate(81.91 82.071)">
      <g id="Grupo_1105228" data-name="Grupo 1105228" clip-path="url(#clip-path-25)">
        <rect id="Rectángulo_404823" data-name="Rectángulo 404823" width="30.688" height="30.331" transform="matrix(0.5, -0.866, 0.866, 0.5, -9.904, 17.117)" fill="url(#linear-gradient-15)"/>
      </g>
    </g>
    <g id="Grupo_1105231" data-name="Grupo 1105231" transform="translate(81.91 82.071)">
      <g id="Grupo_1105230" data-name="Grupo 1105230" clip-path="url(#clip-path-26)">
        <rect id="Rectángulo_404824" data-name="Rectángulo 404824" width="20.343" height="18.61" transform="matrix(0.5, -0.866, 0.866, 0.5, -7.221, 12.47)" fill="url(#linear-gradient-16)"/>
      </g>
    </g>
    <g id="Grupo_1105233" data-name="Grupo 1105233">
      <g id="Grupo_1105232" data-name="Grupo 1105232" clip-path="url(#clip-path)">
        <path id="Trazado_880242" data-name="Trazado 880242" d="M59.7,64.253c-.037,2.843,1.926,4.04,4.376,2.673a9.744,9.744,0,0,0,4.5-7.623c.035-2.843-1.926-4.039-4.378-2.672a9.754,9.754,0,0,0-4.5,7.623" transform="translate(40.018 37.581)" fill="#a2a5b8"/>
      </g>
    </g>
    <g id="Grupo_1105235" data-name="Grupo 1105235" transform="translate(99.719 93.646)">
      <g id="Grupo_1105234" data-name="Grupo 1105234" clip-path="url(#clip-path-28)">
        <rect id="Rectángulo_404826" data-name="Rectángulo 404826" width="18.702" height="18.266" transform="matrix(0.5, -0.866, 0.866, 0.5, -6.135, 10.594)" fill="url(#linear-gradient-17)"/>
      </g>
    </g>
    <g id="Grupo_1105237" data-name="Grupo 1105237" transform="translate(105.209 96.923)">
      <g id="Grupo_1105236" data-name="Grupo 1105236" clip-path="url(#clip-path-29)">
        <rect id="Rectángulo_404827" data-name="Rectángulo 404827" width="15.427" height="14.999" transform="translate(-5.095 8.79) rotate(-60)" fill="url(#linear-gradient-18)"/>
      </g>
    </g>
    <g id="Grupo_1105239" data-name="Grupo 1105239">
      <g id="Grupo_1105238" data-name="Grupo 1105238" clip-path="url(#clip-path)">
        <path id="Trazado_880245" data-name="Trazado 880245" d="M65.708,66.042c-.025,2.076,1.406,2.951,3.2,1.953A7.129,7.129,0,0,0,72.2,62.426c.025-2.076-1.406-2.95-3.2-1.953a7.127,7.127,0,0,0-3.291,5.569" transform="translate(44.045 40.26)" fill="#dddde2"/>
      </g>
    </g>
    <g id="Grupo_1105241" data-name="Grupo 1105241" transform="translate(91.813 86.375)">
      <g id="Grupo_1105240" data-name="Grupo 1105240" clip-path="url(#clip-path-31)">
        <rect id="Rectángulo_404829" data-name="Rectángulo 404829" width="41.283" height="39.288" transform="translate(-13.962 24.161) rotate(-60)" fill="url(#linear-gradient-19)"/>
      </g>
    </g>
    <g id="Grupo_1105243" data-name="Grupo 1105243">
      <g id="Grupo_1105242" data-name="Grupo 1105242" clip-path="url(#clip-path)">
        <path id="Trazado_880247" data-name="Trazado 880247" d="M73.063,53.474C80.7,49.216,86.808,52.943,86.7,61.8S80.31,81.283,72.672,85.54s-13.745.529-13.636-8.326,6.389-19.484,14.027-23.74M59.912,76.726c-.1,8.293,5.617,11.784,12.771,7.8S85.72,70.579,85.822,62.286s-5.616-11.784-12.771-7.8S60.013,68.433,59.912,76.726" transform="translate(39.571 34.663)" fill="#dddde2"/>
        <path id="Trazado_880248" data-name="Trazado 880248" d="M72.846,26.012l-.565.5a16.922,16.922,0,0,1-2.759,2.011l.833-.7a15.278,15.278,0,0,0,2.49-1.816" transform="translate(46.601 17.436)" fill="#ff405d"/>
        <path id="Trazado_880249" data-name="Trazado 880249" d="M75.667,20.1l-.155.738a15.159,15.159,0,0,0,.344-3.169l.194-1.081a16.914,16.914,0,0,1-.382,3.511" transform="translate(50.617 11.117)" fill="#ff405d"/>
        <path id="Trazado_880250" data-name="Trazado 880250" d="M75.292,27.1l-.833.7-12.3,7.1.356-.423Z" transform="translate(41.664 18.165)" fill="#ff405d"/>
        <path id="Trazado_880251" data-name="Trazado 880251" d="M75.687,6.837l.194-1.081.05,18.086-.192,1.081Z" transform="translate(50.734 3.859)" fill="#ff405d"/>
        <path id="Trazado_880252" data-name="Trazado 880252" d="M57.909,49.033l-3.646-2.12.489-13.331L58.4,35.7Z" transform="translate(36.373 22.511)" fill="#ff1f41"/>
        <path id="Trazado_880253" data-name="Trazado 880253" d="M58.441,45.063l-1.994,3.6.489-13.332,1.906-1.186Z" transform="translate(37.837 22.885)" fill="#ff405d"/>
        <path id="Trazado_880254" data-name="Trazado 880254" d="M74.793.713l3.646,2.12c-1.923-1.117-4.587-.96-7.526.737L67.267,1.45c2.94-1.7,5.6-1.854,7.526-.737" transform="translate(45.09 0)" fill="#ff1f41"/>
        <path id="Trazado_880255" data-name="Trazado 880255" d="M70.29,4.388l-.84-1.669c5.841-3.372,10.593-.666,10.611,6.045l-.192,1.081c-.017-6.057-4.308-8.5-9.579-5.457" transform="translate(46.553 0.85)" fill="#ff405d"/>
        <path id="Trazado_880256" data-name="Trazado 880256" d="M62.425,36.381,60.52,37.566c-5.283,2.368-9.4-.409-9.421-6.658l1.866-.109c.017,5.641,3.735,8.148,9.461,5.581" transform="translate(34.252 20.646)" fill="#ff405d"/>
        <path id="Trazado_880257" data-name="Trazado 880257" d="M55.647,38.5,52,36.378c-1.9-1.1-3.075-3.448-3.085-6.781l3.646,2.118c.01,3.334,1.186,5.679,3.085,6.783" transform="translate(32.789 19.839)" fill="#ff1f41"/>
        <path id="Trazado_880258" data-name="Trazado 880258" d="M52.583,38.973l-3.646-2.12-.052-18.084,3.646,2.118Z" transform="translate(32.768 12.581)" fill="#ff1f41"/>
        <path id="Trazado_880259" data-name="Trazado 880259" d="M52.986,38.058l-1.866.109-.052-18.086,1.866-.109Z" transform="translate(34.232 13.388)" fill="#ff405d"/>
        <path id="Trazado_880260" data-name="Trazado 880260" d="M58.843,14.627,55.2,12.508,75.357.869,79,2.987Z" transform="translate(36.999 0.582)" fill="#ff1f41"/>
        <path id="Trazado_880261" data-name="Trazado 880261" d="M58.22,15.446l-.84-1.669L77.542,2.137l.839,1.669Z" transform="translate(38.462 1.433)" fill="#ff405d"/>
        <path id="Trazado_880262" data-name="Trazado 880262" d="M49.114,21.776l.085-.406c.023-.11.047-.22.07-.332a22.288,22.288,0,0,1,6.681-11.5l.563-.5a24.693,24.693,0,0,0-7.4,12.734" transform="translate(32.922 6.061)" fill="#ff405d"/>
        <path id="Trazado_880263" data-name="Trazado 880263" d="M81.862,3.662c5.271-3.045,9.563-.6,9.579,5.457l.05,18.086c.018,6.057-4.244,13.439-9.516,16.483L69.2,51.065,61.3,66.372l.4-10.922c-5.726,2.567-9.444.06-9.459-5.581l-.052-18.086C52.168,25.726,56.43,18.344,61.7,15.3Z" transform="translate(34.981 1.576)" fill="#ff5f76"/>
        <path id="Trazado_880264" data-name="Trazado 880264" d="M52.935,27.256l-1.866.109c-.02-6.711,4.7-14.887,10.541-18.26l.84,1.67c-5.272,3.042-9.534,10.424-9.516,16.481" transform="translate(34.232 6.103)" fill="#ff405d"/>
        <path id="Trazado_880265" data-name="Trazado 880265" d="M52.533,28.215,48.885,26.1c-.017-6.711,4.7-14.886,10.541-18.258l3.646,2.118c-5.841,3.372-10.56,11.547-10.54,18.26" transform="translate(32.768 5.253)" fill="#ff1f41"/>
        <path id="Trazado_880266" data-name="Trazado 880266" d="M68.618,19.24l1.637.95a1.156,1.156,0,0,0-1.168.115l-1.637-.952a1.159,1.159,0,0,1,1.168-.114" transform="translate(45.212 12.823)" fill="#ff1f41"/>
        <path id="Trazado_880267" data-name="Trazado 880267" d="M57.751,30.666l-1.637-.95a1.149,1.149,0,0,1-.478-1.054l1.635.95a1.152,1.152,0,0,0,.479,1.054" transform="translate(37.293 19.212)" fill="#ff1f41"/>
        <path id="Trazado_880268" data-name="Trazado 880268" d="M57.275,30.579l-1.637-.95-.007-2.409,1.637.952Z" transform="translate(37.291 18.246)" fill="#ff1f41"/>
        <path id="Trazado_880269" data-name="Trazado 880269" d="M58.249,30.668l-1.637-.95,18.1-10.453,1.637.952Z" transform="translate(37.947 12.913)" fill="#ff1f41"/>
        <path id="Trazado_880270" data-name="Trazado 880270" d="M57.269,29.31l-1.637-.95a3.61,3.61,0,0,1,1.637-2.838l1.637.952a3.607,3.607,0,0,0-1.637,2.836" transform="translate(37.291 17.108)" fill="#ff1f41"/>
        <path id="Trazado_880271" data-name="Trazado 880271" d="M76.351,19.924c.907-.524,1.645-.1,1.647.94L78,23.272a3.6,3.6,0,0,1-1.637,2.836l-18.1,10.451c-.907.524-1.645.1-1.649-.939l-.007-2.407a3.61,3.61,0,0,1,1.637-2.838Z" transform="translate(37.947 13.205)" fill="#fff"/>
        <path id="Trazado_880272" data-name="Trazado 880272" d="M71.472,10.256l1.635.95a1.16,1.16,0,0,0-1.168.115l-1.639-.95a1.162,1.162,0,0,1,1.171-.115" transform="translate(47.124 6.801)" fill="#ff1f41"/>
        <path id="Trazado_880273" data-name="Trazado 880273" d="M57.731,23.341l-1.637-.95a1.154,1.154,0,0,1-.479-1.054l1.637.95a1.154,1.154,0,0,0,.479,1.054" transform="translate(37.279 14.302)" fill="#ff1f41"/>
        <path id="Trazado_880274" data-name="Trazado 880274" d="M57.254,23.255l-1.637-.95-.007-2.41,1.637.952Z" transform="translate(37.277 13.335)" fill="#ff1f41"/>
        <path id="Trazado_880275" data-name="Trazado 880275" d="M58.228,24.454l-1.637-.95,22.9-13.222,1.637.95Z" transform="translate(37.933 6.892)" fill="#ff1f41"/>
        <path id="Trazado_880276" data-name="Trazado 880276" d="M57.248,21.984l-1.637-.95A3.607,3.607,0,0,1,57.248,18.2l1.637.95a3.61,3.61,0,0,0-1.637,2.836" transform="translate(37.277 12.198)" fill="#ff1f41"/>
        <path id="Trazado_880277" data-name="Trazado 880277" d="M81.13,10.94c.907-.523,1.645-.1,1.649.939l.007,2.41a3.608,3.608,0,0,1-1.639,2.835l-22.9,13.222c-.907.523-1.645.1-1.649-.939L56.591,27a3.607,3.607,0,0,1,1.637-2.836Z" transform="translate(37.934 7.183)" fill="#fff"/>
      </g>
    </g>
  </g>
</svg>
