<svg id="Grupo_1105314" data-name="Grupo 1105314" xmlns="http://www.w3.org/2000/svg" xmlns:xlink="http://www.w3.org/1999/xlink" width="150.582" height="189.67" viewBox="0 0 150.582 189.67">
  <defs>
    <clipPath id="clip-path">
      <rect id="Rect치ngulo_404857" data-name="Rect치ngulo 404857" width="150.582" height="189.67" fill="none"/>
    </clipPath>
    <clipPath id="clip-path-3">
      <path id="Trazado_880474" data-name="Trazado 880474" d="M67.016,20.454a2.768,2.768,0,0,1-2.794.273l1.419.826a2.776,2.776,0,0,0,2.8-.274l.032-.018-1.419-.826a.22.22,0,0,1-.033.02" transform="translate(-64.222 -20.434)" fill="none"/>
    </clipPath>
    <clipPath id="clip-path-5">
      <path id="Trazado_880477" data-name="Trazado 880477" d="M69.811,17.333a8.629,8.629,0,0,1-3.888,6.8l1.419.826a8.632,8.632,0,0,0,3.888-6.8,2.736,2.736,0,0,0-1.147-2.487l-1.419-.826a2.741,2.741,0,0,1,1.147,2.488" transform="translate(-65.923 -14.845)" fill="none"/>
    </clipPath>
    <clipPath id="clip-path-7">
      <path id="Trazado_880481" data-name="Trazado 880481" d="M67.167,11.978l1.419.824a4.489,4.489,0,0,1,3.073.231l-1.419-.824a4.016,4.016,0,0,0-1.78-.394,5.446,5.446,0,0,0-1.293.163" transform="translate(-67.167 -11.815)" fill="none"/>
    </clipPath>
    <clipPath id="clip-path-9">
      <path id="Trazado_880484" data-name="Trazado 880484" d="M61.951,25.757l1.419.824a5.659,5.659,0,0,1-1.677-2.294l-1.419-.824a5.671,5.671,0,0,0,1.677,2.294" transform="translate(-60.274 -23.463)" fill="none"/>
    </clipPath>
    <clipPath id="clip-path-11">
      <path id="Trazado_880488" data-name="Trazado 880488" d="M61.3,21.277a8.242,8.242,0,0,0,.226,1.9L62.946,24a8.315,8.315,0,0,1-.226-1.9,11.72,11.72,0,0,1,.186-2.139l-1.421-.824a12.022,12.022,0,0,0-.185,2.141" transform="translate(-61.3 -19.136)" fill="none"/>
    </clipPath>
    <clipPath id="clip-path-13">
      <path id="Trazado_880491" data-name="Trazado 880491" d="M62.706,17.269l1.419.826a17.283,17.283,0,0,1,3.035-3.813l-1.419-.824a17.273,17.273,0,0,0-3.035,3.811" transform="translate(-62.706 -13.458)" fill="none"/>
    </clipPath>
    <clipPath id="clip-path-15">
      <path id="Trazado_880494" data-name="Trazado 880494" d="M66.557,11.109l-.071.04a15.683,15.683,0,0,0-1.644,1.119l1.419.824a16.049,16.049,0,0,1,1.646-1.119l.07-.04a11.813,11.813,0,0,1,1.576-.77l-1.421-.824a12,12,0,0,0-1.574.77" transform="translate(-64.842 -10.339)" fill="none"/>
    </clipPath>
    <clipPath id="clip-path-17">
      <path id="Trazado_880499" data-name="Trazado 880499" d="M60.228,20.3l1.418.824A22.559,22.559,0,0,1,63.261,16.9l-1.419-.824A22.508,22.508,0,0,0,60.228,20.3" transform="translate(-60.228 -16.073)" fill="none"/>
    </clipPath>
    <clipPath id="clip-path-19">
      <path id="Trazado_880501" data-name="Trazado 880501" d="M45.418,55.072c.248.249.153,1.514.464,2.241a6.36,6.36,0,0,0,2.234,2.761l4.22,2.851q7.126,4.809,14.453,8.878l10.073,5.583c1.348.751,2.7.326,3.115-.976a3.459,3.459,0,0,0-.2-2.36,4.491,4.491,0,0,0-1.3-1.729L64.147,60.783q-1.95-1.568-3.981-2.94a51.843,51.843,0,0,0-9.857-5.257l-.78-.309A3.648,3.648,0,0,0,48.179,52a2.814,2.814,0,0,0-2.761,3.072" transform="translate(-45.418 -52)" fill="none"/>
    </clipPath>
    <linearGradient id="linear-gradient" x1="-1.803" y1="2.583" x2="-1.762" y2="2.583" gradientUnits="objectBoundingBox">
      <stop offset="0" stop-color="#caccde"/>
      <stop offset="0.263" stop-color="#caccde"/>
      <stop offset="0.603" stop-color="#cdcee0"/>
      <stop offset="0.869" stop-color="#d6d7e7"/>
      <stop offset="1" stop-color="#dfdeee"/>
    </linearGradient>
    <clipPath id="clip-path-20">
      <path id="Trazado_880502" data-name="Trazado 880502" d="M48.195,49.767l-2.6,1.656a4.939,4.939,0,0,1,4.563-.213l.781.309a55,55,0,0,1,10.437,5.567q2.147,1.451,4.217,3.117L79.929,71.738l2.6-1.656L68.193,58.547q-2.067-1.665-4.217-3.117a54.951,54.951,0,0,0-10.437-5.567l-.783-.311a5.984,5.984,0,0,0-2.2-.449,4.321,4.321,0,0,0-2.357.663" transform="translate(-45.597 -49.104)" fill="none"/>
    </clipPath>
    <linearGradient id="linear-gradient-2" x1="-1.677" y1="3.041" x2="-1.638" y2="3.041" gradientUnits="objectBoundingBox">
      <stop offset="0" stop-color="#eae9f2"/>
      <stop offset="0.149" stop-color="#eae9f2"/>
      <stop offset="0.522" stop-color="#e7e6f0"/>
      <stop offset="0.749" stop-color="#dedfeb"/>
      <stop offset="0.938" stop-color="#d0d2e2"/>
      <stop offset="1" stop-color="#caccde"/>
    </linearGradient>
    <clipPath id="clip-path-21">
      <path id="Trazado_880503" data-name="Trazado 880503" d="M66.252,63.381a8.532,8.532,0,0,1,2.465,3.288,6.572,6.572,0,0,1,.376,4.485,3.65,3.65,0,0,1-1.491,2.02l2.6-1.656a3.641,3.641,0,0,0,1.491-2.02,6.572,6.572,0,0,0-.376-4.485,8.532,8.532,0,0,0-2.465-3.288Z" transform="translate(-66.252 -61.725)" fill="none"/>
    </clipPath>
    <linearGradient id="linear-gradient-3" x1="-8.298" y1="8.015" x2="-8.169" y2="8.015" gradientUnits="objectBoundingBox">
      <stop offset="0" stop-color="#caccde"/>
      <stop offset="0.263" stop-color="#caccde"/>
      <stop offset="0.851" stop-color="#eae9f2"/>
      <stop offset="1" stop-color="#eae9f2"/>
    </linearGradient>
    <clipPath id="clip-path-22">
      <path id="Trazado_880504" data-name="Trazado 880504" d="M77.592,78.642,67.519,73.059Q60.2,69,53.067,64.181l-4.22-2.851a6.36,6.36,0,0,1-2.234-2.761c-.311-.726-.216-1.993-.464-2.241a2.839,2.839,0,0,1,4.112-2.8l.78.309A51.843,51.843,0,0,1,60.9,59.1q2.027,1.369,3.981,2.94L79.213,73.577a4.491,4.491,0,0,1,1.3,1.729,3.459,3.459,0,0,1,.2,2.36,1.831,1.831,0,0,1-1.8,1.346,2.711,2.711,0,0,1-1.315-.371M44.315,55.1a9.038,9.038,0,0,0,.755,3.65,10.353,10.353,0,0,0,3.638,4.493l4.22,2.849q7.243,4.894,14.7,9.027L77.7,80.7c2.571,1.426,5.129.625,5.922-1.855a6.572,6.572,0,0,0-.376-4.485,8.532,8.532,0,0,0-2.465-3.288L66.444,59.542q-2.067-1.663-4.217-3.117A55,55,0,0,0,51.79,50.859l-.781-.309A6.006,6.006,0,0,0,48.8,50.1c-2.545,0-4.433,1.933-4.488,5" transform="translate(-44.314 -50.101)" fill="none"/>
    </clipPath>
    <linearGradient id="linear-gradient-4" x1="-1.451" y1="2.287" x2="-1.416" y2="2.287" xlink:href="#linear-gradient"/>
    <clipPath id="clip-path-23">
      <path id="Trazado_880505" data-name="Trazado 880505" d="M23.44,56.826c0,1.1,2.566,33.3,22.936,33.3S69.05,59.536,69.05,56.818l-45.61.008" transform="translate(-23.44 -56.818)" fill="none"/>
    </clipPath>
    <linearGradient id="linear-gradient-5" x1="-0.854" y1="2.859" x2="-0.818" y2="2.859" gradientUnits="objectBoundingBox">
      <stop offset="0" stop-color="#caccde"/>
      <stop offset="0.371" stop-color="#caccde"/>
      <stop offset="0.969" stop-color="#eae9f2"/>
      <stop offset="1" stop-color="#eae9f2"/>
    </linearGradient>
    <clipPath id="clip-path-25">
      <path id="Trazado_880507" data-name="Trazado 880507" d="M39.729,58.076c-3.514-2.1-3.431-5.445.183-7.473a14.218,14.218,0,0,1,12.9.13c3.512,2.1,3.431,5.445-.183,7.473A13.2,13.2,0,0,1,46.3,59.69a13.1,13.1,0,0,1-6.572-1.614m5.457-11.515c-.829.012-1.843.121-2.658.211-.012,0-1.31.155-2.686.469-.439.1-1.017.246-1.449.367-.391.111-.9.279-1.29.4-.48.153-1.1.4-1.569.6-.381.156-.874.392-1.248.563a17.356,17.356,0,0,0-1.619.864c-.688.421-1.591,1.011-2.229,1.5a21.073,21.073,0,0,0-2,1.752,18,18,0,0,0-1.476,1.667c-.229.309-.545.711-.755,1.031-.317.49-.716,1.162-1,1.669a13.4,13.4,0,0,0-.773,1.657c-.266.7-.562,1.657-.766,2.38-.956,3.9,1.11,8.022,6.225,11.078,8.78,5.247,23.217,5.394,32.249.327,5.41-3.037,7.653-7.257,6.694-11.279-.136-.53-.332-1.235-.515-1.752-.2-.549-.5-1.263-.748-1.79a18.152,18.152,0,0,0-1.8-2.949,19.126,19.126,0,0,0-2.6-2.821,21.343,21.343,0,0,0-3.243-2.372c-.444-.271-1.059-.6-1.523-.834-.366-.185-.863-.409-1.237-.573A26.252,26.252,0,0,0,51.8,47.078c-1.007-.2-2.059-.334-2.653-.389-.394-.037-.921-.088-1.318-.1s-.924-.038-1.321-.043h-.156c-.372,0-.819.012-1.165.017" transform="translate(-23.44 -46.544)" fill="none"/>
    </clipPath>
    <linearGradient id="linear-gradient-6" x1="-0.713" y1="2.206" x2="-0.68" y2="2.206" gradientUnits="objectBoundingBox">
      <stop offset="0" stop-color="#caccde"/>
      <stop offset="0.56" stop-color="#eae9f2"/>
      <stop offset="1" stop-color="#eae9f2"/>
    </linearGradient>
    <clipPath id="clip-path-27">
      <rect id="Rect치ngulo_404848" data-name="Rect치ngulo 404848" width="26.901" height="33.351" fill="none"/>
    </clipPath>
    <clipPath id="clip-path-28">
      <path id="Trazado_880510" data-name="Trazado 880510" d="M27.247,52.184c.2.173.484.384.693.545.573.44,1.383.974,2,1.351.515.314,1.222.708,1.769.967a25.251,25.251,0,0,0,2.771,1.172c.424.161,1,.351,1.436.47.795.218,1.863.477,2.668.653.427.091,1,.189,1.434.243.416.052.971.13,1.388.17s.977.085,1.4.108.979.04,1.4.045.982-.012,1.4-.017,1.011-.04,1.441-.083c.834-.08,1.943-.223,2.772-.347.45-.07,1.046-.189,1.489-.3.4-.1.944-.224,1.345-.337.482-.136,1.117-.339,1.594-.492.562-.181,1.295-.474,1.838-.706.728-.312,1.677-.783,2.372-1.164.593-.326,1.353-.818,1.916-1.19.391-.259.893-.632,1.253-.929.273-.226.587-.5.894-.776a18.081,18.081,0,0,1-2.912,2c-8.657,4.827-22.408,4.689-30.71-.311a17.362,17.362,0,0,1-2.36-1.689c.244.219.492.435.7.618m-.7-.618c-.243-.218-.482-.435-.685-.627q.324.317.685.627m35.983,0c.283-.239.55-.484.8-.733-.236.224-.515.48-.8.733" transform="translate(-25.857 -50.836)" fill="none"/>
    </clipPath>
    <linearGradient id="linear-gradient-7" x1="-1.147" y1="13.917" x2="-1.103" y2="13.917" gradientUnits="objectBoundingBox">
      <stop offset="0" stop-color="#a8a4b5"/>
      <stop offset="0.235" stop-color="#a8a4b5"/>
      <stop offset="1" stop-color="#dbd3e2"/>
    </linearGradient>
    <clipPath id="clip-path-29">
      <path id="Trazado_880511" data-name="Trazado 880511" d="M22.573,39.9c-.221,1.418-.269,2.435-.327,2.772-.3,1.739-2.159,11.547,4.907,18.337s13.9,8.231,22.582,8.231c11.457,0,23.383-11.381,23.383-19.142a42.214,42.214,0,0,0-1.554-11.9c-.991-3.323-9.039-4.637-18.337-4.637-13.7,0-30.109,2.852-30.654,6.338" transform="translate(-21.803 -33.566)" fill="none"/>
    </clipPath>
    <linearGradient id="linear-gradient-8" x1="-0.629" y1="2.344" x2="-0.598" y2="2.344" xlink:href="#linear-gradient-5"/>
    <clipPath id="clip-path-30">
      <path id="Trazado_880512" data-name="Trazado 880512" d="M45.881,27.1c-.9.012-2.006.133-2.894.231-.013,0-1.428.166-2.925.509-.479.11-1.109.271-1.581.4-.424.12-.982.3-1.4.437-.522.166-1.2.439-1.709.648-.414.17-.952.427-1.36.613a18.659,18.659,0,0,0-1.762.942c-.751.457-1.734,1.1-2.43,1.634a23.494,23.494,0,0,0-2.174,1.908,19.8,19.8,0,0,0-1.609,1.815c-.248.336-.592.775-.821,1.124-.347.534-.78,1.263-1.094,1.817a14.71,14.71,0,0,0-.841,1.805c-.291.763-.613,1.805-.836,2.593-1.039,4.252,1.212,8.735,6.782,12.066,9.562,5.716,25.287,5.874,35.123.354,5.892-3.306,8.336-7.9,7.29-12.283-.148-.577-.362-1.345-.562-1.907-.213-.6-.542-1.376-.813-1.951a19.98,19.98,0,0,0-1.955-3.21,20.9,20.9,0,0,0-2.829-3.073,23.348,23.348,0,0,0-3.532-2.583c-.484-.3-1.154-.652-1.659-.908-.4-.2-.939-.447-1.346-.628a28.77,28.77,0,0,0-5.857-1.793c-1.1-.214-2.241-.361-2.889-.422-.429-.04-1-.1-1.436-.11s-1.006-.042-1.438-.047h-.158c-.407,0-.9.013-1.282.017" transform="translate(-22.195 -27.079)" fill="none"/>
    </clipPath>
    <linearGradient id="linear-gradient-9" x1="-0.613" y1="2.568" x2="-0.583" y2="2.568" xlink:href="#linear-gradient-6"/>
    <clipPath id="clip-path-32">
      <path id="Trazado_880517" data-name="Trazado 880517" d="M24.912,59.618,23.9,64.483q-1.7,8.22-2.716,16.795l-1.4,11.783a4.251,4.251,0,0,0,1.793,4.014,1.91,1.91,0,0,0,2.894-1.308L29.42,79.481q.673-2.217,1.155-4.561a59.366,59.366,0,0,0,1.2-11.56l.008-.929a6,6,0,0,0-2.608-5.118c-.317-.183-.891-.14-1-.379a2.634,2.634,0,0,0-.492-.047c-1.326,0-2.422,1.05-2.768,2.731" transform="translate(-19.761 -56.887)" fill="none"/>
    </clipPath>
    <linearGradient id="linear-gradient-10" x1="-1.525" y1="2.262" x2="-1.438" y2="2.262" gradientUnits="objectBoundingBox">
      <stop offset="0" stop-color="#caccde"/>
      <stop offset="1" stop-color="#dfdeee"/>
    </linearGradient>
    <clipPath id="clip-path-33">
      <path id="Trazado_880518" data-name="Trazado 880518" d="M22.178,98.321a4.251,4.251,0,0,1-1.793-4.014l1.4-11.783Q22.8,73.96,24.5,65.729l1.007-4.865c.387-1.885,1.717-2.977,3.26-2.684.11.239.683.2,1,.381a5.993,5.993,0,0,1,2.608,5.116l-.008.929a59.365,59.365,0,0,1-1.2,11.56q-.481,2.341-1.155,4.561L25.072,97.013a2.007,2.007,0,0,1-1.86,1.6,2.059,2.059,0,0,1-1.034-.3m1.9-38.871-1,4.868q-1.728,8.355-2.763,17.074l-1.4,11.785c-.357,3.009,1.114,6.3,3.407,7.628s4.667.249,5.5-2.487l4.943-16.284q.713-2.351,1.225-4.832a62.858,62.858,0,0,0,1.265-12.24l.01-.931c.027-3.524-1.79-6.913-4.247-8.331a5.226,5.226,0,0,0-1.627-.618,4.311,4.311,0,0,0-.8-.076c-2.162,0-3.941,1.709-4.508,4.445" transform="translate(-18.862 -55.005)" fill="none"/>
    </clipPath>
    <linearGradient id="linear-gradient-11" x1="-1.489" y1="2.052" x2="-1.405" y2="2.052" xlink:href="#linear-gradient-10"/>
    <clipPath id="clip-path-34">
      <path id="Trazado_880519" data-name="Trazado 880519" d="M28.08,54.648l-3.03.823a4.061,4.061,0,0,1,1.838-.062,5.226,5.226,0,0,1,1.627.618c2.457,1.418,4.273,4.807,4.247,8.331l-.01.931a62.858,62.858,0,0,1-1.265,12.24q-.511,2.478-1.225,4.832L25.319,98.646a4.058,4.058,0,0,1-2.681,2.939l3.03-.824a4.055,4.055,0,0,0,2.683-2.937l4.942-16.286q.716-2.349,1.227-4.83a63.259,63.259,0,0,0,1.267-12.24l.007-.931c.027-3.524-1.79-6.913-4.247-8.331a5.166,5.166,0,0,0-1.627-.617,4.319,4.319,0,0,0-.8-.078,3.96,3.96,0,0,0-1.036.138" transform="translate(-22.638 -54.51)" fill="none"/>
    </clipPath>
    <linearGradient id="linear-gradient-12" x1="-0.765" y1="2.093" x2="-0.718" y2="2.093" gradientUnits="objectBoundingBox">
      <stop offset="0" stop-color="#d2d3e5"/>
      <stop offset="0.68" stop-color="#d2d3e5"/>
      <stop offset="0.813" stop-color="#eae9f2"/>
      <stop offset="1" stop-color="#eae9f2"/>
    </linearGradient>
  </defs>
  <g id="Grupo_1105313" data-name="Grupo 1105313" clip-path="url(#clip-path)">
    <path id="Trazado_880278" data-name="Trazado 880278" d="M10.12,111.468l53.148,30.685H75.1l56.944-39.709L78.9,71.759Z" transform="translate(6.701 47.517)" fill="#2f0474"/>
    <path id="Trazado_880279" data-name="Trazado 880279" d="M0,112.77l4.749,2.743,28.672-1.735L70.333,73.96l-1.556-.9Z" transform="translate(0 48.378)" fill="#2f0474"/>
    <path id="Trazado_880280" data-name="Trazado 880280" d="M21.413,97.817l-3.067-3.9.386-4.137,1.4.549L21.8,93.68Z" transform="translate(12.148 59.447)" fill="#8484b8"/>
    <path id="Trazado_880281" data-name="Trazado 880281" d="M13.251,53.359l12.317,64.218L23.862,119.8l-5.291,3.055L17.449,91.3,10.879,52.662Z" transform="translate(7.204 34.871)" fill="#9191c9"/>
    <path id="Trazado_880282" data-name="Trazado 880282" d="M10.068,55.2l12.317,64.218-1.705,2.227-1.2-1.335L7.7,54.5Z" transform="translate(5.096 36.088)" fill="#9c9cd8"/>
    <path id="Trazado_880283" data-name="Trazado 880283" d="M51.446,31.307,63.763,95.524l-1.705,2.227-5.291,3.055-1.122-31.56L49.074,30.61Z" transform="translate(32.495 20.269)" fill="#9191c9"/>
    <path id="Trazado_880284" data-name="Trazado 880284" d="M48.263,33.144,60.58,97.362l-1.705,2.227-1.2-1.335-5.211-27.17L45.891,32.448Z" transform="translate(30.388 21.486)" fill="#787a80"/>
    <path id="Trazado_880285" data-name="Trazado 880285" d="M75.84,68.868l2.949,1.7-58.2,33.6-2.949-1.7Z" transform="translate(11.684 45.602)" fill="#9c9cd8"/>
    <path id="Trazado_880286" data-name="Trazado 880286" d="M16.214,96.191v.642l23.8,13.743,31.054,16.876v-2.8L17.92,93.962Z" transform="translate(10.737 62.218)" fill="#9c9cd8"/>
    <path id="Trazado_880287" data-name="Trazado 880287" d="M74.251,122.81,21.1,92.124,19.4,94.353v.642l23.8,13.741,31.054,16.878Z" transform="translate(12.844 61.002)" fill="#fff"/>
    <path id="Trazado_880288" data-name="Trazado 880288" d="M57.592,72.3v.642l23.8,13.743,31.054,16.876v-2.8L59.3,70.072Z" transform="translate(38.135 46.399)" fill="#fff"/>
    <path id="Trazado_880289" data-name="Trazado 880289" d="M109.264,102.6,56.116,71.91l-1.707,2.229v.642l23.8,13.741L109.264,105.4Z" transform="translate(36.028 47.616)" fill="#fff"/>
    <path id="Trazado_880290" data-name="Trazado 880290" d="M47.318,34.084l5.291-3.055L64.926,95.247,59.635,98.3Z" transform="translate(31.333 20.546)" fill="#c1c1e8"/>
    <path id="Trazado_880291" data-name="Trazado 880291" d="M70.5,32.867l-58.2,33.6L23.877,126.8l58.2-33.6Z" transform="translate(8.149 21.763)" fill="#c1c1e8"/>
    <path id="Trazado_880292" data-name="Trazado 880292" d="M77.9,31.029,9.123,70.738l11.57,60.332L89.472,91.361Z" transform="translate(6.041 20.547)" fill="#c1c1e8"/>
    <path id="Trazado_880293" data-name="Trazado 880293" d="M79.285,73.246l-1.67-3.353-58.2,33.6,1.67,3.353Z" transform="translate(12.858 46.281)" fill="#acacdf"/>
    <path id="Trazado_880294" data-name="Trazado 880294" d="M9.123,56.136l5.291-3.055L26.73,117.3l-5.291,3.055Z" transform="translate(6.041 35.148)" fill="#c1c1e8"/>
    <path id="Trazado_880295" data-name="Trazado 880295" d="M17.24,109.781l53.148,30.687,68.779-39.711L86.018,70.072Z" transform="translate(11.416 46.399)" fill="#c1c1e8"/>
    <path id="Trazado_880296" data-name="Trazado 880296" d="M49.216,128.243v2.8l68.777-39.709V88.532Z" transform="translate(32.589 58.623)" fill="#acacdf"/>
    <path id="Trazado_880297" data-name="Trazado 880297" d="M10.068,71.015,78.845,31.306l-2.372-.695L7.7,70.318Z" transform="translate(5.096 20.27)" fill="#e6e6fa"/>
    <g id="Grupo_1105247" data-name="Grupo 1105247">
      <g id="Grupo_1105246" data-name="Grupo 1105246" clip-path="url(#clip-path)">
        <path id="Trazado_880298" data-name="Trazado 880298" d="M93.1,97.386a.918.918,0,0,1,.01,1.737l-25.293,14.7a3.3,3.3,0,0,1-3,0l-14.27-8.238a.918.918,0,0,1-.01-1.737l25.293-14.7a3.3,3.3,0,0,1,3,0Z" transform="translate(33.058 58.793)" fill="#a0a0bf"/>
        <path id="Trazado_880299" data-name="Trazado 880299" d="M10.386,70.522,75.714,32.8,86.535,89.227,21.207,126.943Z" transform="translate(6.877 21.722)" fill="#2462e0"/>
        <path id="Trazado_880300" data-name="Trazado 880300" d="M58.213,76.54v0a.343.343,0,0,0,.2.276l.715.412a1.056,1.056,0,0,0,.957,0l2.63-1.528a.339.339,0,0,0,.2-.279v-.382l-.273.065L62,74.735a1.055,1.055,0,0,0-.959,0l-2.187,1.272-.638.151Z" transform="translate(38.547 49.411)" fill="#a0a0bf"/>
        <path id="Trazado_880301" data-name="Trazado 880301" d="M55.933,78.259l.713.412a1.06,1.06,0,0,0,.959,0l2.63-1.529a.337.337,0,0,0,.2-.276v-.382l-.269.065-.645-.372a1.05,1.05,0,0,0-.959,0l-2.187,1.272-.638.151v.382a.339.339,0,0,0,.2.278" transform="translate(36.905 50.365)" fill="#a0a0bf"/>
        <path id="Trazado_880302" data-name="Trazado 880302" d="M53.453,79.7l.713.412a1.06,1.06,0,0,0,.959,0l2.63-1.529a.333.333,0,0,0,.2-.269l0,0v-.387l-.269.065-.645-.372a1.05,1.05,0,0,0-.959,0l-2.187,1.27-.638.153v.381a.339.339,0,0,0,.2.279" transform="translate(35.263 51.319)" fill="#a0a0bf"/>
        <path id="Trazado_880303" data-name="Trazado 880303" d="M33.616,91.228l.713.412a1.06,1.06,0,0,0,.959,0l2.63-1.529a.331.331,0,0,0,.2-.278h0v-.382l-.273.065-.642-.371a1.05,1.05,0,0,0-.959,0l-2.191,1.272-.635.151v.382a.339.339,0,0,0,.2.278" transform="translate(22.128 58.952)" fill="#a0a0bf"/>
        <path id="Trazado_880304" data-name="Trazado 880304" d="M37.193,90.137,34.746,91.56h-.379v.384a.334.334,0,0,0,.2.276l2.646,1.529a1.06,1.06,0,0,0,.959,0l2.63-1.529a.332.332,0,0,0,.2-.278v-.377l-.376,0-2.47-1.426a1.06,1.06,0,0,0-.959,0" transform="translate(22.757 59.61)" fill="#a0a0bf"/>
        <path id="Trazado_880305" data-name="Trazado 880305" d="M31.137,92.669l.713.412a1.06,1.06,0,0,0,.959,0l2.63-1.528a.34.34,0,0,0,.2-.278v-.382l-.269.065-.645-.372a1.05,1.05,0,0,0-.959,0l-2.192,1.273-.633.151v.381a.336.336,0,0,0,.2.278" transform="translate(20.486 59.906)" fill="#a0a0bf"/>
        <path id="Trazado_880306" data-name="Trazado 880306" d="M32.086,93.66l2.646,1.529a1.06,1.06,0,0,0,.959,0l2.63-1.529a.333.333,0,0,0,.2-.274h0V93l-.377,0-2.47-1.424a1.06,1.06,0,0,0-.959,0L32.266,93h-.379v.384a.336.336,0,0,0,.2.278" transform="translate(21.115 60.564)" fill="#a0a0bf"/>
        <path id="Trazado_880307" data-name="Trazado 880307" d="M28.657,94.11l.713.412a1.06,1.06,0,0,0,.959,0l2.63-1.529a.331.331,0,0,0,.2-.274h0v-.386l-.271.065-.643-.371a1.05,1.05,0,0,0-.959,0L29.1,93.3l-.642.153v.382a.339.339,0,0,0,.2.279" transform="translate(18.844 60.861)" fill="#a0a0bf"/>
        <path id="Trazado_880308" data-name="Trazado 880308" d="M29.608,95.1l2.645,1.528a1.05,1.05,0,0,0,.959,0l2.63-1.528a.335.335,0,0,0,.2-.276h0v-.384h-.382l-2.465-1.423a1.046,1.046,0,0,0-.957,0l-2.452,1.423h-.376v.382a.337.337,0,0,0,.2.278" transform="translate(19.472 61.517)" fill="#a0a0bf"/>
        <path id="Trazado_880309" data-name="Trazado 880309" d="M30.931,94.159h0v-.382l-.254.071-.66-.381a1.051,1.051,0,0,0-.957,0L26.318,95.06l-.723.2v.382a.343.343,0,0,0,.2.278l.715.412a1.056,1.056,0,0,0,.957,0l3.268-1.9a.334.334,0,0,0,.2-.274" transform="translate(16.948 61.815)" fill="#a0a0bf"/>
        <path id="Trazado_880310" data-name="Trazado 880310" d="M33.559,96.267h0v-.381h-.374L30.712,94.46a1.046,1.046,0,0,0-.957,0L27.3,95.883h-.377v.382a.342.342,0,0,0,.2.278l2.646,1.528a1.05,1.05,0,0,0,.959,0l2.63-1.528a.335.335,0,0,0,.2-.276" transform="translate(17.83 62.472)" fill="#a0a0bf"/>
        <path id="Trazado_880311" data-name="Trazado 880311" d="M53.488,83.559,51.041,84.98h-.379v.384a.336.336,0,0,0,.2.278l2.648,1.529a1.056,1.056,0,0,0,.957,0l2.63-1.528a.342.342,0,0,0,.2-.279v-.377h-.376l-2.472-1.428a1.06,1.06,0,0,0-.959,0" transform="translate(33.547 55.254)" fill="#a0a0bf"/>
        <path id="Trazado_880312" data-name="Trazado 880312" d="M51.008,85l-2.453,1.426h-.372V86.8a.336.336,0,0,0,.2.278l2.648,1.529a1.056,1.056,0,0,0,.957,0l2.63-1.529a.338.338,0,0,0,.2-.278v-.379h-.377L51.967,85a1.06,1.06,0,0,0-.959,0" transform="translate(31.905 56.208)" fill="#a0a0bf"/>
        <path id="Trazado_880313" data-name="Trazado 880313" d="M45.9,88.524l2.646,1.528a1.05,1.05,0,0,0,.959,0l2.63-1.528a.335.335,0,0,0,.2-.276v-.382h-.377l-2.468-1.424a1.05,1.05,0,0,0-.959,0l-2.45,1.423H45.7v.382a.339.339,0,0,0,.2.278" transform="translate(30.263 57.162)" fill="#a0a0bf"/>
        <path id="Trazado_880314" data-name="Trazado 880314" d="M43.422,89.965l2.646,1.528a1.055,1.055,0,0,0,.959,0l2.63-1.528a.331.331,0,0,0,.2-.279v-.381h-.381l-2.465-1.424a1.055,1.055,0,0,0-.959,0L43.6,89.305h-.376v.382a.339.339,0,0,0,.2.278" transform="translate(28.621 58.116)" fill="#a0a0bf"/>
        <path id="Trazado_880315" data-name="Trazado 880315" d="M40.942,91.406l2.646,1.529a1.06,1.06,0,0,0,.959,0l2.63-1.529a.338.338,0,0,0,.2-.278v-.381H47l-2.468-1.424a1.05,1.05,0,0,0-.959,0l-2.45,1.423h-.376v.382a.336.336,0,0,0,.2.278" transform="translate(26.979 59.07)" fill="#a0a0bf"/>
        <path id="Trazado_880316" data-name="Trazado 880316" d="M41.09,90.763l-2.448,1.423h-.379v.384a.342.342,0,0,0,.2.276l2.646,1.529a1.06,1.06,0,0,0,.959,0l2.63-1.529a.331.331,0,0,0,.2-.278v-.379l-.377,0-2.468-1.424a1.06,1.06,0,0,0-.959,0" transform="translate(25.337 60.024)" fill="#a0a0bf"/>
        <path id="Trazado_880317" data-name="Trazado 880317" d="M35.983,94.288l2.646,1.528a1.055,1.055,0,0,0,.959,0l2.63-1.528a.335.335,0,0,0,.2-.271h0v-.384h-.374L39.569,92.2a1.06,1.06,0,0,0-.959,0l-2.45,1.424h-.376v.382a.339.339,0,0,0,.2.278" transform="translate(23.695 60.978)" fill="#a0a0bf"/>
        <path id="Trazado_880318" data-name="Trazado 880318" d="M63.195,85.028l2.63-1.528a.34.34,0,0,0,.2-.278v-.384h-.384l-2.463-1.423a1.06,1.06,0,0,0-.959,0l-2.452,1.426H59.39v.381a.339.339,0,0,0,.2.278l2.646,1.528a1.06,1.06,0,0,0,.959,0" transform="translate(39.326 53.835)" fill="#a0a0bf"/>
        <path id="Trazado_880319" data-name="Trazado 880319" d="M60.716,86.469l2.63-1.528a.34.34,0,0,0,.2-.278v-.382h-.379L60.7,82.857a1.06,1.06,0,0,0-.959,0l-2.448,1.423H56.91v.382h0a.339.339,0,0,0,.2.279l2.646,1.528a1.06,1.06,0,0,0,.959,0" transform="translate(37.684 54.789)" fill="#a0a0bf"/>
        <path id="Trazado_880320" data-name="Trazado 880320" d="M55.756,89.351l2.63-1.528a.335.335,0,0,0,.2-.276v-.384H58.2l-2.467-1.424a1.056,1.056,0,0,0-.957,0l-2.452,1.424H51.95v.382a.344.344,0,0,0,.2.278L54.8,89.351a1.06,1.06,0,0,0,.959,0" transform="translate(34.4 56.697)" fill="#a0a0bf"/>
        <path id="Trazado_880321" data-name="Trazado 880321" d="M68.2,85.047l2.63-1.528a.339.339,0,0,0,.2-.276h0v-.381l-.377,0-2.47-1.426a1.06,1.06,0,0,0-.959,0l-2.447,1.423H64.4v.381a.343.343,0,0,0,.2.281l2.646,1.528a1.06,1.06,0,0,0,.959,0" transform="translate(42.643 53.847)" fill="#a0a0bf"/>
        <path id="Trazado_880322" data-name="Trazado 880322" d="M53.276,90.792l2.63-1.528a.34.34,0,0,0,.2-.278V88.6h-.382L53.256,87.18a1.06,1.06,0,0,0-.959,0L49.847,88.6h-.376v.382a.339.339,0,0,0,.2.278l2.646,1.528a1.06,1.06,0,0,0,.959,0" transform="translate(32.758 57.652)" fill="#a0a0bf"/>
        <path id="Trazado_880323" data-name="Trazado 880323" d="M50.8,92.233l2.63-1.528a.34.34,0,0,0,.2-.278v-.381h-.377l-2.47-1.426a1.06,1.06,0,0,0-.959,0l-2.45,1.424h-.376v.382a.339.339,0,0,0,.2.278l2.646,1.528a1.06,1.06,0,0,0,.959,0" transform="translate(31.117 58.606)" fill="#a0a0bf"/>
        <path id="Trazado_880324" data-name="Trazado 880324" d="M48.317,93.674l2.63-1.529a.335.335,0,0,0,.2-.276v-.382h-.382L48.3,90.062a1.06,1.06,0,0,0-.959,0l-2.45,1.424h-.376v.379a.339.339,0,0,0,.2.279l2.646,1.529a1.06,1.06,0,0,0,.959,0" transform="translate(29.474 59.56)" fill="#a0a0bf"/>
        <path id="Trazado_880325" data-name="Trazado 880325" d="M45.838,95.115l2.63-1.528a.334.334,0,0,0,.2-.279v-.382h-.382L45.818,91.5a1.06,1.06,0,0,0-.959,0l-2.45,1.424h-.376v.381a.339.339,0,0,0,.2.279l2.646,1.528a1.06,1.06,0,0,0,.959,0" transform="translate(27.833 60.514)" fill="#a0a0bf"/>
        <path id="Trazado_880326" data-name="Trazado 880326" d="M72,83.454a1.06,1.06,0,0,0-.959,0L68.866,84.72l-.647.153v.384a.339.339,0,0,0,.2.279l.713.412a1.055,1.055,0,0,0,.959,0l2.63-1.528a.338.338,0,0,0,.2-.278v-.382l-.271.065Z" transform="translate(45.172 55.184)" fill="#a0a0bf"/>
        <path id="Trazado_880327" data-name="Trazado 880327" d="M65.882,85.665a1.06,1.06,0,0,0-.959,0l-2.448,1.423H62.1v.382a.339.339,0,0,0,.2.278l2.646,1.529a1.06,1.06,0,0,0,.959,0l2.63-1.529a.331.331,0,0,0,.2-.279h0v-.381h-.382Z" transform="translate(41.119 56.648)" fill="#a0a0bf"/>
        <path id="Trazado_880328" data-name="Trazado 880328" d="M71.825,87.106a1.06,1.06,0,0,0-.959,0L48.5,100.1l-1.6.71v.382a.343.343,0,0,0,.2.281L49.743,103a1.051,1.051,0,0,0,.957,0L74.475,89.188a.338.338,0,0,0,.2-.278V88.53l-.216.095Z" transform="translate(31.053 57.603)" fill="#a0a0bf"/>
        <path id="Trazado_880329" data-name="Trazado 880329" d="M39.752,95.028,42.4,96.555a1.05,1.05,0,0,0,.959,0l2.63-1.528a.337.337,0,0,0,.2-.276V94.37h-.379l-2.468-1.424a1.05,1.05,0,0,0-.959,0l-2.45,1.423h-.376v.382a.339.339,0,0,0,.2.278" transform="translate(26.191 61.469)" fill="#a0a0bf"/>
        <path id="Trazado_880330" data-name="Trazado 880330" d="M51.048,97.744v-.379h-.377L48.2,95.939a1.05,1.05,0,0,0-.959,0l-2.452,1.423h-.376v.382a.339.339,0,0,0,.2.278l2.646,1.528a1.046,1.046,0,0,0,.957,0l2.631-1.528a.34.34,0,0,0,.2-.274Z" transform="translate(29.411 63.451)" fill="#a0a0bf"/>
        <path id="Trazado_880331" data-name="Trazado 880331" d="M33.5,95.729l2.646,1.528a1.05,1.05,0,0,0,.959,0l2.63-1.528a.332.332,0,0,0,.2-.278v-.379H39.56l-2.47-1.426a1.055,1.055,0,0,0-.959,0l-2.45,1.423h-.376v.384a.336.336,0,0,0,.2.276" transform="translate(22.053 61.933)" fill="#a0a0bf"/>
        <path id="Trazado_880332" data-name="Trazado 880332" d="M39.8,97.929l2.646,1.528a1.055,1.055,0,0,0,.959,0l2.63-1.528a.334.334,0,0,0,.2-.278v-.381h-.377l-2.468-1.424a1.055,1.055,0,0,0-.959,0l-2.45,1.424H39.6v.382a.344.344,0,0,0,.2.278" transform="translate(26.222 63.389)" fill="#a0a0bf"/>
        <path id="Trazado_880333" data-name="Trazado 880333" d="M48.568,99.185v-.379h-.376l-2.47-1.426a1.05,1.05,0,0,0-.959,0L42.308,98.8h-.372v.381a.339.339,0,0,0,.2.278l2.646,1.528a1.046,1.046,0,0,0,.957,0l2.631-1.528a.339.339,0,0,0,.2-.276Z" transform="translate(27.769 64.405)" fill="#a0a0bf"/>
        <path id="Trazado_880334" data-name="Trazado 880334" d="M38.4,96.9h0v-.381l-.3.045-2.548-1.473a1.056,1.056,0,0,0-.957,0l-4.647,2.7-.509.078v.381a.339.339,0,0,0,.2.278l2.648,1.529a1.056,1.056,0,0,0,.957,0l4.96-2.882a.335.335,0,0,0,.2-.276" transform="translate(19.494 62.893)" fill="#a0a0bf"/>
        <path id="Trazado_880335" data-name="Trazado 880335" d="M42.974,97.63h0v-.381l-.271.063-2.576-1.486a1.05,1.05,0,0,0-.959,0l-6.6,3.835-.618.143v.379a.341.341,0,0,0,.2.278l2.646,1.528a1.056,1.056,0,0,0,.957,0l7.021-4.079a.334.334,0,0,0,.2-.279" transform="translate(21.158 63.376)" fill="#a0a0bf"/>
        <path id="Trazado_880336" data-name="Trazado 880336" d="M45.5,99.091h0v-.382l-.273.063-2.573-1.486a1.063,1.063,0,0,0-.961,0l-6.587,3.828-.628.146v.382a.341.341,0,0,0,.2.278l2.646,1.528a1.046,1.046,0,0,0,.957,0l7.019-4.079a.334.334,0,0,0,.2-.278" transform="translate(22.832 64.343)" fill="#a0a0bf"/>
        <path id="Trazado_880337" data-name="Trazado 880337" d="M40.763,100.262a1.06,1.06,0,0,0-.959,0l-2.45,1.423h-.376v.382a.336.336,0,0,0,.2.278l2.646,1.529a1.06,1.06,0,0,0,.959,0l2.63-1.529a.338.338,0,0,0,.2-.278v-.382h-.382Z" transform="translate(24.486 66.314)" fill="#a0a0bf"/>
        <path id="Trazado_880338" data-name="Trazado 880338" d="M46.089,100.626v-.382h-.381l-2.467-1.423a1.05,1.05,0,0,0-.959,0l-2.447,1.421h-.379v.384a.339.339,0,0,0,.2.278l2.646,1.528a1.046,1.046,0,0,0,.957,0l2.631-1.528a.337.337,0,0,0,.2-.278" transform="translate(26.127 65.359)" fill="#a0a0bf"/>
        <path id="Trazado_880339" data-name="Trazado 880339" d="M71.208,85.647h-.381l-2.467-1.423a1.05,1.05,0,0,0-.959,0l-2.448,1.423h-.377v.382a.341.341,0,0,0,.2.278l2.646,1.528a1.046,1.046,0,0,0,.957,0l2.63-1.528a.336.336,0,0,0,.2-.278Z" transform="translate(42.76 55.694)" fill="#a0a0bf"/>
        <path id="Trazado_880340" data-name="Trazado 880340" d="M71.485,83.154l-.643-.372a1.06,1.06,0,0,0-.959,0l-2.191,1.273-.637.151v.382a.344.344,0,0,0,.2.278l.713.412a1.06,1.06,0,0,0,.959,0l2.63-1.529a.332.332,0,0,0,.2-.278v-.382Z" transform="translate(44.402 54.739)" fill="#a0a0bf"/>
        <path id="Trazado_880341" data-name="Trazado 880341" d="M76.228,82.732h-.379l-2.468-1.424a1.05,1.05,0,0,0-.959,0l-2.45,1.423H69.6v.384a.342.342,0,0,0,.2.276l2.646,1.528a1.046,1.046,0,0,0,.957,0l2.63-1.528a.338.338,0,0,0,.2-.273h0Z" transform="translate(46.084 53.762)" fill="#a0a0bf"/>
        <path id="Trazado_880342" data-name="Trazado 880342" d="M66.878,81.5v.381a.341.341,0,0,0,.2.279l2.648,1.528a1.06,1.06,0,0,0,.959,0l3-1.742a.338.338,0,0,0,.2-.279v-.381l-.361.012-2.487-1.436a1.06,1.06,0,0,0-.959,0l-2.8,1.627Z" transform="translate(44.284 52.808)" fill="#a0a0bf"/>
        <path id="Trazado_880343" data-name="Trazado 880343" d="M61.869,82.437v.384a.343.343,0,0,0,.2.276l2.648,1.529a1.056,1.056,0,0,0,.957,0l7.121-4.137a.334.334,0,0,0,.2-.278v-.382l-.269.063L70.145,78.4a1.06,1.06,0,0,0-.959,0L62.5,82.288Z" transform="translate(40.968 51.841)" fill="#a0a0bf"/>
        <path id="Trazado_880344" data-name="Trazado 880344" d="M61.062,85.722h-.381L58.215,84.3a1.046,1.046,0,0,0-.957,0l-2.452,1.424H54.43V86.1a.342.342,0,0,0,.2.278l2.648,1.528a1.05,1.05,0,0,0,.959,0l2.63-1.528a.337.337,0,0,0,.2-.278Z" transform="translate(36.042 55.743)" fill="#a0a0bf"/>
        <path id="Trazado_880345" data-name="Trazado 880345" d="M37.073,96.193a.343.343,0,0,0,.2.276L39.92,98a1.056,1.056,0,0,0,.957,0l2.63-1.528a.341.341,0,0,0,.2-.276v-.384h-.382l-2.465-1.424a1.06,1.06,0,0,0-.959,0L37.45,95.809h-.377v.384Z" transform="translate(24.549 62.423)" fill="#a0a0bf"/>
        <path id="Trazado_880346" data-name="Trazado 880346" d="M45.887,98.016l2.63-1.528a.34.34,0,0,0,.2-.278V95.83h-.379L45.867,94.4a1.06,1.06,0,0,0-.959,0l-2.45,1.424h-.376v.382a.339.339,0,0,0,.2.278l2.646,1.528a1.06,1.06,0,0,0,.959,0" transform="translate(27.865 62.435)" fill="#a0a0bf"/>
        <path id="Trazado_880347" data-name="Trazado 880347" d="M48.366,96.575,51,95.047a.34.34,0,0,0,.2-.278v-.381h-.379l-2.468-1.426a1.06,1.06,0,0,0-.959,0l-2.45,1.424h-.376v.382a.339.339,0,0,0,.2.278l2.646,1.528a1.06,1.06,0,0,0,.959,0" transform="translate(29.507 61.481)" fill="#a0a0bf"/>
        <path id="Trazado_880348" data-name="Trazado 880348" d="M50.846,95.134l2.63-1.528a.34.34,0,0,0,.2-.278v-.381h-.379l-2.468-1.426a1.06,1.06,0,0,0-.959,0l-2.45,1.424h-.376v.382a.339.339,0,0,0,.2.278l2.646,1.528a1.06,1.06,0,0,0,.959,0" transform="translate(31.149 60.527)" fill="#a0a0bf"/>
        <path id="Trazado_880349" data-name="Trazado 880349" d="M53.326,93.693l2.63-1.528a.34.34,0,0,0,.2-.278v-.381h-.379l-2.468-1.426a1.06,1.06,0,0,0-.959,0L49.9,91.505h-.376v.382a.339.339,0,0,0,.2.278l2.646,1.528a1.06,1.06,0,0,0,.959,0" transform="translate(32.791 59.573)" fill="#a0a0bf"/>
        <path id="Trazado_880350" data-name="Trazado 880350" d="M58.632,90.066h-.379l-2.468-1.424a1.055,1.055,0,0,0-.959,0l-2.45,1.424H52v.382a.341.341,0,0,0,.2.278l2.646,1.528a1.051,1.051,0,0,0,.957,0l2.631-1.528a.337.337,0,0,0,.2-.278Z" transform="translate(34.433 58.618)" fill="#a0a0bf"/>
        <path id="Trazado_880351" data-name="Trazado 880351" d="M61.112,88.625h-.379L58.265,87.2a1.055,1.055,0,0,0-.959,0l-2.45,1.424H54.48v.382a.341.341,0,0,0,.2.278l2.646,1.528a1.051,1.051,0,0,0,.957,0l2.631-1.528a.337.337,0,0,0,.2-.278Z" transform="translate(36.075 57.664)" fill="#a0a0bf"/>
        <path id="Trazado_880352" data-name="Trazado 880352" d="M63.591,87.184h-.379l-2.468-1.424a1.051,1.051,0,0,0-.957,0l-2.452,1.424h-.376v.382a.341.341,0,0,0,.2.278l2.646,1.528a1.051,1.051,0,0,0,.957,0l2.63-1.528a.336.336,0,0,0,.2-.278Z" transform="translate(37.716 56.71)" fill="#a0a0bf"/>
        <path id="Trazado_880353" data-name="Trazado 880353" d="M66.071,85.743h-.379l-2.468-1.424a1.055,1.055,0,0,0-.959,0l-2.45,1.424h-.376v.382a.341.341,0,0,0,.2.278l2.646,1.528a1.051,1.051,0,0,0,.957,0l2.63-1.528a.336.336,0,0,0,.2-.278Z" transform="translate(39.359 55.756)" fill="#a0a0bf"/>
        <path id="Trazado_880354" data-name="Trazado 880354" d="M68.552,84.3h-.381L65.7,82.877a1.055,1.055,0,0,0-.959,0L62.3,84.3h-.377v.382a.341.341,0,0,0,.2.278l2.648,1.528a1.048,1.048,0,0,0,.956,0l2.63-1.528a.339.339,0,0,0,.2-.278Z" transform="translate(41 54.802)" fill="#a0a0bf"/>
        <path id="Trazado_880355" data-name="Trazado 880355" d="M55.967,82.118,53.52,83.539h-.379v.384a.336.336,0,0,0,.2.278l2.648,1.529a1.056,1.056,0,0,0,.957,0l2.63-1.529a.338.338,0,0,0,.2-.278v-.377l-.376,0-2.472-1.426a1.06,1.06,0,0,0-.959,0" transform="translate(35.188 54.3)" fill="#a0a0bf"/>
        <path id="Trazado_880356" data-name="Trazado 880356" d="M55.82,82.76l2.646,1.528a1.05,1.05,0,0,0,.959,0l2.63-1.528a.334.334,0,0,0,.2-.278h0V82.1h-.376l-2.472-1.426a1.05,1.05,0,0,0-.959,0L56,82.1h-.379v.384a.339.339,0,0,0,.2.278" transform="translate(36.83 53.345)" fill="#a0a0bf"/>
        <path id="Trazado_880357" data-name="Trazado 880357" d="M64.732,81.041h0v-.379h-.374l-2.473-1.428a1.055,1.055,0,0,0-.959,0l-2.447,1.421H58.1v.384a.344.344,0,0,0,.2.278l2.646,1.528a1.055,1.055,0,0,0,.959,0l2.628-1.528a.336.336,0,0,0,.2-.278" transform="translate(38.472 52.391)" fill="#a0a0bf"/>
        <path id="Trazado_880358" data-name="Trazado 880358" d="M63.315,78.973h0v-.379h-.376l-2.472-1.428a1.055,1.055,0,0,0-.959,0l-2.447,1.421h-.379v.384a.341.341,0,0,0,.2.278l2.646,1.528a1.051,1.051,0,0,0,.957,0l2.63-1.528a.336.336,0,0,0,.2-.278" transform="translate(37.534 51.021)" fill="#a0a0bf"/>
        <path id="Trazado_880359" data-name="Trazado 880359" d="M57.029,78.609,54.582,80.03H54.2v.384a.336.336,0,0,0,.2.278l2.646,1.529a1.06,1.06,0,0,0,.959,0l2.63-1.529a.338.338,0,0,0,.2-.278v-.377l-.376,0-2.472-1.426a1.06,1.06,0,0,0-.959,0" transform="translate(35.891 51.976)" fill="#a0a0bf"/>
        <path id="Trazado_880360" data-name="Trazado 880360" d="M54.55,80.05,52.1,81.471h-.379v.384a.336.336,0,0,0,.2.278l2.646,1.529a1.06,1.06,0,0,0,.959,0l2.63-1.529a.338.338,0,0,0,.2-.278v-.377l-.376,0L55.509,80.05a1.06,1.06,0,0,0-.959,0" transform="translate(34.25 52.93)" fill="#a0a0bf"/>
        <path id="Trazado_880361" data-name="Trazado 880361" d="M52.07,81.491l-2.447,1.421h-.379V83.3a.336.336,0,0,0,.2.278L52.09,85.1a1.06,1.06,0,0,0,.959,0l2.63-1.529a.338.338,0,0,0,.2-.278v-.377l-.376,0-2.472-1.426a1.06,1.06,0,0,0-.959,0" transform="translate(32.608 53.885)" fill="#a0a0bf"/>
        <path id="Trazado_880362" data-name="Trazado 880362" d="M49.591,82.932l-2.447,1.421h-.379v.384a.336.336,0,0,0,.2.278l2.648,1.529a1.056,1.056,0,0,0,.957,0l2.63-1.529a.338.338,0,0,0,.2-.278v-.377l-.376,0L50.55,82.932a1.06,1.06,0,0,0-.959,0" transform="translate(30.966 54.839)" fill="#a0a0bf"/>
        <path id="Trazado_880363" data-name="Trazado 880363" d="M44.484,86.455l2.646,1.529a1.06,1.06,0,0,0,.959,0l2.63-1.529a.338.338,0,0,0,.2-.278V85.8h-.376L48.07,84.373a1.06,1.06,0,0,0-.959,0l-2.447,1.421h-.379v.384a.336.336,0,0,0,.2.278" transform="translate(29.324 55.793)" fill="#a0a0bf"/>
        <path id="Trazado_880364" data-name="Trazado 880364" d="M42,87.9l2.646,1.528a1.05,1.05,0,0,0,.959,0l2.63-1.528a.338.338,0,0,0,.2-.278V87.24h-.376L45.59,85.814a1.05,1.05,0,0,0-.959,0l-2.447,1.421h-.379v.384a.336.336,0,0,0,.2.278" transform="translate(27.682 56.747)" fill="#a0a0bf"/>
        <path id="Trazado_880365" data-name="Trazado 880365" d="M42.152,87.255,39.7,88.676h-.379v.384a.336.336,0,0,0,.2.278l2.648,1.529a1.056,1.056,0,0,0,.957,0l2.63-1.529a.338.338,0,0,0,.2-.278v-.377h-.376l-2.472-1.428a1.06,1.06,0,0,0-.959,0" transform="translate(26.04 57.701)" fill="#a0a0bf"/>
        <path id="Trazado_880366" data-name="Trazado 880366" d="M39.672,88.7l-2.447,1.421h-.379V90.5a.336.336,0,0,0,.2.278l2.648,1.529a1.056,1.056,0,0,0,.957,0l2.63-1.529a.338.338,0,0,0,.2-.278v-.377l-.376,0L40.631,88.7a1.06,1.06,0,0,0-.959,0" transform="translate(24.398 58.655)" fill="#a0a0bf"/>
        <path id="Trazado_880367" data-name="Trazado 880367" d="M59.162,77.3v.381a.336.336,0,0,0,.2.278l2.648,1.529a1.056,1.056,0,0,0,.957,0l3.268-1.9a.337.337,0,0,0,.2-.278v-.382l-.349.018-2.5-1.443a1.056,1.056,0,0,0-.957,0l-3.053,1.774Z" transform="translate(39.175 49.92)" fill="#a0a0bf"/>
        <path id="Trazado_880368" data-name="Trazado 880368" d="M60.6,79.789v.382a.339.339,0,0,0,.2.279l2.648,1.528a1.055,1.055,0,0,0,.959,0l5.058-2.94a.337.337,0,0,0,.2-.276v-.382l-.3.047-2.546-1.471a1.06,1.06,0,0,0-.959,0l-4.737,2.754Z" transform="translate(40.125 50.881)" fill="#a0a0bf"/>
        <path id="Trazado_880369" data-name="Trazado 880369" d="M50.975,81.141l.711.412a1.06,1.06,0,0,0,.959,0l2.63-1.529a.333.333,0,0,0,.2-.271h0v-.387l-.269.063-.645-.371a1.05,1.05,0,0,0-.959,0l-2.186,1.27-.64.151v.382a.338.338,0,0,0,.2.279" transform="translate(33.621 52.273)" fill="#a0a0bf"/>
        <path id="Trazado_880370" data-name="Trazado 880370" d="M48.494,82.582l.713.412a1.06,1.06,0,0,0,.959,0l2.63-1.529a.333.333,0,0,0,.2-.271h0v-.387l-.269.065L52.08,80.5a1.05,1.05,0,0,0-.959,0l-2.187,1.27-.638.153V82.3a.339.339,0,0,0,.2.279" transform="translate(31.979 53.227)" fill="#a0a0bf"/>
        <path id="Trazado_880371" data-name="Trazado 880371" d="M46.014,84.023l.713.412a1.06,1.06,0,0,0,.959,0l2.63-1.529a.333.333,0,0,0,.2-.269l0,0v-.387l-.269.065L49.6,81.94a1.05,1.05,0,0,0-.959,0l-2.187,1.27-.638.153v.381a.339.339,0,0,0,.2.279" transform="translate(30.337 54.181)" fill="#a0a0bf"/>
        <path id="Trazado_880372" data-name="Trazado 880372" d="M43.535,85.464l.713.412a1.06,1.06,0,0,0,.959,0l2.63-1.528a.338.338,0,0,0,.2-.271l0,0v-.387l-.269.065-.645-.372a1.05,1.05,0,0,0-.959,0l-2.187,1.272-.638.151v.381a.339.339,0,0,0,.2.279" transform="translate(28.696 55.136)" fill="#a0a0bf"/>
        <path id="Trazado_880373" data-name="Trazado 880373" d="M41.055,86.9l.713.412a1.06,1.06,0,0,0,.959,0l2.63-1.529a.337.337,0,0,0,.2-.271h0V85.13l-.269.065-.645-.372a1.05,1.05,0,0,0-.959,0l-2.187,1.27-.638.153v.381a.339.339,0,0,0,.2.279" transform="translate(27.054 56.09)" fill="#a0a0bf"/>
        <path id="Trazado_880374" data-name="Trazado 880374" d="M38.575,88.346l.713.412a1.06,1.06,0,0,0,.959,0l2.63-1.529a.337.337,0,0,0,.2-.269l0,0v-.387l-.269.065-.645-.372a1.05,1.05,0,0,0-.959,0l-2.187,1.27-.638.153v.381a.339.339,0,0,0,.2.279" transform="translate(25.411 57.044)" fill="#a0a0bf"/>
        <path id="Trazado_880375" data-name="Trazado 880375" d="M36.1,89.787l.713.412a1.06,1.06,0,0,0,.959,0L40.4,88.67a.337.337,0,0,0,.2-.271h0v-.387l-.269.065-.645-.372a1.05,1.05,0,0,0-.959,0l-2.187,1.272-.638.151v.381a.339.339,0,0,0,.2.279" transform="translate(23.77 57.998)" fill="#a0a0bf"/>
        <path id="Trazado_880376" data-name="Trazado 880376" d="M62.711,74.917a.293.293,0,0,1,0,.555L60.085,77a1.046,1.046,0,0,1-.957,0l-.715-.412a.293.293,0,0,1,0-.555l2.63-1.528a1.06,1.06,0,0,1,.959,0Z" transform="translate(38.547 49.259)" fill="#b2b2d6"/>
        <path id="Trazado_880377" data-name="Trazado 880377" d="M66.231,76.8a.293.293,0,0,1,0,.555l-3.268,1.9a1.056,1.056,0,0,1-.957,0l-2.646-1.528a.293.293,0,0,1,0-.555l3.266-1.9a1.05,1.05,0,0,1,.959,0Z" transform="translate(39.175 49.768)" fill="#b2b2d6"/>
        <path id="Trazado_880378" data-name="Trazado 880378" d="M60.232,76.358a.293.293,0,0,1,0,.555l-2.63,1.528a1.05,1.05,0,0,1-.959,0l-.713-.412a.293.293,0,0,1,0-.555l2.63-1.528a1.06,1.06,0,0,1,.959,0Z" transform="translate(36.905 50.213)" fill="#b2b2d6"/>
        <path id="Trazado_880379" data-name="Trazado 880379" d="M63.114,78.465a.293.293,0,0,1,0,.555l-2.63,1.529a1.055,1.055,0,0,1-.959,0L56.883,79.02a.293.293,0,0,1,0-.555l2.63-1.528a1.06,1.06,0,0,1,.959,0Z" transform="translate(37.533 50.87)" fill="#b2b2d6"/>
        <path id="Trazado_880380" data-name="Trazado 880380" d="M57.752,77.8a.293.293,0,0,1,0,.555l-2.63,1.528a1.05,1.05,0,0,1-.959,0l-.713-.412a.293.293,0,0,1,0-.555l2.63-1.528a1.06,1.06,0,0,1,.959,0Z" transform="translate(35.263 51.167)" fill="#b2b2d6"/>
        <path id="Trazado_880381" data-name="Trazado 880381" d="M60.635,79.907a.293.293,0,0,1,0,.555l-2.63,1.528a1.05,1.05,0,0,1-.959,0L54.4,80.462a.293.293,0,0,1,0-.555l2.63-1.528a1.05,1.05,0,0,1,.959,0Z" transform="translate(35.892 51.823)" fill="#b2b2d6"/>
        <path id="Trazado_880382" data-name="Trazado 880382" d="M55.273,79.24a.293.293,0,0,1,0,.555l-2.63,1.528a1.05,1.05,0,0,1-.959,0l-.713-.412a.293.293,0,0,1,0-.555l2.63-1.528a1.06,1.06,0,0,1,.959,0Z" transform="translate(33.621 52.121)" fill="#b2b2d6"/>
        <path id="Trazado_880383" data-name="Trazado 880383" d="M58.155,81.348a.293.293,0,0,1,0,.555l-2.63,1.528a1.05,1.05,0,0,1-.959,0L51.924,81.9a.293.293,0,0,1,0-.555l2.63-1.528a1.05,1.05,0,0,1,.959,0Z" transform="translate(34.25 52.778)" fill="#b2b2d6"/>
        <path id="Trazado_880384" data-name="Trazado 880384" d="M52.793,80.681a.293.293,0,0,1,0,.555l-2.63,1.528a1.05,1.05,0,0,1-.959,0l-.713-.411a.294.294,0,0,1,0-.557l2.63-1.528a1.06,1.06,0,0,1,.959,0Z" transform="translate(31.979 53.075)" fill="#b2b2d6"/>
        <path id="Trazado_880385" data-name="Trazado 880385" d="M55.676,82.789a.293.293,0,0,1,0,.555l-2.63,1.528a1.05,1.05,0,0,1-.959,0l-2.646-1.528a.293.293,0,0,1,0-.555l2.63-1.528a1.05,1.05,0,0,1,.959,0Z" transform="translate(32.608 53.732)" fill="#b2b2d6"/>
        <path id="Trazado_880386" data-name="Trazado 880386" d="M50.313,82.122a.293.293,0,0,1,0,.555L47.687,84.2a1.05,1.05,0,0,1-.959,0l-.713-.411a.294.294,0,0,1,0-.557l2.63-1.528a1.06,1.06,0,0,1,.959,0Z" transform="translate(30.337 54.03)" fill="#b2b2d6"/>
        <path id="Trazado_880387" data-name="Trazado 880387" d="M53.2,84.23a.293.293,0,0,1,0,.555l-2.63,1.528a1.05,1.05,0,0,1-.959,0l-2.646-1.528a.293.293,0,0,1,0-.555l2.63-1.528a1.05,1.05,0,0,1,.959,0Z" transform="translate(30.966 54.686)" fill="#b2b2d6"/>
        <path id="Trazado_880388" data-name="Trazado 880388" d="M47.834,83.563a.293.293,0,0,1,0,.555l-2.63,1.528a1.05,1.05,0,0,1-.959,0l-.713-.411a.294.294,0,0,1,0-.557l2.63-1.528a1.06,1.06,0,0,1,.959,0Z" transform="translate(28.695 54.984)" fill="#b2b2d6"/>
        <path id="Trazado_880389" data-name="Trazado 880389" d="M50.716,85.671a.293.293,0,0,1,0,.555l-2.63,1.528a1.05,1.05,0,0,1-.959,0l-2.646-1.528a.293.293,0,0,1,0-.555l2.63-1.528a1.05,1.05,0,0,1,.959,0Z" transform="translate(29.324 55.64)" fill="#b2b2d6"/>
        <path id="Trazado_880390" data-name="Trazado 880390" d="M45.354,85a.293.293,0,0,1,0,.555l-2.63,1.528a1.05,1.05,0,0,1-.959,0l-.713-.411a.294.294,0,0,1,0-.557l2.63-1.528a1.06,1.06,0,0,1,.959,0Z" transform="translate(27.053 55.938)" fill="#b2b2d6"/>
        <path id="Trazado_880391" data-name="Trazado 880391" d="M48.237,87.112a.293.293,0,0,1,0,.555l-2.63,1.528a1.05,1.05,0,0,1-.959,0l-2.646-1.528a.293.293,0,0,1,0-.555l2.63-1.528a1.05,1.05,0,0,1,.959,0Z" transform="translate(27.682 56.594)" fill="#b2b2d6"/>
        <path id="Trazado_880392" data-name="Trazado 880392" d="M42.875,86.445a.293.293,0,0,1,0,.555l-2.63,1.528a1.05,1.05,0,0,1-.959,0l-.713-.411a.294.294,0,0,1,0-.557l2.63-1.528a1.06,1.06,0,0,1,.959,0Z" transform="translate(25.412 56.892)" fill="#b2b2d6"/>
        <path id="Trazado_880393" data-name="Trazado 880393" d="M45.757,88.553a.293.293,0,0,1,0,.555l-2.63,1.528a1.05,1.05,0,0,1-.959,0l-2.646-1.528a.293.293,0,0,1,0-.555l2.63-1.528a1.05,1.05,0,0,1,.959,0Z" transform="translate(26.04 57.548)" fill="#b2b2d6"/>
        <path id="Trazado_880394" data-name="Trazado 880394" d="M40.395,87.886a.293.293,0,0,1,0,.555l-2.63,1.528a1.046,1.046,0,0,1-.957,0l-.715-.412a.293.293,0,0,1,0-.555l2.63-1.528a1.06,1.06,0,0,1,.959,0Z" transform="translate(23.77 57.846)" fill="#b2b2d6"/>
        <path id="Trazado_880395" data-name="Trazado 880395" d="M43.278,89.994a.293.293,0,0,1,0,.555l-2.63,1.528a1.05,1.05,0,0,1-.959,0l-2.646-1.528a.293.293,0,0,1,0-.555l2.63-1.528a1.05,1.05,0,0,1,.959,0Z" transform="translate(24.398 58.503)" fill="#b2b2d6"/>
        <path id="Trazado_880396" data-name="Trazado 880396" d="M37.915,89.327a.293.293,0,0,1,0,.555l-2.63,1.528a1.05,1.05,0,0,1-.959,0L33.617,91a.294.294,0,0,1,0-.557l2.63-1.528a1.06,1.06,0,0,1,.959,0Z" transform="translate(22.127 58.8)" fill="#b2b2d6"/>
        <path id="Trazado_880397" data-name="Trazado 880397" d="M40.8,91.435a.293.293,0,0,1,0,.555l-2.63,1.528a1.05,1.05,0,0,1-.959,0L34.567,91.99a.293.293,0,0,1,0-.555l2.63-1.528a1.05,1.05,0,0,1,.959,0Z" transform="translate(22.756 59.457)" fill="#b2b2d6"/>
        <path id="Trazado_880398" data-name="Trazado 880398" d="M35.436,90.768a.293.293,0,0,1,0,.555l-2.63,1.528a1.05,1.05,0,0,1-.959,0l-.713-.412a.293.293,0,0,1,0-.555l2.63-1.528a1.06,1.06,0,0,1,.959,0Z" transform="translate(20.486 59.755)" fill="#b2b2d6"/>
        <path id="Trazado_880399" data-name="Trazado 880399" d="M38.318,92.876a.293.293,0,0,1,0,.555l-2.63,1.528a1.05,1.05,0,0,1-.959,0l-2.646-1.528a.293.293,0,0,1,0-.555l2.63-1.528a1.05,1.05,0,0,1,.959,0Z" transform="translate(21.114 60.411)" fill="#b2b2d6"/>
        <path id="Trazado_880400" data-name="Trazado 880400" d="M32.956,92.209a.293.293,0,0,1,0,.555l-2.63,1.528a1.05,1.05,0,0,1-.959,0l-.713-.411a.294.294,0,0,1,0-.557l2.63-1.528a1.06,1.06,0,0,1,.959,0Z" transform="translate(18.844 60.709)" fill="#b2b2d6"/>
        <path id="Trazado_880401" data-name="Trazado 880401" d="M35.839,94.317a.293.293,0,0,1,0,.555L33.213,96.4a1.05,1.05,0,0,1-.959,0l-2.646-1.528a.293.293,0,0,1,0-.555l2.63-1.528a1.05,1.05,0,0,1,.959,0Z" transform="translate(19.473 61.365)" fill="#b2b2d6"/>
        <path id="Trazado_880402" data-name="Trazado 880402" d="M30.73,93.65a.293.293,0,0,1,0,.555l-3.266,1.9a1.055,1.055,0,0,1-.959,0l-.713-.412a.293.293,0,0,1,0-.555l3.266-1.9a1.06,1.06,0,0,1,.959,0Z" transform="translate(16.948 61.663)" fill="#b2b2d6"/>
        <path id="Trazado_880403" data-name="Trazado 880403" d="M33.359,95.757a.293.293,0,0,1,0,.555l-2.63,1.528a1.05,1.05,0,0,1-.959,0l-2.646-1.528a.293.293,0,0,1,0-.555l2.63-1.528a1.06,1.06,0,0,1,.959,0Z" transform="translate(17.83 62.32)" fill="#b2b2d6"/>
        <path id="Trazado_880404" data-name="Trazado 880404" d="M69.458,78.253a.293.293,0,0,1,0,.555l-5.06,2.94a1.056,1.056,0,0,1-.957,0L60.8,80.219a.293.293,0,0,1,0-.555l5.06-2.939a1.05,1.05,0,0,1,.959,0Z" transform="translate(40.125 50.728)" fill="#b2b2d6"/>
        <path id="Trazado_880405" data-name="Trazado 880405" d="M64.532,80.534a.293.293,0,0,1,0,.555l-2.63,1.528a1.05,1.05,0,0,1-.959,0L58.3,81.089a.293.293,0,0,1,0-.555l2.63-1.528a1.05,1.05,0,0,1,.959,0Z" transform="translate(38.472 52.239)" fill="#b2b2d6"/>
        <path id="Trazado_880406" data-name="Trazado 880406" d="M62.052,81.975a.293.293,0,0,1,0,.555l-2.63,1.528a1.05,1.05,0,0,1-.959,0L55.821,82.53a.293.293,0,0,1,0-.555l2.63-1.528a1.05,1.05,0,0,1,.959,0Z" transform="translate(36.83 53.193)" fill="#b2b2d6"/>
        <path id="Trazado_880407" data-name="Trazado 880407" d="M59.574,83.416a.293.293,0,0,1,0,.555L56.947,85.5a1.05,1.05,0,0,1-.959,0l-2.646-1.528c-.266-.153-.269-.4,0-.555l2.63-1.528a1.05,1.05,0,0,1,.959,0Z" transform="translate(35.188 54.147)" fill="#b2b2d6"/>
        <path id="Trazado_880408" data-name="Trazado 880408" d="M57.093,84.857a.293.293,0,0,1,0,.555l-2.628,1.528a1.05,1.05,0,0,1-.959,0l-2.646-1.528a.293.293,0,0,1,0-.555l2.63-1.528a1.05,1.05,0,0,1,.959,0Z" transform="translate(33.546 55.101)" fill="#b2b2d6"/>
        <path id="Trazado_880409" data-name="Trazado 880409" d="M54.613,86.3a.293.293,0,0,1,0,.555l-2.63,1.528a1.051,1.051,0,0,1-.957,0l-2.648-1.528a.293.293,0,0,1,0-.555l2.63-1.528a1.05,1.05,0,0,1,.959,0Z" transform="translate(31.904 56.055)" fill="#b2b2d6"/>
        <path id="Trazado_880410" data-name="Trazado 880410" d="M52.134,87.739a.293.293,0,0,1,0,.555l-2.628,1.528a1.05,1.05,0,0,1-.959,0L45.9,88.294a.293.293,0,0,1,0-.555l2.63-1.528a1.05,1.05,0,0,1,.959,0Z" transform="translate(30.263 57.009)" fill="#b2b2d6"/>
        <path id="Trazado_880411" data-name="Trazado 880411" d="M49.654,89.18a.293.293,0,0,1,0,.555l-2.628,1.528a1.05,1.05,0,0,1-.959,0l-2.646-1.528a.293.293,0,0,1,0-.555l2.63-1.528a1.05,1.05,0,0,1,.959,0Z" transform="translate(28.62 57.964)" fill="#b2b2d6"/>
        <path id="Trazado_880412" data-name="Trazado 880412" d="M47.175,90.621a.293.293,0,0,1,0,.555L44.549,92.7a1.05,1.05,0,0,1-.959,0l-2.646-1.528a.293.293,0,0,1,0-.555l2.63-1.528a1.05,1.05,0,0,1,.959,0Z" transform="translate(26.979 58.918)" fill="#b2b2d6"/>
        <path id="Trazado_880413" data-name="Trazado 880413" d="M44.7,92.062a.293.293,0,0,1,0,.555l-2.63,1.528a1.055,1.055,0,0,1-.959,0l-2.646-1.528a.293.293,0,0,1,0-.555l2.63-1.528a1.051,1.051,0,0,1,.957,0Z" transform="translate(25.337 59.872)" fill="#b2b2d6"/>
        <path id="Trazado_880414" data-name="Trazado 880414" d="M42.215,93.5a.293.293,0,0,1,0,.555l-2.63,1.528a1.05,1.05,0,0,1-.959,0l-2.646-1.528a.293.293,0,0,1,0-.555l2.63-1.528a1.05,1.05,0,0,1,.959,0Z" transform="translate(23.695 60.826)" fill="#b2b2d6"/>
        <path id="Trazado_880415" data-name="Trazado 880415" d="M72.791,79.7a.293.293,0,0,1,0,.555L65.674,84.4a1.051,1.051,0,0,1-.957,0l-2.648-1.528a.293.293,0,0,1,0-.555l7.119-4.137a1.05,1.05,0,0,1,.959,0Z" transform="translate(40.968 51.689)" fill="#b2b2d6"/>
        <path id="Trazado_880416" data-name="Trazado 880416" d="M65.821,82.715a.293.293,0,0,1,0,.555L63.2,84.8a1.05,1.05,0,0,1-.959,0L59.59,83.27a.293.293,0,0,1,0-.555l2.63-1.528a1.05,1.05,0,0,1,.959,0Z" transform="translate(39.326 53.683)" fill="#b2b2d6"/>
        <path id="Trazado_880417" data-name="Trazado 880417" d="M63.342,84.156a.293.293,0,0,1,0,.555l-2.63,1.528a1.05,1.05,0,0,1-.959,0l-2.646-1.528a.293.293,0,0,1,0-.555l2.63-1.528a1.05,1.05,0,0,1,.959,0Z" transform="translate(37.684 54.637)" fill="#b2b2d6"/>
        <path id="Trazado_880418" data-name="Trazado 880418" d="M60.862,85.6a.293.293,0,0,1,0,.555l-2.63,1.528a1.05,1.05,0,0,1-.959,0l-2.646-1.528a.293.293,0,0,1,0-.555l2.63-1.528a1.05,1.05,0,0,1,.959,0Z" transform="translate(36.042 55.591)" fill="#b2b2d6"/>
        <path id="Trazado_880419" data-name="Trazado 880419" d="M58.382,87.038a.293.293,0,0,1,0,.555l-2.63,1.528a1.05,1.05,0,0,1-.959,0l-2.646-1.528a.293.293,0,0,1,0-.555l2.63-1.528a1.05,1.05,0,0,1,.959,0Z" transform="translate(34.4 56.545)" fill="#b2b2d6"/>
        <path id="Trazado_880420" data-name="Trazado 880420" d="M73.678,81.164a.293.293,0,0,1,0,.555l-3,1.742a1.05,1.05,0,0,1-.959,0l-2.646-1.528a.293.293,0,0,1,0-.555l3-1.742a1.05,1.05,0,0,1,.959,0Z" transform="translate(44.284 52.656)" fill="#b2b2d6"/>
        <path id="Trazado_880421" data-name="Trazado 880421" d="M70.83,82.734a.293.293,0,0,1,0,.555L68.2,84.816a1.05,1.05,0,0,1-.959,0L64.6,83.289a.293.293,0,0,1,0-.555l2.63-1.528a1.05,1.05,0,0,1,.959,0Z" transform="translate(42.643 53.695)" fill="#b2b2d6"/>
        <path id="Trazado_880422" data-name="Trazado 880422" d="M68.35,84.175a.293.293,0,0,1,0,.555l-2.63,1.528a1.05,1.05,0,0,1-.959,0L62.119,84.73a.293.293,0,0,1,0-.555l2.63-1.528a1.05,1.05,0,0,1,.959,0Z" transform="translate(41 54.649)" fill="#b2b2d6"/>
        <path id="Trazado_880423" data-name="Trazado 880423" d="M65.871,85.616a.293.293,0,0,1,0,.555L63.245,87.7a1.05,1.05,0,0,1-.959,0L59.64,86.171a.293.293,0,0,1,0-.555l2.63-1.528a1.05,1.05,0,0,1,.959,0Z" transform="translate(39.359 55.604)" fill="#b2b2d6"/>
        <path id="Trazado_880424" data-name="Trazado 880424" d="M63.391,87.057a.293.293,0,0,1,0,.555l-2.63,1.528a1.05,1.05,0,0,1-.959,0L57.16,87.612a.293.293,0,0,1,0-.555l2.63-1.528a1.05,1.05,0,0,1,.959,0Z" transform="translate(37.717 56.558)" fill="#b2b2d6"/>
        <path id="Trazado_880425" data-name="Trazado 880425" d="M60.911,88.5a.293.293,0,0,1,0,.555l-2.63,1.528a1.05,1.05,0,0,1-.959,0L54.68,89.053a.293.293,0,0,1,0-.555l2.63-1.528a1.05,1.05,0,0,1,.959,0Z" transform="translate(36.074 57.512)" fill="#b2b2d6"/>
        <path id="Trazado_880426" data-name="Trazado 880426" d="M55.9,88.479a.293.293,0,0,1,0,.555l-2.63,1.528a1.05,1.05,0,0,1-.959,0l-2.646-1.528a.293.293,0,0,1,0-.555l2.63-1.528a1.05,1.05,0,0,1,.959,0Z" transform="translate(32.758 57.499)" fill="#b2b2d6"/>
        <path id="Trazado_880427" data-name="Trazado 880427" d="M53.423,89.92a.293.293,0,0,1,0,.555L50.8,92a1.05,1.05,0,0,1-.959,0l-2.646-1.528a.293.293,0,0,1,0-.555l2.63-1.528a1.05,1.05,0,0,1,.959,0Z" transform="translate(31.116 58.454)" fill="#b2b2d6"/>
        <path id="Trazado_880428" data-name="Trazado 880428" d="M58.431,89.939a.293.293,0,0,1,0,.555l-2.63,1.528a1.05,1.05,0,0,1-.959,0L52.2,90.494a.293.293,0,0,1,0-.555l2.63-1.528a1.05,1.05,0,0,1,.959,0Z" transform="translate(34.432 58.466)" fill="#b2b2d6"/>
        <path id="Trazado_880429" data-name="Trazado 880429" d="M55.952,91.38a.293.293,0,0,1,0,.555l-2.63,1.528a1.05,1.05,0,0,1-.959,0l-2.646-1.528a.293.293,0,0,1,0-.555l2.63-1.528a1.05,1.05,0,0,1,.959,0Z" transform="translate(32.791 59.42)" fill="#b2b2d6"/>
        <path id="Trazado_880430" data-name="Trazado 880430" d="M50.943,91.361a.293.293,0,0,1,0,.555l-2.63,1.528a1.05,1.05,0,0,1-.959,0l-2.646-1.528a.293.293,0,0,1,0-.555l2.63-1.528a1.05,1.05,0,0,1,.959,0Z" transform="translate(29.474 59.408)" fill="#b2b2d6"/>
        <path id="Trazado_880431" data-name="Trazado 880431" d="M48.464,92.8a.293.293,0,0,1,0,.555l-2.63,1.528a1.05,1.05,0,0,1-.959,0l-2.646-1.528a.293.293,0,0,1,0-.555l2.63-1.528a1.05,1.05,0,0,1,.959,0Z" transform="translate(27.832 60.362)" fill="#b2b2d6"/>
        <path id="Trazado_880432" data-name="Trazado 880432" d="M53.472,92.821a.293.293,0,0,1,0,.555L50.846,94.9a1.05,1.05,0,0,1-.959,0l-2.646-1.528a.293.293,0,0,1,0-.555l2.63-1.528a1.05,1.05,0,0,1,.959,0Z" transform="translate(31.149 60.375)" fill="#b2b2d6"/>
        <path id="Trazado_880433" data-name="Trazado 880433" d="M50.993,94.262a.293.293,0,0,1,0,.555l-2.63,1.528a1.05,1.05,0,0,1-.959,0l-2.646-1.528a.293.293,0,0,1,0-.555l2.63-1.528a1.05,1.05,0,0,1,.959,0Z" transform="translate(29.507 61.329)" fill="#b2b2d6"/>
        <path id="Trazado_880434" data-name="Trazado 880434" d="M76.027,82.6a.293.293,0,0,1,0,.555L73.4,84.687a1.055,1.055,0,0,1-.959,0L69.8,83.16a.293.293,0,0,1,0-.555l2.63-1.528a1.05,1.05,0,0,1,.959,0Z" transform="translate(46.084 53.61)" fill="#b2b2d6"/>
        <path id="Trazado_880435" data-name="Trazado 880435" d="M71.554,82.965a.293.293,0,0,1,0,.555l-2.63,1.528a1.05,1.05,0,0,1-.959,0l-.713-.411a.294.294,0,0,1,0-.557l2.63-1.528a1.06,1.06,0,0,1,.959,0Z" transform="translate(44.402 54.588)" fill="#b2b2d6"/>
        <path id="Trazado_880436" data-name="Trazado 880436" d="M72.717,83.636a.293.293,0,0,1,0,.555l-2.63,1.528a1.05,1.05,0,0,1-.959,0l-.713-.411c-.266-.155-.268-.4,0-.555l2.63-1.529a1.06,1.06,0,0,1,.959,0Z" transform="translate(45.172 55.032)" fill="#b2b2d6"/>
        <path id="Trazado_880437" data-name="Trazado 880437" d="M71.007,85.522a.293.293,0,0,1,0,.555L68.381,87.6a1.05,1.05,0,0,1-.959,0l-2.646-1.528a.293.293,0,0,1,0-.555l2.63-1.528a1.05,1.05,0,0,1,.959,0Z" transform="translate(42.76 55.541)" fill="#b2b2d6"/>
        <path id="Trazado_880438" data-name="Trazado 880438" d="M68.528,86.963a.293.293,0,0,1,0,.555L65.9,89.045a1.05,1.05,0,0,1-.959,0L62.3,87.518a.293.293,0,0,1,0-.555l2.63-1.528a1.05,1.05,0,0,1,.959,0Z" transform="translate(41.118 56.496)" fill="#b2b2d6"/>
        <path id="Trazado_880439" data-name="Trazado 880439" d="M74.472,88.4a.293.293,0,0,1,0,.555L50.7,102.775a1.06,1.06,0,0,1-.959,0L47.1,101.247c-.266-.155-.268-.4,0-.555L70.867,86.876a1.05,1.05,0,0,1,.959,0Z" transform="translate(31.053 57.45)" fill="#b2b2d6"/>
        <path id="Trazado_880440" data-name="Trazado 880440" d="M45.984,94.243a.293.293,0,0,1,0,.555l-2.63,1.528a1.05,1.05,0,0,1-.959,0L39.753,94.8a.293.293,0,0,1,0-.555l2.63-1.528a1.05,1.05,0,0,1,.959,0Z" transform="translate(26.19 61.316)" fill="#b2b2d6"/>
        <path id="Trazado_880441" data-name="Trazado 880441" d="M48.513,95.7a.293.293,0,0,1,0,.555l-2.63,1.528a1.05,1.05,0,0,1-.959,0l-2.646-1.528a.293.293,0,0,1,0-.555l2.63-1.528a1.05,1.05,0,0,1,.959,0Z" transform="translate(27.865 62.283)" fill="#b2b2d6"/>
        <path id="Trazado_880442" data-name="Trazado 880442" d="M50.848,97.238a.293.293,0,0,1,0,.555l-2.63,1.528a1.05,1.05,0,0,1-.959,0l-2.646-1.528a.293.293,0,0,1,0-.555l2.63-1.528a1.05,1.05,0,0,1,.959,0Z" transform="translate(29.411 63.299)" fill="#b2b2d6"/>
        <path id="Trazado_880443" data-name="Trazado 880443" d="M39.736,94.944a.293.293,0,0,1,0,.555l-2.63,1.528a1.046,1.046,0,0,1-.957,0L33.5,95.5a.293.293,0,0,1,0-.555l2.63-1.528a1.05,1.05,0,0,1,.959,0Z" transform="translate(22.053 61.78)" fill="#b2b2d6"/>
        <path id="Trazado_880444" data-name="Trazado 880444" d="M43.505,95.684a.293.293,0,0,1,0,.555l-2.63,1.528a1.05,1.05,0,0,1-.959,0l-2.646-1.528a.293.293,0,0,1,0-.555l2.63-1.528a1.05,1.05,0,0,1,.959,0Z" transform="translate(24.549 62.27)" fill="#b2b2d6"/>
        <path id="Trazado_880445" data-name="Trazado 880445" d="M46.035,97.144a.293.293,0,0,1,0,.555l-2.63,1.528a1.05,1.05,0,0,1-.959,0L39.8,97.7a.293.293,0,0,1,0-.555l2.63-1.528a1.05,1.05,0,0,1,.959,0Z" transform="translate(26.223 63.237)" fill="#b2b2d6"/>
        <path id="Trazado_880446" data-name="Trazado 880446" d="M48.368,98.679a.293.293,0,0,1,0,.555l-2.63,1.528a1.05,1.05,0,0,1-.959,0l-2.646-1.528a.293.293,0,0,1,0-.555l2.63-1.528a1.05,1.05,0,0,1,.959,0Z" transform="translate(27.769 64.254)" fill="#b2b2d6"/>
        <path id="Trazado_880447" data-name="Trazado 880447" d="M38.2,96.395a.293.293,0,0,1,0,.555l-4.96,2.882a1.056,1.056,0,0,1-.957,0L29.639,98.3a.293.293,0,0,1,0-.555L34.6,94.867a1.05,1.05,0,0,1,.959,0Z" transform="translate(19.494 62.741)" fill="#b2b2d6"/>
        <path id="Trazado_880448" data-name="Trazado 880448" d="M42.774,97.125a.293.293,0,0,1,0,.555l-7.019,4.079a1.06,1.06,0,0,1-.959,0l-2.646-1.528a.293.293,0,0,1,0-.555L39.169,95.6a1.05,1.05,0,0,1,.959,0Z" transform="translate(21.158 63.225)" fill="#b2b2d6"/>
        <path id="Trazado_880449" data-name="Trazado 880449" d="M45.3,98.585a.293.293,0,0,1,0,.555l-7.019,4.079a1.05,1.05,0,0,1-.959,0l-2.646-1.528a.293.293,0,0,1,0-.555L41.7,97.057a1.05,1.05,0,0,1,.959,0Z" transform="translate(22.832 64.191)" fill="#b2b2d6"/>
        <path id="Trazado_880450" data-name="Trazado 880450" d="M45.888,100.12a.293.293,0,0,1,0,.555l-2.63,1.528a1.05,1.05,0,0,1-.959,0l-2.646-1.528a.293.293,0,0,1,0-.555l2.63-1.528a1.05,1.05,0,0,1,.959,0Z" transform="translate(26.127 65.208)" fill="#b2b2d6"/>
        <path id="Trazado_880451" data-name="Trazado 880451" d="M43.409,101.561a.293.293,0,0,1,0,.555l-2.63,1.528a1.05,1.05,0,0,1-.959,0l-2.646-1.528a.293.293,0,0,1,0-.555l2.63-1.528a1.05,1.05,0,0,1,.959,0Z" transform="translate(24.485 66.162)" fill="#b2b2d6"/>
        <path id="Trazado_880452" data-name="Trazado 880452" d="M73.825,24.185l-.522.464a15.575,15.575,0,0,1-2.553,1.86l.771-.645a14.064,14.064,0,0,0,2.3-1.679" transform="translate(46.848 16.015)" fill="#44cafa"/>
        <path id="Trazado_880453" data-name="Trazado 880453" d="M76.464,18.669l-.145.683a13.955,13.955,0,0,0,.319-2.932l.178-1a15.57,15.57,0,0,1-.352,3.25" transform="translate(50.536 10.21)" fill="#44cafa"/>
        <path id="Trazado_880454" data-name="Trazado 880454" d="M76.055,25.195l-.771.645L63.9,32.412l.329-.391Z" transform="translate(42.314 16.683)" fill="#44cafa"/>
        <path id="Trazado_880455" data-name="Trazado 880455" d="M76.482,6.352l.18-1,.047,16.731-.178,1Z" transform="translate(50.644 3.544)" fill="#44cafa"/>
        <path id="Trazado_880456" data-name="Trazado 880456" d="M59.937,45.518l-3.374-1.96.454-12.335,3.373,1.96Z" transform="translate(37.454 20.675)" fill="#21b7ed"/>
        <path id="Trazado_880457" data-name="Trazado 880457" d="M60.438,41.847l-1.845,3.328.452-12.335,1.764-1.1Z" transform="translate(38.799 21.019)" fill="#44cafa"/>
        <path id="Trazado_880458" data-name="Trazado 880458" d="M75.617.66l3.374,1.961c-1.78-1.036-4.245-.889-6.964.681L68.654,1.341C71.373-.228,73.837-.374,75.617.66" transform="translate(45.46 0)" fill="#21b7ed"/>
        <path id="Trazado_880459" data-name="Trazado 880459" d="M71.46,4.066l-.776-1.544c5.4-3.12,9.8-.617,9.817,5.593l-.178,1c-.015-5.6-3.986-7.867-8.863-5.05" transform="translate(46.805 0.781)" fill="#44cafa"/>
        <path id="Trazado_880460" data-name="Trazado 880460" d="M64.1,33.8l-1.764,1.1c-4.888,2.191-8.7-.377-8.715-6.16l1.725-.1c.015,5.218,3.456,7.538,8.753,5.163" transform="translate(35.507 18.962)" fill="#44cafa"/>
        <path id="Trazado_880461" data-name="Trazado 880461" d="M57.82,35.753l-3.374-1.96c-1.755-1.022-2.846-3.191-2.854-6.276l3.374,1.961c.008,3.083,1.1,5.254,2.854,6.275" transform="translate(34.163 18.221)" fill="#21b7ed"/>
        <path id="Trazado_880462" data-name="Trazado 880462" d="M54.985,36.143l-3.374-1.961L51.564,17.45l3.373,1.96Z" transform="translate(34.144 11.555)" fill="#21b7ed"/>
        <path id="Trazado_880463" data-name="Trazado 880463" d="M55.367,35.3l-1.727.1-.047-16.733,1.725-.1Z" transform="translate(35.488 12.296)" fill="#44cafa"/>
        <path id="Trazado_880464" data-name="Trazado 880464" d="M60.805,13.538l-3.374-1.961L76.086.807l3.373,1.961Z" transform="translate(38.029 0.534)" fill="#21b7ed"/>
        <path id="Trazado_880465" data-name="Trazado 880465" d="M60.238,14.3l-.776-1.544L78.114,1.987l.776,1.544Z" transform="translate(39.374 1.316)" fill="#44cafa"/>
        <path id="Trazado_880466" data-name="Trazado 880466" d="M51.777,20.187c.025-.123.052-.248.078-.374.022-.1.043-.2.065-.308A20.6,20.6,0,0,1,58.1,8.871c.176-.155.349-.309.524-.464a22.811,22.811,0,0,0-6.846,11.78" transform="translate(34.285 5.567)" fill="#44cafa"/>
        <path id="Trazado_880467" data-name="Trazado 880467" d="M82.089,3.4c4.877-2.817,8.848-.555,8.863,5.05L91,25.182c.017,5.6-3.928,12.433-8.8,15.249L70.371,47.257l-7.309,14.16.371-10.1c-5.3,2.375-8.738.055-8.753-5.163l-.048-16.733c-.017-5.6,3.928-12.433,8.8-15.249Z" transform="translate(36.176 1.448)" fill="#73d8ff"/>
        <path id="Trazado_880468" data-name="Trazado 880468" d="M55.32,25.259l-1.727.1c-.017-6.21,4.35-13.773,9.754-16.893l.778,1.544c-4.878,2.816-8.821,9.646-8.8,15.249" transform="translate(35.488 5.606)" fill="#44cafa"/>
        <path id="Trazado_880469" data-name="Trazado 880469" d="M54.937,26.14l-3.374-1.961c-.017-6.21,4.35-13.773,9.754-16.893l3.374,1.961c-5.405,3.12-9.77,10.683-9.754,16.893" transform="translate(34.143 4.825)" fill="#21b7ed"/>
        <path id="Trazado_880470" data-name="Trazado 880470" d="M71.8,17.145l-1.419-.824,1.968.868,1.419.824Z" transform="translate(46.605 10.807)" fill="#21b7ed"/>
        <path id="Trazado_880471" data-name="Trazado 880471" d="M66.621,26.983,65.2,26.159l-.573-2.616,1.419.824Z" transform="translate(42.795 15.589)" fill="#21b7ed"/>
        <path id="Trazado_880472" data-name="Trazado 880472" d="M65.643,21.551l-1.42-.824a2.776,2.776,0,0,0,2.794-.273l.032-.02,1.421.824-.033.02a2.772,2.772,0,0,1-2.794.273" transform="translate(42.526 13.531)" fill="#21b7ed"/>
      </g>
    </g>
    <g id="Grupo_1105249" data-name="Grupo 1105249" transform="translate(106.748 33.965)">
      <g id="Grupo_1105248" data-name="Grupo 1105248" clip-path="url(#clip-path-3)">
        <path id="Trazado_880473" data-name="Trazado 880473" d="M65.643,21.551l-1.42-.824a2.776,2.776,0,0,0,2.794-.273l.032-.02,1.421.824-.033.02a2.772,2.772,0,0,1-2.794.273" transform="translate(-64.221 -20.434)" fill="#21b7ed"/>
      </g>
    </g>
    <g id="Grupo_1105251" data-name="Grupo 1105251">
      <g id="Grupo_1105250" data-name="Grupo 1105250" clip-path="url(#clip-path)">
        <path id="Trazado_880475" data-name="Trazado 880475" d="M68.664,14.846l1.419.824a2.738,2.738,0,0,1,1.147,2.487,8.632,8.632,0,0,1-3.888,6.8l-1.419-.824a8.636,8.636,0,0,0,3.888-6.8,2.736,2.736,0,0,0-1.147-2.487" transform="translate(43.652 9.831)" fill="#21b7ed"/>
      </g>
    </g>
    <g id="Grupo_1105253" data-name="Grupo 1105253" transform="translate(109.575 24.675)">
      <g id="Grupo_1105252" data-name="Grupo 1105252" clip-path="url(#clip-path-5)">
        <path id="Trazado_880476" data-name="Trazado 880476" d="M67.342,24.96l-1.419-.824a8.636,8.636,0,0,0,3.888-6.8,2.736,2.736,0,0,0-1.147-2.487l1.419.824a2.738,2.738,0,0,1,1.147,2.487,8.632,8.632,0,0,1-3.888,6.8" transform="translate(-65.923 -14.844)" fill="#21b7ed"/>
      </g>
    </g>
    <g id="Grupo_1105255" data-name="Grupo 1105255">
      <g id="Grupo_1105254" data-name="Grupo 1105254" clip-path="url(#clip-path)">
        <path id="Trazado_880478" data-name="Trazado 880478" d="M70.435,13.828,69.015,13l2.487-2.39,1.419.824Z" transform="translate(45.7 7.028)" fill="#21b7ed"/>
        <path id="Trazado_880479" data-name="Trazado 880479" d="M68.587,12.8l-1.419-.824a4.49,4.49,0,0,1,3.073.229l1.419.824a4.49,4.49,0,0,0-3.073-.229" transform="translate(44.476 7.823)" fill="#21b7ed"/>
      </g>
    </g>
    <g id="Grupo_1105257" data-name="Grupo 1105257" transform="translate(111.643 19.639)">
      <g id="Grupo_1105256" data-name="Grupo 1105256" clip-path="url(#clip-path-7)">
        <path id="Trazado_880480" data-name="Trazado 880480" d="M68.587,12.8l-1.419-.824a4.49,4.49,0,0,1,3.073.229l1.419.824a4.49,4.49,0,0,0-3.073-.229" transform="translate(-67.167 -11.815)" fill="#21b7ed"/>
      </g>
    </g>
    <g id="Grupo_1105259" data-name="Grupo 1105259">
      <g id="Grupo_1105258" data-name="Grupo 1105258" clip-path="url(#clip-path)">
        <path id="Trazado_880482" data-name="Trazado 880482" d="M63.371,26.582l-1.419-.824a5.665,5.665,0,0,1-1.677-2.3l1.419.826a5.659,5.659,0,0,0,1.677,2.294" transform="translate(39.911 15.536)" fill="#21b7ed"/>
      </g>
    </g>
    <g id="Grupo_1105261" data-name="Grupo 1105261" transform="translate(100.185 38.999)">
      <g id="Grupo_1105260" data-name="Grupo 1105260" clip-path="url(#clip-path-9)">
        <path id="Trazado_880483" data-name="Trazado 880483" d="M63.371,26.582l-1.419-.824a5.665,5.665,0,0,1-1.677-2.3l1.419.826a5.659,5.659,0,0,0,1.677,2.294" transform="translate(-60.274 -23.464)" fill="#21b7ed"/>
      </g>
    </g>
    <g id="Grupo_1105263" data-name="Grupo 1105263">
      <g id="Grupo_1105262" data-name="Grupo 1105262" clip-path="url(#clip-path)">
        <path id="Trazado_880485" data-name="Trazado 880485" d="M61.693,25.543l-1.419-.824,1.931-3.153,1.419.824Z" transform="translate(39.911 14.28)" fill="#21b7ed"/>
        <path id="Trazado_880486" data-name="Trazado 880486" d="M62.945,24l-1.419-.824a8.238,8.238,0,0,1-.224-1.9,11.864,11.864,0,0,1,.185-2.139l1.419.824a11.865,11.865,0,0,0-.185,2.139,8.238,8.238,0,0,0,.224,1.9" transform="translate(40.591 12.671)" fill="#21b7ed"/>
      </g>
    </g>
    <g id="Grupo_1105265" data-name="Grupo 1105265" transform="translate(101.89 31.807)">
      <g id="Grupo_1105264" data-name="Grupo 1105264" clip-path="url(#clip-path-11)">
        <path id="Trazado_880487" data-name="Trazado 880487" d="M62.945,24l-1.419-.824a8.238,8.238,0,0,1-.224-1.9,11.864,11.864,0,0,1,.185-2.139l1.419.824a11.865,11.865,0,0,0-.185,2.139,8.238,8.238,0,0,0,.224,1.9" transform="translate(-61.299 -19.136)" fill="#21b7ed"/>
      </g>
    </g>
    <g id="Grupo_1105267" data-name="Grupo 1105267">
      <g id="Grupo_1105266" data-name="Grupo 1105266" clip-path="url(#clip-path)">
        <path id="Trazado_880489" data-name="Trazado 880489" d="M64.125,18.094l-1.419-.824a17.324,17.324,0,0,1,3.033-3.811l1.419.824a17.228,17.228,0,0,0-3.033,3.811" transform="translate(41.522 8.911)" fill="#21b7ed"/>
      </g>
    </g>
    <g id="Grupo_1105269" data-name="Grupo 1105269" transform="translate(104.228 22.369)">
      <g id="Grupo_1105268" data-name="Grupo 1105268" clip-path="url(#clip-path-13)">
        <path id="Trazado_880490" data-name="Trazado 880490" d="M64.125,18.094l-1.419-.824a17.324,17.324,0,0,1,3.033-3.811l1.419.824a17.228,17.228,0,0,0-3.033,3.811" transform="translate(-62.706 -13.458)" fill="#21b7ed"/>
      </g>
    </g>
    <g id="Grupo_1105271" data-name="Grupo 1105271">
      <g id="Grupo_1105270" data-name="Grupo 1105270" clip-path="url(#clip-path)">
        <path id="Trazado_880492" data-name="Trazado 880492" d="M66.261,13.092l-1.419-.823a15.961,15.961,0,0,1,1.644-1.12l.07-.04a12.227,12.227,0,0,1,1.576-.77l1.419.826a12,12,0,0,0-1.576.768.77.77,0,0,0-.07.042,15.926,15.926,0,0,0-1.644,1.117" transform="translate(42.936 6.846)" fill="#21b7ed"/>
      </g>
    </g>
    <g id="Grupo_1105273" data-name="Grupo 1105273" transform="translate(107.778 17.185)">
      <g id="Grupo_1105272" data-name="Grupo 1105272" clip-path="url(#clip-path-15)">
        <path id="Trazado_880493" data-name="Trazado 880493" d="M66.261,13.092l-1.419-.823a15.961,15.961,0,0,1,1.644-1.12l.07-.04a12.227,12.227,0,0,1,1.576-.77l1.419.826a12,12,0,0,0-1.576.768.77.77,0,0,0-.07.042,15.926,15.926,0,0,0-1.644,1.117" transform="translate(-64.842 -10.339)" fill="#21b7ed"/>
      </g>
    </g>
    <g id="Grupo_1105275" data-name="Grupo 1105275">
      <g id="Grupo_1105274" data-name="Grupo 1105274" clip-path="url(#clip-path)">
        <path id="Trazado_880495" data-name="Trazado 880495" d="M65.951,15.58l-1.419-.824.517-3.256,1.419.824Z" transform="translate(42.731 7.615)" fill="#21b7ed"/>
        <path id="Trazado_880496" data-name="Trazado 880496" d="M62.618,17.111,61.2,16.287l2.5-.535,1.421.824Z" transform="translate(40.524 10.43)" fill="#21b7ed"/>
        <path id="Trazado_880497" data-name="Trazado 880497" d="M61.647,21.121,60.228,20.3a22.551,22.551,0,0,1,1.614-4.224l1.419.824a22.667,22.667,0,0,0-1.614,4.224" transform="translate(39.881 10.643)" fill="#21b7ed"/>
      </g>
    </g>
    <g id="Grupo_1105277" data-name="Grupo 1105277" transform="translate(100.109 26.716)">
      <g id="Grupo_1105276" data-name="Grupo 1105276" clip-path="url(#clip-path-17)">
        <path id="Trazado_880498" data-name="Trazado 880498" d="M61.647,21.121,60.228,20.3a22.551,22.551,0,0,1,1.614-4.224l1.419.824a22.667,22.667,0,0,0-1.614,4.224" transform="translate(-60.228 -16.073)" fill="#21b7ed"/>
      </g>
    </g>
    <g id="Grupo_1105279" data-name="Grupo 1105279">
      <g id="Grupo_1105278" data-name="Grupo 1105278" clip-path="url(#clip-path)">
        <path id="Trazado_880500" data-name="Trazado 880500" d="M77.961,20.778l1.968.868a22.551,22.551,0,0,1-1.614,4.224l-2.507.535a17.257,17.257,0,0,1-3.033,3.81l-.517,3.256a15.026,15.026,0,0,1-1.644,1.119l-.088.052a11.813,11.813,0,0,1-1.557.758L68.4,32.782a4.48,4.48,0,0,1-3.073-.231l-2.487,2.392a5.659,5.659,0,0,1-1.677-2.294l1.93-3.153a8.42,8.42,0,0,1-.224-1.9,11.725,11.725,0,0,1,.186-2.141l-1.968-.868A22.437,22.437,0,0,1,62.7,20.366l2.5-.535a17.318,17.318,0,0,1,3.037-3.81l.515-3.256a15.7,15.7,0,0,1,1.644-1.12l.07-.04a12.227,12.227,0,0,1,1.576-.77l.575,2.618a4.484,4.484,0,0,1,3.072.229l2.488-2.39a5.678,5.678,0,0,1,1.677,2.294l-1.931,3.153a8.223,8.223,0,0,1,.224,1.9,11.721,11.721,0,0,1-.185,2.141m-7.413,6.838a8.632,8.632,0,0,0,3.888-6.8c-.025-2.473-1.787-3.457-3.943-2.212l-.03.017a8.637,8.637,0,0,0-3.889,6.8c.025,2.47,1.785,3.457,3.941,2.212l.033-.018" transform="translate(40.447 7.175)" fill="#fff"/>
      </g>
    </g>
    <g id="Grupo_1105281" data-name="Grupo 1105281" transform="translate(75.492 86.433)">
      <g id="Grupo_1105280" data-name="Grupo 1105280" clip-path="url(#clip-path-19)">
        <rect id="Rect치ngulo_404841" data-name="Rect치ngulo 404841" width="40.328" height="43.282" transform="matrix(0.515, -0.857, 0.857, 0.515, -11.545, 19.191)" fill="url(#linear-gradient)"/>
      </g>
    </g>
    <g id="Grupo_1105283" data-name="Grupo 1105283" transform="translate(75.79 81.619)">
      <g id="Grupo_1105282" data-name="Grupo 1105282" clip-path="url(#clip-path-20)">
        <rect id="Rect치ngulo_404842" data-name="Rect치ngulo 404842" width="43.299" height="38.066" transform="matrix(0.866, -0.5, 0.5, 0.866, -9.801, 5.658)" fill="url(#linear-gradient-2)"/>
      </g>
    </g>
    <g id="Grupo_1105285" data-name="Grupo 1105285" transform="translate(110.122 102.597)">
      <g id="Grupo_1105284" data-name="Grupo 1105284" clip-path="url(#clip-path-21)">
        <rect id="Rect치ngulo_404843" data-name="Rect치ngulo 404843" width="12.851" height="10.811" transform="matrix(0.5, -0.866, 0.866, 0.5, -4.957, 8.586)" fill="url(#linear-gradient-3)"/>
      </g>
    </g>
    <g id="Grupo_1105287" data-name="Grupo 1105287" transform="translate(73.658 83.276)">
      <g id="Grupo_1105286" data-name="Grupo 1105286" clip-path="url(#clip-path-22)">
        <rect id="Rect치ngulo_404844" data-name="Rect치ngulo 404844" width="47.942" height="50.58" transform="translate(-14.167 23.519) rotate(-58.97)" fill="url(#linear-gradient-4)"/>
      </g>
    </g>
    <g id="Grupo_1105289" data-name="Grupo 1105289" transform="translate(38.961 94.441)">
      <g id="Grupo_1105288" data-name="Grupo 1105288" clip-path="url(#clip-path-23)">
        <rect id="Rect치ngulo_404845" data-name="Rect치ngulo 404845" width="45.61" height="33.305" transform="translate(0)" fill="url(#linear-gradient-5)"/>
      </g>
    </g>
    <g id="Grupo_1105291" data-name="Grupo 1105291">
      <g id="Grupo_1105290" data-name="Grupo 1105290" clip-path="url(#clip-path)">
        <path id="Trazado_880506" data-name="Trazado 880506" d="M47.169,57.18a14.213,14.213,0,0,1-12.9-.13c-3.512-2.1-3.431-5.445.183-7.473a14.213,14.213,0,0,1,12.9.13c3.512,2.1,3.431,5.445-.183,7.473" transform="translate(20.982 31.846)" fill="#c0baca"/>
      </g>
    </g>
    <g id="Grupo_1105293" data-name="Grupo 1105293" transform="translate(38.961 77.364)">
      <g id="Grupo_1105292" data-name="Grupo 1105292" clip-path="url(#clip-path-25)">
        <rect id="Rect치ngulo_404847" data-name="Rect치ngulo 404847" width="50.923" height="56.584" transform="translate(-14.42 23.713) rotate(-60)" fill="url(#linear-gradient-6)"/>
      </g>
    </g>
    <g id="Grupo_1105298" data-name="Grupo 1105298">
      <g id="Grupo_1105297" data-name="Grupo 1105297" clip-path="url(#clip-path)">
        <g id="Grupo_1105296" data-name="Grupo 1105296" transform="translate(40.047 94.396)" style="mix-blend-mode: multiply;isolation: isolate">
          <g id="Grupo_1105295" data-name="Grupo 1105295">
            <g id="Grupo_1105294" data-name="Grupo 1105294" clip-path="url(#clip-path-27)">
              <path id="Trazado_880508" data-name="Trazado 880508" d="M50.995,89.432a17.637,17.637,0,0,1-5.051.71c-15.136,0-20.257-18.116-21.849-27.384a85.779,85.779,0,0,1,8.075-5.3c.731-.424,1.173-.67,1.173-.67a3.71,3.71,0,0,1,.623.67c3.185,4.353,1.152,18.42,3.331,24.959,1.878,5.631,7.425,7.4,13.7,7.013" transform="translate(-24.093 -56.792)" fill="#ebebeb"/>
            </g>
          </g>
        </g>
        <path id="Trazado_880509" data-name="Trazado 880509" d="M55.444,62.352c-6.444,3.72-16.924,3.7-23.41-.042s-6.517-9.8-.073-13.517,16.926-3.7,23.41.043,6.517,9.8.073,13.515" transform="translate(17.977 30.47)" fill="#d4d5e6"/>
      </g>
    </g>
    <g id="Grupo_1105300" data-name="Grupo 1105300" transform="translate(42.979 84.498)">
      <g id="Grupo_1105299" data-name="Grupo 1105299" clip-path="url(#clip-path-28)">
        <rect id="Rect치ngulo_404850" data-name="Rect치ngulo 404850" width="37.467" height="7.556" transform="translate(0 0)" fill="url(#linear-gradient-7)"/>
      </g>
    </g>
    <g id="Grupo_1105302" data-name="Grupo 1105302" transform="translate(36.24 55.792)">
      <g id="Grupo_1105301" data-name="Grupo 1105301" clip-path="url(#clip-path-29)">
        <rect id="Rect치ngulo_404851" data-name="Rect치ngulo 404851" width="54.082" height="62.932" transform="translate(-14.917 29.839) rotate(-66.137)" fill="url(#linear-gradient-8)"/>
      </g>
    </g>
    <g id="Grupo_1105304" data-name="Grupo 1105304" transform="translate(36.892 45.01)">
      <g id="Grupo_1105303" data-name="Grupo 1105303" clip-path="url(#clip-path-30)">
        <rect id="Rect치ngulo_404852" data-name="Rect치ngulo 404852" width="55.461" height="61.627" transform="translate(-15.704 25.826) rotate(-60)" fill="url(#linear-gradient-9)"/>
      </g>
    </g>
    <g id="Grupo_1105306" data-name="Grupo 1105306">
      <g id="Grupo_1105305" data-name="Grupo 1105305" clip-path="url(#clip-path)">
        <path id="Trazado_880513" data-name="Trazado 880513" d="M67.008,47.044a11.293,11.293,0,0,1-.261,3.431c-.894,2.972-3.269,5.7-7.314,7.953C52.57,62.256,42.959,63.4,34.467,61.917c-2.649-.6-3.64-.819-4.935-12.14-.175-3.183.918-3.414,1.89-3.258,8.241,2.528,18.7,1.84,25.807-2.121,4.634-2.585,6.92-6.047,6.828-9.494,0-.07.01-.163.015-.233a.88.88,0,0,1,.369.3s2.177,4.145,2.566,12.076" transform="translate(19.543 22.958)" fill="#003447"/>
        <path id="Trazado_880514" data-name="Trazado 880514" d="M44.187,49.979a5.7,5.7,0,0,1-.876-.062l.178-1.067c.025,0,2.613.406,3.856-1.328l.879.63a4.844,4.844,0,0,1-4.037,1.827" transform="translate(28.679 31.468)" fill="#0bf"/>
        <path id="Trazado_880515" data-name="Trazado 880515" d="M40.631,51.477h-.324a2.715,2.715,0,0,1-1.931-.818,3.2,3.2,0,0,1-.908-2.256l0-.936A3,3,0,0,1,40.2,44.4l.312-.017a2.677,2.677,0,0,1,1.985.725,3.109,3.109,0,0,1,.984,2.194l.03.977a3.232,3.232,0,0,1-.886,2.34,2.76,2.76,0,0,1-1.99.861m.022-5.587-.062,0-.312.017a1.5,1.5,0,0,0-1.292,1.562l0,.936a1.667,1.667,0,0,0,.465,1.182,1.2,1.2,0,0,0,.858.372h.324a1.253,1.253,0,0,0,.9-.4,1.7,1.7,0,0,0,.46-1.238l-.03-.977a1.6,1.6,0,0,0-.494-1.125,1.209,1.209,0,0,0-.816-.329" transform="translate(24.81 29.384)" fill="#0bf"/>
        <path id="Trazado_880516" data-name="Trazado 880516" d="M49.041,48.5a1.747,1.747,0,0,1-.77-.181A2.845,2.845,0,0,1,46.883,46.2l-.173-.934a3.763,3.763,0,0,1,1.318-3.813l.213-.128a1.735,1.735,0,0,1,1.621-.12,2.7,2.7,0,0,1,1.424,2.018l.2.964c.351,1.654-.269,3.409-1.411,4l-.224.116a1.775,1.775,0,0,1-.813.2m.13-5.926a.28.28,0,0,0-.148.05l-.214.128a2.4,2.4,0,0,0-.607,2.237l.173.934a1.46,1.46,0,0,0,.567,1.036.213.213,0,0,0,.219-.008l.223-.115a2.36,2.36,0,0,0,.625-2.337l-.2-.964a1.322,1.322,0,0,0-.547-.941.228.228,0,0,0-.086-.02" transform="translate(30.881 27.188)" fill="#0bf"/>
      </g>
    </g>
    <g id="Grupo_1105308" data-name="Grupo 1105308" transform="translate(32.846 94.556)">
      <g id="Grupo_1105307" data-name="Grupo 1105307" clip-path="url(#clip-path-32)">
        <rect id="Rect치ngulo_404854" data-name="Rect치ngulo 404854" width="19.156" height="42.387" transform="translate(-7.198 1.25) rotate(-10.069)" fill="url(#linear-gradient-10)"/>
      </g>
    </g>
    <g id="Grupo_1105310" data-name="Grupo 1105310" transform="translate(31.352 91.428)">
      <g id="Grupo_1105309" data-name="Grupo 1105309" clip-path="url(#clip-path-33)">
        <rect id="Rect치ngulo_404855" data-name="Rect치ngulo 404855" width="19.817" height="48.127" transform="translate(-3.419 0.207) rotate(-3.799)" fill="url(#linear-gradient-11)"/>
      </g>
    </g>
    <g id="Grupo_1105312" data-name="Grupo 1105312" transform="translate(37.628 90.605)">
      <g id="Grupo_1105311" data-name="Grupo 1105311" clip-path="url(#clip-path-34)">
        <rect id="Rect치ngulo_404856" data-name="Rect치ngulo 404856" width="34.952" height="47.358" transform="translate(-20.384 11.769) rotate(-30)" fill="url(#linear-gradient-12)"/>
      </g>
    </g>
  </g>
</svg>
