<svg xmlns="http://www.w3.org/2000/svg" width="73.449" height="67" viewBox="0 0 73.449 67">
  <g id="Grupo_1101968" data-name="Grupo 1101968" transform="translate(-179.668 -805)">
    <path id="Rectángulo_402006" data-name="Rectángulo 402006" d="M9,0H9A31,31,0,0,1,40,31v0a9,9,0,0,1-9,9H9a9,9,0,0,1-9-9V9A9,9,0,0,1,9,0Z" transform="translate(179.668 832)" fill="#9936b1"/>
    <g id="_15-AR_robot" data-name="15-AR robot" transform="translate(186.219 805)">
      <path id="Trazado_877305" data-name="Trazado 877305" d="M56.422,14.281V8l-5.234,3.141L47,9.047v3.141l4.188,4.188Z" transform="translate(2.203 0.375)" fill="#cbdff1"/>
      <path id="Trazado_877306" data-name="Trazado 877306" d="M41,6V16.469L51.469,23.8V16.469l-4.187-4.188V9.141" transform="translate(1.922 0.281)" fill="#7eaedd"/>
      <path id="Trazado_877307" data-name="Trazado 877307" d="M61.469,6V17.516L51,23.8V16.469l5.234-2.094V9.141" transform="translate(2.391 0.281)" fill="#7c96af"/>
      <path id="Trazado_877308" data-name="Trazado 877308" d="M61.827,6.234,51.464,11.469,41.1,6.234,51.464,1Z" transform="translate(1.927 0.047)" fill="#25507a"/>
      <path id="Trazado_877309" data-name="Trazado 877309" d="M46,48.13l2.419-2.419a1.651,1.651,0,0,1,2.487,2.158l-1.766,2.355" transform="translate(2.156 2.12)" fill="#e4e5e9"/>
      <path id="Trazado_877310" data-name="Trazado 877310" d="M48,50.2l5.492-.61a11.272,11.272,0,0,0,6.725-3.232l.143-.143a1.766,1.766,0,0,1,2.872,1.944,10.9,10.9,0,0,1-11.426,6.6L48,54.389" transform="translate(2.25 2.142)" fill="#e4e5e9"/>
      <path id="Trazado_877311" data-name="Trazado 877311" d="M46.422,56.188l-2.094,7.328H37L41.188,52" transform="translate(1.734 2.438)" fill="#e4e5e8"/>
      <circle id="Elipse_11617" data-name="Elipse 11617" cx="4.188" cy="4.188" r="4.188" transform="translate(42.922 50.25)" fill="#1e202f"/>
      <path id="Trazado_877312" data-name="Trazado 877312" d="M33.453,63.75H1l.419-2.91A18.32,18.32,0,0,1,9.385,48.193a19.023,19.023,0,0,1,1.958-1.131L11.469,47l9.422,2.094a6.49,6.49,0,0,1,.879.366,7.043,7.043,0,0,1,3.486,3.758,6.149,6.149,0,0,0,2.952,3.193,7.211,7.211,0,0,1,3.162,3.162Z" transform="translate(0.047 2.203)" fill="#e4e5e8"/>
      <path id="Trazado_877313" data-name="Trazado 877313" d="M6,63.234a5.234,5.234,0,1,1,10.469,0" transform="translate(0.281 2.719)" fill="#28273f"/>
      <path id="Trazado_877314" data-name="Trazado 877314" d="M21.395,49.46A6.273,6.273,0,0,1,9.01,48.193a19.023,19.023,0,0,1,1.958-1.131L11.093,47l9.422,2.094A6.49,6.49,0,0,1,21.395,49.46Z" transform="translate(0.422 2.203)" fill="#d0d2d8"/>
      <path id="Trazado_877315" data-name="Trazado 877315" d="M12.053,41l-1.058,4.761a4.775,4.775,0,1,0,9.343,1.972l1.137-5.687Z" transform="translate(0.51 1.922)" fill="#b5bac8"/>
      <path id="Trazado_877316" data-name="Trazado 877316" d="M12.327,42.656l-1.6-1.368A8.519,8.519,0,0,1,9.187,30.094L7.093,28A12.353,12.353,0,0,0,9.654,44.5l1.627,1.3" transform="translate(0.235 1.313)" fill="#797d8b"/>
      <path id="Trazado_877317" data-name="Trazado 877317" d="M19.626,32.458l-.534-1.246a4.132,4.132,0,0,1-.126-2.942,2.931,2.931,0,0,1,.23-.6l.052-.094a5.934,5.934,0,0,0,.22-4.795l-.942-2.418-.2-.366L13.3,22.79A4.188,4.188,0,0,1,11,30.469l2.094,6.281L20.2,33.515A8.516,8.516,0,0,1,19.626,32.458Z" transform="translate(0.516 0.938)" fill="#61636d"/>
      <path id="Trazado_877318" data-name="Trazado 877318" d="M13,7.037,14.764,6.6a12.756,12.756,0,0,1,12.892,4.209l.022.025A12.764,12.764,0,0,1,30.387,16.5l.131.654a3.931,3.931,0,0,0,1.4,2.3l2.931,2.341a2.186,2.186,0,0,1,.708,2.4l-.209.62a2.732,2.732,0,0,0,.149,2.094l.023.048a1.6,1.6,0,0,1-.3,1.847l-.68.68a.609.609,0,0,0,.158.976l.453.227a1.6,1.6,0,0,1,.883,1.423v2.551A2.739,2.739,0,0,1,33.291,37.4H26.044A7.081,7.081,0,0,1,19.536,33.1L19,31.86a4.2,4.2,0,0,1,.1-3.536l.048-.1a5.918,5.918,0,0,0,.223-4.792Z" transform="translate(0.609 0.291)" fill="#e4e5e9"/>
      <path id="Trazado_877319" data-name="Trazado 877319" d="M29.185,35.3a7.081,7.081,0,0,1-6.508-4.292l-.533-1.244a4.2,4.2,0,0,1,.1-3.536l.048-.1a5.918,5.918,0,0,0,.223-4.792L16.664,6.283a12.709,12.709,0,0,0-1.9.314L13,7.034l6.378,16.4a5.918,5.918,0,0,1-.223,4.792l-.048.1a4.2,4.2,0,0,0-.1,3.536l.533,1.244a7.081,7.081,0,0,0,6.509,4.292h7.246A2.715,2.715,0,0,0,35.94,35.3Z" transform="translate(0.609 0.295)" fill="#d0d2d8"/>
      <path id="Trazado_877320" data-name="Trazado 877320" d="M13.314,23.75l5.234-3.141L13.314,7,12.1,7.774A12.534,12.534,0,0,0,8.08,24.8" transform="translate(0.295 0.328)" fill="#bac1d2"/>
      <path id="Trazado_877321" data-name="Trazado 877321" d="M20.375,33l-7.328,3.141L12,41.375l9.422,1.047,1.047-7.328Z" transform="translate(0.563 1.547)" fill="#43495d"/>
      <path id="Trazado_877322" data-name="Trazado 877322" d="M19.626,32.13l-.534-1.246a4.132,4.132,0,0,1-.126-2.942L15.188,27l-.193.144a4.174,4.174,0,0,1-3.995,3l2.094,6.281L20.2,33.187A8.516,8.516,0,0,1,19.626,32.13Z" transform="translate(0.516 1.266)" fill="#bac1d2"/>
      <circle id="Elipse_11618" data-name="Elipse 11618" cx="4.188" cy="4.188" r="4.188" transform="translate(7.328 23.031)" fill="#1e202f"/>
      <path id="Trazado_877323" data-name="Trazado 877323" d="M27.141,22.235A2.883,2.883,0,0,1,24,19.618,2.883,2.883,0,0,1,27.141,17a1.047,1.047,0,0,1,0,2.094c-.649,0-1.047.339-1.047.523s.4.523,1.047.523a1.047,1.047,0,0,1,0,2.094Z" transform="translate(1.125 0.796)"/>
      <path id="Trazado_877324" data-name="Trazado 877324" d="M62.224,5.283,51.988.112a1.047,1.047,0,0,0-.942,0L40.807,5.283a1.033,1.033,0,0,0-.807,1V16.75a1.047,1.047,0,0,0,.447.857l10.469,7.328c.013.009.027.012.04.02s.028.024.044.033a1.126,1.126,0,0,0,.138.057c.029.012.058.026.088.036a.969.969,0,0,0,.733-.064c.013-.006.028,0,.041-.01a.142.142,0,0,1,.026-.019c.009-.005.02-.006.029-.013l10.469-6.281a1.047,1.047,0,0,0,.508-.9V6.281a1.033,1.033,0,0,0-.807-1ZM51.516,2.219l8.041,4.062-8.041,4.062L43.475,6.281Zm.252,13.3-3.393-3.392V11.1l2.668,1.348a1.047,1.047,0,0,0,.942,0L55.7,10.573v3.374ZM42.094,7.929l4.188,2.121v2.513a1.047,1.047,0,0,0,.307.74l3.881,3.881v4.885l-8.375-5.863Zm10.469,14.3V17.459l4.577-1.83a1.047,1.047,0,0,0,.657-.973V9.516l3.141-1.587V17.2Z" transform="translate(1.875)"/>
      <path id="Trazado_877325" data-name="Trazado 877325" d="M60.183,46.136l-.146.144a10.178,10.178,0,0,1-2.08,1.6l7.254-15.414-1.895-.892L55.117,49a10.154,10.154,0,0,1-1.178.209l-1.945.216.219-.291a2.7,2.7,0,0,0-1.3-4.178,2.671,2.671,0,0,0-2.014.14l-5.7-10.44-1.838,1,5.906,10.828-1.29,1.29a5.146,5.146,0,0,0-.557-.055A5.227,5.227,0,0,0,40.214,52.7L36.063,64.112a1.047,1.047,0,0,0,.984,1.408h7.328a1.047,1.047,0,0,0,1.006-.76l1.989-6.952a5.24,5.24,0,0,0,2.136-1.613l2.765.268q.65.063,1.3.063a12.125,12.125,0,0,0,7.814-2.73,12.4,12.4,0,0,0,3.377-4.562,2.813,2.813,0,0,0-4.575-3.1Zm-10.554.959a.6.6,0,0,1,.91.789L49.323,49.5a5.212,5.212,0,0,0-1.135-.969ZM43.586,63.426H38.542l2.681-7.374A5.21,5.21,0,0,0,45.1,58.158ZM45.422,56.1a3.141,3.141,0,1,1,3.141-3.141A3.141,3.141,0,0,1,45.422,56.1Zm17.411-7.689a9.85,9.85,0,0,1-10.364,5.967l-1.974-.192a4.758,4.758,0,0,0-.007-2.483l3.683-.409a12.353,12.353,0,0,0,7.348-3.532l.146-.144a.718.718,0,0,1,1.168.791Z" transform="translate(1.688 1.48)"/>
      <path id="Trazado_877326" data-name="Trazado 877326" d="M0,0H2.094V21.068H0Z" transform="translate(45.1 26.64) rotate(-26.565)"/>
      <path id="Trazado_877327" data-name="Trazado 877327" d="M0,0H16.552V2.094H0Z" transform="translate(54.605 36.045) rotate(-55.308)"/>
      <path id="Trazado_877328" data-name="Trazado 877328" d="M36.313,29.83l.252-.253a2.66,2.66,0,0,0,.472-3.1,1.675,1.675,0,0,1-.091-1.292l.209-.62a3.245,3.245,0,0,0-1.047-3.545l-2.926-2.341a2.89,2.89,0,0,1-1.027-1.688l-.131-.654A13.832,13.832,0,0,0,15.116,5.626l-1.764.442a1.058,1.058,0,0,0-.162.08,1.089,1.089,0,0,0-.146.052l-1.214.779A13.491,13.491,0,0,0,6.959,24.45a4.92,4.92,0,0,0-.408,4.1l-.093-.062A13.323,13.323,0,0,0,9.236,46.381l1.228.983a5.862,5.862,0,0,0-.117,1.031A19.3,19.3,0,0,0,.427,62.649L.008,65.56a1.047,1.047,0,0,0,1.039,1.2H33.5a1.047,1.047,0,0,0,.942-1.515l-2.094-4.176a8.171,8.171,0,0,0-3.626-3.626,5.071,5.071,0,0,1-2.446-2.654,8.156,8.156,0,0,0-4.592-4.56,5.672,5.672,0,0,0,.185-.608l1.14-5.682a.236.236,0,0,0,0-.027c0-.01.008-.019.01-.029l.837-5.9a8.1,8.1,0,0,0,2.8.51H33.9A3.788,3.788,0,0,0,37.688,34.7V32.151a2.629,2.629,0,0,0-1.375-2.321ZM21.092,42.573l-7.279-.809.225-1.124,7.216.8Zm-9.444-1.009A7.477,7.477,0,0,1,10.137,32a5.364,5.364,0,0,0,.6.129l1.793,5.381-.82,4.1Zm-.132-17.73a3.141,3.141,0,1,1-3.141,3.141,3.141,3.141,0,0,1,3.141-3.141Zm1.01,23.832.854-3.844,1,.112-1.319,6.6c-.014-.02-.031-.036-.045-.057a3.708,3.708,0,0,1-.494-2.807Zm3.947-3.5.984.11-1.58,7.9a3.987,3.987,0,0,1-.523-.063,3.793,3.793,0,0,1-.444-.146Zm3.073.342,1.189.132L19.821,49.2A3.7,3.7,0,0,1,18.2,51.6c-.026.017-.054.025-.081.042Zm-5.1-5.931.077-.388,1.58-.676,5.593.8-.151,1.054Zm5.359-2.652.667-.286c.134.157.285.3.429.442Zm-5.566.1L12.9,32a5.227,5.227,0,0,0,3.32-2.77l2.038.51a5.234,5.234,0,0,0,.393,2.58l.534,1.245c.043.1.1.191.15.288ZM16.724,27.2c0-.076.023-.148.023-.224a5.177,5.177,0,0,0-1.085-3.153l2.7-1.62.646,1.66a4.88,4.88,0,0,1-.155,3.873ZM12.955,8.738l.135-.087,4.46,11.594-3.566,2.14a5.1,5.1,0,0,0-5.507.339A11.411,11.411,0,0,1,12.956,8.741ZM7.68,30.513a5.324,5.324,0,0,0,.589.538,9.569,9.569,0,0,0,2.015,12.1l.924.791-.252,1.134-.414-.331A11.23,11.23,0,0,1,7.681,30.511Zm-.2,34.149a4.168,4.168,0,0,1,8.078,0Zm16.855-9.1a7.164,7.164,0,0,0,3.455,3.749A6.048,6.048,0,0,1,30.477,62l1.33,2.66H17.7a6.274,6.274,0,0,0-12.374,0H2.254L2.5,62.945A17.08,17.08,0,0,1,10.748,50.6,5.808,5.808,0,0,0,14.9,54.161a5.894,5.894,0,0,0,1.277.141A5.674,5.674,0,0,0,20.7,52.087a6.072,6.072,0,0,1,3.634,3.476ZM35.594,34.7A1.7,1.7,0,0,1,33.9,36.4H26.654a6.027,6.027,0,0,1-5.548-3.658l-.533-1.244a3.15,3.15,0,0,1,.08-2.657l.047-.1a6.978,6.978,0,0,0,.262-5.638L15.015,7.817l.611-.153a11.746,11.746,0,0,1,14.342,9.088l.131.653a4.979,4.979,0,0,0,1.772,2.911L34.8,22.658a1.142,1.142,0,0,1,.369,1.248l-.209.619a3.792,3.792,0,0,0,.229,2.939.553.553,0,0,1-.1.639l-.68.68a1.656,1.656,0,0,0,.429,2.652l.454.227a.551.551,0,0,1,.306.5Z" transform="translate(0 0.244)"/>
    </g>
  </g>
</svg>
