<svg xmlns="http://www.w3.org/2000/svg" width="83.711" height="86.522" viewBox="0 0 83.711 86.522">
  <g id="Grupo_1105672" data-name="Grupo 1105672" transform="translate(-180 -6600.891)">
    <g id="robot" transform="translate(180 6600.891)">
      <path id="Trazado_878164" data-name="Trazado 878164" d="M49.719,22A41.4,41.4,0,0,0,15.711,87.013L20.3,88.279l-.286,3.959a41.49,41.49,0,0,0,12.789,8.96l12.476-1.09,11.585,4.076A41.413,41.413,0,0,0,91.122,63.4q0-1.76-.144-3.483C90.924,59.272,89.252,58,89.252,58s1.3-1.5,1.167-2.24A41.416,41.416,0,0,0,49.719,22Z" transform="translate(-8.317 -18.279)" fill="#4f08c2"/>
      <path id="Trazado_878165" data-name="Trazado 878165" d="M58.29,376.768l-6.22,4.527a41.606,41.606,0,0,0,4.307,5.226l5.891-4.287a3.38,3.38,0,0,0-3.977-5.465Z" transform="translate(-44.676 -312.56)" fill="#ffc242"/>
      <g id="Grupo_1103038" data-name="Grupo 1103038" transform="translate(51.493 62.049)">
        <path id="Trazado_878166" data-name="Trazado 878166" d="M325.735,376.184h-9.323a3.38,3.38,0,1,1,0-6.76h9.323A5.916,5.916,0,0,0,329.589,368a3.38,3.38,0,0,1,4.406,5.127A12.68,12.68,0,0,1,325.735,376.184Z" transform="translate(-313.032 -367.181)" fill="#ffc242"/>
      </g>
      <g id="Grupo_1103039" data-name="Grupo 1103039" transform="translate(64.052 36.826)">
        <path id="Trazado_878167" data-name="Trazado 878167" d="M396.79,229.9a9.454,9.454,0,0,1-9.443-9.443,2.535,2.535,0,1,1,5.07,0,4.374,4.374,0,0,0,8.747,0,2.535,2.535,0,1,1,5.07,0A9.454,9.454,0,0,1,396.79,229.9Z" transform="translate(-387.347 -217.921)" fill="#ffc242"/>
      </g>
      <path id="Trazado_878168" data-name="Trazado 878168" d="M106.787,363.178h-2.041a3.168,3.168,0,0,0-3.168,3.168v6.264a3.168,3.168,0,0,0,3.168,3.168h2.041l1.521-6.964Z" transform="translate(-85.818 -301.805)" fill="#fef156"/>
      <path id="Trazado_878169" data-name="Trazado 878169" d="M312.826,363.178h-1.9l-2.2,6.641,2.2,5.959h1.9a3.168,3.168,0,0,0,3.168-3.168v-6.264a3.168,3.168,0,0,0-3.168-3.168Z" transform="translate(-257.961 -301.805)" fill="#fef156"/>
      <g id="Grupo_1103040" data-name="Grupo 1103040" transform="translate(33.084 51.158)">
        <path id="Trazado_878170" data-name="Trazado 878170" d="M204.093,302.73h7.764v7.858h-7.764Z" transform="translate(-204.093 -302.73)" fill="#1d8df2"/>
      </g>
      <path id="Trazado_878171" data-name="Trazado 878171" d="M209.3,107.723h5.986v10.638H209.3Z" transform="translate(-175.333 -89.519)" fill="#1d8df2"/>
      <ellipse id="Elipse_11657" data-name="Elipse 11657" cx="4.444" cy="4.444" rx="4.444" ry="4.444" transform="translate(32.512 13.05)" fill="#fe3d97"/>
      <g id="Grupo_1103041" data-name="Grupo 1103041" transform="translate(66.874 42.727)">
        <path id="Trazado_878172" data-name="Trazado 878172" d="M407.427,278.919a3.38,3.38,0,0,1-2.2-5.943,5.918,5.918,0,0,0,2.065-4.492V256.217a3.38,3.38,0,0,1,6.76,0v12.267a12.67,12.67,0,0,1-4.418,9.619A3.366,3.366,0,0,1,407.427,278.919Z" transform="translate(-404.046 -252.837)" fill="#fef156"/>
      </g>
      <path id="Trazado_878173" data-name="Trazado 878173" d="M320.626,0a16.9,16.9,0,0,0-4.383,33.214l4.165-1.377,4.6,1.377A16.9,16.9,0,0,0,320.626,0Z" transform="translate(-253.809 0)" fill="#005dff"/>
      <path id="Trazado_878174" data-name="Trazado 878174" d="M382.667,174.564l-4.9,1.15v2.565a16.982,16.982,0,0,0,8.766,0v-2.565Z" transform="translate(-315.337 -145.065)" fill="#02c0fc"/>
      <path id="Trazado_878175" data-name="Trazado 878175" d="M381.949,158.98l-4.179.981v2.972h8.766v-2.972Z" transform="translate(-315.337 -132.114)" fill="#64f9ea"/>
      <path id="Trazado_878176" data-name="Trazado 878176" d="M362.558,30.344,356.7,28.063l1.1-4.513a10.449,10.449,0,0,0-11.823,17.2,2.362,2.362,0,0,1,.93,1.877v1.714a2.366,2.366,0,0,0,2.366,2.366H350.8l1.521-1.394,1.521,1.394h1.526a2.366,2.366,0,0,0,2.366-2.366V42.616a2.331,2.331,0,0,1,.9-1.853,10.438,10.438,0,0,0,3.926-10.419Z" transform="translate(-285.504 -18.279)" fill="#fef156"/>
      <path id="Trazado_878177" data-name="Trazado 878177" d="M403.973,30.4a5.818,5.818,0,0,0-.59-.03,5.737,5.737,0,0,0-2.42,10.939l1.77-.824L404,41.8v.009a5.741,5.741,0,0,0,4.941-4.3A10.457,10.457,0,0,0,403.973,30.4Z" transform="translate(-331.854 -25.241)" fill="#fffbb3"/>
      <path id="Trazado_878178" data-name="Trazado 878178" d="M381.188,73.667a1.555,1.555,0,0,0-1.42,1.57v2.537s0,.008,0,.011a.634.634,0,0,1-.343.52l-1.59.891a.734.734,0,0,1-.718,0c-1.625-.91-1.934-.975-1.934-1.417V75.237a1.556,1.556,0,0,0-1.42-1.57,1.521,1.521,0,0,0-1.622,1.518v2.594a3.624,3.624,0,0,0,1.893,3.176l1.448.811a.924.924,0,0,1,.472.806v7.072H379V82.573a.924.924,0,0,1,.472-.806l1.442-.808a3.67,3.67,0,0,0,1.9-3.142c0-.013,0-.026,0-.038V75.185a1.521,1.521,0,0,0-1.622-1.518Z" transform="translate(-310.66 -61.215)" fill="#fd8d3e"/>
      <path id="Trazado_878179" data-name="Trazado 878179" d="M142.89,339.4h-8.784a3.662,3.662,0,0,0-3.662,3.662v14.261a7.952,7.952,0,0,0,2.355,5.647l8.025,1.425,4.374-14.677Z" transform="translate(-109.806 -282.042)" fill="#02c0fc"/>
      <path id="Trazado_878180" data-name="Trazado 878180" d="M209.7,346.578l-2.853-7.182H193.762s-4.6,5.246.524,9.156l11.867,15.714,5.633-1.3a7.951,7.951,0,0,0,2.355-5.647v-6.984Z" transform="translate(-160.847 -282.042)" fill="#2fd0e2"/>
      <path id="Trazado_878181" data-name="Trazado 878181" d="M162.766,393.295v-3.439a5.624,5.624,0,1,0-11.249,0v3.439a6.677,6.677,0,0,1-6.677,6.677h-1.918q.136.148.28.289a7.948,7.948,0,0,1,1.463,1.96,41.571,41.571,0,0,0,24.062,2.986,7.951,7.951,0,0,1,2.354-4.946q.144-.141.28-.289h-1.918A6.677,6.677,0,0,1,162.766,393.295Z" transform="translate(-120.175 -319.3)" fill="#1d8df2"/>
      <path id="Trazado_878182" data-name="Trazado 878182" d="M276.338,339.395h-3.71a8.034,8.034,0,0,0-.9,7.63c1.665,3.781,4.989,5.166,8.271,3.383v-7.351A3.662,3.662,0,0,0,276.338,339.395Z" transform="translate(-226.706 -282.041)" fill="#3feadd"/>
      <path id="Trazado_878183" data-name="Trazado 878183" d="M185.446,158.349h-6.534a5.794,5.794,0,0,0-5.777,5.76l9.736,1.543,8.352-1.543A5.794,5.794,0,0,0,185.446,158.349Z" transform="translate(-145.283 -131.59)" fill="#02c0fc"/>
      <path id="Trazado_878184" data-name="Trazado 878184" d="M130.542,191.076H117.4a6.743,6.743,0,0,0-6.724,6.724v7.6a6.743,6.743,0,0,0,6.724,6.724H143.15l.562-11.093Z" transform="translate(-93.379 -158.786)" fill="#ade9f7"/>
      <path id="Trazado_878185" data-name="Trazado 878185" d="M242.294,205.4v-7.6a6.743,6.743,0,0,0-6.724-6.724H222.7c-.746,1.082-1.619,3.105.634,4.786,3.247,2.423,9.887,8.742,9.887,8.742s-2.469,5.072,2.35,7.522A6.743,6.743,0,0,0,242.294,205.4Z" transform="translate(-185.799 -158.786)" fill="#e8f8fc"/>
      <path id="Trazado_878186" data-name="Trazado 878186" d="M178.563,219.4h16.393v10.343H178.563Z" transform="translate(-149.793 -182.324)" fill="#2a428b"/>
      <path id="Trazado_878187" data-name="Trazado 878187" d="M303.065,235.639H296.68v4.854h6.385a2.427,2.427,0,0,0,0-4.854Z" transform="translate(-247.95 -195.819)" fill="#5071b7"/>
      <path id="Trazado_878188" data-name="Trazado 878188" d="M113.818,235.639h-6.085a2.427,2.427,0,0,0,0,4.854h6.085Z" transform="translate(-88.915 -195.819)" fill="#3f57a0"/>
      <ellipse id="Elipse_11658" data-name="Elipse 11658" cx="5.171" cy="5.171" rx="5.171" ry="5.171" transform="translate(22.545 46.108) rotate(-76.7)" fill="#02c0fc"/>
      <ellipse id="Elipse_11659" data-name="Elipse 11659" cx="5.171" cy="5.171" rx="5.171" ry="5.171" transform="matrix(0.16, -0.987, 0.987, 0.16, 39.218, 46.521)" fill="#3feadd"/>
    </g>
  </g>
</svg>
