<svg xmlns="http://www.w3.org/2000/svg" xmlns:xlink="http://www.w3.org/1999/xlink" width="117.473" height="119.15" viewBox="0 0 117.473 119.15">
  <defs>
    <clipPath id="clip-path">
      <rect id="Rectángulo_404783" data-name="Rectángulo 404783" width="70" height="70" transform="translate(652 6994.168)" fill="#fff" stroke="#707070" stroke-width="1"/>
    </clipPath>
    <clipPath id="clip-path-2">
      <path id="path12546" d="M0-70H70V0H0Z"/>
    </clipPath>
  </defs>
  <g id="Grupo_1105567" data-name="Grupo 1105567" transform="translate(-621.527 -6963.85)">
    <g id="Grupo_1103880" data-name="Grupo 1103880">
      <circle id="Elipse_11687" data-name="Elipse 11687" cx="50" cy="50" r="50" transform="translate(636 6980)" fill="#b299db"/>
      <g id="Elipse_11688" data-name="Elipse 11688" transform="translate(633 6977)" fill="none" stroke="#4f08c2" stroke-width="1">
        <circle cx="53" cy="53" r="53" stroke="none"/>
        <circle cx="53" cy="53" r="52.5" fill="none"/>
      </g>
      <g id="Enmascarar_grupo_1098917" data-name="Enmascarar grupo 1098917" clip-path="url(#clip-path)">
        <g id="g12540" transform="translate(652 7064.168)">
          <g id="g12542">
            <g id="g12544" clip-path="url(#clip-path-2)">
              <g id="g12550" transform="translate(59.123 -35.67)">
                <path id="path12552" d="M0,0A13.774,13.774,0,0,0-.082,10.2l1.124,2.2h-48.5s-9.029-5.073,0-14.1L.622-2.692Z" fill="#f1f2f2"/>
              </g>
              <g id="g12554" transform="translate(60.164 -23.268)">
                <path id="path12556" d="M0,0H-48.5s-9.029-5.074,0-14.1l48.079-.991L-1.042-12.4a13.206,13.206,0,0,0-.685,2.188H-45.734a3.094,3.094,0,0,0-3.091,3.09,3.094,3.094,0,0,0,3.091,3.091H-1.71A11.872,11.872,0,0,0-1.124-2.2Z" fill="#dee1e1"/>
              </g>
              <g id="g12558" transform="translate(59.43 -21.209)">
                <path id="path12560" d="M0,0-44.33-.07c-5.311,0-9.872-3.388-9.872-8.7a12.1,12.1,0,0,1,.18-3.75A9.62,9.62,0,0,1-45-18.8H.479A2.169,2.169,0,0,1,2.648-16.63,2.169,2.169,0,0,1,.479-14.461H-33.94l-3.361.789-2.923-.789H-45a5.278,5.278,0,0,0-5.278,5.278A5.278,5.278,0,0,0-45-3.9H.479A2.169,2.169,0,0,1,2.648-1.736a2.186,2.186,0,0,1-.015.255C2.506-.4,1.112,0,0,0" fill="#b7e546"/>
              </g>
              <g id="g12562" transform="translate(62.062 -22.689)">
                <path id="path12564" d="M0,0A2.172,2.172,0,0,1-.619,1.278a2.166,2.166,0,0,1-1.534.636L-24.621,3.261l-23.01-1.347A9.616,9.616,0,0,1-57.248-7.7a9.57,9.57,0,0,1,.82-3.891v1.977A9.616,9.616,0,0,0-46.811,0Z" fill="#abd641"/>
              </g>
              <g id="g12566" transform="translate(25.489 -29.346)">
                <path id="path12568" d="M0,0V-6.323H-4.507l-1.6.161.1,5.889a.273.273,0,0,0,.373.255L-4.507-.3l1.265-.5a.273.273,0,0,1,.2,0L-.373.255A.273.273,0,0,0,0,0" fill="#ef5227"/>
              </g>
              <g id="g12570" transform="translate(20.982 -35.669)">
                <path id="path12572" d="M0,0V6.028l-1.4.55a.274.274,0,0,1-.373-.254V0Z" fill="#d83724"/>
              </g>
              <g id="g12574" transform="translate(52.889 -45.529)">
                <path id="path12576" d="M0,0V3.083L-.137,4.45a.957.957,0,0,1-.957.957l-36.437-.137a.956.956,0,0,1-.957-.957L-38.761,0l18.7-.894Z" fill="#fdcd08"/>
              </g>
              <g id="g12578" transform="translate(62.283 -42.956)">
                <path id="path12580" d="M0,0C-.856,2.11-1.717,4.191-2.573,6.3A1.915,1.915,0,0,0-.815,8.944l1.583.137h3.85A1.915,1.915,0,0,0,6.375,6.438L4.59,2.038,3.467,0Z" fill="#fdcd08"/>
              </g>
              <g id="g12582" transform="translate(63.661 -40.14)">
                <path id="path12584" d="M0,0A5.2,5.2,0,0,0,3.212-.778l-.96-2.4L.666-2.7h0L-1.4-2.978c-.261.644-.641,1.558-.9,2.2h0l-1.784,4.4A1.915,1.915,0,0,0-2.331,6.265H-.143A1.915,1.915,0,0,1-1.9,3.622L-.567.338A.552.552,0,0,1,0,0" fill="#faab18"/>
              </g>
              <g id="g12586" transform="translate(67.271 -45.358)">
                <path id="path12588" d="M0,0A3.185,3.185,0,0,0-2.131-3.014c-.322-.111-.789.087-1.147.087A2.685,2.685,0,0,0-6.094,0,2.781,2.781,0,0,0-3.047,2.815c.359,0,.595.31.916.2A3.185,3.185,0,0,0,0,0" fill="#fdcd08"/>
              </g>
              <g id="g12590" transform="translate(65.14 -42.344)">
                <path id="path12592" d="M0,0A3.114,3.114,0,0,1-1.025.172,3.171,3.171,0,0,1-4.181-3.015,3.171,3.171,0,0,1-1.025-6.2,3.114,3.114,0,0,1,0-6.028,3.184,3.184,0,0,0-2.13-3.015,3.185,3.185,0,0,0,0,0" fill="#faab18"/>
              </g>
              <g id="g12594" transform="translate(64.368 -55.879)">
                <path id="path12596" d="M0,0-9.018,3.122l-2.461-.252-17.5,7.164a5.738,5.738,0,0,1-3.754,0l-17.5-6.885L-52.7,3.122-61.719,0a1.147,1.147,0,0,1,0-2.169L-32.394-12.32a4.691,4.691,0,0,1,3.07,0L0-2.169A1.147,1.147,0,0,1,0,0" fill="#868491"/>
              </g>
              <g id="g12598" transform="translate(55.35 -53.682)">
                <path id="path12600" d="M0,0V.926L-19.965,7.837a5.737,5.737,0,0,1-3.754,0L-43.683.926V0a4.022,4.022,0,0,1,3.314-3.962A105.308,105.308,0,0,1-21.842-5.609,105.323,105.323,0,0,1-3.314-3.962,4.036,4.036,0,0,1-.937-2.581,4.03,4.03,0,0,1,0,0" fill="#77777f"/>
              </g>
              <g id="g12602" transform="translate(52.889 -53.682)">
                <path id="path12604" d="M0,0V8.153H-38.351L-38.488.273A1.564,1.564,0,0,1-37.2-1.266c.391-.07.508-.411.9-.476A102.564,102.564,0,0,1-19.381-3.148,102.6,102.6,0,0,1-1.288-1.539,1.561,1.561,0,0,1-.365-1,1.556,1.556,0,0,1,0,0" fill="#868491"/>
              </g>
              <g id="g12606" transform="translate(52.889 -42.446)">
                <path id="path12608" d="M0,0V1.5a.957.957,0,0,1-.957.957H-37.8a.957.957,0,0,1-.957-.957V-3.083l1.23-.894,1.23.894v2.4A.684.684,0,0,0-35.617,0Z" fill="#faab18"/>
              </g>
              <g id="g12610" transform="translate(16.589 -55.424)">
                <path id="path12612" d="M0,0V9.894H-2.461V1.742A1.564,1.564,0,0,1-1.173.2C-.782.133-.391.064,0,0" fill="#77777f"/>
              </g>
              <g id="g12614" transform="translate(62.735 -6.268)">
                <path id="path12616" d="M0,0A12.865,12.865,0,0,1,0-9.846l.416-1.848H-55.49s-6.293,6.842.409,13.544L.78,2.269Z" fill="#f1f2f2"/>
              </g>
              <g id="g12618" transform="translate(63.515 -4)">
                <path id="path12620" d="M0,0-55.861-.418c-6.7-6.7-.409-13.543-.409-13.543l56.174.1-.684,1.743A12.809,12.809,0,0,0-1.39-10.25H-52.7a3.094,3.094,0,0,0-3.091,3.09A3.094,3.094,0,0,0-52.7-4.069H-1.374a12.969,12.969,0,0,0,.595,1.8Z" fill="#dee1e1"/>
              </g>
              <g id="g12622" transform="translate(62.574 -2.022)">
                <path id="path12624" d="M0,0-50.545-.093c-5.311,0-9.983-3-9.983-8.308,0-1.685-.412-4.006.35-5.384a9.614,9.614,0,0,1,8.421-4.969H.95a2.169,2.169,0,0,1,2.169,2.169A2.169,2.169,0,0,1,.95-14.416H-12.11l-3.412.755-2.872-.755H-51.758a5.278,5.278,0,0,0-5.278,5.278A5.278,5.278,0,0,0-51.758-3.86H.95A2.169,2.169,0,0,1,3.119-1.691a2.178,2.178,0,0,1-.035.392C2.9-.288,1.064,0,0,0" fill="#ef5227"/>
              </g>
              <g id="g12626" transform="translate(65.658 -3.32)">
                <path id="path12628" d="M0,0A2.161,2.161,0,0,1-.6,1.142a2.164,2.164,0,0,1-1.534.636H-54.842A9.616,9.616,0,0,1-64.459-7.84,9.567,9.567,0,0,1-62.955-13v3.388A9.616,9.616,0,0,0-53.338,0Z" fill="#d83724"/>
              </g>
              <g id="g12630" transform="translate(50.464 -10.065)">
                <path id="path12632" d="M0,0V-6.375H-4.234l-1.878.114.1,5.987a.273.273,0,0,0,.373.255l1.4-.383.992-.388a.273.273,0,0,1,.2,0L-.373.255A.273.273,0,0,0,0,0" fill="#fdcd08"/>
              </g>
              <g id="g12634" transform="translate(46.23 -16.44)">
                <path id="path12636" d="M0,0V5.973l-1.678.656a.273.273,0,0,1-.373-.254V0Z" fill="#faab18"/>
              </g>
              <g id="g12638" transform="translate(14.257 -20.939)">
                <path id="path12640" d="M0,0A9.616,9.616,0,0,1-9.616-9.616h0A9.616,9.616,0,0,1,0-19.232H46.435" fill="none" stroke="#000" stroke-linecap="round" stroke-linejoin="round" stroke-miterlimit="10" stroke-width="2.051"/>
              </g>
              <g id="g12642" transform="translate(27.48 -25.277)">
                <path id="path12644" d="M0,0H32.254a2.169,2.169,0,0,1,0,4.338" fill="none" stroke="#000" stroke-linecap="round" stroke-linejoin="round" stroke-miterlimit="10" stroke-width="2.051"/>
              </g>
              <g id="g12646" transform="translate(59.735 -35.833)">
                <path id="path12648" d="M0,0H-45.478a5.278,5.278,0,0,0-5.278,5.278,5.278,5.278,0,0,0,5.278,5.278h8.439" fill="none" stroke="#000" stroke-linecap="round" stroke-linejoin="round" stroke-miterlimit="10" stroke-width="2.051"/>
              </g>
              <g id="g12650" transform="translate(58.867 -35.478)">
                <path id="path12652" d="M0,0A12.864,12.864,0,0,0,0,9.846" fill="none" stroke="#000" stroke-linecap="round" stroke-linejoin="round" stroke-miterlimit="10" stroke-width="2.051"/>
              </g>
              <g id="g12654" transform="translate(62.562 -16.277)">
                <path id="path12656" d="M0,0A12.865,12.865,0,0,0,0,9.846" fill="none" stroke="#000" stroke-linecap="round" stroke-linejoin="round" stroke-miterlimit="10" stroke-width="2.051"/>
              </g>
              <g id="g12658" transform="translate(19.031 -35.761)">
                <path id="path12660" d="M0,0V6.652l3.142-1.23,3.142,1.23V0" fill="none" stroke="#000" stroke-linecap="round" stroke-linejoin="round" stroke-miterlimit="10" stroke-width="2.051"/>
              </g>
              <g id="g12662" transform="translate(55.918 -6.045)">
                <path id="path12664" d="M0,0H7.432a2.169,2.169,0,1,1,0,4.338H-45.276a9.616,9.616,0,0,1-9.616-9.616h0a9.616,9.616,0,0,1,9.616-9.616H7.432A2.169,2.169,0,0,1,9.6-12.725a2.169,2.169,0,0,1-2.169,2.169H-45.276a5.278,5.278,0,0,0-5.278,5.278A5.278,5.278,0,0,0-45.276,0H-4.785" fill="none" stroke="#000" stroke-linecap="round" stroke-linejoin="round" stroke-miterlimit="10" stroke-width="2.051"/>
              </g>
              <g id="g12666" transform="translate(44.006 -16.479)">
                <path id="path12668" d="M0,0V6.652l3.142-1.23,3.142,1.23V0" fill="none" stroke="#000" stroke-linecap="round" stroke-linejoin="round" stroke-miterlimit="10" stroke-width="2.051"/>
              </g>
              <g id="g12670" transform="translate(24.586 -65.555)">
                <path id="path12672" d="M0,0,7.178-2.485a4.612,4.612,0,0,1,3.018,0l28.828,9.98a1.128,1.128,0,0,1,0,2.132l-11.238,3.89" fill="none" stroke="#000" stroke-linecap="round" stroke-linejoin="round" stroke-miterlimit="10" stroke-width="2.051"/>
              </g>
              <g id="g12674" transform="translate(14.102 -52.062)">
                <path id="path12676" d="M0,0-11.167-3.866a1.128,1.128,0,0,1,0-2.132L5.879-11.9" fill="none" stroke="#000" stroke-linecap="round" stroke-linejoin="round" stroke-miterlimit="10" stroke-width="2.051"/>
              </g>
              <g id="g12678" transform="translate(64.368 -56.805)">
                <path id="path12680" d="M0,0V8.02" fill="none" stroke="#000" stroke-linecap="round" stroke-linejoin="round" stroke-miterlimit="10" stroke-width="2.051"/>
              </g>
              <g id="g12682" transform="translate(62.427 -43.186)">
                <path id="path12684" d="M0,0-2.524,6.222A1.883,1.883,0,0,0-.8,8.821H4.679a1.883,1.883,0,0,0,1.728-2.6L3.886.008" fill="none" stroke="#000" stroke-linecap="round" stroke-linejoin="round" stroke-miterlimit="10" stroke-width="2.051"/>
              </g>
              <g id="g12686" transform="translate(67.471 -45.654)">
                <path id="path12688" d="M0,0A3.117,3.117,0,0,0-3.1-3.132,3.117,3.117,0,0,0-6.205,0,3.117,3.117,0,0,0-3.1,3.132,3.117,3.117,0,0,0,0,0Z" fill="none" stroke="#000" stroke-linecap="round" stroke-linejoin="round" stroke-miterlimit="10" stroke-width="2.051"/>
              </g>
              <g id="g12690" transform="translate(14.22 -40.304)">
                <path id="path12692" d="M0,0V-13.465a1.537,1.537,0,0,1,1.266-1.513,100.768,100.768,0,0,1,35.572,0h0A1.537,1.537,0,0,1,38.1-13.465V0" fill="none" stroke="#000" stroke-linecap="round" stroke-linejoin="round" stroke-miterlimit="10" stroke-width="2.051"/>
              </g>
              <g id="g12694" transform="translate(44.98 -45.754)">
                <path id="path12696" d="M0,0H7.344" fill="none" stroke="#000" stroke-linecap="round" stroke-linejoin="round" stroke-miterlimit="10" stroke-width="2.051"/>
              </g>
              <g id="g12698" transform="translate(14.22 -45.754)">
                <path id="path12700" d="M0,0H25.975" fill="none" stroke="#000" stroke-linecap="round" stroke-linejoin="round" stroke-miterlimit="10" stroke-width="2.051"/>
              </g>
            </g>
          </g>
        </g>
      </g>
      <g id="Trazado_879043" data-name="Trazado 879043" transform="translate(646.174 6969.821) rotate(41)" fill="none">
        <path d="M16.471,0,32.941,28.467H0L14.037,4.206Z" stroke="none"/>
        <path d="M 16.47053527832031 3.993585586547852 L 3.467817306518555 26.46679878234863 L 29.4732666015625 26.46679878234863 L 16.47053527832031 3.993585586547852 M 16.47053337097168 0 L 32.94108200073242 28.46679878234863 L 3.814697265625e-06 28.46679878234863 L 16.47053337097168 0 Z" stroke="none" fill="#2f0474"/>
      </g>
    </g>
  </g>
</svg>
