<svg xmlns="http://www.w3.org/2000/svg" xmlns:xlink="http://www.w3.org/1999/xlink" width="117.473" height="119.15" viewBox="0 0 117.473 119.15">
  <defs>
    <clipPath id="clip-path">
      <rect id="Rectángulo_404783" data-name="Rectángulo 404783" width="70" height="70" transform="translate(652 6994.168)" fill="#fff" stroke="#707070" stroke-width="1"/>
    </clipPath>
  </defs>
  <g id="Grupo_1105568" data-name="Grupo 1105568" transform="translate(-621.527 -6963.85)">
    <g id="Grupo_1103880" data-name="Grupo 1103880">
      <circle id="Elipse_11687" data-name="Elipse 11687" cx="50" cy="50" r="50" transform="translate(636 6980)" fill="#b299db"/>
      <g id="Elipse_11688" data-name="Elipse 11688" transform="translate(633 6977)" fill="none" stroke="#4f08c2" stroke-width="1">
        <circle cx="53" cy="53" r="53" stroke="none"/>
        <circle cx="53" cy="53" r="52.5" fill="none"/>
      </g>
      <g id="Enmascarar_grupo_1098918" data-name="Enmascarar grupo 1098918" clip-path="url(#clip-path)">
        <g id="factura" transform="translate(652 6994.168)">
          <g id="Grupo_1105614" data-name="Grupo 1105614">
            <path id="Trazado_881195" data-name="Trazado 881195" d="M65.762,56.847H4.238V16.737a4.1,4.1,0,0,1,4.1-4.1H61.66a4.1,4.1,0,0,1,4.1,4.1Z" fill="#bedaee"/>
            <path id="Trazado_881196" data-name="Trazado 881196" d="M8.75,52.336V18.515a1.367,1.367,0,0,1,1.367-1.367H59.883a1.367,1.367,0,0,1,1.367,1.367V52.336Z" fill="#ff91a7"/>
            <path id="Trazado_881197" data-name="Trazado 881197" d="M59.883,17.148H57.148a1.367,1.367,0,0,1,1.367,1.367V52.336H61.25V18.515A1.367,1.367,0,0,0,59.883,17.148Z" fill="#ff5477"/>
            <path id="Trazado_881198" data-name="Trazado 881198" d="M64.873,66.144H5.127a4.1,4.1,0,0,1-4.1-4.1v-5.2H68.975v5.2A4.1,4.1,0,0,1,64.873,66.144Z" fill="#fff"/>
            <path id="Trazado_881199" data-name="Trazado 881199" d="M66.24,56.847v5.2a4.1,4.1,0,0,1-4.1,4.1h2.734a4.1,4.1,0,0,0,4.1-4.1v-5.2Z" fill="#bedaee"/>
            <path id="Trazado_881200" data-name="Trazado 881200" d="M25.78,56.847H44.22v4.375H25.78Z" fill="#bedaee"/>
            <path id="Trazado_881201" data-name="Trazado 881201" d="M14.266,3.856a3.858,3.858,0,0,1,3.858,3.858V48.107h34.65V7.957a4.1,4.1,0,0,0-4.1-4.1Z" fill="#fff6bb"/>
            <path id="Trazado_881202" data-name="Trazado 881202" d="M48.672,3.856H45.938a4.1,4.1,0,0,1,4.1,4.1v40.15h2.734V7.957a4.1,4.1,0,0,0-4.1-4.1Z" fill="#ffc472"/>
            <path id="Trazado_881203" data-name="Trazado 881203" d="M18.124,12.636H10.408V7.714a3.858,3.858,0,0,1,7.716,0v4.922Z" fill="#ffc472"/>
            <path id="Trazado_881204" data-name="Trazado 881204" d="M23.4,22.832H47.988v5.2H23.4Z" fill="#7eeed4"/>
            <path id="Trazado_881205" data-name="Trazado 881205" d="M23.4,22.832H47.988V39.375H23.4Z" fill="#fff"/>
            <path id="Trazado_881206" data-name="Trazado 881206" d="M23.4,22.832H47.988v5.2H23.4Z" fill="#7eeed4"/>
            <path id="Trazado_881207" data-name="Trazado 881207" d="M38.965,22.832h9.023v5.2H38.965Z" fill="#00bfc7"/>
          </g>
          <g id="Grupo_1105615" data-name="Grupo 1105615">
            <path id="Trazado_881208" data-name="Trazado 881208" d="M66.787,55.822V16.737A5.133,5.133,0,0,0,61.66,11.61H53.8V7.957A5.133,5.133,0,0,0,48.672,2.83H26.814V4.881H48.672a3.08,3.08,0,0,1,3.076,3.076V47.082h-32.6V7.714a4.855,4.855,0,0,0-.909-2.833h6.506V2.83H14.266A4.889,4.889,0,0,0,9.382,7.714v3.9H8.34a5.133,5.133,0,0,0-5.127,5.127V55.822H0v6.221A5.133,5.133,0,0,0,5.127,67.17h14.15V65.119H5.127a3.08,3.08,0,0,1-3.076-3.076v-4.17h22.7v4.375H45.245V57.873h22.7v4.17a3.08,3.08,0,0,1-3.076,3.076H21.345V67.17H64.873A5.133,5.133,0,0,0,70,62.043V55.822ZM11.433,7.714a2.833,2.833,0,1,1,5.665,0v3.9H11.433ZM43.195,60.2H26.805V57.873H43.195V60.2ZM5.264,55.822V16.737A3.08,3.08,0,0,1,8.34,13.661H17.1v2.461H10.117a2.4,2.4,0,0,0-2.393,2.393V53.361H49.355V51.31H9.775v-32.8a.342.342,0,0,1,.342-.342H17.1v30.96H53.8V18.173h6.084a.342.342,0,0,1,.342.342v32.8H51.406v2.051H62.275V18.515a2.4,2.4,0,0,0-2.393-2.393H53.8V13.661H61.66a3.08,3.08,0,0,1,3.076,3.076V55.822Z"/>
            <path id="Trazado_881209" data-name="Trazado 881209" d="M32.949,15.964H47.988v2.051H32.949Z"/>
            <path id="Trazado_881210" data-name="Trazado 881210" d="M32.949,11.524H47.988v2.051H32.949Z"/>
            <path id="Trazado_881211" data-name="Trazado 881211" d="M32.949,7.44h6.7V9.491h-6.7Z"/>
            <path id="Trazado_881212" data-name="Trazado 881212" d="M22.371,40.4H49.014V21.807H22.371Zm2.051-11.348H37.939v9.3H24.421Zm22.542,9.3H39.99v-9.3h6.973Zm0-11.348H39.99V23.857h6.973ZM24.421,23.857H37.939V27H24.421Z"/>
            <path id="Trazado_881213" data-name="Trazado 881213" d="M24.35,7.166v1.1a2.893,2.893,0,0,0-1.965,2.258,2.6,2.6,0,0,0,.866,2.555,9.914,9.914,0,0,0,2.725,1.312,1,1,0,0,1,.734,1.182,1.353,1.353,0,0,1-1.342,1.141,2.347,2.347,0,0,1-1.7-.444l-1.123,1.716a4.106,4.106,0,0,0,1.806.729v1.209H26.4V18.606a3.455,3.455,0,0,0,2.333-2.7,3.053,3.053,0,0,0-2.073-3.456,8.489,8.489,0,0,1-2.143-.992A.608.608,0,0,1,24.4,10.9a.863.863,0,0,1,.563-.682,1.608,1.608,0,0,1,1.5.231l-.015-.013,1.39-1.507A3.394,3.394,0,0,0,26.4,8.2V7.166H24.35Z"/>
            <path id="Trazado_881214" data-name="Trazado 881214" d="M39.056,42.36h8.932v2.051H39.056Z"/>
          </g>
        </g>
      </g>
      <g id="Trazado_879043" data-name="Trazado 879043" transform="translate(646.174 6969.821) rotate(41)" fill="none">
        <path d="M16.471,0,32.941,28.467H0L14.037,4.206Z" stroke="none"/>
        <path d="M 16.47053527832031 3.993585586547852 L 3.467817306518555 26.46679878234863 L 29.4732666015625 26.46679878234863 L 16.47053527832031 3.993585586547852 M 16.47053337097168 0 L 32.94108200073242 28.46679878234863 L 3.814697265625e-06 28.46679878234863 L 16.47053337097168 0 Z" stroke="none" fill="#2f0474"/>
      </g>
    </g>
  </g>
</svg>
