<svg xmlns="http://www.w3.org/2000/svg" xmlns:xlink="http://www.w3.org/1999/xlink" width="117.473" height="119.15" viewBox="0 0 117.473 119.15">
  <defs>
    <clipPath id="clip-path">
      <rect id="Rect치ngulo_404783" data-name="Rect치ngulo 404783" width="70" height="70" transform="translate(652 6994.167)" fill="#fff" stroke="#707070" stroke-width="1"/>
    </clipPath>
  </defs>
  <g id="Grupo_1105570" data-name="Grupo 1105570" transform="translate(-621.527 -6963.85)">
    <g id="Grupo_1103880" data-name="Grupo 1103880">
      <circle id="Elipse_11687" data-name="Elipse 11687" cx="50" cy="50" r="50" transform="translate(636 6980)" fill="#b299db"/>
      <g id="Elipse_11688" data-name="Elipse 11688" transform="translate(633 6977)" fill="none" stroke="#4f08c2" stroke-width="1">
        <circle cx="53" cy="53" r="53" stroke="none"/>
        <circle cx="53" cy="53" r="52.5" fill="none"/>
      </g>
      <g id="Enmascarar_grupo_1098920" data-name="Enmascarar grupo 1098920" clip-path="url(#clip-path)">
        <g id="entretenimiento" transform="translate(651.724 6993.892)">
          <path id="Trazado_881236" data-name="Trazado 881236" d="M7.717,58.425H62.835v6.614a4.409,4.409,0,0,1-4.409,4.409h-46.3a4.409,4.409,0,0,1-4.409-4.409Z" fill="#1ee0d7"/>
          <path id="Trazado_881237" data-name="Trazado 881237" d="M58.425,1.1h-46.3A4.409,4.409,0,0,0,7.717,5.512V58.425H62.835V5.512A4.409,4.409,0,0,0,58.425,1.1Z" fill="#ef3678"/>
          <rect id="Rect치ngulo_405054" data-name="Rect치ngulo 405054" width="8.819" height="4.409" rx="2.205" transform="translate(30.866 61.732)" fill="#00cabd"/>
          <path id="Trazado_881238" data-name="Trazado 881238" d="M28.661,12.126l-11.024,2.2V18.74l11.024-2.2Z" fill="#50faf0"/>
          <path id="Trazado_881239" data-name="Trazado 881239" d="M13.228,46.3H28.661v5.512H13.228Z" fill="#465064"/>
          <path id="Trazado_881240" data-name="Trazado 881240" d="M37.48,13.6V26.457a9.106,9.106,0,0,1,9.921,0V13.6a9.109,9.109,0,0,0-9.921,0Z" fill="#fff"/>
          <path id="Trazado_881241" data-name="Trazado 881241" d="M47.4,13.6V26.457a9.106,9.106,0,0,1,9.921,0V13.6A9.109,9.109,0,0,0,47.4,13.6Z" fill="#f0f0f0"/>
          <path id="Trazado_881242" data-name="Trazado 881242" d="M37.025,44.7l-.177,1.951A4.732,4.732,0,0,0,45.5,49.7l.8-1.2h2.2l.8,1.2a4.735,4.735,0,0,0,8.655-3.055L57.78,44.7a5.512,5.512,0,0,0-5.491-5.012H42.514A5.512,5.512,0,0,0,37.025,44.7Z" fill="#fff56e"/>
          <path id="Trazado_881243" data-name="Trazado 881243" d="M39.211,44.9l-.358,3.945a2.722,2.722,0,0,0,2.706,2.969,4.732,4.732,0,0,0,3.935-2.1l.805-1.2h2.2l.8,1.2a4.735,4.735,0,0,0,8.654-3.057L57.8,44.9a3.307,3.307,0,0,0-3.3-3.007h-12A3.307,3.307,0,0,0,39.211,44.9Z" fill="#ffdc28"/>
          <path id="Trazado_881244" data-name="Trazado 881244" d="M19.843,41.89,16.535,46.3h5.512l3.307-4.409Z" fill="#555f73"/>
          <g id="Grupo_1105616" data-name="Grupo 1105616">
            <path id="Trazado_881245" data-name="Trazado 881245" d="M13.228,41.89V46.3h3.307l3.307-4.409Z" fill="#fff"/>
            <path id="Trazado_881246" data-name="Trazado 881246" d="M25.354,41.89,22.047,46.3h6.614V41.89Z" fill="#fff"/>
            <path id="Trazado_881247" data-name="Trazado 881247" d="M13.228,37.48V41.89l5.145-1.1V36.378Z" fill="#fff"/>
          </g>
          <path id="Trazado_881248" data-name="Trazado 881248" d="M18.373,36.378v4.409l5.144-1.1V35.276Z" fill="#555f73"/>
          <path id="Trazado_881249" data-name="Trazado 881249" d="M28.661,34.173l-5.145,1.1v4.409l5.145-1.1Z" fill="#fff"/>
          <circle id="Elipse_11878" data-name="Elipse 11878" cx="2.205" cy="2.205" r="2.205" transform="translate(13.228 23.15)" fill="#50faf0"/>
          <circle id="Elipse_11879" data-name="Elipse 11879" cx="2.205" cy="2.205" r="2.205" transform="translate(24.252 23.15)" fill="#50faf0"/>
          <path id="Trazado_881250" data-name="Trazado 881250" d="M28.5,11.315l-11.024,2.2a.827.827,0,0,0-.661.81v8.339a2.986,2.986,0,0,0-1.381-.346,3.031,3.031,0,1,0,3.031,3.031V19.418l9.37-1.874V22.67a2.986,2.986,0,0,0-1.378-.347,3.031,3.031,0,1,0,3.031,3.031V12.126a.828.828,0,0,0-.989-.811ZM15.433,26.732a1.378,1.378,0,1,1,1.378-1.378A1.378,1.378,0,0,1,15.433,26.732Zm11.024,0a1.378,1.378,0,1,1,1.378-1.378,1.378,1.378,0,0,1-1.378,1.378Zm1.378-10.875-9.37,1.874V15.009l9.37-1.874Z"/>
          <path id="Trazado_881251" data-name="Trazado 881251" d="M28.488,33.365,13.055,36.672a.826.826,0,0,0-.654.808V51.811a.827.827,0,0,0,.827.827H28.661a.827.827,0,0,0,.827-.827V41.89a.827.827,0,0,0-.827-.827H21.033l7.8-1.672a.826.826,0,0,0,.654-.808V34.173a.826.826,0,0,0-1-.808ZM14.055,38.148l3.491-.747v2.718l-3.491.747Zm0,4.568h4.134l-2.067,2.756H14.055Zm13.78,8.268H14.055V47.126h13.78Zm0-8.268v2.756H23.7l2.067-2.756Zm-4.134,0-2.067,2.756H18.189l2.067-2.756Zm-1.011-3.7-3.49.747V37.046l3.49-.747Zm5.145-1.1-3.491.747V35.944l3.491-.747Z"/>
          <path id="Trazado_881252" data-name="Trazado 881252" d="M52.289,38.858H48.228V35.276a.827.827,0,1,0-1.654,0v3.583H42.514A6.307,6.307,0,0,0,36.2,44.623l-.177,1.952a5.559,5.559,0,0,0,10.165,3.583l.551-.831h1.323l.551.831A5.56,5.56,0,0,0,58.777,46.57L58.6,44.618a6.307,6.307,0,0,0-6.31-5.76Zm3.837,10.858a3.906,3.906,0,0,1-6.135-.467l-.8-1.2a.827.827,0,0,0-.688-.373H46.3a.827.827,0,0,0-.688.368l-.8,1.2a3.906,3.906,0,0,1-7.14-2.521l.177-1.951a4.662,4.662,0,0,1,4.665-4.261h9.776a4.662,4.662,0,0,1,4.665,4.261l.177,1.951a3.858,3.858,0,0,1-1.005,2.993Z"/>
          <circle id="Elipse_11880" data-name="Elipse 11880" cx="1.102" cy="1.102" r="1.102" transform="translate(52.913 44.094)"/>
          <circle id="Elipse_11881" data-name="Elipse 11881" cx="1.102" cy="1.102" r="1.102" transform="translate(49.606 44.094)"/>
          <path id="Trazado_881253" data-name="Trazado 881253" d="M44.094,44.37h-.827v-.827a.827.827,0,0,0-1.654,0v.827h-.827a.827.827,0,0,0,0,1.654h.827v.827a.827.827,0,0,0,1.654,0v-.827h.827a.827.827,0,0,0,0-1.654Z"/>
          <path id="Trazado_881254" data-name="Trazado 881254" d="M40.512,5.512a.827.827,0,0,0-.827-.827H30.866a.827.827,0,0,0,0,1.654h8.819A.827.827,0,0,0,40.512,5.512Z"/>
          <circle id="Elipse_11882" data-name="Elipse 11882" cx="1.102" cy="1.102" r="1.102" transform="translate(42.992 4.409)"/>
          <path id="Trazado_881255" data-name="Trazado 881255" d="M58.425.276h-46.3A5.243,5.243,0,0,0,6.89,5.512V65.039a5.243,5.243,0,0,0,5.236,5.236h46.3a5.243,5.243,0,0,0,5.236-5.236V5.512A5.243,5.243,0,0,0,58.425.276Zm3.583,64.764a3.587,3.587,0,0,1-3.583,3.583h-46.3a3.587,3.587,0,0,1-3.583-3.583V59.252H62.008Zm0-7.441H8.543V5.512a3.587,3.587,0,0,1,3.583-3.583h46.3a3.587,3.587,0,0,1,3.583,3.583Z"/>
          <path id="Trazado_881256" data-name="Trazado 881256" d="M44.094,64.764H48.5a.827.827,0,0,0,0-1.654H44.094a.827.827,0,0,0,0,1.654Z"/>
          <path id="Trazado_881257" data-name="Trazado 881257" d="M22.047,64.764h4.409a.827.827,0,0,0,0-1.654H22.047a.827.827,0,0,0,0,1.654Z"/>
          <path id="Trazado_881258" data-name="Trazado 881258" d="M33.071,66.968H37.48a3.031,3.031,0,1,0,0-6.063H33.071a3.031,3.031,0,0,0,0,6.063Zm0-4.409H37.48a1.378,1.378,0,1,1,0,2.756H33.071a1.378,1.378,0,1,1,0-2.756Z"/>
          <path id="Trazado_881259" data-name="Trazado 881259" d="M36.654,13.6V26.457a.827.827,0,0,0,1.285.688,8.114,8.114,0,0,1,9,0,.827.827,0,0,0,.917,0,8.114,8.114,0,0,1,9,0,.827.827,0,0,0,1.285-.688V13.6a.828.828,0,0,0-.368-.688,9.88,9.88,0,0,0-10.38-.287,9.88,9.88,0,0,0-10.38.287.828.828,0,0,0-.368.688Zm11.575.482a8.332,8.332,0,0,1,8.268-.023v11a9.911,9.911,0,0,0-8.268.014Zm-9.921-.023a8.328,8.328,0,0,1,8.268.023V25.07a9.829,9.829,0,0,0-8.268-.02Z"/>
        </g>
      </g>
      <g id="Trazado_879043" data-name="Trazado 879043" transform="translate(646.174 6969.821) rotate(41)" fill="none">
        <path d="M16.471,0,32.941,28.467H0L14.037,4.206Z" stroke="none"/>
        <path d="M 16.47053527832031 3.993585586547852 L 3.467817306518555 26.46679878234863 L 29.4732666015625 26.46679878234863 L 16.47053527832031 3.993585586547852 M 16.47053337097168 0 L 32.94108200073242 28.46679878234863 L 3.814697265625e-06 28.46679878234863 L 16.47053337097168 0 Z" stroke="none" fill="#2f0474"/>
      </g>
    </g>
  </g>
</svg>
