<svg xmlns="http://www.w3.org/2000/svg" xmlns:xlink="http://www.w3.org/1999/xlink" width="117.473" height="119.15" viewBox="0 0 117.473 119.15">
  <defs>
    <clipPath id="clip-path">
      <rect id="Rectángulo_404783" data-name="Rectángulo 404783" width="70" height="70" transform="translate(652 6994.167)" fill="#fff" stroke="#707070" stroke-width="1"/>
    </clipPath>
  </defs>
  <g id="Grupo_1105569" data-name="Grupo 1105569" transform="translate(-621.527 -6963.85)">
    <g id="Grupo_1103880" data-name="Grupo 1103880">
      <circle id="Elipse_11687" data-name="Elipse 11687" cx="50" cy="50" r="50" transform="translate(636 6980)" fill="#b299db"/>
      <g id="Elipse_11688" data-name="Elipse 11688" transform="translate(633 6977)" fill="none" stroke="#4f08c2" stroke-width="1">
        <circle cx="53" cy="53" r="53" stroke="none"/>
        <circle cx="53" cy="53" r="52.5" fill="none"/>
      </g>
      <g id="Enmascarar_grupo_1098921" data-name="Enmascarar grupo 1098921" clip-path="url(#clip-path)">
        <g id="cono-de-trafico" transform="translate(652 6994.167)">
          <path id="Trazado_881260" data-name="Trazado 881260" d="M13.7,63.814l16.043-61.7a1.253,1.253,0,0,1,1.213-.938h8.085a1.253,1.253,0,0,1,1.213.938L56.3,63.814" fill="#ff9b46"/>
          <g id="Grupo_1105617" data-name="Grupo 1105617">
            <path id="Trazado_881261" data-name="Trazado 881261" d="M34.049,1.175H30.958a1.253,1.253,0,0,0-1.213.938L13.7,63.814H29.989l3.775-61.7C33.8,1.56,33.915,1.175,34.049,1.175Z" fill="#ff823c"/>
            <path id="Trazado_881262" data-name="Trazado 881262" d="M62.561,63.814H7.438a1.253,1.253,0,0,0-1.253,1.253v2.506a1.253,1.253,0,0,0,1.253,1.253H62.561a1.253,1.253,0,0,0,1.253-1.253V65.067A1.253,1.253,0,0,0,62.561,63.814Z" fill="#ff823c"/>
          </g>
          <path id="Trazado_881263" data-name="Trazado 881263" d="M27.483,67.573V65.067a1.253,1.253,0,0,1,1.253-1.253H7.438a1.253,1.253,0,0,0-1.253,1.253v2.506a1.253,1.253,0,0,0,1.253,1.253h21.3A1.253,1.253,0,0,1,27.483,67.573Z" fill="#f56e2d"/>
          <g id="Grupo_1105618" data-name="Grupo 1105618">
            <path id="Trazado_881264" data-name="Trazado 881264" d="M16.96,51.286H53.04l-1.954-7.517H18.914Z" fill="#e4eaf8"/>
            <path id="Trazado_881265" data-name="Trazado 881265" d="M23.474,26.23H46.526l-1.954-7.517H25.429Z" fill="#e4eaf8"/>
          </g>
          <g id="Grupo_1105619" data-name="Grupo 1105619">
            <path id="Trazado_881266" data-name="Trazado 881266" d="M23.474,26.23h8.814l.46-7.517H25.429Z" fill="#c7cfe2"/>
            <path id="Trazado_881267" data-name="Trazado 881267" d="M16.96,51.286h13.8l.46-7.517h-12.3Z" fill="#c7cfe2"/>
          </g>
          <path id="Trazado_881268" data-name="Trazado 881268" d="M46.275,62.64H43.769a1.175,1.175,0,0,0,0,2.349h2.505a1.175,1.175,0,0,0,0-2.349Z"/>
          <path id="Trazado_881269" data-name="Trazado 881269" d="M62.561,62.64H57.206L41.392,1.817A2.428,2.428,0,0,0,39.042,0H30.958a2.428,2.428,0,0,0-2.349,1.817L12.794,62.64H7.438a2.43,2.43,0,0,0-2.427,2.427v2.506A2.43,2.43,0,0,0,7.438,70H62.561a2.43,2.43,0,0,0,2.427-2.427V65.067A2.43,2.43,0,0,0,62.561,62.64Zm-42.739-17.7H38.758a1.175,1.175,0,0,0,0-2.349H20.433L24.382,27.4H45.617l3.949,15.19h-5.8a1.175,1.175,0,0,0,0,2.349h6.409l1.344,5.168H18.479ZM30.882,2.408a.078.078,0,0,1,.076-.059h8.085a.078.078,0,0,1,.076.059l3.934,15.132H41.263a1.175,1.175,0,0,0,0,2.349h2.4l1.344,5.168H24.993l1.344-5.168h9.916a1.175,1.175,0,1,0,0-2.349H26.947ZM62.64,67.573a.078.078,0,0,1-.078.078H7.438a.078.078,0,0,1-.078-.078V65.067a.078.078,0,0,1,.078-.078h31.32a1.175,1.175,0,0,0,0-2.349H15.221l2.646-10.179H52.132l2.647,10.179H51.286a1.175,1.175,0,0,0,0,2.349H62.561a.078.078,0,0,1,.078.078v2.506Z"/>
        </g>
      </g>
      <g id="Trazado_879043" data-name="Trazado 879043" transform="translate(646.174 6969.821) rotate(41)" fill="none">
        <path d="M16.471,0,32.941,28.467H0L14.037,4.206Z" stroke="none"/>
        <path d="M 16.47053527832031 3.993585586547852 L 3.467817306518555 26.46679878234863 L 29.4732666015625 26.46679878234863 L 16.47053527832031 3.993585586547852 M 16.47053337097168 0 L 32.94108200073242 28.46679878234863 L 3.814697265625e-06 28.46679878234863 L 16.47053337097168 0 Z" stroke="none" fill="#2f0474"/>
      </g>
    </g>
  </g>
</svg>
