<svg id="inteligencia-artificial_5_" data-name="inteligencia-artificial (5)" xmlns="http://www.w3.org/2000/svg" width="81.974" height="85.654" viewBox="0 0 81.974 85.654">
  <path id="Trazado_878132" data-name="Trazado 878132" d="M51.984,22a40.91,40.91,0,0,0-32.06,15.452l.446,1.938-2.812,1.347a40.887,40.887,0,0,0-3.02,5.563l.645,2L13.24,49.582A40.923,40.923,0,0,0,11,62.983a41.47,41.47,0,0,0,.211,4.177l1.578,1.359-1.111,1.926a40.717,40.717,0,0,0,4.742,12.92L28.17,96.345a40.772,40.772,0,0,0,21.675,7.569l1.643-1.067,1.643,1.107a41.157,41.157,0,0,0,5.563-.533l1.3-1.494,1.989.814a40.667,40.667,0,0,0,5.563-1.829l1.643-1.918,1.643.4A40.991,40.991,0,0,0,51.984,22Z" transform="translate(-10.997 -18.316)" fill="#4f08c2"/>
  <path id="Trazado_878133" data-name="Trazado 878133" d="M57.386,113.862H52.377a41.1,41.1,0,0,0-2.489,3.453h7.5a1.726,1.726,0,1,0,0-3.453Z" transform="translate(-43.382 -94.814)" fill="#5071b7"/>
  <path id="Trazado_878134" data-name="Trazado 878134" d="M36.022,166.753H25.6q-.758,1.687-1.364,3.453h11.79a1.726,1.726,0,0,0,0-3.453Z" transform="translate(-22.018 -138.856)" fill="#5071b7"/>
  <path id="Trazado_878135" data-name="Trazado 878135" d="M12.7,294.92h7.7a1.726,1.726,0,0,0,0-3.453h-8.19q.173,1.749.492,3.453Z" transform="translate(-12.004 -242.707)" fill="#3f57a0"/>
  <path id="Trazado_878136" data-name="Trazado 878136" d="M58.18,219.644H52.568a1.726,1.726,0,0,0-1.726,1.726v12.015a1.726,1.726,0,1,0,3.453,0V223.1H58.18a1.726,1.726,0,1,0,0-3.453Z" transform="translate(-44.176 -182.899)" fill="#5071b7"/>
  <path id="Trazado_878137" data-name="Trazado 878137" d="M0,0H14.592V3.453H0Z" transform="translate(42.218 44.872) rotate(90)" fill="#fd8d3e"/>
  <path id="Trazado_878138" data-name="Trazado 878138" d="M0,0H14.592V3.453H0Z" transform="translate(51.066 44.872) rotate(90)" fill="#ffc242"/>
  <path id="Trazado_878139" data-name="Trazado 878139" d="M0,0H14.592V3.453H0Z" transform="translate(59.914 44.872) rotate(90)" fill="#ffc242"/>
  <g id="Grupo_1103024" data-name="Grupo 1103024" transform="translate(38.765 75.7)">
    <path id="Trazado_878140" data-name="Trazado 878140" d="M244.442,452.5a1.726,1.726,0,0,0-1.726,1.726v8.167q1.1.059,2.222.061c.412,0,.822-.008,1.23-.02v-8.208A1.726,1.726,0,0,0,244.442,452.5Z" transform="translate(-242.716 -452.498)" fill="#3f57a0"/>
    <path id="Trazado_878141" data-name="Trazado 878141" d="M297.333,452.5a1.726,1.726,0,0,0-1.726,1.726v7.692q1.752-.285,3.453-.714v-6.977A1.727,1.727,0,0,0,297.333,452.5Z" transform="translate(-286.759 -452.498)" fill="#3f57a0"/>
    <path id="Trazado_878142" data-name="Trazado 878142" d="M350.224,452.5a1.727,1.727,0,0,0-1.726,1.726v5.2q1.769-.722,3.453-1.6v-3.6A1.727,1.727,0,0,0,350.224,452.5Z" transform="translate(-330.801 -452.498)" fill="#3f57a0"/>
  </g>
  <path id="Trazado_878143" data-name="Trazado 878143" d="M61.932,311.22l-.516-11.129A17.468,17.468,0,0,0,55.75,305l-.027.038a25.677,25.677,0,0,1-10.617,9.144l-1.709.753A41.193,41.193,0,0,0,55.15,327.917l12-7.106s1.018-.576,1.571-.383Z" transform="translate(-37.977 -249.888)" fill="#ffaa7b"/>
  <path id="Trazado_878144" data-name="Trazado 878144" d="M397.076,113.863h9.383v3.453h-9.383Z" transform="translate(-332.488 -94.815)" fill="#fef156"/>
  <g id="Grupo_1103025" data-name="Grupo 1103025" transform="translate(72.883 17.735)">
    <ellipse id="Elipse_11648" data-name="Elipse 11648" cx="3.04" cy="3.04" rx="3.04" ry="3.04" fill="#fffbb3"/>
  </g>
  <path id="Trazado_878145" data-name="Trazado 878145" d="M397.076,166.754h9.383v3.453h-9.383Z" transform="translate(-332.488 -138.857)" fill="#ffc242"/>
  <g id="Grupo_1103026" data-name="Grupo 1103026" transform="translate(72.883 26.583)">
    <ellipse id="Elipse_11649" data-name="Elipse 11649" cx="3.04" cy="3.04" rx="3.04" ry="3.04" fill="#fef156"/>
  </g>
  <path id="Trazado_878146" data-name="Trazado 878146" d="M397.076,219.645h9.383V223.1h-9.383Z" transform="translate(-332.488 -182.9)" fill="#ffc242"/>
  <g id="Grupo_1103027" data-name="Grupo 1103027" transform="translate(72.883 35.431)">
    <ellipse id="Elipse_11650" data-name="Elipse 11650" cx="3.04" cy="3.04" rx="3.04" ry="3.04" fill="#fef156"/>
  </g>
  <path id="Trazado_878147" data-name="Trazado 878147" d="M0,0H9.383V3.453H0Z" transform="translate(34.091 22.501) rotate(180)" fill="#fd8d3e"/>
  <g id="Grupo_1103028" data-name="Grupo 1103028" transform="translate(19.716 17.735)">
    <ellipse id="Elipse_11651" data-name="Elipse 11651" cx="3.04" cy="3.04" rx="3.04" ry="3.04" fill="#ffc242"/>
  </g>
  <path id="Trazado_878148" data-name="Trazado 878148" d="M0,0H9.383V3.453H0Z" transform="translate(34.091 31.35) rotate(180)" fill="#fd8d3e"/>
  <g id="Grupo_1103029" data-name="Grupo 1103029" transform="translate(19.716 26.583)">
    <ellipse id="Elipse_11652" data-name="Elipse 11652" cx="3.04" cy="3.04" rx="3.04" ry="3.04" fill="#ffc242"/>
  </g>
  <path id="Trazado_878149" data-name="Trazado 878149" d="M0,0H9.383V3.453H0Z" transform="translate(34.091 40.198) rotate(180)" fill="#fd8d3e"/>
  <g id="Grupo_1103030" data-name="Grupo 1103030" transform="translate(19.716 35.431)">
    <ellipse id="Elipse_11653" data-name="Elipse 11653" cx="3.04" cy="3.04" rx="3.04" ry="3.04" fill="#ffc242"/>
  </g>
  <path id="Trazado_878150" data-name="Trazado 878150" d="M0,0H9.383V3.453H0Z" transform="translate(38.765 14.374) rotate(-90)" fill="#fd8d3e"/>
  <g id="Grupo_1103031" data-name="Grupo 1103031" transform="translate(37.451 0)">
    <ellipse id="Elipse_11654" data-name="Elipse 11654" cx="3.04" cy="3.04" rx="3.04" ry="3.04" fill="#ffc242"/>
  </g>
  <path id="Trazado_878151" data-name="Trazado 878151" d="M0,0H9.383V3.453H0Z" transform="translate(47.613 14.374) rotate(-90)" fill="#ffc242"/>
  <g id="Grupo_1103032" data-name="Grupo 1103032" transform="translate(46.3 0)">
    <ellipse id="Elipse_11655" data-name="Elipse 11655" cx="3.04" cy="3.04" rx="3.04" ry="3.04" fill="#fef156"/>
  </g>
  <path id="Trazado_878152" data-name="Trazado 878152" d="M0,0H9.383V3.453H0Z" transform="translate(56.462 14.374) rotate(-90)" fill="#ffc242"/>
  <g id="Grupo_1103033" data-name="Grupo 1103033" transform="translate(55.148 0)">
    <ellipse id="Elipse_11656" data-name="Elipse 11656" cx="3.04" cy="3.04" rx="3.04" ry="3.04" fill="#fef156"/>
  </g>
  <path id="Trazado_878153" data-name="Trazado 878153" d="M224.907,110.765h-9.353a7.339,7.339,0,0,1-7.318-7.318V84.741a7.339,7.339,0,0,1,7.318-7.318h9.353l3.281,15.813Z" transform="translate(-175.239 -64.471)" fill="#ffc242"/>
  <g id="Grupo_1103034" data-name="Grupo 1103034" transform="translate(21.505 48.129)">
    <path id="Trazado_878154" data-name="Trazado 878154" d="M189.763,290.466a3.483,3.483,0,0,0-4.692-.16c-3.646,2.7-10.49,7.409-10.49,7.409h0c.242-.445-1.85-1.718-1.85-1.718s1.818-1.1,1.281-1.543c-1.13-.939-3.2-1.478-5.5-1.777-5.68-1.039-7.654-.813-10.3-2.328a22.171,22.171,0,0,0-7.342-2.5,14.856,14.856,0,0,0-9.72,2.1c-1.019,1.791-5.536,11.278,7.228,20.07a1.479,1.479,0,0,1,.408.079c3.147,1.1,10.158,1.439,17.2,1.035,5.589-.321,17.464-9.841,23.386-15.627a3.518,3.518,0,0,0,.394-5.044Z" transform="translate(-139.542 -287.693)" fill="#ffc7ab"/>
  </g>
  <path id="Trazado_878155" data-name="Trazado 878155" d="M321.664,331.1l-.072-1.585h0a2.989,2.989,0,0,0,.33-1.636,2.4,2.4,0,0,0-1.161-1.824s-4.607-1.166-4.672,2.54c-.037,2.135,2.036,2.494,3.8,2.415a1.8,1.8,0,0,1,1.776.09Z" transform="translate(-265.048 -271.362)" fill="#fce0d4"/>
  <path id="Trazado_878156" data-name="Trazado 878156" d="M246.423,335.01a9.507,9.507,0,0,0,1.143-3.882c-2.209,1.545-3.967,2.756-3.967,2.756h0c-.773.906-3.713,3.366-11.2,1.9-8.6-1.688-8.679-1.633-9.3-1.21a1.517,1.517,0,0,0,.9,2.767c.274.027,1.674.207,7.819,1.414C242.83,340.914,246.1,335.6,246.423,335.01Z" transform="translate(-187.055 -275.733)" fill="#ffaa7b"/>
  <path id="Trazado_878157" data-name="Trazado 878157" d="M310.314,84.662l-4.293-7.206c-.224-.021-.451-.033-.681-.033h-9.653s-2.927,2.61,0,4.782a4.284,4.284,0,0,0-1.764,5.232c1.314,3.415,2.627,13.211,2.627,13.211s-3.275,2.3-.693,5.334c0,0-3.117,2.458-.17,4.782h9.653a7.339,7.339,0,0,0,7.318-7.318V94.089Z" transform="translate(-246.32 -64.471)" fill="#fef156"/>
  <path id="Trazado_878158" data-name="Trazado 878158" d="M360.221,77.542c-.247.238-2.786,2.794-.123,4.762l2.149,12.116s2.537,3.169,4.782,0V84.84a7.341,7.341,0,0,0-6.809-7.3Z" transform="translate(-300.691 -64.57)" fill="#fffbb3"/>
  <path id="Trazado_878159" data-name="Trazado 878159" d="M248.711,106.01h-9.74a2.177,2.177,0,0,0-2.149,2.149v19.479a2.177,2.177,0,0,0,2.149,2.149h9.91l3.7-10.252Z" transform="translate(-199.044 -88.275)" fill="#fd8d3e"/>
  <path id="Trazado_878160" data-name="Trazado 878160" d="M305.727,106.01h-10.04a4.284,4.284,0,0,0-1.764,5.232c1.314,3.415,2.627,13.211,2.627,13.211s-3.275,2.3-.693,5.334h9.869a2.178,2.178,0,0,0,2.149-2.149V108.159A2.178,2.178,0,0,0,305.727,106.01Z" transform="translate(-246.32 -88.275)" fill="#ffc242"/>
  <g id="Grupo_1103035" data-name="Grupo 1103035" transform="translate(42.037 31.548)">
    <path id="Trazado_878161" data-name="Trazado 878161" d="M270.3,191.677H263.82a1.548,1.548,0,0,1,0-3.1H270.3a1.548,1.548,0,0,1,0,3.1Z" transform="translate(-262.272 -188.581)" fill="#ade9f7"/>
  </g>
  <g id="Grupo_1103036" data-name="Grupo 1103036" transform="translate(40.675 22.178)">
    <path id="Trazado_878162" data-name="Trazado 878162" d="M264.859,147.288a1.548,1.548,0,0,1-1.448-1L260.284,138l-3.156,8.288a1.548,1.548,0,0,1-2.893-1.1l4.365-11.46.014-.035a1.8,1.8,0,0,1,1.675-1.126h0a1.805,1.805,0,0,1,1.675,1.122l.017.042,4.325,11.461a1.549,1.549,0,0,1-1.448,2.1Z" transform="translate(-254.133 -132.568)" fill="#e8f8fc"/>
  </g>
  <g id="Grupo_1103037" data-name="Grupo 1103037" transform="translate(54.603 22.178)">
    <path id="Trazado_878163" data-name="Trazado 878163" d="M338.939,147.289a1.548,1.548,0,0,1-1.548-1.548V134.117a1.548,1.548,0,1,1,3.1,0v11.624A1.548,1.548,0,0,1,338.939,147.289Z" transform="translate(-337.391 -132.569)" fill="#e8f8fc"/>
  </g>
</svg>
