<svg xmlns="http://www.w3.org/2000/svg" width="83.433" height="87.178" viewBox="0 0 83.433 87.178">
  <g id="video-transmitido-en-vivo" transform="translate(-10.998)">
    <path id="Trazado_879381" data-name="Trazado 879381" d="M79.1,77.23H26.329a41.722,41.722,0,0,0-8.627,55L52.435,140.4l35.291-8.169a41.722,41.722,0,0,0-8.627-55Z" transform="translate(0 -64.08)" fill="#ffd504"/>
    <path id="Trazado_879382" data-name="Trazado 879382" d="M220.241,301.23l-3.074,3.632v6.13a2.436,2.436,0,0,1-4.872,0v-6.13l-2.837-3.632-3.2,3.632v13.224l8.469,2.436,8.469-2.436V304.862Z" transform="translate(-162.016 -249.94)" fill="#391a6f"/>
    <path id="Trazado_879383" data-name="Trazado 879383" d="M73.347,400.23H50.372a41.951,41.951,0,0,0,7.834,8.96L81.7,415.895l8.419.307,5.316-11.1Z" transform="translate(-32.67 -332.083)" fill="#005dff"/>
    <path id="Trazado_879384" data-name="Trazado 879384" d="M286.281,400.23l-5.666,1.5-1.637,3.376a2.635,2.635,0,0,0,0,4.088V416.2l10.037.366a41.5,41.5,0,0,0,4.526-2.032l4.715-6.928,6.508-1.63a41.894,41.894,0,0,0,4.491-5.748Z" transform="translate(-221.53 -332.083)" fill="#99beff"/>
    <path id="Trazado_879385" data-name="Trazado 879385" d="M82.3,22H63.658a4.363,4.363,0,0,0-4.35,4.35V68.823a4.363,4.363,0,0,0,4.35,4.35H84.33L96.493,49.826Z" transform="translate(-40.084 -18.251)" fill="#5c206a"/>
    <path id="Trazado_879386" data-name="Trazado 879386" d="M380.3,423.585a6.471,6.471,0,0,0-11.275,4.344v3.407a6.433,6.433,0,0,0,.052.807A41.865,41.865,0,0,0,380.3,423.585Z" transform="translate(-297.069 -349.69)" fill="#391a6f"/>
    <path id="Trazado_879387" data-name="Trazado 879387" d="M190.208,405.1H173.436a2.436,2.436,0,0,1,0-4.872h16.772l2.251,2.436Z" transform="translate(-132.759 -332.083)" fill="#5a3f8f"/>
    <path id="Trazado_879388" data-name="Trazado 879388" d="M281.674,402.666a2.436,2.436,0,0,0-2.436-2.436h-7.3a2.436,2.436,0,0,0,0,4.872h7.3A2.436,2.436,0,0,0,281.674,402.666Z" transform="translate(-214.487 -332.083)" fill="#775bbc"/>
    <path id="Trazado_879389" data-name="Trazado 879389" d="M225.639,26.868,211.134,22H186.526s-2.937,2.681,0,4.872c0,0-3.618,3.893,0,6.831,0,0-3.3,4.045.49,6.726v8.428s-3.342,3.56,0,7.221c0,0-1.7,2.134.4,3.661,0,0-2.824,2.368,0,4.342,0,0-2.228,2.446.468,4.225,0,0-2.531,2.971.664,4.872h37.609a4.363,4.363,0,0,0,4.35-4.35V42.755Z" transform="translate(-144.306 -18.251)" fill="#5c206a"/>
    <path id="Trazado_879390" data-name="Trazado 879390" d="M348.4,22H333.376c-.765.808-2.279,2.913.36,4.872l14.146,15.887s2.431,2.926,4.872,0V26.346A4.363,4.363,0,0,0,348.4,22Z" transform="translate(-266.549 -18.251)" fill="#9936b1"/>
    <path id="Trazado_879391" data-name="Trazado 879391" d="M106.045,50.61H87.922V92.043h19.486l12.827-20.717Z" transform="translate(-63.826 -41.993)" fill="#003799"/>
    <path id="Trazado_879392" data-name="Trazado 879392" d="M186.526,50.61s-3.618,3.893,0,6.831c0,0-3.3,4.045.49,6.726V72.6s-3.342,3.56,0,7.221c0,0-1.7,2.134.4,3.661,0,0-2.824,2.368,0,4.342,0,0-2.228,2.446.468,4.225h37.751V50.61Z" transform="translate(-144.306 -41.993)" fill="#005dff"/>
    <path id="Trazado_879393" data-name="Trazado 879393" d="M230.755,11.614h-6.106a2.762,2.762,0,0,1-2.754-2.754V2.754A2.762,2.762,0,0,1,224.649,0h6.106a2.762,2.762,0,0,1,2.754,2.754V8.86A2.762,2.762,0,0,1,230.755,11.614Z" transform="translate(-174.988)" fill="#775bbc"/>
    <circle id="Elipse_11713" data-name="Elipse 11713" cx="2.639" cy="2.639" r="2.639" transform="translate(50.075 3.168)" fill="#6ad9fb"/>
    <path id="Trazado_879394" data-name="Trazado 879394" d="M127.643,90.727H115.611a1.664,1.664,0,0,0-1.659,1.659v19.058a1.664,1.664,0,0,0,1.659,1.659h12.522l7.851-11.188Z" transform="translate(-85.424 -75.279)" fill="#ade9f7"/>
    <path id="Trazado_879395" data-name="Trazado 879395" d="M128.537,243.639H116.123a2.171,2.171,0,0,0,0,4.342h12.414l2.426-2.237Z" transform="translate(-85.424 -202.155)" fill="#ade9f7"/>
    <path id="Trazado_879396" data-name="Trazado 879396" d="M349.751,70.564h-7.092A1.664,1.664,0,0,0,341,72.223v6.159a1.664,1.664,0,0,0,1.659,1.659h7.092a1.664,1.664,0,0,0,1.659-1.659V72.223a1.664,1.664,0,0,0-1.659-1.659Z" transform="translate(-273.813 -58.549)" fill="#6ad9fb"/>
    <path id="Trazado_879397" data-name="Trazado 879397" d="M207.717,90.727H187.875s-3.3,4.045.49,6.726v8.428s-3.342,3.56,0,7.221h19.353a1.664,1.664,0,0,0,1.659-1.659V92.386A1.664,1.664,0,0,0,207.717,90.727Z" transform="translate(-145.655 -75.279)" fill="#e8f8fc"/>
    <path id="Trazado_879398" data-name="Trazado 879398" d="M349.751,143.916h-7.092A1.664,1.664,0,0,0,341,145.575v6.159a1.664,1.664,0,0,0,1.659,1.659h7.092a1.664,1.664,0,0,0,1.659-1.659v-6.159A1.664,1.664,0,0,0,349.751,143.916Z" transform="translate(-273.813 -119.412)" fill="#6ad9fb"/>
    <path id="Trazado_879399" data-name="Trazado 879399" d="M349.751,217.268h-7.092A1.664,1.664,0,0,0,341,218.927v6.159a1.664,1.664,0,0,0,1.659,1.659h7.092a1.664,1.664,0,0,0,1.659-1.659v-6.159A1.664,1.664,0,0,0,349.751,217.268Z" transform="translate(-273.813 -180.274)" fill="#6ad9fb"/>
    <path id="Trazado_879400" data-name="Trazado 879400" d="M191.7,128.909v6.9a1.486,1.486,0,0,0,2.244,1.278l5.823-3.452a1.486,1.486,0,0,0,0-2.556l-5.823-3.452a1.486,1.486,0,0,0-2.244,1.278Z" transform="translate(-149.931 -105.725)" fill="#4f08c2"/>
    <path id="Trazado_879401" data-name="Trazado 879401" d="M211.933,243.639H193.5s-2.824,2.368,0,4.342h18.436a2.171,2.171,0,0,0,0-4.342Z" transform="translate(-150.384 -202.155)" fill="#e8f8fc"/>
    <path id="Trazado_879402" data-name="Trazado 879402" d="M119.831,452.851H96.379a41.53,41.53,0,0,0,23.718,9.927l4.487-6.23Z" transform="translate(-70.843 -375.744)" fill="#391a6f"/>
    <path id="Trazado_879403" data-name="Trazado 879403" d="M241.675,452.851H225.334c-1.444,2.1-3.326,6.175.266,9.927,1.141.094,2.3.144,3.461.144a41.613,41.613,0,0,0,14.772-2.693v-5.22A2.164,2.164,0,0,0,241.675,452.851Z" transform="translate(-176.347 -375.744)" fill="#5a3f8f"/>
  </g>
</svg>
