<svg xmlns="http://www.w3.org/2000/svg" width="190" height="117.525" viewBox="0 0 190 117.525">
  <g id="Grupo_1103912" data-name="Grupo 1103912" transform="translate(-390.332 -1097.475)">
    <rect id="Rectángulo_404091" data-name="Rectángulo 404091" width="190" height="72" rx="10" transform="translate(390.332 1143)" fill="#005dff"/>
    <g id="analisis" transform="translate(435.78 1103.359)">
      <path id="Trazado_878257" data-name="Trazado 878257" d="M56.821,22a48.933,48.933,0,0,0-39.8,77.4l24.028,3.613,15.769,16.846a48.766,48.766,0,0,0,19.3-3.958l2.331-4.766,4.855.938A48.934,48.934,0,0,0,56.821,22Z" transform="translate(-7.89 -17.603)" fill="#4f08c2"/>
      <path id="Trazado_878258" data-name="Trazado 878258" d="M298.29,409.665l-8.909-6.483a3.994,3.994,0,1,0-4.7,6.459l8.909,6.483a6.945,6.945,0,0,1,2.73,4.22,48.792,48.792,0,0,0,7.186-3.827A14.877,14.877,0,0,0,298.29,409.665Z" transform="translate(-228.085 -322.048)" fill="#ffc242"/>
      <path id="Trazado_878259" data-name="Trazado 878259" d="M59.778,384.475H57.365a3.743,3.743,0,0,0-3.743,3.743v1.265a49.2,49.2,0,0,0,6.156,7.059l3.75-6.84Z" transform="translate(-44.489 -307.689)" fill="#fef156"/>
      <path id="Trazado_878260" data-name="Trazado 878260" d="M262.1,384.475h-2.248l-3.475,6.292,3.475,8.6H262.1a3.744,3.744,0,0,0,3.744-3.743v-7.4A3.744,3.744,0,0,0,262.1,384.475Z" transform="translate(-206.746 -307.689)" fill="#fef156"/>
      <g id="Grupo_1103047" data-name="Grupo 1103047" transform="translate(29.607 66.535)">
        <path id="Trazado_878261" data-name="Trazado 878261" d="M156.137,333.145h9.176v7.691h-9.176Z" transform="translate(-156.137 -333.145)" fill="#1d8df2"/>
      </g>
      <path id="Trazado_878262" data-name="Trazado 878262" d="M161.34,138.868h7.075v9.7H161.34Z" transform="translate(-130.693 -111.134)" fill="#1d8df2"/>
      <ellipse id="Elipse_11664" data-name="Elipse 11664" cx="5.252" cy="5.252" rx="5.252" ry="5.252" transform="translate(27.787 28.725) rotate(-75.755)" fill="#fe3d97"/>
      <g id="Grupo_1103048" data-name="Grupo 1103048" transform="translate(23.425 35.878)">
        <path id="Trazado_878263" data-name="Trazado 878263" d="M146.556,186.454a6.848,6.848,0,0,0-6.827-6.807h-7.722a6.848,6.848,0,0,0-6.827,6.807l9.737,2.6Z" transform="translate(-125.179 -179.647)" fill="#02c0fc"/>
      </g>
      <path id="Trazado_878264" data-name="Trazado 878264" d="M103.76,224.142S85.317,213.652,86.2,212.373H70.667a7.969,7.969,0,0,0-7.946,7.946v8.986a7.969,7.969,0,0,0,7.946,7.946H101.1c.1,0,.2,0,.3-.008A43.629,43.629,0,0,1,103.76,224.142Z" transform="translate(-51.77 -169.959)" fill="#ade9f7"/>
      <path id="Trazado_878265" data-name="Trazado 878265" d="M198.047,229.306v-8.986a7.969,7.969,0,0,0-7.946-7.946H174.89c-.882,1.279-1.914,3.67.749,5.657,3.838,2.864,11.684,10.332,11.684,10.332s-2.918,5.995,2.778,8.89A7.969,7.969,0,0,0,198.047,229.306Z" transform="translate(-140.772 -169.959)" fill="#e8f8fc"/>
      <path id="Trazado_878266" data-name="Trazado 878266" d="M130.607,240.7H149.98v12.224H130.607Z" transform="translate(-106.098 -192.626)" fill="#2a428b"/>
      <path id="Trazado_878267" data-name="Trazado 878267" d="M256.27,256.936h-7.546v5.737h7.546a2.869,2.869,0,0,0,0-5.737Z" transform="translate(-200.625 -205.622)" fill="#5071b7"/>
      <path id="Trazado_878268" data-name="Trazado 878268" d="M67.41,256.936H60.219a2.869,2.869,0,0,0,0,5.737h7.192v-5.737Z" transform="translate(-47.472 -205.622)" fill="#3f57a0"/>
      <circle id="Elipse_11665" data-name="Elipse 11665" cx="6.112" cy="6.112" r="6.112" transform="translate(15.858 54.18) rotate(-45)" fill="#02c0fc"/>
      <ellipse id="Elipse_11666" data-name="Elipse 11666" cx="6.112" cy="6.112" rx="6.112" ry="6.112" transform="translate(36.694 58.964) rotate(-78.465)" fill="#3feadd"/>
      <path id="Trazado_878269" data-name="Trazado 878269" d="M93.768,385.308a49.079,49.079,0,0,1-11.28-8.173V365.021a4.327,4.327,0,0,1,4.328-4.327H97.2l4.588,20.795Z" transform="translate(-67.59 -288.657)" fill="#02c0fc"/>
      <path id="Trazado_878270" data-name="Trazado 878270" d="M245.965,17.945a7.7,7.7,0,0,1,7.907-7.7l3.062-5.248L253.872.008a17.938,17.938,0,1,0,0,35.873l2.413-5.306-2.413-4.928a7.7,7.7,0,0,1-7.907-7.7Z" transform="translate(-190.229 -0.005)" fill="#fef156"/>
      <path id="Trazado_878271" data-name="Trazado 878271" d="M368.1,229.37a4.72,4.72,0,0,1-4.72-4.72v-7.558a4.719,4.719,0,1,1,9.439,0v7.558A4.72,4.72,0,0,1,368.1,229.37Z" transform="translate(-292.382 -169.959)" fill="#005dff"/>
      <g id="Grupo_1103049" data-name="Grupo 1103049" transform="translate(72.568 63.708)">
        <path id="Trazado_878272" data-name="Trazado 878272" d="M374.393,318.991a3.149,3.149,0,0,0-3.149,3.149v.746a3.149,3.149,0,1,0,6.3,0v-.746A3.149,3.149,0,0,0,374.393,318.991Z" transform="translate(-371.244 -318.991)" fill="#5071b7"/>
        <path id="Trazado_878273" data-name="Trazado 878273" d="M421.128,318.991a3.149,3.149,0,0,0-3.149,3.149v.746a3.149,3.149,0,1,0,6.3,0v-.746A3.149,3.149,0,0,0,421.128,318.991Z" transform="translate(-408.645 -318.991)" fill="#5071b7"/>
        <path id="Trazado_878274" data-name="Trazado 878274" d="M467.863,318.991a3.149,3.149,0,0,0-3.149,3.149v.746a3.149,3.149,0,1,0,6.3,0v-.746A3.149,3.149,0,0,0,467.863,318.991Z" transform="translate(-446.047 -318.991)" fill="#5071b7"/>
      </g>
      <path id="Trazado_878275" data-name="Trazado 878275" d="M414.833,204.857a4.72,4.72,0,0,1-4.72-4.72V186.462a4.719,4.719,0,1,1,9.439,0v13.675A4.72,4.72,0,0,1,414.833,204.857Z" transform="translate(-329.783 -145.446)" fill="#ffc242"/>
      <path id="Trazado_878276" data-name="Trazado 878276" d="M461.568,180.345a4.72,4.72,0,0,1-4.719-4.72V155.832a4.719,4.719,0,1,1,9.439,0v19.793A4.72,4.72,0,0,1,461.568,180.345Z" transform="translate(-367.184 -120.933)" fill="#fef156"/>
      <path id="Trazado_878277" data-name="Trazado 878277" d="M338.4,74.814l-5.146,2.8a7.7,7.7,0,0,1-7.7,7.907V95.751a17.937,17.937,0,0,0,17.937-18.139Z" transform="translate(-262.113 -59.872)" fill="#ffc242"/>
      <path id="Trazado_878278" data-name="Trazado 878278" d="M333.263,17.939H343.5A17.939,17.939,0,0,0,325.556,0V10.232A7.707,7.707,0,0,1,333.263,17.939Z" transform="translate(-262.113)" fill="#005dff"/>
      <path id="Trazado_878279" data-name="Trazado 878279" d="M146.77,371.514c-6.054-4.621-.619-10.821-.619-10.821h15.463l2.062,8.954,6.559,3.975v8.253a9.4,9.4,0,0,1-2.783,6.674h-6.827l-8.433-8.27Z" transform="translate(-116.744 -288.657)" fill="#2fd0e2"/>
      <path id="Trazado_878280" data-name="Trazado 878280" d="M229.331,360.693h-4.385a9.495,9.495,0,0,0-1.063,9.017c1.967,4.469,5.9,6.106,9.775,4v-8.688a4.328,4.328,0,0,0-4.328-4.328Z" transform="translate(-180.167 -288.657)" fill="#3feadd"/>
      <path id="Trazado_878281" data-name="Trazado 878281" d="M152.566,416.24v-4.064a6.647,6.647,0,1,0-13.294,0v4.064a7.854,7.854,0,0,1-1.636,4.808,48.709,48.709,0,0,0,23.018,5.745h.007a9.4,9.4,0,0,1,1.73-2.321q.17-.167.331-.341h-2.267a7.891,7.891,0,0,1-7.89-7.891Z" transform="translate(-111.724 -324.537)" fill="#1d8df2"/>
    </g>
    <g id="Polígono_5" data-name="Polígono 5" transform="matrix(0.602, 0.799, -0.799, 0.602, 446.384, 1103.359)" fill="none">
      <path d="M16,0,32,28H0Z" stroke="none"/>
      <path d="M 15.99999904632568 6.046697616577148 L 5.169540405273438 25 L 26.83045768737793 25 L 15.99999904632568 6.046697616577148 M 15.99999904632568 0 L 32 28 L -1.9073486328125e-06 28 L 15.99999904632568 0 Z" stroke="none" fill="#ffd504"/>
    </g>
  </g>
</svg>
