<svg xmlns="http://www.w3.org/2000/svg" xmlns:xlink="http://www.w3.org/1999/xlink" width="48" height="48" viewBox="0 0 48 48">
  <defs>
    <clipPath id="clip-path">
      <rect id="Rectángulo_404989" data-name="Rectángulo 404989" width="29" height="29" transform="translate(188.711 787)" fill="#4f08c2" stroke="#707070" stroke-width="1"/>
    </clipPath>
  </defs>
  <g id="Grupo_1105674" data-name="Grupo 1105674" transform="translate(-179.711 -780)">
    <g id="Grupo_1105673" data-name="Grupo 1105673">
      <g id="Grupo_1105671" data-name="Grupo 1105671">
        <g id="Elipse_11857" data-name="Elipse 11857" transform="translate(179.711 780)" fill="#fff" stroke="#4f08c2" stroke-width="2">
          <circle cx="24" cy="24" r="24" stroke="none"/>
          <circle cx="24" cy="24" r="23" fill="none"/>
        </g>
      </g>
      <g id="Enmascarar_grupo_1098878" data-name="Enmascarar grupo 1098878" transform="translate(0 3)" clip-path="url(#clip-path)">
        <path id="descriptivo" d="M21.7,23.108a6.888,6.888,0,1,1,1.17-1.288l1.814,1.75.062-.064a.629.629,0,0,1,.886-.013l3.786,3.674a.629.629,0,0,1,.013.886l-1.367,1.409a.629.629,0,0,1-.886.013L23.4,25.8a.629.629,0,0,1-.013-.886l.093-.1ZM17.225,12.7a5.168,5.168,0,1,0,5.168,5.168A5.168,5.168,0,0,0,17.225,12.7Zm2.831,4.546-1.968,1.968a.481.481,0,0,1-.68,0l-1.185-1.185L14.253,20a.481.481,0,0,1-.68-.68l2.309-2.309a.481.481,0,0,1,.68,0l1.185,1.185,1.637-1.637h-.471a.481.481,0,1,1,0-.961h1.623a.481.481,0,0,1,.481.481V17.7a.481.481,0,1,1-.961,0ZM1.169,3.443,3.481,1.131V3.443ZM4.443.65H20.359a.53.53,0,0,1,.529.529v9.736a7.874,7.874,0,0,0-6.818-.245H3.014a.481.481,0,0,0,0,.961h9.431a7.9,7.9,0,0,0-1.78,1.911H3.014a.481.481,0,1,0,0,.961h7.109a7.8,7.8,0,0,0-.62,1.911H3.014a.481.481,0,1,0,0,.961h6.37q-.015.243-.015.49A7.9,7.9,0,0,0,9.5,19.288H3.014a.481.481,0,0,0,0,.961H9.737a7.821,7.821,0,0,0,.908,1.911H3.014a.481.481,0,0,0,0,.961h8.372a7.861,7.861,0,0,0,9.5,1.7V26.3a.529.529,0,0,1-.529.527H1.216A.529.529,0,0,1,.689,26.3V4.4H3.7a.749.749,0,0,0,.745-.745ZM3.014,8.759H18.563a.481.481,0,1,0,0-.961H3.014a.481.481,0,1,0,0,.961ZM6.448,5.886H17.142a.481.481,0,0,0,0-.961H6.448a.481.481,0,0,0,0,.961Z" transform="translate(188.061 786.35)" fill="#4f08c2" fill-rule="evenodd"/>
      </g>
    </g>
  </g>
</svg>
