<svg xmlns="http://www.w3.org/2000/svg" xmlns:xlink="http://www.w3.org/1999/xlink" width="190" height="117.525" viewBox="0 0 190 117.525">
  <defs>
    <clipPath id="clip-path">
      <path id="Unión_1" data-name="Unión 1" d="M10126.1,11767h-1.393v-67h104v67h-1.392a52.016,52.016,0,0,1-101.218,0Z" transform="translate(-9221 -6612)" fill="#4f08c2"/>
    </clipPath>
  </defs>
  <g id="Grupo_1104859" data-name="Grupo 1104859" transform="translate(-862.211 -5083.528)">
    <rect id="Rectángulo_404091" data-name="Rectángulo 404091" width="190" height="72" rx="10" transform="translate(862.211 5129.053)" fill="#005dff"/>
    <g id="Grupo_1104858" data-name="Grupo 1104858">
      <circle id="Elipse_11735" data-name="Elipse 11735" cx="52" cy="52" r="52" transform="translate(903.711 5091)" fill="#4f08c2"/>
      <g id="Enmascarar_grupo_1098823" data-name="Enmascarar grupo 1098823" clip-path="url(#clip-path)">
        <g id="alerta-de-spam" transform="translate(878.15 5075.185)">
          <path id="Trazado_879638" data-name="Trazado 879638" d="M100.732,83.557H53.389L29.054,108.666,38.7,145.627h76.726l9.644-36.961Z" transform="translate(0 -46.803)" fill="#2f0474"/>
          <path id="Trazado_879639" data-name="Trazado 879639" d="M125.257,12.579H71.218a3.039,3.039,0,0,0-3.039,3.038V97.823h69.362V23.894a15.845,15.845,0,0,1-12.284-11.315Z" transform="translate(-25.799)" fill="#005dff"/>
          <path id="Trazado_879640" data-name="Trazado 879640" d="M136.2,77.235,122.045,97.791a3.031,3.031,0,0,0,2.5,4.75h28.3a3.031,3.031,0,0,0,2.5-4.75L141.19,77.235a3.031,3.031,0,0,0-4.994,0Z" transform="translate(-60.966 -41.769)" fill="#fff"/>
          <path id="Trazado_879641" data-name="Trazado 879641" d="M169.319,109.167a1.362,1.362,0,0,1-1.362-1.362v-5.592a1.362,1.362,0,1,1,2.725,0V107.8A1.362,1.362,0,0,1,169.319,109.167Z" transform="translate(-91.592 -58.206)" fill="#9936b1"/>
          <path id="Trazado_879642" data-name="Trazado 879642" d="M169.319,134.314a1.361,1.361,0,0,1-1.362-1.362,1.407,1.407,0,0,1,.027-.266,1.306,1.306,0,0,1,.078-.255,1.508,1.508,0,0,1,.123-.235,1.645,1.645,0,0,1,.17-.208,1.351,1.351,0,0,1,2.095.208,1.3,1.3,0,0,1,.126.235,1.329,1.329,0,0,1,.078.255,1.354,1.354,0,0,1-.371,1.23,1.649,1.649,0,0,1-.207.17,1.575,1.575,0,0,1-.235.126,1.312,1.312,0,0,1-.255.075,1.175,1.175,0,0,1-.266.027Z" transform="translate(-91.592 -78.471)" fill="#9936b1"/>
          <path id="Trazado_879643" data-name="Trazado 879643" d="M77.061,186.116l-48.007-28.84v57.952h96.014V157.276Z" transform="translate(0 -95.413)" fill="#ffc95c"/>
          <path id="Trazado_879644" data-name="Trazado 879644" d="M125.068,252.7v-5.829L92.848,214.1l-15.788,9.484L61.273,214.1,29.054,246.871V252.7h96.014Z" transform="translate(0 -132.885)" fill="#e59328"/>
          <path id="Trazado_879645" data-name="Trazado 879645" d="M89.245,220.46l-12.184,7.32-12.184-7.32L29.054,256.891h96.014Z" transform="translate(0 -137.076)" fill="#ffc95c"/>
          <path id="Trazado_879646" data-name="Trazado 879646" d="M235.756,12.579,248.04,23.894h-9.118a3.168,3.168,0,0,1-3.168-3.168Z" transform="translate(-136.298)" fill="#003799"/>
        </g>
      </g>
    </g>
    <g id="Polígono_5" data-name="Polígono 5" transform="matrix(0.602, 0.799, -0.799, 0.602, 918.263, 5089.412)" fill="none">
      <path d="M16,0,32,28H0Z" stroke="none"/>
      <path d="M 15.99999904632568 6.046697616577148 L 5.169540405273438 25 L 26.83045768737793 25 L 15.99999904632568 6.046697616577148 M 15.99999904632568 0 L 32 28 L -1.9073486328125e-06 28 L 15.99999904632568 0 Z" stroke="none" fill="#ffd504"/>
    </g>
  </g>
</svg>
