<svg xmlns="http://www.w3.org/2000/svg" xmlns:xlink="http://www.w3.org/1999/xlink" width="90.193" height="133.533" viewBox="0 0 90.193 133.533">
  <defs>
    <clipPath id="clip-path">
      <rect id="Rectángulo_404117" data-name="Rectángulo 404117" width="90" height="90" transform="translate(336.332 4154)" fill="#fff" stroke="#707070" stroke-width="1"/>
    </clipPath>
  </defs>
  <g id="Grupo_1103969" data-name="Grupo 1103969" transform="translate(-336.139 -4110.468)">
    <rect id="Rectángulo_404116" data-name="Rectángulo 404116" width="59" height="111" rx="29.5" transform="translate(349.332 4133)" fill="#005dff"/>
    <g id="Enmascarar_grupo_1098907" data-name="Enmascarar grupo 1098907" clip-path="url(#clip-path)">
      <g id="resena-de-libro" transform="translate(335.062 4152.73)">
        <g id="Grupo_1105591" data-name="Grupo 1105591">
          <g id="Grupo_1105587" data-name="Grupo 1105587">
            <path id="Trazado_881118" data-name="Trazado 881118" d="M66.462,82.88V2.687H10.743A5.967,5.967,0,0,0,4.8,8.636v68.3a5.963,5.963,0,0,0,5.948,5.943Z" fill="#8ac9fe" fill-rule="evenodd"/>
            <path id="Trazado_881119" data-name="Trazado 881119" d="M10.743,70.989V2.687A5.967,5.967,0,0,0,4.8,8.636V76.912A5.965,5.965,0,0,1,10.743,70.989Z" fill="#60b7ff" fill-rule="evenodd"/>
            <path id="Trazado_881120" data-name="Trazado 881120" d="M66.462,82.88V70.989H10.743a5.946,5.946,0,1,0,0,11.891Z" fill="#eceff1" fill-rule="evenodd"/>
            <path id="Trazado_881121" data-name="Trazado 881121" d="M10.743,70.989V82.88a5.946,5.946,0,1,1,0-11.891Z" fill="#d1d1d6" fill-rule="evenodd"/>
          </g>
          <g id="Grupo_1105588" data-name="Grupo 1105588">
            <path id="Trazado_881122" data-name="Trazado 881122" d="M13.381,76.937H23.814V88.69a.544.544,0,0,1-.849.451l-4.144-2.8-4.605,2.912a.544.544,0,0,1-.835-.46Z" fill="#ffe177" fill-rule="evenodd"/>
            <path id="Trazado_881123" data-name="Trazado 881123" d="M15.322,88.558l-1.105.7a.544.544,0,0,1-.835-.46V76.937h1.94Zm8.493-.153v.285a.544.544,0,0,1-.849.451l-4.144-2.8,1-.633Z" fill="#ffd064" fill-rule="evenodd"/>
          </g>
          <g id="Grupo_1105590" data-name="Grupo 1105590">
            <g id="Grupo_1105589" data-name="Grupo 1105589">
              <path id="Trazado_881124" data-name="Trazado 881124" d="M87.924,46.239V20.609a5.124,5.124,0,0,0-5.114-5.114H45.353a5.124,5.124,0,0,0-5.114,5.114V46.239a5.124,5.124,0,0,0,5.114,5.114h4.328v6.477a1.584,1.584,0,0,0,2.728,1.1l7.279-7.575H82.811a5.125,5.125,0,0,0,5.114-5.114Z" fill="#6cf5c2" fill-rule="evenodd"/>
              <path id="Trazado_881125" data-name="Trazado 881125" d="M48.982,15.495a5.124,5.124,0,0,0-5.114,5.114V46.239a5.124,5.124,0,0,0,5.114,5.114H45.353a5.124,5.124,0,0,1-5.114-5.114V20.609a5.124,5.124,0,0,1,5.114-5.114Zm.7,35.858H53.31v6.477q0,.079.007.154l-.907.944a1.584,1.584,0,0,1-2.728-1.1Z" fill="#00e499" fill-rule="evenodd"/>
            </g>
          </g>
        </g>
        <path id="Trazado_881126" data-name="Trazado 881126" d="M3.254,76.972V8.67a7.424,7.424,0,0,1,7.4-7.4H66.372a1.452,1.452,0,0,1,1.452,1.452v8.606a1.452,1.452,0,1,1-2.9,0V4.173H12.105v65.4H64.92v-13.6a1.452,1.452,0,1,1,2.9,0V82.915a1.452,1.452,0,0,1-1.452,1.452h-41.2v5.383a1.452,1.452,0,0,1-2.264,1.2l-4.206-2.839-4.639,2.933a1.452,1.452,0,0,1-2.227-1.227V84.366H10.654a7.419,7.419,0,0,1-7.4-7.395ZM9.2,4.415A4.516,4.516,0,0,0,6.157,8.67V71.106A7.377,7.377,0,0,1,9.2,69.716ZM64.92,72.475H10.654a4.494,4.494,0,1,0,0,8.988H11.84V76.972a1.451,1.451,0,0,1,1.452-1.452H23.725a1.451,1.451,0,0,1,1.452,1.452v4.491H64.92ZM14.743,78.423v8.76l3.213-2.031a1.452,1.452,0,0,1,1.588.024l2.729,1.842V78.423ZM89.286,46.414A6.6,6.6,0,0,1,82.7,53H60.1L50.47,63.018a1.452,1.452,0,0,1-2.5-1.006V53h-2.9a6.6,6.6,0,0,1-6.591-6.583V20.669a6.6,6.6,0,0,1,6.591-6.591H82.7a6.6,6.6,0,0,1,6.591,6.591Zm-2.9,0V20.669A3.7,3.7,0,0,0,82.7,16.981H45.076a3.7,3.7,0,0,0-3.688,3.688V46.414a3.69,3.69,0,0,0,3.688,3.68h4.347a1.452,1.452,0,0,1,1.452,1.452v6.86L58.43,50.54a1.452,1.452,0,0,1,1.047-.446H82.7a3.69,3.69,0,0,0,3.688-3.68ZM49.952,35.083a1.452,1.452,0,1,1,0-2.9H77.369a1.452,1.452,0,1,1,0,2.9Zm0,8.149a1.452,1.452,0,1,1,0-2.9H77.369a1.452,1.452,0,1,1,0,2.9Zm0-16.305a1.452,1.452,0,1,1,0-2.9H77.369a1.452,1.452,0,1,1,0,2.9Z" fill-rule="evenodd"/>
      </g>
    </g>
    <g id="Polígono_6" data-name="Polígono 6" transform="matrix(0.602, 0.799, -0.799, 0.602, 364.385, 4116.352)" fill="none">
      <path d="M16,0,32,28H0Z" stroke="none"/>
      <path d="M 15.99999904632568 6.046697616577148 L 5.169540405273438 25 L 26.83045768737793 25 L 15.99999904632568 6.046697616577148 M 15.99999904632568 0 L 32 28 L -1.9073486328125e-06 28 L 15.99999904632568 0 Z" stroke="none" fill="#ffd504"/>
    </g>
    <g id="Grupo_1103968" data-name="Grupo 1103968" transform="translate(349.332 4225)">
      <path id="Trazado_879073" data-name="Trazado 879073" d="M8.5,2.064,6.858.421l-2.4,2.4-2.4-2.4L.421,2.064l2.4,2.4-2.4,2.4L2.064,8.5l2.4-2.4,2.4,2.4L8.5,6.857l-2.4-2.4Z" transform="translate(-0.421 -0.421)" fill="#4f08c2"/>
    </g>
    <circle id="Elipse_11692" data-name="Elipse 11692" cx="3.5" cy="3.5" r="3.5" transform="translate(401.332 4144)" fill="#4f08c2"/>
  </g>
</svg>
