<svg xmlns="http://www.w3.org/2000/svg" width="190" height="111.641" viewBox="0 0 190 111.641">
  <g id="Grupo_1104805" data-name="Grupo 1104805" transform="translate(-390.332 -1103.359)">
    <rect id="Rectángulo_404091" data-name="Rectángulo 404091" width="190" height="72" rx="10" transform="translate(390.332 1143)" fill="#005dff"/>
    <g id="robot-medico" transform="translate(434.806 1103.359)">
      <path id="Trazado_878224" data-name="Trazado 878224" d="M104.093,99.75a50.526,50.526,0,1,0-85.138,0l4.234,1.3.793,5.288A50.543,50.543,0,0,0,47.265,121l28.706-.055h0a50.546,50.546,0,0,0,23.1-14.615l.529-4.784Z" transform="translate(-10.998 -17.46)" fill="#4f08c2"/>
      <path id="Trazado_878225" data-name="Trazado 878225" d="M71.932,380.716H60.555a15.472,15.472,0,0,0-9.907,3.591c.739,1.152,2.968.828,3.8,1.914.841,1.1.282,3.611,1.208,4.639.066-.051.134-.1.2-.154a7.22,7.22,0,0,1,4.7-1.742H71.932a4.125,4.125,0,1,0,0-8.249Z" transform="translate(-42.471 -302.202)" fill="#ffc242"/>
      <path id="Trazado_878226" data-name="Trazado 878226" d="M55.443,395.428a4.124,4.124,0,0,0-5.816-.44l-.046.042a50.736,50.736,0,0,0,5.027,6.584c.127-.127.258-.252.4-.37A4.124,4.124,0,0,0,55.443,395.428Z" transform="translate(-41.624 -312.74)" fill="#fef156"/>
      <path id="Trazado_878227" data-name="Trazado 878227" d="M353.648,380.716H342.271a4.125,4.125,0,0,0,0,8.249h11.377a7.221,7.221,0,0,1,4.7,1.742c.064.055.132.1.2.154,1.016-1.128.126-3.127,1.039-4.343.739-.984,3.3-1.172,3.965-2.21A15.473,15.473,0,0,0,353.648,380.716Z" transform="translate(-270.679 -302.202)" fill="#ffc242"/>
      <g id="Grupo_1103043" data-name="Grupo 1103043" transform="translate(24.732 74.897)">
        <path id="Trazado_878228" data-name="Trazado 878228" d="M435.974,394.988a4.124,4.124,0,0,0-5.376,6.256c.138.118.268.243.4.37a50.734,50.734,0,0,0,5.027-6.584Z" transform="translate(-367.656 -387.637)" fill="#fef156"/>
        <path id="Trazado_878229" data-name="Trazado 878229" d="M137.282,363.178H134.79a3.865,3.865,0,0,0-3.865,3.866v7.645a3.866,3.866,0,0,0,3.865,3.866h2.491l2.269-8.34Z" transform="translate(-130.925 -363.178)" fill="#fef156"/>
        <path id="Trazado_878230" data-name="Trazado 878230" d="M341.488,363.178h-2.322l-3.094,7.264,3.094,8.112h2.322a3.866,3.866,0,0,0,3.866-3.866v-7.645A3.865,3.865,0,0,0,341.488,363.178Z" transform="translate(-293.766 -363.178)" fill="#fef156"/>
      </g>
      <g id="Grupo_1103044" data-name="Grupo 1103044" transform="translate(45.873 62.741)">
        <path id="Trazado_878231" data-name="Trazado 878231" d="M233.439,304.23h9.475v8.8h-9.475Z" transform="translate(-233.439 -304.23)" fill="#1d8df2"/>
      </g>
      <path id="Trazado_878232" data-name="Trazado 878232" d="M238.642,112.643h7.305v11.945h-7.305Z" transform="translate(-191.696 -89.413)" fill="#1d8df2"/>
      <ellipse id="Elipse_11661" data-name="Elipse 11661" cx="5.423" cy="5.423" rx="5.423" ry="5.423" transform="translate(45.176 15.925)" fill="#fe3d97"/>
      <path id="Trazado_878233" data-name="Trazado 878233" d="M217.506,158.349h-7.974a7.071,7.071,0,0,0-7.05,7.029l11.593,3.326,10.481-3.326a7.071,7.071,0,0,0-7.05-7.029Z" transform="translate(-162.993 -125.693)" fill="#02c0fc"/>
      <path id="Trazado_878234" data-name="Trazado 878234" d="M179.653,216.765H148.228a8.229,8.229,0,0,1-8.205-8.205V199.28a8.229,8.229,0,0,1,8.205-8.205h16.038l16.073,9.19Z" transform="translate(-113.415 -151.67)" fill="#ade9f7"/>
      <path id="Trazado_878235" data-name="Trazado 878235" d="M228.911,345.754s-2.422-3.844-4.245-6.359H208.7l-6.168,6.112S218.279,369,221.193,369l9.5-.844a9.7,9.7,0,0,0,2.874-6.892v-8.523A17.458,17.458,0,0,1,228.911,345.754Z" transform="translate(-163.032 -269.402)" fill="#2fd0e2"/>
      <path id="Trazado_878236" data-name="Trazado 878236" d="M164.259,339.395a4.469,4.469,0,0,0-4.469,4.469v17.4a9.7,9.7,0,0,0,2.874,6.891l10.5,1.552s.907-18.024,2.34-19.227c-6.076-4.762-.53-11.089-.53-11.089h-10.72Z" transform="translate(-129.105 -269.402)" fill="#02c0fc"/>
      <path id="Trazado_878237" data-name="Trazado 878237" d="M196.485,395.292v-4.2a6.864,6.864,0,1,0-13.728,0v4.2a8.148,8.148,0,0,1-8.148,8.148h-2.341q.166.18.342.352a9.7,9.7,0,0,1,2.663,4.744,50.757,50.757,0,0,0,28.709-.054,9.7,9.7,0,0,1,2.649-4.689q.176-.172.342-.352h-2.341A8.148,8.148,0,0,1,196.485,395.292Z" transform="translate(-139.011 -304.992)" fill="#1d8df2"/>
      <path id="Trazado_878238" data-name="Trazado 878238" d="M306.834,339.395h-4.528c-.951,1.435-2.922,5.165-1.1,9.311,2.031,4.614,6.088,6.3,10.094,4.129v-8.971A4.469,4.469,0,0,0,306.834,339.395Z" transform="translate(-240.766 -269.402)" fill="#3feadd"/>
      <path id="Trazado_878239" data-name="Trazado 878239" d="M220.876,394.986a4.3,4.3,0,0,1-3.034-1.794,5,5,0,0,1-.488-3.545l.03-.113-6.638-6.831h-.087a4.1,4.1,0,0,1-3.79-2.166,6.335,6.335,0,0,1-.745-2.189l.021-.156a11.325,11.325,0,1,0,14.851,16.815Z" transform="translate(-161.879 -300.199)" fill="#e51e82"/>
      <path id="Trazado_878240" data-name="Trazado 878240" d="M242.346,380.36a11.323,11.323,0,0,0-17.816-9.28c.007.068.5,4.559,4.742,4.559l6.5,6.685s-1.238,4.708,3.685,5.594A11.282,11.282,0,0,0,242.346,380.36Z" transform="translate(-180.494 -292.929)" fill="#fe3d97"/>
      <path id="Trazado_878241" data-name="Trazado 878241" d="M237.756,414.133a2.552,2.552,0,0,1-2.552,2.552h-7.992a2.552,2.552,0,0,1,0-5.1H235.2A2.552,2.552,0,0,1,237.756,414.133Z" transform="translate(-180.598 -326.702)" fill="#fef156"/>
      <path id="Trazado_878242" data-name="Trazado 878242" d="M246.59,405.3a2.552,2.552,0,0,1-2.552-2.552v-7.992a2.552,2.552,0,1,1,5.1,0v7.992A2.552,2.552,0,0,1,246.59,405.3Z" transform="translate(-195.979 -311.321)" fill="#fef156"/>
      <path id="Trazado_878243" data-name="Trazado 878243" d="M71.232,80.107A4.089,4.089,0,0,0,65.8,78.13l-5.626,2.624L59.7,85.918l3.932,2.248,5.626-2.624A4.089,4.089,0,0,0,71.232,80.107Z" transform="translate(-49.653 -61.712)" fill="#fef156"/>
      <path id="Trazado_878244" data-name="Trazado 878244" d="M31.449,91.883,25.624,94.6a4.089,4.089,0,0,0,3.457,7.412L34.907,99.3Z" transform="translate(-20.733 -72.934)" fill="#fe3d97"/>
      <path id="Trazado_878245" data-name="Trazado 878245" d="M77.377,142.226H71.169L69.2,146.008l1.973,4.4h6.208a4.089,4.089,0,1,0,0-8.179Z" transform="translate(-57.194 -112.895)" fill="#fe3d97"/>
      <path id="Trazado_878246" data-name="Trazado 878246" d="M39.344,142.226H32.915a4.089,4.089,0,1,0,0,8.179h6.429Z" transform="translate(-25.149 -112.895)" fill="#fef156"/>
      <path id="Trazado_878247" data-name="Trazado 878247" d="M140.707,13.194l-7.564-3.647a7.136,7.136,0,1,0,10.089,10.089Z" transform="translate(-106.192 -7.578)" fill="#fe3d97"/>
      <path id="Trazado_878248" data-name="Trazado 878248" d="M151.159,2.09a7.139,7.139,0,0,0-10.1,0l10.1,10.1a7.139,7.139,0,0,0,0-10.1Z" transform="translate(-114.241 0.001)" fill="#fd77a6"/>
      <path id="Trazado_878249" data-name="Trazado 878249" d="M276.137,208.561v-9.279a8.229,8.229,0,0,0-8.205-8.205H252.224c-.91,1.32-1.976,3.789.774,5.841,3.963,2.957,12.065,10.669,12.065,10.669s-3.013,6.19,2.868,9.179A8.229,8.229,0,0,0,276.137,208.561Z" transform="translate(-201.693 -151.671)" fill="#e8f8fc"/>
      <path id="Trazado_878250" data-name="Trazado 878250" d="M207.91,219.4h20v12.622h-20Z" transform="translate(-167.301 -174.154)" fill="#2a428b"/>
      <path id="Trazado_878251" data-name="Trazado 878251" d="M333.818,235.639h-7.792v5.924h7.792a2.962,2.962,0,1,0,0-5.924Z" transform="translate(-261.059 -187.044)" fill="#5071b7"/>
      <path id="Trazado_878252" data-name="Trazado 878252" d="M145.04,235.639h-7.426a2.962,2.962,0,1,0,0,5.924h7.426Z" transform="translate(-109.151 -187.044)" fill="#3f57a0"/>
      <circle id="Elipse_11662" data-name="Elipse 11662" cx="6.311" cy="6.311" r="6.311" transform="translate(31.675 51.556) rotate(-45)" fill="#fe3d97"/>
      <ellipse id="Elipse_11663" data-name="Elipse 11663" cx="6.311" cy="6.311" rx="6.311" ry="6.311" transform="translate(53.024 56.275) rotate(-76.7)" fill="#fd77a6"/>
      <path id="Trazado_878253" data-name="Trazado 878253" d="M364.02,110.21h.014a15.433,15.433,0,1,1-15.515-23.426L360.5,97.5Z" transform="translate(-268.592 -68.887)" fill="#3ecd8d"/>
      <path id="Trazado_878254" data-name="Trazado 878254" d="M415.1,101.287A15.428,15.428,0,0,0,397.13,86.064c-.023.107-2.1,10.034,6.467,11l2.213,5.638s-1.259,6.891,6.863,6.894A15.359,15.359,0,0,0,415.1,101.287Z" transform="translate(-317.31 -68.148)" fill="#95db76"/>
      <g id="Grupo_1103045" data-name="Grupo 1103045" transform="translate(73.212 28.914)">
        <path id="Trazado_878255" data-name="Trazado 878255" d="M374.5,151.479a2.766,2.766,0,0,1-1.963-.813l-5.725-5.725a2.776,2.776,0,1,1,3.926-3.926l5.725,5.725a2.776,2.776,0,0,1-1.963,4.738Z" transform="translate(-366.004 -140.203)" fill="#ade9f7"/>
      </g>
      <g id="Grupo_1103046" data-name="Grupo 1103046" transform="translate(78.937 26.978)">
        <path id="Trazado_878256" data-name="Trazado 878256" d="M396.539,144.029a2.776,2.776,0,0,1-1.963-4.738l7.66-7.661a2.776,2.776,0,0,1,3.926,3.926l-7.661,7.661A2.768,2.768,0,0,1,396.539,144.029Z" transform="translate(-393.763 -130.817)" fill="#e8f8fc"/>
      </g>
    </g>
    <g id="Polígono_5" data-name="Polígono 5" transform="matrix(0.602, 0.799, -0.799, 0.602, 436.358, 1143)" fill="none">
      <path d="M16,0,32,28H0Z" stroke="none"/>
      <path d="M 15.99999904632568 6.046697616577148 L 5.169540405273438 25 L 26.83045768737793 25 L 15.99999904632568 6.046697616577148 M 15.99999904632568 0 L 32 28 L -1.9073486328125e-06 28 L 15.99999904632568 0 Z" stroke="none" fill="#ffd504"/>
    </g>
  </g>
</svg>
