<svg xmlns="http://www.w3.org/2000/svg" xmlns:xlink="http://www.w3.org/1999/xlink" width="90.193" height="133.533" viewBox="0 0 90.193 133.533">
  <defs>
    <clipPath id="clip-path">
      <rect id="Rectángulo_404117" data-name="Rectángulo 404117" width="90" height="90" transform="translate(336.332 4154)" fill="#fff" stroke="#707070" stroke-width="1"/>
    </clipPath>
  </defs>
  <g id="Grupo_1105585" data-name="Grupo 1105585" transform="translate(-336.139 -4110.467)">
    <rect id="Rectángulo_404116" data-name="Rectángulo 404116" width="59" height="111" rx="29.5" transform="translate(349.332 4133)" fill="#005dff"/>
    <g id="Enmascarar_grupo_1098909" data-name="Enmascarar grupo 1098909" clip-path="url(#clip-path)">
      <g id="Page-1" transform="translate(336.351 4154.019)">
        <g id="_005---Coding-Thinking" data-name="005---Coding-Thinking" transform="translate(0 -1.499)">
          <g id="Icons_copy" transform="translate(1.499 2.999)">
            <rect id="Rectangle" width="86.964" height="5.998" rx="2.999" transform="translate(46.481) rotate(90)" fill="#02a9f4"/>
            <path id="Path" d="M80.966,55.822a7.822,7.822,0,0,1-7.242,7.8,8.406,8.406,0,0,1,.975,3.958A8.612,8.612,0,0,1,66.078,76.2a10.2,10.2,0,0,1-19.6-3.928V11.92s0-13.135,18.337.075c.165.1.33.24.51.36l.015.015a7.047,7.047,0,0,1,3.464,10.541,9.4,9.4,0,0,1,9.026,9.4,9.3,9.3,0,0,1-.345,2.519A10.2,10.2,0,0,1,78,49.689a7.8,7.8,0,0,1,2.969,6.132Z" fill="#ef314c" fill-rule="evenodd"/>
            <path id="Path-2" data-name="Path" d="M78,49.689a10.2,10.2,0,0,0-.51-14.859,9.3,9.3,0,0,0,.345-2.519,9.4,9.4,0,0,0-9.026-9.4A7.047,7.047,0,0,0,65.343,12.37l-.015-.015c-.18-.12-.345-.255-.51-.36C56.9,6.288,52.4,5.5,49.845,6.447A32.88,32.88,0,0,1,60.32,12c.165.1.33.24.51.36l.015.015a7.047,7.047,0,0,1,3.464,10.541,9.4,9.4,0,0,1,9.026,9.4,9.3,9.3,0,0,1-.345,2.519,10.2,10.2,0,0,1,.51,14.859,7.818,7.818,0,0,1-4.273,13.929,8.406,8.406,0,0,1,.975,3.958A8.612,8.612,0,0,1,61.58,76.2a10.23,10.23,0,0,1-7.2,6,10.152,10.152,0,0,0,11.7-6A8.612,8.612,0,0,0,74.7,67.577a8.406,8.406,0,0,0-.975-3.958A7.818,7.818,0,0,0,78,49.689Z" fill="#bb193b" fill-rule="evenodd"/>
            <path id="Path-3" data-name="Path" d="M4.5,6H40.483V80.966H4.5a4.5,4.5,0,0,1-4.5-4.5V10.5A4.5,4.5,0,0,1,4.5,6Z" fill="#f5f5f5" fill-rule="evenodd"/>
            <path id="Rectangle-2" data-name="Rectangle" d="M35.985,6h4.5V80.966h-4.5Z" fill="#cfd8dc" fill-rule="evenodd"/>
            <g id="Grupo_1105594" data-name="Grupo 1105594">
              <circle id="Oval" cx="2.999" cy="2.999" r="2.999" transform="translate(73.47)" fill="#ffdf00"/>
              <circle id="Oval-2" data-name="Oval" cx="2.999" cy="2.999" r="2.999" transform="translate(80.966 7.497)" fill="#ffdf00"/>
              <circle id="Oval-3" data-name="Oval" cx="2.999" cy="2.999" r="2.999" transform="translate(73.47 80.966)" fill="#ffdf00"/>
              <circle id="Oval-4" data-name="Oval" cx="2.999" cy="2.999" r="2.999" transform="translate(80.966 73.47)" fill="#ffdf00"/>
            </g>
          </g>
          <g id="Icons">
            <path id="Path-4" data-name="Path" d="M62.872,43.209a8.641,8.641,0,0,1-6.147-2.549,1.5,1.5,0,0,0-2.12,2.12,11.6,11.6,0,0,0,7.855,3.4,8.6,8.6,0,0,0,7.306,6.239,1.521,1.521,0,0,0,.165.009,1.5,1.5,0,0,0,.16-2.99,5.575,5.575,0,0,1-4.569-3.551A11.7,11.7,0,0,0,74.555,34.52a1.5,1.5,0,1,0-3,0,8.7,8.7,0,0,1-8.684,8.689Z" fill-rule="evenodd"/>
            <path id="Path-5" data-name="Path" d="M68.277,66.86c0-.069.012-.136.012-.205a10.915,10.915,0,0,0-10.9-10.9,1.5,1.5,0,0,0,0,3,7.914,7.914,0,0,1,7.9,7.906,7.76,7.76,0,0,1-.1,1.164,10.908,10.908,0,0,0-6.171,9.809,1.5,1.5,0,1,0,3,0,7.914,7.914,0,0,1,7.9-7.906,1.5,1.5,0,0,0,0-3A10.876,10.876,0,0,0,68.277,66.86Z" fill-rule="evenodd"/>
            <path id="Shape" d="M82.466,22.491a4.5,4.5,0,0,0,4.5-4.5v-.276a4.5,4.5,0,1,0-3,0v.276a1.5,1.5,0,0,1-1.5,1.5H72.612a8.56,8.56,0,0,0-1.649-3h4.006a4.5,4.5,0,0,0,4.5-4.5V10.22a4.5,4.5,0,1,0-3,0V12a1.5,1.5,0,0,1-1.5,1.5H66.806C59.291,8.157,53.84,6.447,50.172,8.316a6,6,0,0,0-.693.415V6a4.5,4.5,0,0,0-9,0V7.5H6a6,6,0,0,0-6,6V79.467a6,6,0,0,0,6,6H40.483v1.5a4.5,4.5,0,1,0,9,0v-3.9A11.665,11.665,0,0,0,68.55,80.647a10.005,10.005,0,0,0,3.832-1.18h2.586a1.5,1.5,0,0,1,1.5,1.5v1.775a4.5,4.5,0,1,0,3,0V80.966a4.5,4.5,0,0,0-3.735-4.42,10.094,10.094,0,0,0,1.538-3.077h5.2a1.5,1.5,0,0,1,1.5,1.5v.276a4.5,4.5,0,1,0,3,0v-.276a4.5,4.5,0,0,0-4.5-4.5H77.689a10.1,10.1,0,0,0-.394-2.712,9.374,9.374,0,0,0,6.671-8.942,9.247,9.247,0,0,0-2.4-6.233,11.64,11.64,0,0,0-.943-15.258,10.742,10.742,0,0,0-8.089-12.595,8.616,8.616,0,0,0,.421-2.24Zm3-10.5a1.5,1.5,0,1,1-1.5,1.5A1.5,1.5,0,0,1,85.465,12Zm-7.5-7.5a1.5,1.5,0,1,1-1.5,1.5A1.5,1.5,0,0,1,77.968,4.5Zm0,83.965a1.5,1.5,0,1,1,1.5-1.5A1.5,1.5,0,0,1,77.968,88.463Zm7.5-7.5a1.5,1.5,0,1,1,1.5-1.5A1.5,1.5,0,0,1,85.465,80.966ZM6,82.466a3,3,0,0,1-3-3V13.494a3,3,0,0,1,3-3H40.483v71.97Zm40.483,4.5a1.5,1.5,0,1,1-3,0V6a1.5,1.5,0,0,1,3,0ZM77.831,35.3a8.037,8.037,0,0,1-.291,2.126A1.694,1.694,0,0,0,78,38.955,8.683,8.683,0,0,1,72.27,54.182a1.5,1.5,0,1,0,0,3,11.629,11.629,0,0,0,7.17-2.453,6.267,6.267,0,0,1,1.526,4.089,6.35,6.35,0,0,1-5.848,6.312,1.5,1.5,0,0,0-1.214,2.2,6.906,6.906,0,0,1,.8,3.245,7.13,7.13,0,0,1-7.122,7.122,1.5,1.5,0,0,0-1.382.922,8.7,8.7,0,1,1-8.02-12.031,1.5,1.5,0,0,0,0-3,11.652,11.652,0,0,0-8.7,3.9V38.438a3.206,3.206,0,0,1,3.2-3.2,1.5,1.5,0,0,0,0-3,6.147,6.147,0,0,0-3.2.918V14.932c0-.028.052-2.943,2.062-3.948,1.256-.63,4.171-.912,10.328,2.838a8.566,8.566,0,0,0-5.983,8.157,1.5,1.5,0,0,0,3,0,5.548,5.548,0,1,1,10.536,2.445A10.908,10.908,0,0,0,59.017,35.3a1.5,1.5,0,1,0,3,0,7.906,7.906,0,0,1,15.811,0Z"/>
            <path id="Path-6" data-name="Path" d="M8.4,13.794a1.5,1.5,0,0,0-1.8,2.4l4.4,3.3-4.4,3.3a1.5,1.5,0,1,0,1.8,2.4l6-4.5a1.5,1.5,0,0,0,0-2.4Z" fill-rule="evenodd"/>
            <path id="Path-7" data-name="Path" d="M19.492,25.489h6a1.5,1.5,0,1,0,0-3h-6a1.5,1.5,0,1,0,0,3Z" fill-rule="evenodd"/>
            <path id="Path-8" data-name="Path" d="M12,31.487H7.5a1.5,1.5,0,1,0,0,3H12a1.5,1.5,0,1,0,0-3Z" fill-rule="evenodd"/>
            <path id="Path-9" data-name="Path" d="M12,37.484H7.5a1.5,1.5,0,0,0,0,3H12a1.5,1.5,0,0,0,0-3Z" fill-rule="evenodd"/>
            <path id="Path-10" data-name="Path" d="M12,43.482H7.5a1.5,1.5,0,0,0,0,3H12a1.5,1.5,0,0,0,0-3Z" fill-rule="evenodd"/>
            <path id="Path-11" data-name="Path" d="M12,49.48H7.5a1.5,1.5,0,0,0,0,3H12a1.5,1.5,0,0,0,0-3Z" fill-rule="evenodd"/>
            <path id="Path-12" data-name="Path" d="M12,55.477H7.5a1.5,1.5,0,0,0,0,3H12a1.5,1.5,0,0,0,0-3Z" fill-rule="evenodd"/>
            <path id="Path-13" data-name="Path" d="M12,61.475H7.5a1.5,1.5,0,1,0,0,3H12a1.5,1.5,0,1,0,0-3Z" fill-rule="evenodd"/>
            <path id="Path-14" data-name="Path" d="M12,67.472H7.5a1.5,1.5,0,0,0,0,3H12a1.5,1.5,0,0,0,0-3Z" fill-rule="evenodd"/>
            <path id="Path-15" data-name="Path" d="M12,73.47H7.5a1.5,1.5,0,1,0,0,3H12a1.5,1.5,0,1,0,0-3Z" fill-rule="evenodd"/>
            <path id="Path-16" data-name="Path" d="M35.985,31.487H17.993a1.5,1.5,0,0,0,0,3H35.985a1.5,1.5,0,0,0,0-3Z" fill-rule="evenodd"/>
            <path id="Path-17" data-name="Path" d="M32.986,40.483a1.5,1.5,0,0,0,0-3h-12a1.5,1.5,0,0,0,0,3Z" fill-rule="evenodd"/>
            <path id="Path-18" data-name="Path" d="M35.985,43.482H17.993a1.5,1.5,0,0,0,0,3H35.985a1.5,1.5,0,0,0,0-3Z" fill-rule="evenodd"/>
            <path id="Path-19" data-name="Path" d="M32.986,52.478a1.5,1.5,0,0,0,0-3h-12a1.5,1.5,0,0,0,0,3Z" fill-rule="evenodd"/>
            <path id="Path-20" data-name="Path" d="M35.985,55.477H17.993a1.5,1.5,0,0,0,0,3H35.985a1.5,1.5,0,0,0,0-3Z" fill-rule="evenodd"/>
            <path id="Path-21" data-name="Path" d="M32.986,64.473a1.5,1.5,0,0,0,0-3h-12a1.5,1.5,0,1,0,0,3Z" fill-rule="evenodd"/>
            <path id="Path-22" data-name="Path" d="M35.985,67.472H17.993a1.5,1.5,0,0,0,0,3H35.985a1.5,1.5,0,0,0,0-3Z" fill-rule="evenodd"/>
            <path id="Path-23" data-name="Path" d="M32.986,73.47h-12a1.5,1.5,0,1,0,0,3h12a1.5,1.5,0,1,0,0-3Z" fill-rule="evenodd"/>
          </g>
        </g>
      </g>
    </g>
    <g id="Polígono_6" data-name="Polígono 6" transform="matrix(0.602, 0.799, -0.799, 0.602, 364.385, 4116.352)" fill="none">
      <path d="M16,0,32,28H0Z" stroke="none"/>
      <path d="M 15.99999904632568 6.046697616577148 L 5.169540405273438 25 L 26.83045768737793 25 L 15.99999904632568 6.046697616577148 M 15.99999904632568 0 L 32 28 L -1.9073486328125e-06 28 L 15.99999904632568 0 Z" stroke="none" fill="#ffd504"/>
    </g>
    <g id="Grupo_1103968" data-name="Grupo 1103968" transform="translate(349.332 4225)">
      <path id="Trazado_879073" data-name="Trazado 879073" d="M8.5,2.064,6.858.421l-2.4,2.4-2.4-2.4L.421,2.064l2.4,2.4-2.4,2.4L2.064,8.5l2.4-2.4,2.4,2.4L8.5,6.857l-2.4-2.4Z" transform="translate(-0.421 -0.421)" fill="#4f08c2"/>
    </g>
    <circle id="Elipse_11692" data-name="Elipse 11692" cx="3.5" cy="3.5" r="3.5" transform="translate(401.332 4144)" fill="#4f08c2"/>
  </g>
</svg>
