<svg xmlns="http://www.w3.org/2000/svg" xmlns:xlink="http://www.w3.org/1999/xlink" width="90.193" height="133.533" viewBox="0 0 90.193 133.533">
  <defs>
    <clipPath id="clip-path">
      <rect id="Rectángulo_404117" data-name="Rectángulo 404117" width="90" height="90" transform="translate(336.332 4154)" fill="#fff" stroke="#707070" stroke-width="1"/>
    </clipPath>
    <linearGradient id="linear-gradient" x2="1" gradientUnits="objectBoundingBox">
      <stop offset="0.197" stop-color="#fff8ba"/>
      <stop offset="0.803" stop-color="#f7bc6a"/>
    </linearGradient>
    <linearGradient id="linear-gradient-2" x2="1" gradientUnits="objectBoundingBox">
      <stop offset="0.197" stop-color="#cffaed"/>
      <stop offset="0.803" stop-color="#7ee8f7"/>
    </linearGradient>
    <linearGradient id="linear-gradient-3" x1="0.146" y1="0.146" x2="0.854" y2="0.854" xlink:href="#linear-gradient"/>
    <linearGradient id="linear-gradient-4" x1="0.146" y1="0.146" x2="0.854" y2="0.854" xlink:href="#linear-gradient-2"/>
  </defs>
  <g id="Grupo_1105586" data-name="Grupo 1105586" transform="translate(-336.139 -4110.468)">
    <rect id="Rectángulo_404116" data-name="Rectángulo 404116" width="59" height="111" rx="29.5" transform="translate(349.332 4133)" fill="#005dff"/>
    <g id="Enmascarar_grupo_1098908" data-name="Enmascarar grupo 1098908" clip-path="url(#clip-path)">
      <g id="lectura" transform="translate(326.496 4145.816)">
        <path id="Trazado_881127" data-name="Trazado 881127" d="M45.781,50.668H88.915V90.927H45.781Z" fill="url(#linear-gradient)"/>
        <path id="Trazado_881128" data-name="Trazado 881128" d="M87.477,37.074V33.415H79.569v3.422a11.972,11.972,0,0,0-4.141,2.229l-3.185-1.84L68.29,44.076l2.969,1.711a11.774,11.774,0,0,0-.316,2.725,11.9,11.9,0,0,0,.165,1.977L67.93,52.322l3.954,6.851,2.976-1.718a12.1,12.1,0,0,0,3.99,2.495v3.659h7.908V60.187A11.972,11.972,0,0,0,90.9,57.958l3.185,1.84,3.954-6.851-2.969-1.711a11.774,11.774,0,0,0,.316-2.725,11.9,11.9,0,0,0-.165-1.977L98.4,44.7,94.443,37.85l-2.976,1.718a12.1,12.1,0,0,0-3.99-2.495Z" fill="url(#linear-gradient-2)"/>
        <path id="Trazado_881129" data-name="Trazado 881129" d="M86.758,65.047H78.85a1.438,1.438,0,0,1-1.438-1.438V60.9a13.426,13.426,0,0,1-2.721-1.689L72.6,60.418a1.438,1.438,0,0,1-1.964-.527l-3.954-6.851a1.438,1.438,0,0,1,.527-1.964l2.348-1.355q-.055-.6-.055-1.21a13.354,13.354,0,0,1,.149-1.99l-2.081-1.2a1.438,1.438,0,0,1-.527-1.964L71,36.506a1.438,1.438,0,0,1,1.965-.526l2.354,1.36a13.308,13.308,0,0,1,2.814-1.523v-2.4a1.438,1.438,0,0,1,1.438-1.438h7.908a1.438,1.438,0,0,1,1.438,1.438v2.708a13.427,13.427,0,0,1,2.721,1.689l2.089-1.206a1.438,1.438,0,0,1,1.964.527l3.954,6.851a1.438,1.438,0,0,1-.527,1.964L96.768,47.3q.055.6.055,1.21a13.354,13.354,0,0,1-.149,1.99l2.081,1.2a1.438,1.438,0,0,1,.527,1.964l-3.954,6.851a1.438,1.438,0,0,1-1.965.526l-2.354-1.36A13.309,13.309,0,0,1,88.2,61.207v2.4a1.438,1.438,0,0,1-1.438,1.438Zm-6.47-2.876h5.032V60.187a1.438,1.438,0,0,1,1.018-1.375,10.491,10.491,0,0,0,3.644-1.961,1.438,1.438,0,0,1,1.636-.137l1.939,1.121,2.516-4.359-1.723-.993A1.438,1.438,0,0,1,93.67,50.9a10.356,10.356,0,0,0,.277-2.392,10.489,10.489,0,0,0-.145-1.738,1.438,1.438,0,0,1,.7-1.484l1.932-1.115-2.516-4.36-1.731,1a1.438,1.438,0,0,1-1.706-.2,10.6,10.6,0,0,0-3.516-2.2,1.438,1.438,0,0,1-.925-1.343V34.853H81.007v1.984a1.438,1.438,0,0,1-1.018,1.375,10.491,10.491,0,0,0-3.644,1.961,1.438,1.438,0,0,1-1.636.137L72.77,39.19l-2.516,4.359,1.723.993a1.438,1.438,0,0,1,.681,1.578,10.357,10.357,0,0,0-.277,2.392,10.49,10.49,0,0,0,.145,1.738,1.438,1.438,0,0,1-.7,1.484l-1.932,1.115,2.516,4.36,1.731-1a1.438,1.438,0,0,1,1.706.2,10.6,10.6,0,0,0,3.516,2.2,1.438,1.438,0,0,1,.925,1.343Z"/>
        <circle id="Elipse_11876" data-name="Elipse 11876" cx="4.313" cy="4.313" r="4.313" transform="translate(78.85 44.198)" fill="url(#linear-gradient-3)"/>
        <path id="Trazado_881130" data-name="Trazado 881130" d="M83.164,54.263a5.751,5.751,0,1,1,5.751-5.751A5.758,5.758,0,0,1,83.164,54.263Zm0-8.627a2.876,2.876,0,1,0,2.876,2.876A2.879,2.879,0,0,0,83.164,45.636Z"/>
        <g id="Grupo_1105592" data-name="Grupo 1105592">
          <path id="Trazado_881131" data-name="Trazado 881131" d="M88.915,92.365H58.721a1.438,1.438,0,1,1,0-2.876H87.477V67.922a1.438,1.438,0,0,1,2.876,0v23A1.438,1.438,0,0,1,88.915,92.365Z"/>
          <path id="Trazado_881132" data-name="Trazado 881132" d="M83.164,84.457H62.316a1.438,1.438,0,0,1,0-2.876H83.164a1.438,1.438,0,0,1,0,2.876Zm0-8.627H70.224a1.438,1.438,0,1,1,0-2.876h12.94a1.438,1.438,0,0,1,0,2.876ZM74.537,67.2H68.786a1.438,1.438,0,0,1,0-2.876h5.751a1.438,1.438,0,0,1,0,2.876Z"/>
        </g>
        <circle id="Elipse_11877" data-name="Elipse 11877" cx="9.346" cy="9.346" r="9.346" transform="translate(17.743 32.696)" fill="url(#linear-gradient-4)"/>
        <path id="Trazado_881133" data-name="Trazado 881133" d="M27.089,52.825a10.754,10.754,0,1,1,4.2-.848,10.718,10.718,0,0,1-4.2.848Zm0-18.692A7.908,7.908,0,1,0,35,42.042a7.917,7.917,0,0,0-7.908-7.908Z"/>
        <g id="Grupo_1105593" data-name="Grupo 1105593">
          <path id="Trazado_881134" data-name="Trazado 881134" d="M40.806,22.689a1.433,1.433,0,0,1-1.017-.421L38,20.474H32.84a1.438,1.438,0,0,1-1.017-.421l-5.032-5.032a1.438,1.438,0,0,1,2.033-2.033L33.436,17.6h5.156a1.438,1.438,0,0,1,1.017.421l2.214,2.214a1.438,1.438,0,0,1-1.017,2.454ZM19.951,66.535a1.433,1.433,0,0,1-1.017-.421l-3.645-3.645a1.438,1.438,0,0,1-.421-1.017V56.3l-4.611-4.611a1.438,1.438,0,0,1,2.033-2.033l5.032,5.032a1.438,1.438,0,0,1,.421,1.017v5.156l3.224,3.224a1.438,1.438,0,0,1-1.017,2.454ZM17.743,43.479a1.433,1.433,0,0,1-1.017-.421l-6.47-6.47a1.438,1.438,0,0,1,2.033-2.033l6.47,6.47a1.438,1.438,0,0,1-1.017,2.454Zm8.986-9.705a1.433,1.433,0,0,1-1.017-.421L18.165,25.8A1.438,1.438,0,1,1,20.2,23.771l7.549,7.549a1.438,1.438,0,0,1-1.017,2.454Z"/>
        </g>
        <path id="Trazado_881135" data-name="Trazado 881135" d="M46.457,90.251l5.435-5.435-3.235-5.392h5.73a1.46,1.46,0,0,0,1.459-1.459V76.01a1.62,1.62,0,0,1,1.618-1.618H61.6c1.438,0,1.438-.719,1.438-1.438,0-1.669-1.467-4.177-2.336-6.391a10.519,10.519,0,0,1,1.064-9.669s2.71-2.61,2.71-12.7c0-25.162-21.567-26.6-21.567-26.6L36.83,29.6A15.805,15.805,0,0,1,22.84,57.275L21.1,60.712A12.5,12.5,0,0,0,19.95,65.1a12.872,12.872,0,0,0,3.386,9.849l15.3,15.306c1.395,1.395,2.272,2.114,3.911,2.114s2.516-.719,3.911-2.114Z" fill="url(#linear-gradient-2)"/>
        <path id="Trazado_881136" data-name="Trazado 881136" d="M42.546,93.8c-2.221,0-3.443-1.051-4.928-2.535L22.32,75.962l-.03-.031a14.286,14.286,0,0,1-3.772-10.948A13.894,13.894,0,0,1,19.8,60.1l.018-.036,1.74-3.436a1.438,1.438,0,0,1,1.673-.734,14.218,14.218,0,0,0,3.859.528,14.363,14.363,0,0,0,8.855-25.683,1.438,1.438,0,0,1-.4-1.782L41.622,16.95A1.438,1.438,0,0,1,43,16.164a26.283,26.283,0,0,1,11.472,4.093,23.567,23.567,0,0,1,7.89,8.476A31.766,31.766,0,0,1,65.91,44.2a32.6,32.6,0,0,1-1.438,10.61A9.17,9.17,0,0,1,62.9,57.781a9.1,9.1,0,0,0-.862,8.258c.246.627.556,1.307.855,1.964a13.251,13.251,0,0,1,1.58,4.951,3.066,3.066,0,0,1-.421,1.786A2.741,2.741,0,0,1,61.6,75.83H57.463a.182.182,0,0,0-.18.18v1.955a2.9,2.9,0,0,1-2.9,2.9H51.2l1.929,3.214a1.438,1.438,0,0,1-.216,1.756l-5.435,5.435C45.989,92.752,44.767,93.8,42.546,93.8ZM24.369,73.945l15.283,15.29c1.311,1.311,1.85,1.692,2.894,1.692s1.583-.381,2.894-1.692l1.017,1.017L45.44,89.235l4.641-4.641-2.657-4.429a1.438,1.438,0,0,1,1.233-2.178h5.73a.023.023,0,0,0,.022-.022V76.01a3.059,3.059,0,0,1,3.055-3.055H61.6A12.546,12.546,0,0,0,60.275,69.2c-.315-.692-.641-1.408-.915-2.106v0A11.957,11.957,0,0,1,60.566,56.1a.9.9,0,0,1,.182-.223,7.376,7.376,0,0,0,1.127-2.36A30.5,30.5,0,0,0,63.035,44.2c0-9.917-3.408-17.161-10.129-21.53a24.181,24.181,0,0,0-9.173-3.52l-5.1,10.089a17.41,17.41,0,0,1,3.912,5.132A17.254,17.254,0,0,1,23.608,58.942l-1.215,2.4a11.03,11.03,0,0,0-1.009,3.864v.008a11.408,11.408,0,0,0,2.986,8.732Z"/>
        <path id="Trazado_881137" data-name="Trazado 881137" d="M53.326,61.815a1.433,1.433,0,0,1-1.017-.421l-5.935-5.935A1.438,1.438,0,0,1,47.391,53h8.642a1.438,1.438,0,1,1,0,2.876H50.862l3.48,3.48a1.438,1.438,0,0,1-1.017,2.454Z"/>
      </g>
    </g>
    <g id="Polígono_6" data-name="Polígono 6" transform="matrix(0.602, 0.799, -0.799, 0.602, 364.385, 4116.352)" fill="none">
      <path d="M16,0,32,28H0Z" stroke="none"/>
      <path d="M 15.99999904632568 6.046697616577148 L 5.169540405273438 25 L 26.83045768737793 25 L 15.99999904632568 6.046697616577148 M 15.99999904632568 0 L 32 28 L -1.9073486328125e-06 28 L 15.99999904632568 0 Z" stroke="none" fill="#ffd504"/>
    </g>
    <g id="Grupo_1103968" data-name="Grupo 1103968" transform="translate(349.332 4225)">
      <path id="Trazado_879073" data-name="Trazado 879073" d="M8.5,2.064,6.858.421l-2.4,2.4-2.4-2.4L.421,2.064l2.4,2.4-2.4,2.4L2.064,8.5l2.4-2.4,2.4,2.4L8.5,6.857l-2.4-2.4Z" transform="translate(-0.421 -0.421)" fill="#4f08c2"/>
    </g>
    <circle id="Elipse_11692" data-name="Elipse 11692" cx="3.5" cy="3.5" r="3.5" transform="translate(401.332 4144)" fill="#4f08c2"/>
  </g>
</svg>
