<svg xmlns="http://www.w3.org/2000/svg" xmlns:xlink="http://www.w3.org/1999/xlink" width="90.193" height="133.533" viewBox="0 0 90.193 133.533">
  <defs>
    <clipPath id="clip-path">
      <rect id="Rectángulo_404117" data-name="Rectángulo 404117" width="90" height="90" transform="translate(336.332 4154)" fill="#fff" stroke="#707070" stroke-width="1"/>
    </clipPath>
  </defs>
  <g id="Grupo_1105531" data-name="Grupo 1105531" transform="translate(-336.139 -4110.467)">
    <rect id="Rectángulo_404116" data-name="Rectángulo 404116" width="59" height="111" rx="29.5" transform="translate(349.332 4133)" fill="#79d3fe"/>
    <g id="Enmascarar_grupo_1098910" data-name="Enmascarar grupo 1098910" clip-path="url(#clip-path)">
      <g id="ambiguedad" transform="translate(334.881 4152.549)">
        <g id="Grupo_1105602" data-name="Grupo 1105602">
          <g id="Grupo_1105597" data-name="Grupo 1105597">
            <path id="Trazado_881138" data-name="Trazado 881138" d="M83.54,52.911V57.93L77.394,60.3a31.652,31.652,0,0,1-3.843,9.268l2.675,6.023-7.1,7.1-6.021-2.674a31.651,31.651,0,0,1-9.271,3.843L51.471,90H41.432l-2.366-6.146A31.659,31.659,0,0,1,29.8,80.011l-6.023,2.675-7.1-7.1,2.674-6.021A31.656,31.656,0,0,1,15.507,60.3L9.363,57.93V52.911H27.414a19.038,19.038,0,0,0,38.075,0Z" fill="#ffe177" fill-rule="evenodd"/>
            <path id="Trazado_881139" data-name="Trazado 881139" d="M83.54,52.911V57.93L77.394,60.3a31.657,31.657,0,0,1-3.843,9.268l2.675,6.023-7.1,7.1-1.893-.841,6.258-6.258-2.675-6.023A31.657,31.657,0,0,0,74.66,60.3l6.146-2.366V52.911ZM29.8,80.011l-6.023,2.675-.841-.841L28.62,79.32Q29.2,79.678,29.8,80.011Zm33.309,0a31.651,31.651,0,0,1-9.271,3.843L51.471,90H48.737L51.1,83.855a40.72,40.72,0,0,0,10.449-4.534Z" fill="#ffd064" fill-rule="evenodd"/>
          </g>
          <g id="Grupo_1105598" data-name="Grupo 1105598">
            <path id="Trazado_881140" data-name="Trazado 881140" d="M23.3,27.311l8.409-7.14a.518.518,0,0,1,.854.4V24.01H55.354V31.4H32.563v3.442a.518.518,0,0,1-.854.4L23.3,28.1a.518.518,0,0,1,0-.791Z" fill="#fe646f" fill-rule="evenodd"/>
            <path id="Trazado_881141" data-name="Trazado 881141" d="M23.3,27.311l.6-.512,7.806,6.628a.518.518,0,0,0,.854-.4v1.815a.518.518,0,0,1-.854.4L23.3,28.1a.518.518,0,0,1,0-.79Zm32.055,2.278H32.563V31.4H55.354V29.589Z" fill="#fd4755" fill-rule="evenodd"/>
          </g>
          <g id="Grupo_1105599" data-name="Grupo 1105599">
            <path id="Trazado_881142" data-name="Trazado 881142" d="M43.757,2.9h5.388a1.092,1.092,0,0,1,1.089,1.089V60.08a1.092,1.092,0,0,1-1.089,1.089H43.757a1.092,1.092,0,0,1-1.089-1.089V3.992A1.092,1.092,0,0,1,43.757,2.9Z" fill="#e3a76f" fill-rule="evenodd"/>
            <path id="Trazado_881143" data-name="Trazado 881143" d="M47.331,2.9h1.815a1.092,1.092,0,0,1,1.089,1.089V60.08a1.092,1.092,0,0,1-1.089,1.089H47.331A1.092,1.092,0,0,0,48.42,60.08V3.992A1.092,1.092,0,0,0,47.331,2.9Z" fill="#c48958" fill-rule="evenodd"/>
          </g>
          <g id="Grupo_1105600" data-name="Grupo 1105600">
            <path id="Trazado_881144" data-name="Trazado 881144" d="M69.6,11.673l-8.409-7.14a.518.518,0,0,0-.854.4V8.371H37.548v7.394H60.34v3.443a.518.518,0,0,0,.854.4l8.409-7.14A.518.518,0,0,0,69.6,11.673Z" fill="#6cf5c2" fill-rule="evenodd"/>
            <path id="Trazado_881145" data-name="Trazado 881145" d="M69.6,11.673,69,11.16l-7.806,6.628a.518.518,0,0,1-.854-.4v1.815a.518.518,0,0,0,.854.4l8.409-7.14A.518.518,0,0,0,69.6,11.673ZM37.548,13.95H60.34v1.815H37.548Z" fill="#00e499" fill-rule="evenodd"/>
          </g>
          <g id="Grupo_1105601" data-name="Grupo 1105601">
            <path id="Trazado_881146" data-name="Trazado 881146" d="M69.6,42.95l-8.409-7.14a.518.518,0,0,0-.854.4v3.442H37.548v7.394H60.34v3.442a.518.518,0,0,0,.854.4l8.409-7.14A.518.518,0,0,0,69.6,42.95Z" fill="#6cf5c2" fill-rule="evenodd"/>
            <path id="Trazado_881147" data-name="Trazado 881147" d="M69.6,42.95l-.6-.512-7.806,6.628a.518.518,0,0,1-.854-.4v1.815a.518.518,0,0,0,.854.4l8.409-7.14a.518.518,0,0,0,0-.79ZM37.548,45.228H60.34v1.815H37.548Z" fill="#00e499" fill-rule="evenodd"/>
          </g>
        </g>
        <path id="Trazado_881148" data-name="Trazado 881148" d="M31.111,22.584V24.01a1.451,1.451,0,0,0,1.452,1.452h8.654v4.493H32.563a1.451,1.451,0,0,0-1.452,1.452v1.426l-6.034-5.124Zm17.671-5.366V38.2H44.12V17.218ZM39,9.824H60.34a1.453,1.453,0,0,0,1.452-1.452V6.944l6.034,5.124-6.034,5.124V15.766a1.452,1.452,0,0,0-1.452-1.452H39Zm5.12-5.469h4.662V6.921H44.12ZM53.9,25.461v4.493H51.685V25.461ZM60.34,41.1a1.452,1.452,0,0,0,1.452-1.452V38.223l6.034,5.124-6.034,5.124V47.043a1.453,1.453,0,0,0-1.452-1.452H39V41.1H60.34ZM48.782,59.717H44.12V48.495h4.662ZM22.36,29.21l8.409,7.138a1.953,1.953,0,0,0,1.271.474,1.992,1.992,0,0,0,.832-.185,1.953,1.953,0,0,0,1.143-1.789v-1.99h7.2V38.2H37.548A1.452,1.452,0,0,0,36.1,39.649v7.394a1.451,1.451,0,0,0,1.452,1.452h3.669V61.169a1.451,1.451,0,0,0,1.452,1.452h7.566a1.451,1.451,0,0,0,1.452-1.452V48.495h7.2v1.992a1.949,1.949,0,0,0,1.142,1.787,1.953,1.953,0,0,0,2.1-.287l8.409-7.138a1.971,1.971,0,0,0,0-3L62.134,34.7a1.97,1.97,0,0,0-3.245,1.5V38.2h-7.2v-5.34h3.669a1.453,1.453,0,0,0,1.452-1.452v-7.4a1.453,1.453,0,0,0-1.452-1.452H51.686V17.218h7.2v1.991A1.953,1.953,0,0,0,60.031,21a2,2,0,0,0,.833.185,1.961,1.961,0,0,0,1.27-.472l8.408-7.14a1.97,1.97,0,0,0,0-3L62.134,3.428a1.97,1.97,0,0,0-3.246,1.5V6.921h-7.2V2.9a1.453,1.453,0,0,0-1.452-1.452H42.669A1.453,1.453,0,0,0,41.217,2.9V6.921H37.548A1.451,1.451,0,0,0,36.1,8.372v7.394a1.452,1.452,0,0,0,1.452,1.452h3.669v5.34h-7.2v-1.99a1.971,1.971,0,0,0-3.245-1.5l-8.409,7.14a1.972,1.972,0,0,0,0,3.005ZM82.088,56.934V54.363H66.89a20.49,20.49,0,0,1-40.876,0h-15.2v2.571l5.215,2.009a1.446,1.446,0,0,1,.891,1.018,30.151,30.151,0,0,0,3.667,8.846,1.452,1.452,0,0,1,.09,1.35l-2.27,5.109,5.689,5.69,5.112-2.272a1.454,1.454,0,0,1,1.35.091A30.163,30.163,0,0,0,39.4,82.442a1.451,1.451,0,0,1,1.018.891l2.008,5.215h8.046l2.007-5.215a1.449,1.449,0,0,1,1.018-.889,30.166,30.166,0,0,0,8.846-3.667,1.448,1.448,0,0,1,1.35-.091l5.11,2.27,5.689-5.69-2.271-5.111a1.452,1.452,0,0,1,.091-1.35,30.169,30.169,0,0,0,3.666-8.844,1.452,1.452,0,0,1,.891-1.018ZM83.54,51.46H65.489a1.452,1.452,0,0,0-1.452,1.452,17.586,17.586,0,1,1-35.171,0,1.453,1.453,0,0,0-1.452-1.452H9.363a1.452,1.452,0,0,0-1.452,1.452v5.021a1.451,1.451,0,0,0,.93,1.354l5.441,2.094a33.032,33.032,0,0,0,3.435,8.289L15.35,75a1.451,1.451,0,0,0,.3,1.615l7.1,7.1a1.453,1.453,0,0,0,1.616.3l5.334-2.37a33.023,33.023,0,0,0,8.284,3.435l2.1,5.443a1.449,1.449,0,0,0,1.354.929H51.471a1.45,1.45,0,0,0,1.355-.929L54.92,85.08a33.071,33.071,0,0,0,8.287-3.435l5.332,2.368a1.453,1.453,0,0,0,1.615-.3l7.1-7.1a1.451,1.451,0,0,0,.3-1.615l-2.369-5.335a33,33,0,0,0,3.435-8.283l5.443-2.1a1.45,1.45,0,0,0,.93-1.354V52.911A1.452,1.452,0,0,0,83.54,51.46Z" fill-rule="evenodd"/>
      </g>
    </g>
    <g id="Polígono_6" data-name="Polígono 6" transform="matrix(0.602, 0.799, -0.799, 0.602, 364.385, 4116.352)" fill="none">
      <path d="M16,0,32,28H0Z" stroke="none"/>
      <path d="M 15.99999904632568 6.046697616577148 L 5.169540405273438 25 L 26.83045768737793 25 L 15.99999904632568 6.046697616577148 M 15.99999904632568 0 L 32 28 L -1.9073486328125e-06 28 L 15.99999904632568 0 Z" stroke="none" fill="#ffd504"/>
    </g>
    <g id="Grupo_1103968" data-name="Grupo 1103968" transform="translate(349.332 4190.92)">
      <path id="Trazado_879073" data-name="Trazado 879073" d="M8.5,2.064,6.858.421l-2.4,2.4-2.4-2.4L.421,2.064l2.4,2.4-2.4,2.4L2.064,8.5l2.4-2.4,2.4,2.4L8.5,6.857l-2.4-2.4Z" transform="translate(-0.421 -0.421)" fill="#4f08c2"/>
    </g>
    <circle id="Elipse_11692" data-name="Elipse 11692" cx="3.5" cy="3.5" r="3.5" transform="translate(401.332 4144)" fill="#4f08c2"/>
  </g>
</svg>
