<svg xmlns="http://www.w3.org/2000/svg" xmlns:xlink="http://www.w3.org/1999/xlink" width="85" height="85" viewBox="0 0 85 85">
  <defs>
    <clipPath id="clip-path">
      <rect id="Rectángulo_405020" data-name="Rectángulo 405020" width="52" height="52" transform="translate(301.855 4780.236)" fill="#fff" stroke="#707070" stroke-width="1"/>
    </clipPath>
  </defs>
  <g id="Grupo_1105651" data-name="Grupo 1105651" transform="translate(-285.145 -4763.736)">
    <g id="Grupo_156312" data-name="Grupo 156312" transform="translate(285.145 4763.736)">
      <path id="Elipse_5845" data-name="Elipse 5845" d="M42.5,0A42.5,42.5,0,1,1,0,42.5,42.5,42.5,0,0,1,42.5,0Z" transform="translate(0 0)" fill="#4f08c2"/>
    </g>
    <g id="Enmascarar_grupo_1098925" data-name="Enmascarar grupo 1098925" clip-path="url(#clip-path)">
      <g id="conexion" transform="translate(300.679 4778.99)">
        <g id="Grupo_1105649" data-name="Grupo 1105649">
          <path id="Trazado_881270" data-name="Trazado 881270" d="M33.908,48.077H19.188a2.922,2.922,0,0,1-2.918-2.918V43.22a7.149,7.149,0,0,1,7.141-7.141h6.274a7.149,7.149,0,0,1,7.141,7.141v1.939A2.922,2.922,0,0,1,33.908,48.077Zm-10.5-10.4a5.553,5.553,0,0,0-5.546,5.546v1.939a1.325,1.325,0,0,0,1.324,1.324h14.72a1.325,1.325,0,0,0,1.324-1.324V43.22a5.553,5.553,0,0,0-5.546-5.546Z" fill="#fff"/>
          <g id="Grupo_1105647" data-name="Grupo 1105647">
            <circle id="Elipse_11901" data-name="Elipse 11901" cx="1.215" cy="1.215" r="1.215" transform="translate(20.785 40.71)" fill="#fff"/>
            <circle id="Elipse_11902" data-name="Elipse 11902" cx="1.215" cy="1.215" r="1.215" transform="translate(29.88 40.71)" fill="#fff"/>
          </g>
          <g id="Grupo_1105648" data-name="Grupo 1105648">
            <path id="Trazado_881271" data-name="Trazado 881271" d="M24.133,31.381h4.829a12.077,12.077,0,0,1,11.02,7.135h.754A2.468,2.468,0,0,1,43.2,40.981v3.493a2.468,2.468,0,0,1-2.416,2.465,7.451,7.451,0,0,1-7.2,5.53H19.509a7.451,7.451,0,0,1-7.2-5.53,2.468,2.468,0,0,1-2.416-2.465V40.981a2.468,2.468,0,0,1,2.465-2.465h.754a12.077,12.077,0,0,1,11.02-7.135Zm15.328,8.753a.8.8,0,0,1-.742-.506,10.421,10.421,0,0,0-9.757-6.652H24.133a10.421,10.421,0,0,0-9.757,6.652.8.8,0,0,1-.873.5.893.893,0,0,0-.146-.012h-1a.871.871,0,0,0-.87.87v3.493a.871.871,0,0,0,.87.87h.593a.8.8,0,0,1,.786.664,5.834,5.834,0,0,0,5.77,4.866H33.586a5.834,5.834,0,0,0,5.77-4.866.8.8,0,0,1,.786-.664h.593a.871.871,0,0,0,.87-.87V40.981a.871.871,0,0,0-.87-.87h-1a.882.882,0,0,0-.145.012A.8.8,0,0,1,39.462,40.134Z" fill="#fff"/>
            <path id="Trazado_881272" data-name="Trazado 881272" d="M39.741,42.876a.8.8,0,0,1-.8-.777,19.279,19.279,0,0,0-.267-2.617.8.8,0,0,1,1.568-.289,20.576,20.576,0,0,1,.293,2.866.8.8,0,0,1-.777.818Z" fill="#fff"/>
            <path id="Trazado_881273" data-name="Trazado 881273" d="M13.354,42.876h-.021a.8.8,0,0,1-.777-.818,20.574,20.574,0,0,1,.293-2.866.8.8,0,0,1,1.568.289h0a19.28,19.28,0,0,0-.267,2.617A.8.8,0,0,1,13.354,42.876Z" fill="#fff"/>
          </g>
        </g>
        <g id="Grupo_1105650" data-name="Grupo 1105650">
          <path id="Elipse_11903" data-name="Elipse 11903" d="M1.827-.8A2.625,2.625,0,1,1-.8,1.827,2.628,2.628,0,0,1,1.827-.8Zm0,3.654A1.03,1.03,0,1,0,.8,1.827,1.031,1.031,0,0,0,1.827,2.857Z" transform="translate(1.974 17.785)" fill="#fff"/>
          <path id="Elipse_11904" data-name="Elipse 11904" d="M1.827-.8A2.625,2.625,0,1,1-.8,1.827,2.628,2.628,0,0,1,1.827-.8Zm0,3.654A1.03,1.03,0,1,0,.8,1.827,1.031,1.031,0,0,0,1.827,2.857Z" transform="translate(24.721 22.533)" fill="#fff"/>
          <path id="Elipse_11905" data-name="Elipse 11905" d="M1.827-.8A2.625,2.625,0,1,1-.8,1.827,2.628,2.628,0,0,1,1.827-.8Zm0,3.654A1.03,1.03,0,1,0,.8,1.827,1.031,1.031,0,0,0,1.827,2.857Z" transform="translate(13.952 12.585)" fill="#fff"/>
          <path id="Elipse_11906" data-name="Elipse 11906" d="M1.827-.8A2.625,2.625,0,1,1-.8,1.827,2.628,2.628,0,0,1,1.827-.8Zm0,3.654A1.03,1.03,0,1,0,.8,1.827,1.031,1.031,0,0,0,1.827,2.857Z" transform="translate(17.317 2.822)" fill="#fff"/>
          <path id="Elipse_11907" data-name="Elipse 11907" d="M1.827-.8A2.625,2.625,0,1,1-.8,1.827,2.628,2.628,0,0,1,1.827-.8Zm0,3.654A1.03,1.03,0,1,0,.8,1.827,1.031,1.031,0,0,0,1.827,2.857Z" transform="translate(29.529 9.431)" fill="#fff"/>
          <path id="Elipse_11908" data-name="Elipse 11908" d="M1.827-.8A2.625,2.625,0,1,1-.8,1.827,2.628,2.628,0,0,1,1.827-.8Zm0,3.654A1.03,1.03,0,1,0,.8,1.827,1.031,1.031,0,0,0,1.827,2.857Z" transform="translate(39.177 16.785)" fill="#fff"/>
          <path id="Elipse_11909" data-name="Elipse 11909" d="M1.827-.8A2.625,2.625,0,1,1-.8,1.827,2.628,2.628,0,0,1,1.827-.8Zm0,3.654A1.03,1.03,0,1,0,.8,1.827,1.031,1.031,0,0,0,1.827,2.857Z" transform="translate(41.69 8.384)" fill="#fff"/>
          <path id="Elipse_11910" data-name="Elipse 11910" d="M1.827-.8A2.625,2.625,0,1,1-.8,1.827,2.628,2.628,0,0,1,1.827-.8Zm0,3.654A1.03,1.03,0,1,0,.8,1.827,1.031,1.031,0,0,0,1.827,2.857Z" transform="translate(48.725 23.848)" fill="#fff"/>
          <path id="Trazado_881274" data-name="Trazado 881274" d="M24.536,24.851a.8.8,0,0,1-.172-.019L5.538,20.682a.8.8,0,0,1,.343-1.558l18.826,4.15a.8.8,0,0,1-.171,1.576Z" fill="#fff"/>
          <path id="Trazado_881275" data-name="Trazado 881275" d="M5.477,19.682a.8.8,0,0,1-.318-1.529l8.475-3.679a.8.8,0,1,1,.635,1.463L5.795,19.616A.8.8,0,0,1,5.477,19.682Z" fill="#fff"/>
          <path id="Trazado_881276" data-name="Trazado 881276" d="M24.973,23.89a.8.8,0,0,1-.556-.226l-7.6-7.4a.8.8,0,1,1,1.112-1.143l7.6,7.4a.8.8,0,0,1-.556,1.369Z" fill="#fff"/>
          <path id="Trazado_881277" data-name="Trazado 881277" d="M48.953,25.322a.794.794,0,0,1-.465-.15l-6.434-4.631a.8.8,0,0,1,.932-1.294l6.434,4.631a.8.8,0,0,1-.467,1.445Z" fill="#fff"/>
          <path id="Trazado_881278" data-name="Trazado 881278" d="M39.354,18.152a.794.794,0,0,1-.483-.163l-6.452-4.918a.8.8,0,0,1,.967-1.268l6.452,4.918a.8.8,0,0,1-.484,1.432Z" fill="#fff"/>
          <path id="Trazado_881279" data-name="Trazado 881279" d="M41.595,17.436a.8.8,0,0,1-.764-1.026l1.313-4.389a.8.8,0,0,1,1.528.457l-1.313,4.389A.8.8,0,0,1,41.595,17.436Z" fill="#fff"/>
          <path id="Trazado_881280" data-name="Trazado 881280" d="M33.335,11.885a.8.8,0,0,1-.067-1.592l8.185-.7a.8.8,0,1,1,.137,1.589l-8.185.7Z" fill="#fff"/>
          <path id="Trazado_881281" data-name="Trazado 881281" d="M17.715,14.817a.8.8,0,0,1-.157-1.579l11.707-2.37a.8.8,0,0,1,.317,1.563L17.874,14.8A.8.8,0,0,1,17.715,14.817Z" fill="#fff"/>
          <path id="Trazado_881282" data-name="Trazado 881282" d="M29.679,11.148a.794.794,0,0,1-.379-.1l-8.8-4.76a.8.8,0,1,1,.759-1.4l8.8,4.76a.8.8,0,0,1-.38,1.5Z" fill="#fff"/>
          <path id="Trazado_881283" data-name="Trazado 881283" d="M16.418,13.356a.8.8,0,0,1-.754-1.058l2.041-5.922a.8.8,0,0,1,1.508.52l-2.041,5.922A.8.8,0,0,1,16.418,13.356Z" fill="#fff"/>
          <path id="Trazado_881284" data-name="Trazado 881284" d="M27.291,23.331a.8.8,0,0,1-.753-1.062L29.8,12.977A.8.8,0,1,1,31.3,13.5L28.043,22.8A.8.8,0,0,1,27.291,23.331Z" fill="#fff"/>
          <path id="Trazado_881285" data-name="Trazado 881285" d="M28.526,24.546a.8.8,0,0,1-.315-1.53L38.847,18.45a.8.8,0,0,1,.629,1.466L28.84,24.482A.8.8,0,0,1,28.526,24.546Z" fill="#fff"/>
          <path id="Trazado_881286" data-name="Trazado 881286" d="M39.354,18.152a.794.794,0,0,1-.483-.163l-6.452-4.918a.8.8,0,0,1,.967-1.268l6.452,4.918a.8.8,0,0,1-.484,1.432Z" fill="#fff"/>
          <path id="Trazado_881287" data-name="Trazado 881287" d="M26.548,32.976a.8.8,0,0,1-.8-.8V26.188a.8.8,0,0,1,1.595,0v5.991A.8.8,0,0,1,26.548,32.976Z" fill="#fff"/>
          <path id="Trazado_881288" data-name="Trazado 881288" d="M6.063,40.55a.8.8,0,0,1-.681-.381A24.87,24.87,0,0,1,2.441,21.385a.8.8,0,0,1,1.55.375A23.275,23.275,0,0,0,6.743,39.336a.8.8,0,0,1-.679,1.214Z" fill="#fff"/>
          <path id="Trazado_881289" data-name="Trazado 881289" d="M4.5,18.519A.8.8,0,0,1,3.772,17.4a24.888,24.888,0,0,1,13.063-13,.8.8,0,0,1,.625,1.467A23.146,23.146,0,0,0,5.236,18.038.8.8,0,0,1,4.5,18.519Z" fill="#fff"/>
          <path id="Trazado_881290" data-name="Trazado 881290" d="M42.041,9.7a.794.794,0,0,1-.515-.189A23.257,23.257,0,0,0,21.156,4.659a.8.8,0,0,1-.369-1.552,24.767,24.767,0,0,1,21.77,5.185A.8.8,0,0,1,42.041,9.7Z" fill="#fff"/>
          <path id="Trazado_881291" data-name="Trazado 881291" d="M50.273,24.371a.8.8,0,0,1-.787-.677,23.122,23.122,0,0,0-5.249-11.48.8.8,0,0,1,1.215-1.033,24.716,24.716,0,0,1,5.611,12.271.8.8,0,0,1-.789.918Z" fill="#fff"/>
          <path id="Trazado_881292" data-name="Trazado 881292" d="M47.174,40.319a.8.8,0,0,1-.684-1.206A23.192,23.192,0,0,0,49.745,27.9a.8.8,0,0,1,1.594.045,24.79,24.79,0,0,1-3.48,11.981A.8.8,0,0,1,47.174,40.319Z" fill="#fff"/>
        </g>
      </g>
    </g>
  </g>
</svg>
