<svg xmlns="http://www.w3.org/2000/svg" xmlns:xlink="http://www.w3.org/1999/xlink" width="90.193" height="133.533" viewBox="0 0 90.193 133.533">
  <defs>
    <clipPath id="clip-path">
      <rect id="Rectángulo_404117" data-name="Rectángulo 404117" width="90" height="90" transform="translate(336.332 4154)" fill="#fff" stroke="#707070" stroke-width="1"/>
    </clipPath>
  </defs>
  <g id="Grupo_1105595" data-name="Grupo 1105595" transform="translate(-336.139 -4110.467)">
    <rect id="Rectángulo_404116" data-name="Rectángulo 404116" width="59" height="111" rx="29.5" transform="translate(349.332 4133)" fill="#79d3fe"/>
    <g id="Enmascarar_grupo_1098911" data-name="Enmascarar grupo 1098911" clip-path="url(#clip-path)">
      <g id="conversacion" transform="translate(336.332 4154)">
        <path id="Trazado_881149" data-name="Trazado 881149" d="M50.273,32.344H12.3A10.547,10.547,0,0,0,1.758,42.891v27.07A10.547,10.547,0,0,0,12.3,80.508H23.727l-.158.014,7.721,7.721.005-7.734H50.273A10.547,10.547,0,0,0,60.82,69.961V42.891A10.547,10.547,0,0,0,50.273,32.344Z" fill="#c7eaff"/>
        <path id="Trazado_881150" data-name="Trazado 881150" d="M31.289,90a1.757,1.757,0,0,1-1.243-.515l-7.22-7.22H12.3A12.319,12.319,0,0,1,0,69.961V42.891a12.319,12.319,0,0,1,12.3-12.3H30.059a1.758,1.758,0,0,1,0,3.516H12.3a8.8,8.8,0,0,0-8.789,8.789v27.07A8.8,8.8,0,0,0,12.3,78.75H23.727a1.758,1.758,0,0,1,1.612,1.056l4.2,4.2,0-3.495a1.758,1.758,0,0,1,1.758-1.757H50.273a8.8,8.8,0,0,0,8.789-8.789V57.832a1.758,1.758,0,0,1,3.516,0V69.961a12.319,12.319,0,0,1-12.3,12.3H33.051l0,5.978A1.758,1.758,0,0,1,31.289,90Z"/>
        <path id="Trazado_881151" data-name="Trazado 881151" d="M64.451,1.758H60A23.791,23.791,0,0,0,36.211,25.549h0A23.791,23.791,0,0,0,60,49.34h4.449a23.785,23.785,0,0,0,7-1.046l7.3,7.3V44.564a23.754,23.754,0,0,0,9.492-19.015h0A23.791,23.791,0,0,0,64.451,1.758Z" fill="#ffbc53"/>
        <path id="Trazado_881152" data-name="Trazado 881152" d="M78.75,57.35a1.758,1.758,0,0,1-1.243-.515l-6.572-6.568a25.6,25.6,0,0,1-6.485.831H60A25.549,25.549,0,0,1,60,0h4.449A25.578,25.578,0,0,1,90,25.549a25.274,25.274,0,0,1-2.776,11.593,25.793,25.793,0,0,1-6.716,8.28v10.17A1.758,1.758,0,0,1,78.75,57.35Zm-7.3-10.814a1.758,1.758,0,0,1,1.243.515l4.3,4.3V44.565a1.758,1.758,0,0,1,.7-1.4A22.034,22.034,0,0,0,64.451,3.516H60a22.033,22.033,0,1,0,0,44.067h4.449a22.039,22.039,0,0,0,6.481-.969A1.756,1.756,0,0,1,71.448,46.536Z"/>
        <path id="Trazado_881153" data-name="Trazado 881153" d="M62.719,32.831a1.758,1.758,0,0,1-1.758-1.758V26.85a3.327,3.327,0,0,1,2.621-3.261,3.927,3.927,0,1,0-4.789-3.832,1.758,1.758,0,1,1-3.516,0,7.469,7.469,0,0,1,2.365-5.441,7.385,7.385,0,0,1,5.6-1.983,7.443,7.443,0,0,1,1.234,14.657v4.083A1.758,1.758,0,0,1,62.719,32.831Z"/>
        <path id="Trazado_881154" data-name="Trazado 881154" d="M62.719,39.785a1.755,1.755,0,1,1,1.243-.513A1.769,1.769,0,0,1,62.719,39.785Z"/>
        <path id="Trazado_881155" data-name="Trazado 881155" d="M48.34,58.008H11.25a1.758,1.758,0,0,1,0-3.516H48.34a1.758,1.758,0,0,1,0,3.516Z"/>
        <path id="Trazado_881156" data-name="Trazado 881156" d="M48.34,67.852a1.759,1.759,0,1,1,1.243-.515A1.771,1.771,0,0,1,48.34,67.852Z"/>
        <path id="Trazado_881157" data-name="Trazado 881157" d="M41.426,67.852H11.25a1.758,1.758,0,0,1,0-3.516H41.426a1.758,1.758,0,0,1,0,3.516Z"/>
        <path id="Trazado_881158" data-name="Trazado 881158" d="M36.914,48.164H11.25a1.758,1.758,0,0,1,0-3.516H36.914a1.758,1.758,0,0,1,0,3.516Z"/>
      </g>
    </g>
    <g id="Polígono_6" data-name="Polígono 6" transform="matrix(0.602, 0.799, -0.799, 0.602, 364.385, 4116.352)" fill="none">
      <path d="M16,0,32,28H0Z" stroke="none"/>
      <path d="M 15.99999904632568 6.046697616577148 L 5.169540405273438 25 L 26.83045768737793 25 L 15.99999904632568 6.046697616577148 M 15.99999904632568 0 L 32 28 L -1.9073486328125e-06 28 L 15.99999904632568 0 Z" stroke="none" fill="#ffd504"/>
    </g>
    <g id="Grupo_1103968" data-name="Grupo 1103968" transform="translate(404.292 4225)">
      <path id="Trazado_879073" data-name="Trazado 879073" d="M8.5,2.064,6.858.421l-2.4,2.4-2.4-2.4L.421,2.064l2.4,2.4-2.4,2.4L2.064,8.5l2.4-2.4,2.4,2.4L8.5,6.857l-2.4-2.4Z" transform="translate(-0.421 -0.421)" fill="#4f08c2"/>
    </g>
    <circle id="Elipse_11692" data-name="Elipse 11692" cx="3.5" cy="3.5" r="3.5" transform="translate(401.332 4144)" fill="#4f08c2"/>
  </g>
</svg>
