<svg xmlns="http://www.w3.org/2000/svg" xmlns:xlink="http://www.w3.org/1999/xlink" width="90.193" height="133.533" viewBox="0 0 90.193 133.533">
  <defs>
    <clipPath id="clip-path">
      <rect id="Rectángulo_404117" data-name="Rectángulo 404117" width="90" height="90" transform="translate(336.332 4154)" fill="#fff" stroke="#707070" stroke-width="1"/>
    </clipPath>
  </defs>
  <g id="Grupo_1105596" data-name="Grupo 1105596" transform="translate(-336.139 -4110.467)">
    <rect id="Rectángulo_404116" data-name="Rectángulo 404116" width="59" height="111" rx="29.5" transform="translate(349.332 4133)" fill="#79d3fe"/>
    <g id="Enmascarar_grupo_1098912" data-name="Enmascarar grupo 1098912" clip-path="url(#clip-path)">
      <g id="procesamiento-natural-del-lenguaje_1_" data-name="procesamiento-natural-del-lenguaje (1)" transform="translate(336.332 4153.992)">
        <path id="Trazado_881159" data-name="Trazado 881159" d="M24.521,28.037H2.725a1.406,1.406,0,0,1-1.406-1.406V6.592A1.406,1.406,0,0,1,2.725,5.186h21.8a1.406,1.406,0,0,1,1.406,1.406V26.631A1.406,1.406,0,0,1,24.521,28.037Z" fill="#ecf4ff"/>
        <path id="Trazado_881160" data-name="Trazado 881160" d="M24.521,5.186H19.248a1.406,1.406,0,0,1,1.406,1.406V26.631a1.406,1.406,0,0,1-1.406,1.406h5.273a1.406,1.406,0,0,0,1.406-1.406V6.592A1.406,1.406,0,0,0,24.521,5.186Z" fill="#ddeafb"/>
        <path id="Trazado_881161" data-name="Trazado 881161" d="M55.9,28.037H34.1A1.406,1.406,0,0,1,32.7,26.631V6.592A1.406,1.406,0,0,1,34.1,5.186H55.9A1.406,1.406,0,0,1,57.3,6.592V26.631A1.406,1.406,0,0,1,55.9,28.037Z" fill="#61a2f9"/>
        <path id="Trazado_881162" data-name="Trazado 881162" d="M55.9,5.186H50.625a1.406,1.406,0,0,1,1.406,1.406V26.631a1.406,1.406,0,0,1-1.406,1.406H55.9A1.406,1.406,0,0,0,57.3,26.631V6.592A1.406,1.406,0,0,0,55.9,5.186Z" fill="#5490f9"/>
        <path id="Trazado_881163" data-name="Trazado 881163" d="M87.275,28.037h-21.8a1.406,1.406,0,0,1-1.406-1.406V6.592a1.406,1.406,0,0,1,1.406-1.406h21.8a1.406,1.406,0,0,1,1.406,1.406V26.631A1.406,1.406,0,0,1,87.275,28.037Z" fill="#ffe07d"/>
        <path id="Trazado_881164" data-name="Trazado 881164" d="M87.275,5.186H82a1.406,1.406,0,0,1,1.406,1.406V26.631A1.406,1.406,0,0,1,82,28.037h5.273a1.406,1.406,0,0,0,1.406-1.406V6.592A1.406,1.406,0,0,0,87.275,5.186Z" fill="#ffd064"/>
        <path id="Trazado_881165" data-name="Trazado 881165" d="M45,79.154V65.639c-.334-4.948-3.439-7.192-7.981-7.192a10.092,10.092,0,0,0-9.564,8.125.94.94,0,0,1-.6.64c-14.6,3.553-10.2,23.775,5.367,15.724a1.369,1.369,0,0,1,1.328.047C36.779,85.386,44.83,85.8,45,79.154Z" fill="#dd4fb1"/>
        <g id="Grupo_1105603" data-name="Grupo 1105603">
          <path id="Trazado_881166" data-name="Trazado 881166" d="M45,65.639c-.334-4.948-3.439-7.192-7.981-7.192a8.931,8.931,0,0,0-2.44.348c2.966.8,4.889,3.01,5.148,6.844V79.154a5.03,5.03,0,0,1-3.557,5.052c3.7,1.033,8.7.168,8.831-5.052Z" fill="#da2ea2"/>
        </g>
        <path id="Trazado_881167" data-name="Trazado 881167" d="M45,79.154V65.639c.334-4.948,3.439-7.192,7.981-7.192a10.092,10.092,0,0,1,9.564,8.125.94.94,0,0,0,.6.64c14.6,3.553,10.2,23.775-5.367,15.724a1.369,1.369,0,0,0-1.328.047C53.221,85.386,45.17,85.8,45,79.154Z" fill="#dd4fb1"/>
        <g id="Grupo_1105604" data-name="Grupo 1105604">
          <path id="Trazado_881168" data-name="Trazado 881168" d="M63.15,67.212a.94.94,0,0,1-.6-.64,10.092,10.092,0,0,0-9.564-8.125A8.886,8.886,0,0,0,48,59.744a10.122,10.122,0,0,1,9.269,8.118.94.94,0,0,0,.6.64c9.965,2.425,11.077,12.614,5.831,16.281C74.213,85.588,75.68,70.262,63.15,67.212Z" fill="#da2ea2"/>
        </g>
        <g id="Grupo_1105612" data-name="Grupo 1105612">
          <path id="Trazado_881169" data-name="Trazado 881169" d="M20.96,5.186h3.561a1.406,1.406,0,0,1,1.406,1.406V26.631a1.406,1.406,0,0,1-1.406,1.406H2.725a1.406,1.406,0,0,1-1.406-1.406V6.592A1.406,1.406,0,0,1,2.725,5.186H14.5" fill="none" stroke="#000" stroke-linecap="round" stroke-linejoin="round" stroke-miterlimit="10" stroke-width="2.637"/>
          <g id="Grupo_1105605" data-name="Grupo 1105605">
            <line id="Línea_4476" data-name="Línea 4476" x2="7.031" transform="translate(7.471 10.986)" fill="none" stroke="#000" stroke-linecap="round" stroke-linejoin="round" stroke-miterlimit="10" stroke-width="2.637"/>
            <line id="Línea_4477" data-name="Línea 4477" x2="12.305" transform="translate(7.471 16.611)" fill="none" stroke="#000" stroke-linecap="round" stroke-linejoin="round" stroke-miterlimit="10" stroke-width="2.637"/>
            <line id="Línea_4478" data-name="Línea 4478" x2="12.305" transform="translate(7.471 22.236)" fill="none" stroke="#000" stroke-linecap="round" stroke-linejoin="round" stroke-miterlimit="10" stroke-width="2.637"/>
          </g>
          <path id="Trazado_881170" data-name="Trazado 881170" d="M55.9,28.037H34.1A1.406,1.406,0,0,1,32.7,26.631V6.592A1.406,1.406,0,0,1,34.1,5.186H55.9A1.406,1.406,0,0,1,57.3,6.592V26.631A1.406,1.406,0,0,1,55.9,28.037Z" fill="none" stroke="#000" stroke-linecap="round" stroke-linejoin="round" stroke-miterlimit="10" stroke-width="2.637"/>
          <g id="Grupo_1105606" data-name="Grupo 1105606">
            <line id="Línea_4479" data-name="Línea 4479" x2="7.031" transform="translate(38.848 10.986)" fill="none" stroke="#000" stroke-linecap="round" stroke-linejoin="round" stroke-miterlimit="10" stroke-width="2.637"/>
            <line id="Línea_4480" data-name="Línea 4480" x2="12.305" transform="translate(38.848 16.611)" fill="none" stroke="#000" stroke-linecap="round" stroke-linejoin="round" stroke-miterlimit="10" stroke-width="2.637"/>
            <line id="Línea_4481" data-name="Línea 4481" x2="12.305" transform="translate(38.848 22.236)" fill="none" stroke="#000" stroke-linecap="round" stroke-linejoin="round" stroke-miterlimit="10" stroke-width="2.637"/>
          </g>
          <path id="Trazado_881171" data-name="Trazado 881171" d="M87.275,28.037h-21.8a1.406,1.406,0,0,1-1.406-1.406V6.592a1.406,1.406,0,0,1,1.406-1.406h21.8a1.406,1.406,0,0,1,1.406,1.406V26.631A1.406,1.406,0,0,1,87.275,28.037Z" fill="none" stroke="#000" stroke-linecap="round" stroke-linejoin="round" stroke-miterlimit="10" stroke-width="2.637"/>
          <g id="Grupo_1105607" data-name="Grupo 1105607">
            <line id="Línea_4482" data-name="Línea 4482" x2="7.031" transform="translate(70.225 10.986)" fill="none" stroke="#000" stroke-linecap="round" stroke-linejoin="round" stroke-miterlimit="10" stroke-width="2.637"/>
            <line id="Línea_4483" data-name="Línea 4483" x2="12.305" transform="translate(70.225 16.611)" fill="none" stroke="#000" stroke-linecap="round" stroke-linejoin="round" stroke-miterlimit="10" stroke-width="2.637"/>
            <line id="Línea_4484" data-name="Línea 4484" x2="12.305" transform="translate(70.225 22.236)" fill="none" stroke="#000" stroke-linecap="round" stroke-linejoin="round" stroke-miterlimit="10" stroke-width="2.637"/>
          </g>
          <path id="Trazado_881172" data-name="Trazado 881172" d="M45,79.154V65.639c-.334-4.948-3.439-7.192-7.981-7.192a10.092,10.092,0,0,0-9.564,8.125.94.94,0,0,1-.6.64c-14.6,3.553-10.2,23.775,5.367,15.724a1.369,1.369,0,0,1,1.328.047C36.779,85.386,44.83,85.8,45,79.154Z" fill="none" stroke="#000" stroke-linecap="round" stroke-linejoin="round" stroke-miterlimit="10" stroke-width="2.637"/>
          <g id="Grupo_1105608" data-name="Grupo 1105608">
            <path id="Trazado_881173" data-name="Trazado 881173" d="M30.444,61.544a12.536,12.536,0,0,0,6.5,3.444" fill="none" stroke="#000" stroke-linecap="round" stroke-linejoin="round" stroke-miterlimit="10" stroke-width="2.637"/>
            <path id="Trazado_881174" data-name="Trazado 881174" d="M21.721,70.127A22.862,22.862,0,0,1,26.5,75.716" fill="none" stroke="#000" stroke-linecap="round" stroke-linejoin="round" stroke-miterlimit="10" stroke-width="2.637"/>
            <path id="Trazado_881175" data-name="Trazado 881175" d="M37.019,73.925a16.685,16.685,0,0,0,7.595,2.518" fill="none" stroke="#000" stroke-linecap="round" stroke-linejoin="round" stroke-miterlimit="10" stroke-width="2.637"/>
          </g>
          <path id="Trazado_881176" data-name="Trazado 881176" d="M65.887,68.164c11.206,5.242,6.392,22.272-8.105,14.773a1.369,1.369,0,0,0-1.328.047C53.221,85.386,45.17,85.8,45,79.154V65.639c.334-4.948,3.439-7.192,7.981-7.192a9.821,9.821,0,0,1,8.542,5.387" fill="none" stroke="#000" stroke-linecap="round" stroke-linejoin="round" stroke-miterlimit="10" stroke-width="2.637"/>
          <g id="Grupo_1105609" data-name="Grupo 1105609">
            <path id="Trazado_881177" data-name="Trazado 881177" d="M59.556,61.544a12.536,12.536,0,0,1-6.5,3.444" fill="none" stroke="#000" stroke-linecap="round" stroke-linejoin="round" stroke-miterlimit="10" stroke-width="2.637"/>
            <path id="Trazado_881178" data-name="Trazado 881178" d="M68.279,70.127A22.862,22.862,0,0,0,63.5,75.716" fill="none" stroke="#000" stroke-linecap="round" stroke-linejoin="round" stroke-miterlimit="10" stroke-width="2.637"/>
            <path id="Trazado_881179" data-name="Trazado 881179" d="M52.981,73.925a16.685,16.685,0,0,1-7.595,2.518" fill="none" stroke="#000" stroke-linecap="round" stroke-linejoin="round" stroke-miterlimit="10" stroke-width="2.637"/>
          </g>
          <g id="Grupo_1105611" data-name="Grupo 1105611">
            <path id="Trazado_881180" data-name="Trazado 881180" d="M41.484,37.09,45,34.453l3.516,2.637" fill="none" stroke="#000" stroke-linecap="round" stroke-linejoin="round" stroke-miterlimit="10" stroke-width="2.637"/>
            <line id="Línea_4485" data-name="Línea 4485" y2="17.848" transform="translate(45 34.993)" fill="none" stroke="#000" stroke-linecap="round" stroke-linejoin="round" stroke-miterlimit="10" stroke-width="2.637"/>
            <g id="Grupo_1105610" data-name="Grupo 1105610">
              <path id="Trazado_881181" data-name="Trazado 881181" d="M10.13,37.09l3.516-2.637,3.516,2.637" fill="none" stroke="#000" stroke-linecap="round" stroke-linejoin="round" stroke-miterlimit="10" stroke-width="2.637"/>
              <path id="Trazado_881182" data-name="Trazado 881182" d="M13.646,35.214s-.912,9.045,7.292,11.413c5.155,1.488,9.059.491,12.329,6.214" fill="none" stroke="#000" stroke-linecap="round" stroke-linejoin="round" stroke-miterlimit="10" stroke-width="2.637"/>
              <path id="Trazado_881183" data-name="Trazado 881183" d="M79.87,37.09l-3.516-2.637L72.839,37.09" fill="none" stroke="#000" stroke-linecap="round" stroke-linejoin="round" stroke-miterlimit="10" stroke-width="2.637"/>
              <path id="Trazado_881184" data-name="Trazado 881184" d="M76.354,35.214s.912,9.045-7.292,11.413c-5.155,1.488-9.059.491-12.329,6.214" fill="none" stroke="#000" stroke-linecap="round" stroke-linejoin="round" stroke-miterlimit="10" stroke-width="2.637"/>
            </g>
          </g>
        </g>
      </g>
    </g>
    <g id="Polígono_6" data-name="Polígono 6" transform="matrix(0.602, 0.799, -0.799, 0.602, 364.385, 4116.352)" fill="none">
      <path d="M16,0,32,28H0Z" stroke="none"/>
      <path d="M 15.99999904632568 6.046697616577148 L 5.169540405273438 25 L 26.83045768737793 25 L 15.99999904632568 6.046697616577148 M 15.99999904632568 0 L 32 28 L -1.9073486328125e-06 28 L 15.99999904632568 0 Z" stroke="none" fill="#ffd504"/>
    </g>
    <g id="Grupo_1103968" data-name="Grupo 1103968" transform="translate(349.332 4209)">
      <path id="Trazado_879073" data-name="Trazado 879073" d="M8.5,2.064,6.858.421l-2.4,2.4-2.4-2.4L.421,2.064l2.4,2.4-2.4,2.4L2.064,8.5l2.4-2.4,2.4,2.4L8.5,6.857l-2.4-2.4Z" transform="translate(-0.421 -0.421)" fill="#4f08c2"/>
    </g>
    <circle id="Elipse_11692" data-name="Elipse 11692" cx="3.5" cy="3.5" r="3.5" transform="translate(401.332 4144)" fill="#4f08c2"/>
  </g>
</svg>
