<svg xmlns="http://www.w3.org/2000/svg" xmlns:xlink="http://www.w3.org/1999/xlink" width="79.496" height="79.496" viewBox="0 0 79.496 79.496">
  <defs>
    <clipPath id="clip-path">
      <rect id="Rectángulo_403337" data-name="Rectángulo 403337" width="48" height="48" transform="translate(288.497 11108.494)" fill="#fff" stroke="#707070" stroke-width="1"/>
    </clipPath>
  </defs>
  <g id="Grupo_1104412" data-name="Grupo 1104412" transform="translate(-273 -11093)">
    <circle id="Elipse_4742" data-name="Elipse 4742" cx="39.748" cy="39.748" r="39.748" transform="translate(273 11093)" fill="#005dff"/>
    <g id="Enmascarar_grupo_1098855" data-name="Enmascarar grupo 1098855" clip-path="url(#clip-path)">
      <g id="ai_4_" data-name="ai (4)" transform="translate(282.497 11102.494)">
        <path id="Trazado_880146" data-name="Trazado 880146" d="M33.632,41.5h2.737L35,36.94Z" fill="#fff"/>
        <path id="Trazado_880147" data-name="Trazado 880147" d="M50,24h-.879L52.5,20.621V11.584a3,3,0,1,0-3,0v7.8L44.879,24H43V17.584a3,3,0,1,0-3,0V24H36V7.5H30.084a3,3,0,1,0,0,3H33V24H31.121l-10.5-10.5H11.584a3,3,0,1,0,0,3h7.8l7.5,7.5H26a4.013,4.013,0,0,0-4,4v3.5H16.5V26.584a3,3,0,1,0-3,0V34.5H22v3H11.584a3,3,0,1,0,0,3H22v3H14.378L9.767,48.112A2.993,2.993,0,1,0,12,51a2.946,2.946,0,0,0-.112-.767L15.62,46.5H22V50a4.012,4.012,0,0,0,4,4H50a4.012,4.012,0,0,0,4-4V28A4.012,4.012,0,0,0,50,24ZM37.869,46.5l-.6-2h-4.54l-.6,2H29l4.5-15h3l4.5,15ZM47,46.5H44v-15h3Z" fill="#fff"/>
      </g>
    </g>
  </g>
</svg>
