<svg xmlns="http://www.w3.org/2000/svg" xmlns:xlink="http://www.w3.org/1999/xlink" width="48" height="48" viewBox="0 0 48 48">
  <defs>
    <clipPath id="clip-path">
      <rect id="Rectángulo_404990" data-name="Rectángulo 404990" width="29" height="29" transform="translate(503.711 790)" fill="#005dff" stroke="#707070" stroke-width="1"/>
    </clipPath>
  </defs>
  <g id="Grupo_1105672" data-name="Grupo 1105672" transform="translate(-494.711 -780)">
    <g id="Elipse_11858" data-name="Elipse 11858" transform="translate(494.711 780)" fill="#fff" stroke="#005dff" stroke-width="2">
      <circle cx="24" cy="24" r="24" stroke="none"/>
      <circle cx="24" cy="24" r="23" fill="none"/>
    </g>
    <g id="Enmascarar_grupo_1098914" data-name="Enmascarar grupo 1098914" clip-path="url(#clip-path)">
      <path id="investigar" d="M16.816,13.921A4.177,4.177,0,1,0,20.991,18.1,4.175,4.175,0,0,0,16.816,13.921Zm5.3,7.886,2.028,1.968.073-.075a.59.59,0,0,1,.832-.013L28.6,27.136a.59.59,0,0,1,.013.832L27.334,29.29a.59.59,0,0,1-.832.012l-3.553-3.448a.59.59,0,0,1-.013-.832l.073-.075-1.99-1.931a6.465,6.465,0,1,1,1.1-1.209Zm-.191-3.71a5.111,5.111,0,1,1-5.111-5.111A5.087,5.087,0,0,1,21.927,18.1Zm-.686-5.94V3.749H18.427a.468.468,0,0,1-.468-.468V.468H3.876V2.255H16.092l3.361,3.361v5.558A7.4,7.4,0,0,1,21.24,12.157ZM18.895,2.813V.935l1.878,1.878ZM18.05,5.536H16.172V3.658ZM15.237,6a.468.468,0,0,0,.468.468h2.813v4.416a7.406,7.406,0,1,0,0,14.419v.709H1.153V3.19H15.237Zm-5.067.655h3.558a.468.468,0,0,1,0,.935H10.17a.468.468,0,0,1,0-.935ZM4.7,12.716a.468.468,0,1,0,0,.935h5.522a.468.468,0,1,0,0-.935Zm0,3.029a.468.468,0,0,0,0,.935H8.808a.468.468,0,0,0,0-.935Zm0,3.029a.468.468,0,1,0,0,.935H8.67a.468.468,0,1,0,0-.935Zm0,3.029a.468.468,0,1,0,0,.935H9.727a.468.468,0,1,0,0-.935Zm5-11.647a.468.468,0,0,1,.468-.468h4.8a.468.468,0,1,1,0,.935h-4.8A.468.468,0,0,1,9.7,10.155Zm-5.473-.067V7.193a.536.536,0,0,1,.535-.535H7.659a.536.536,0,0,1,.535.535v2.895a.536.536,0,0,1-.535.535H4.764A.536.536,0,0,1,4.229,10.088Z" transform="translate(503.243 789.532)" fill="#005dff" fill-rule="evenodd"/>
    </g>
  </g>
</svg>
