<svg xmlns="http://www.w3.org/2000/svg" xmlns:xlink="http://www.w3.org/1999/xlink" width="79.496" height="79.496" viewBox="0 0 79.496 79.496">
  <defs>
    <clipPath id="clip-path">
      <rect id="Rectángulo_403337" data-name="Rectángulo 403337" width="48" height="48" transform="translate(288.497 11108.496)" fill="#fff" stroke="#707070" stroke-width="1"/>
    </clipPath>
  </defs>
  <g id="Grupo_1104411" data-name="Grupo 1104411" transform="translate(-273 -11093)">
    <circle id="Elipse_4742" data-name="Elipse 4742" cx="39.748" cy="39.748" r="39.748" transform="translate(273 11093)" fill="#005dff"/>
    <g id="Enmascarar_grupo_1098856" data-name="Enmascarar grupo 1098856" clip-path="url(#clip-path)">
      <g id="_x31_5" transform="translate(285.068 11105.067)">
        <circle id="Elipse_11798" data-name="Elipse 11798" cx="5.143" cy="5.143" r="5.143" transform="translate(8.571 32.571)" fill="#fff"/>
        <path id="Trazado_880148" data-name="Trazado 880148" d="M17.125,42.857H10.3a6.873,6.873,0,0,0-6.875,6.857,1.713,1.713,0,0,0,1.714,1.714H22.286A1.713,1.713,0,0,0,24,49.714,6.873,6.873,0,0,0,17.125,42.857Z" fill="#fff"/>
        <path id="Trazado_880149" data-name="Trazado 880149" d="M41.143,30.857H32.571v-2.9a11.791,11.791,0,0,0,1.609-.935l.987.574a1.714,1.714,0,0,0,2.35-.63l3.4-5.938a1.714,1.714,0,0,0-.625-2.332l-1-.58c.028-.326.041-.648.041-.97s-.013-.645-.041-.97l1-.58a1.714,1.714,0,0,0,.625-2.332l-3.4-5.938a1.714,1.714,0,0,0-2.35-.63l-.987.574a11.819,11.819,0,0,0-1.64-.953V5.143a1.714,1.714,0,0,0-1.714-1.714h-6.8a1.714,1.714,0,0,0-1.714,1.714V6.314a11.792,11.792,0,0,0-1.64.953l-.987-.574a1.714,1.714,0,0,0-2.35.63l-3.4,5.938a1.713,1.713,0,0,0,.625,2.332l.994.58c-.028.325-.041.648-.041.97s.013.645.041.97l-.994.58a1.713,1.713,0,0,0-.625,2.332l3.4,5.938a1.714,1.714,0,0,0,2.35.63l.987-.574a11.807,11.807,0,0,0,1.61.935V36H20.571v3.429H24a1.713,1.713,0,0,0,1.714-1.714V30.857h3.429v1.714a1.713,1.713,0,0,0,1.714,1.714h8.571V36h3.429V32.571a1.713,1.713,0,0,0-1.714-1.714ZM24.106,17.143a3.429,3.429,0,1,1,3.429,3.429,3.432,3.432,0,0,1-3.429-3.429Z" fill="#fff"/>
        <path id="Trazado_880150" data-name="Trazado 880150" d="M49.714,39.429A1.714,1.714,0,0,0,48,37.714H34.286a1.714,1.714,0,0,0-1.714,1.714v6.857H49.714Z" fill="#fff"/>
        <path id="Trazado_880151" data-name="Trazado 880151" d="M49.714,51.429H32.571a1.714,1.714,0,0,1,0-3.429H49.714a1.714,1.714,0,0,1,0,3.429Z" fill="#fff"/>
      </g>
    </g>
  </g>
</svg>
