<svg xmlns="http://www.w3.org/2000/svg" xmlns:xlink="http://www.w3.org/1999/xlink" width="48" height="48" viewBox="0 0 48 48">
  <defs>
    <clipPath id="clip-path">
      <rect id="Rectángulo_404991" data-name="Rectángulo 404991" width="29" height="29" transform="translate(818.711 790)" fill="#9936b1" stroke="#707070" stroke-width="1"/>
    </clipPath>
  </defs>
  <g id="Grupo_1105675" data-name="Grupo 1105675" transform="translate(-809.711 -780)">
    <g id="Elipse_11859" data-name="Elipse 11859" transform="translate(809.711 780)" fill="#fff" stroke="#9936b1" stroke-width="2">
      <circle cx="24" cy="24" r="24" stroke="none"/>
      <circle cx="24" cy="24" r="23" fill="none"/>
    </g>
    <g id="Enmascarar_grupo_1098915" data-name="Enmascarar grupo 1098915" clip-path="url(#clip-path)">
      <g id="_x31_3" transform="translate(816.64 787.929)">
        <path id="Trazado_881186" data-name="Trazado 881186" d="M25.893,17.607a8.233,8.233,0,0,0-1.367-4.547l.916-.229a2.065,2.065,0,0,0,3.11-2.71L29.3,8.256a2.066,2.066,0,1,0-1.665-3.588l-2.819-.94a2.087,2.087,0,1,0-.664,1.961l2.819.94a2.05,2.05,0,0,0,.406.856L26.63,9.352a2.061,2.061,0,0,0-1.683,1.47l-1.966.492a8.277,8.277,0,1,0,2.912,6.294Zm-8.286,6.214a6.214,6.214,0,1,1,6.214-6.214A6.221,6.221,0,0,1,17.607,23.821Z" fill="#9936b1"/>
        <path id="Trazado_881187" data-name="Trazado 881187" d="M27.661,24.125a1.023,1.023,0,0,0-1.207-.171l-1.128-1.128a9.4,9.4,0,0,1-2.5,2.5l1.128,1.128a1.023,1.023,0,0,0,.171,1.207L26.8,30.339A2.5,2.5,0,0,0,30.339,26.8Z" fill="#9936b1"/>
        <path id="Trazado_881188" data-name="Trazado 881188" d="M13.464,2.071V6.214h4.143Z" fill="#9936b1"/>
        <path id="Trazado_881189" data-name="Trazado 881189" d="M17.607,12.429a5.179,5.179,0,1,0,5.179,5.179A5.179,5.179,0,0,0,17.607,12.429Zm0,9.321a1.036,1.036,0,1,1,1.036-1.036A1.036,1.036,0,0,1,17.607,21.75Zm.791-4.3a.483.483,0,0,0-.273.454v.739a.518.518,0,0,1-1.036,0V17.9A1.507,1.507,0,0,1,18,16.494a1.036,1.036,0,1,0-1.431-.958.518.518,0,1,1-1.036,0A2.071,2.071,0,1,1,18.4,17.45Z" fill="#9936b1"/>
        <path id="Trazado_881190" data-name="Trazado 881190" d="M4.661,20.714a.518.518,0,0,1,0-1.036H8.545a9.227,9.227,0,0,1-.259-2.071H4.661a.518.518,0,0,1,0-1.036H8.349A9.177,9.177,0,0,1,8.832,14.5H4.661a.518.518,0,1,1,0-1.036H9.266a9.432,9.432,0,0,1,1.4-2.062l.01-.01H4.661a.518.518,0,1,1,0-1.036h7.124a9.247,9.247,0,0,1,5.822-2.071V7.25H13.464a1.036,1.036,0,0,1-1.036-1.036V2.071H3.107A1.036,1.036,0,0,0,2.071,3.107V21.75a1.036,1.036,0,0,0,1.036,1.036H9.862A9.32,9.32,0,0,1,8.84,20.714Z" fill="#9936b1"/>
      </g>
    </g>
  </g>
</svg>
