<svg id="inteligencia-artificial_2_" data-name="inteligencia-artificial (2)" xmlns="http://www.w3.org/2000/svg" width="83.211" height="87.598" viewBox="0 0 83.211 87.598">
  <path id="Trazado_877722" data-name="Trazado 877722" d="M90.519,80.754a41.605,41.605,0,1,0-75.831,0H90.519Z" transform="translate(-10.998 -17.608)" fill="#4f08c2"/>
  <path id="Trazado_877723" data-name="Trazado 877723" d="M96.987,39.958a7.192,7.192,0,0,0-4.451-6.674,7.375,7.375,0,0,0-10.253,5.38,1.765,1.765,0,0,1-2.052,1.428,7.324,7.324,0,0,0-8.418,8.9,1.767,1.767,0,0,1-1.449,2.152A7.317,7.317,0,0,0,65.2,61.859a2.423,2.423,0,0,1,.12.256s1.781,2.363-1.089,3.1l2.791,31.518,18.2,15.7a41.628,41.628,0,0,0,11.772,1.632l3.519-33.845Z" transform="translate(-55.189 -26.468)" fill="#fe3d97"/>
  <path id="Trazado_877724" data-name="Trazado 877724" d="M57.334,257.847H51.984c-8.661-3.273-4-12.947-4-12.947-6.19-2.29-5.56-9.09-5.56-9.09-5.713-3.942-1.49-10.506-1.49-10.506l-3.113-1.694a4.85,4.85,0,0,1-.891.226,10.18,10.18,0,0,0-2.159,15.8,2.253,2.253,0,0,1,.005,3.187,9.715,9.715,0,0,0-2.7,5.313,41.611,41.611,0,0,0,5.623,9.08l1.786-.272.687,3.05A41.585,41.585,0,0,0,58.591,271c-.585-2.734,1.885-4.489,1.885-4.489v-1.783C54.617,263.5,57.334,257.847,57.334,257.847Z" transform="translate(-28.38 -184.985)" fill="#e51e82"/>
  <path id="Trazado_877725" data-name="Trazado 877725" d="M360.9,174.489a2.245,2.245,0,0,1-.57-2.2L357.7,159.592,352.143,141.3l-9.418,6.153-2.783,36.13,18.037,5.3a41.618,41.618,0,0,0,5.623-9.08A9.714,9.714,0,0,0,360.9,174.489Z" transform="translate(-284.082 -116.655)" fill="#2fd0e2"/>
  <path id="Trazado_877726" data-name="Trazado 877726" d="M401.694,155.158s-1.669.477-2.037-.754a3.244,3.244,0,0,1,.458-2.449,2.435,2.435,0,0,1,.12-.256,7.317,7.317,0,0,0-4.849-10.655,2.166,2.166,0,0,1-.464-.16l-1.5,1.435s-5.844,8.944,3.876,12.425l.394,1.883s-7.1,12.544,5.547,15.476a2.276,2.276,0,0,1,.616-1.149A10.18,10.18,0,0,0,401.694,155.158Z" transform="translate(-327.032 -116.308)" fill="#64f9ea"/>
  <path id="Trazado_877727" data-name="Trazado 877727" d="M285.775,96.732c-10.755-1.427-6.51-11.875-6.51-11.875a5.616,5.616,0,0,1-6.057-5.411v-22.1l8.238-7c-.346-.478,1.089-1.214,1.2-1.836.08-.433-1.471-.757-1.471-1.214a7.329,7.329,0,0,0-8.319-7.251,2.184,2.184,0,0,1-2.416-1.707,7.319,7.319,0,0,0-7.256-5.669A7.411,7.411,0,0,0,256,40.129v73.936a41.479,41.479,0,0,0,29.82-12.594l.546-3.549Z" transform="translate(-214.395 -26.467)" fill="#02c0fc"/>
  <path id="Trazado_877728" data-name="Trazado 877728" d="M367.38,38.5l-2.123,2.085v12.44l-6.572,5.538-1.02,3.4L359,63.846l9.744-8.21a2.123,2.123,0,0,0,.755-1.623V40.585Z" transform="translate(-298.796 -31.31)" fill="#fef156"/>
  <path id="Trazado_877729" data-name="Trazado 877729" d="M299.2,41l-2.363,1.66V54.848l1.769,1.9,2.476-1.878V42.66Z" transform="translate(-248.293 -33.386)" fill="#fef156"/>
  <path id="Trazado_877730" data-name="Trazado 877730" d="M191.37,41l-1.2,1.66V54.873l2.646,1.2,1.6-1.223V42.66Z" transform="translate(-159.741 -33.386)" fill="#ffc242"/>
  <path id="Trazado_877731" data-name="Trazado 877731" d="M95.447,60.638,88.875,55.1V42.6L86.532,41l-1.9,1.718V56.087a2.123,2.123,0,0,0,.755,1.623l9.744,8.21,1.565-2.165Z" transform="translate(-72.126 -33.386)" fill="#ffc242"/>
  <g id="Grupo_1102094" data-name="Grupo 1102094" transform="translate(12.307 50.825)">
    <path id="Trazado_877732" data-name="Trazado 877732" d="M90.767,304.546a1.736,1.736,0,0,0,.009-3.471,3.858,3.858,0,0,1-3.833-3.874,1.736,1.736,0,0,0-1.727-1.745h-.01a1.736,1.736,0,0,0-1.736,1.727,7.333,7.333,0,0,0,7.286,7.364h.01Z" transform="translate(-83.471 -295.456)" fill="#be0b73"/>
  </g>
  <g id="Grupo_1102097" data-name="Grupo 1102097" transform="translate(25.164 61.806)">
    <g id="Grupo_1102095" data-name="Grupo 1102095">
      <path id="Trazado_877733" data-name="Trazado 877733" d="M173.888,371.173a1.736,1.736,0,0,0,1.736-1.736,9.332,9.332,0,0,0-9.321-9.321h-5.384a1.736,1.736,0,1,0,0,3.471H166.3a5.857,5.857,0,0,1,5.85,5.85A1.736,1.736,0,0,0,173.888,371.173Z" transform="translate(-159.183 -360.116)" fill="#be0b73"/>
    </g>
    <g id="Grupo_1102096" data-name="Grupo 1102096" transform="translate(5.384 7.586)">
      <path id="Trazado_877734" data-name="Trazado 877734" d="M192.625,417.846a9.332,9.332,0,0,0,9.321-9.321v-2a1.736,1.736,0,1,0-3.471,0v2a5.857,5.857,0,0,1-5.85,5.85,1.736,1.736,0,1,0,0,3.471Z" transform="translate(-190.889 -404.785)" fill="#be0b73"/>
    </g>
  </g>
  <g id="Grupo_1102098" data-name="Grupo 1102098" transform="translate(19.109 70.805)">
    <path id="Trazado_877735" data-name="Trazado 877735" d="M125.26,422.5A1.736,1.736,0,0,0,127,420.764a4.183,4.183,0,0,1,4.179-4.178h4.553a1.736,1.736,0,1,0,0-3.471h-4.553a7.659,7.659,0,0,0-7.65,7.65A1.736,1.736,0,0,0,125.26,422.5Z" transform="translate(-123.524 -413.114)" fill="#be0b73"/>
  </g>
  <path id="Trazado_877736" data-name="Trazado 877736" d="M68.057,409.367a1.736,1.736,0,0,0-2.241,1l-.338.884q1.231,1.521,2.6,2.921l.981-2.565A1.736,1.736,0,0,0,68.057,409.367Z" transform="translate(-56.226 -339.102)" fill="#be0b73"/>
  <g id="Grupo_1102099" data-name="Grupo 1102099" transform="translate(61.873 50.825)">
    <path id="Trazado_877737" data-name="Trazado 877737" d="M377.083,304.546a1.736,1.736,0,0,1-.009-3.471,3.858,3.858,0,0,0,3.833-3.874,1.736,1.736,0,0,1,1.727-1.745h.01a1.736,1.736,0,0,1,1.736,1.727,7.333,7.333,0,0,1-7.286,7.364Z" transform="translate(-375.348 -295.456)" fill="#27a6ff"/>
  </g>
  <g id="Grupo_1102102" data-name="Grupo 1102102" transform="translate(41.605 61.806)">
    <g id="Grupo_1102100" data-name="Grupo 1102100">
      <path id="Trazado_877738" data-name="Trazado 877738" d="M257.736,371.173A1.736,1.736,0,0,1,256,369.437a9.332,9.332,0,0,1,9.321-9.321h5.384a1.736,1.736,0,0,1,0,3.471h-5.384a5.857,5.857,0,0,0-5.85,5.85A1.736,1.736,0,0,1,257.736,371.173Z" transform="translate(-256 -360.116)" fill="#1d8df2"/>
    </g>
    <g id="Grupo_1102101" data-name="Grupo 1102101" transform="translate(0 7.586)">
      <path id="Trazado_877739" data-name="Trazado 877739" d="M265.321,417.846A9.332,9.332,0,0,1,256,408.524v-2a1.736,1.736,0,1,1,3.471,0v2a5.857,5.857,0,0,0,5.85,5.85,1.736,1.736,0,1,1,0,3.471Z" transform="translate(-256 -404.785)" fill="#1d8df2"/>
    </g>
  </g>
  <g id="Grupo_1102103" data-name="Grupo 1102103" transform="translate(50.163 70.805)">
    <path id="Trazado_877740" data-name="Trazado 877740" d="M318.6,422.5a1.736,1.736,0,0,1-1.736-1.736,4.183,4.183,0,0,0-4.178-4.178h-4.553a1.736,1.736,0,1,1,0-3.471h4.553a7.659,7.659,0,0,1,7.65,7.65A1.736,1.736,0,0,1,318.6,422.5Z" transform="translate(-306.393 -413.114)" fill="#1d8df2"/>
  </g>
  <path id="Trazado_877741" data-name="Trazado 877741" d="M421.517,209.006a2.292,2.292,0,0,1-1.072-2.93,4.16,4.16,0,0,1-2.661,1.208,1.736,1.736,0,0,0,.236,3.463,7.6,7.6,0,0,0,4-1.468C421.859,209.184,421.69,209.093,421.517,209.006Z" transform="translate(-347.362 -170.429)" fill="#27a6ff"/>
  <path id="Trazado_877742" data-name="Trazado 877742" d="M61.845,209.006a2.292,2.292,0,0,0,1.072-2.93,4.16,4.16,0,0,0,2.661,1.208,1.736,1.736,0,1,1-.236,3.463,7.6,7.6,0,0,1-4-1.468C61.5,209.184,61.672,209.093,61.845,209.006Z" transform="translate(-52.789 -170.429)" fill="#be0b73"/>
  <path id="Trazado_877743" data-name="Trazado 877743" d="M428.119,410.368a1.736,1.736,0,1,0-3.242,1.24l.981,2.565q1.367-1.4,2.6-2.921Z" transform="translate(-354.497 -339.102)" fill="#1d8df2"/>
  <path id="Trazado_877744" data-name="Trazado 877744" d="M250.442,128.043l-4.23-6.96c-.254-.024-.51-.037-.77-.037h-10.92l-3.984,2.7v34.01l3.984,1h10.92a8.3,8.3,0,0,0,8.278-8.277V139.9Z" transform="translate(-193.256 -99.838)" fill="#fef156"/>
  <path id="Trazado_877745" data-name="Trazado 877745" d="M314.343,121.178c-.28.27-3.151,3.161-.139,5.387l2.43,13.706s2.87,3.585,5.41,0V129.433a8.3,8.3,0,0,0-7.7-8.255Z" transform="translate(-261.581 -99.948)" fill="#fffbb3"/>
  <path id="Trazado_877746" data-name="Trazado 877746" d="M163.811,121.046h-10.58a8.3,8.3,0,0,0-8.278,8.278v21.16a8.3,8.3,0,0,0,8.278,8.278h10.58c-3.333-2.63.193-5.41.193-5.41-2.921-3.434.784-6.034.784-6.034s-1.486-11.081-2.972-14.944a4.846,4.846,0,0,1,2-5.918C160.5,124,163.811,121.046,163.811,121.046Z" transform="translate(-122.206 -99.838)" fill="#ffc242"/>
  <path id="Trazado_877747" data-name="Trazado 877747" d="M245.878,152.9H234.521l-3.984,1.367v24.8l4.177.727h11.164a2.463,2.463,0,0,0,2.43-2.43V155.333A2.463,2.463,0,0,0,245.878,152.9Z" transform="translate(-193.256 -126.285)" fill="#ffc242"/>
  <path id="Trazado_877748" data-name="Trazado 877748" d="M190.259,152.9H179.241a2.463,2.463,0,0,0-2.43,2.43v22.035a2.463,2.463,0,0,0,2.43,2.43h11.21c-2.921-3.434.784-6.034.784-6.034s-1.486-11.081-2.972-14.943A4.846,4.846,0,0,1,190.259,152.9Z" transform="translate(-148.653 -126.285)" fill="#fd8d3e"/>
  <ellipse id="Elipse_11629" data-name="Elipse 11629" cx="4.733" cy="4.733" rx="4.733" ry="4.733" transform="matrix(0.023, -1, 1, 0.023, 9.675, 10.007)" fill="#fef156"/>
  <ellipse id="Elipse_11630" data-name="Elipse 11630" cx="4.733" cy="4.733" rx="4.733" ry="4.733" transform="translate(27.816 0.652)" fill="#fef156"/>
  <ellipse id="Elipse_11631" data-name="Elipse 11631" cx="4.733" cy="4.733" rx="4.733" ry="4.733" transform="translate(45.93 0.652)" fill="#fffbb3"/>
  <ellipse id="Elipse_11632" data-name="Elipse 11632" cx="4.733" cy="4.733" rx="4.733" ry="4.733" transform="matrix(0.989, -0.148, 0.148, 0.989, 63.204, 1.401)" fill="#fffbb3"/>
  <g id="Grupo_1102104" data-name="Grupo 1102104" transform="translate(32.974 42.242)">
    <path id="Trazado_877749" data-name="Trazado 877749" d="M214.246,248.416H206.92a1.751,1.751,0,0,1,0-3.5h7.327a1.751,1.751,0,0,1,0,3.5Z" transform="translate(-205.169 -244.914)" fill="#ade9f7"/>
  </g>
  <g id="Grupo_1102105" data-name="Grupo 1102105" transform="translate(31.433 31.643)">
    <path id="Trazado_877750" data-name="Trazado 877750" d="M208.232,199.148a1.751,1.751,0,0,1-1.638-1.133l-3.536-9.37-3.571,9.375a1.751,1.751,0,0,1-3.273-1.246l4.937-12.963.016-.04a2.042,2.042,0,0,1,1.894-1.273h0a2.042,2.042,0,0,1,1.895,1.27c.006.016.013.032.019.048l4.892,12.964a1.752,1.752,0,0,1-1.638,2.37Z" transform="translate(-196.099 -182.497)" fill="#e8f8fc"/>
  </g>
  <g id="Grupo_1102106" data-name="Grupo 1102106" transform="translate(47.189 31.643)">
    <path id="Trazado_877751" data-name="Trazado 877751" d="M290.63,199.148a1.751,1.751,0,0,1-1.751-1.751V184.248a1.751,1.751,0,1,1,3.5,0V197.4A1.751,1.751,0,0,1,290.63,199.148Z" transform="translate(-288.879 -182.497)" fill="#e8f8fc"/>
  </g>
</svg>
