<svg xmlns="http://www.w3.org/2000/svg" xmlns:xlink="http://www.w3.org/1999/xlink" width="85.002" height="90.999" viewBox="0 0 85.002 90.999">
  <defs>
    <clipPath id="clip-path">
      <path id="Unión_2" data-name="Unión 2" d="M10124.782,11767h-.073v-51h85v51h-.072a42.5,42.5,0,0,1-84.856,0Z" transform="translate(-9945 -6921)" fill="#4f08c2"/>
    </clipPath>
  </defs>
  <g id="Grupo_1105671" data-name="Grupo 1105671" transform="translate(-179.709 -4795.001)">
    <circle id="Elipse_11862" data-name="Elipse 11862" cx="42.5" cy="42.5" r="42.5" transform="translate(179.711 4801)" fill="#4f08c2"/>
    <g id="Enmascarar_grupo_1098906" data-name="Enmascarar grupo 1098906" clip-path="url(#clip-path)">
      <g id="inteligencia-artificial_9_" data-name="inteligencia-artificial (9)" transform="translate(175.313 4795.136)">
        <path id="Trazado_881083" data-name="Trazado 881083" d="M89.4,13.19H43.967V7.328A2.931,2.931,0,0,1,46.9,4.4h39.57A2.931,2.931,0,0,1,89.4,7.328Z" fill="#89a8f5"/>
        <path id="Trazado_881084" data-name="Trazado 881084" d="M89.4,13.19V48.363a2.931,2.931,0,0,1-2.931,2.931H46.9a2.931,2.931,0,0,1-2.931-2.931V13.19Z" fill="#5771e5"/>
        <path id="Trazado_881085" data-name="Trazado 881085" d="M38.1,23.449H4.4V17.587a2.931,2.931,0,0,1,2.931-2.931H35.173A2.931,2.931,0,0,1,38.1,17.587Z" fill="#89a8f5"/>
        <path id="Trazado_881086" data-name="Trazado 881086" d="M83.536,68.881l2.931-5.862V57.156H83.536l-2.931,4.4H79.14l-2.931-2.931H74.743v4.4l3.908,5.862Z" fill="#e4e9f2"/>
        <path id="Trazado_881087" data-name="Trazado 881087" d="M80.605,68.881v2.931l-7.328,8.793H65.95l-3.283-2.462-4.045-3.034V64.484h2.695a2.934,2.934,0,0,1,2.547,1.477l5.018,8.782,8.793-5.862Z" fill="#e4e9f2"/>
        <circle id="Elipse_11864" data-name="Elipse 11864" cx="2.931" cy="2.931" r="2.931" transform="translate(65.95 74.743)" fill="#a6bce3"/>
        <path id="Trazado_881088" data-name="Trazado 881088" d="M64.484,67.415v7.328A2.929,2.929,0,0,1,63.9,76.5l-1.231,1.641-4.045-3.034V64.484h2.695a2.934,2.934,0,0,1,2.547,1.477l.612,1.07C64.481,67.159,64.484,67.287,64.484,67.415Z" fill="#cad8ed"/>
        <circle id="Elipse_11865" data-name="Elipse 11865" cx="2.931" cy="2.931" r="2.931" transform="translate(77.674 65.95)" fill="#a6bce3"/>
        <path id="Trazado_881089" data-name="Trazado 881089" d="M61.553,67.415v7.328l-4.4,5.862H54.225l-2.931-2.931H46.9l-2.931,2.931H41.035l-2.986-3.981-1.411-1.881V63.019H57.156A4.4,4.4,0,0,1,61.553,67.415Z" fill="#e4e9f2"/>
        <path id="Trazado_881090" data-name="Trazado 881090" d="M42.5,63.019v7.328a2.935,2.935,0,0,1-.705,1.907l-3.746,4.371-1.411-1.881V63.019Z" fill="#cad8ed"/>
        <path id="Trazado_881091" data-name="Trazado 881091" d="M16.121,71.812l7.328,8.793h7.328L39.57,70.346v-4.4H33.708l-1.466,1.466-4.4,7.328-8.793-5.862H16.121Z" fill="#e4e9f2"/>
        <path id="Trazado_881092" data-name="Trazado 881092" d="M13.19,68.881l-2.931-5.862V57.156H13.19l2.931,4.4h1.466l2.931-2.931h1.466v4.4l-2.931,4.4v1.466Z" fill="#e4e9f2"/>
        <path id="Trazado_881093" data-name="Trazado 881093" d="M57.156,80.605V90.864H41.035V80.605h2.931L46.9,77.674h4.4l2.931,2.931Z" fill="#e4e9f2"/>
        <path id="Trazado_881094" data-name="Trazado 881094" d="M45.432,52.76v8.793l-1.466,1.466,4.4,4.4h4.4V52.76Z" fill="#a6bce3"/>
        <path id="Trazado_881095" data-name="Trazado 881095" d="M48.363,58.622l5.862,2.931,2.931-1.466L55.3,51.746A6.192,6.192,0,0,0,43.721,50.32a3.784,3.784,0,0,0,.709,4.368Z" fill="#e4e9f2"/>
        <circle id="Elipse_11866" data-name="Elipse 11866" cx="2.931" cy="2.931" r="2.931" transform="translate(45.432 52.76)" fill="#4e96ed"/>
        <path id="Trazado_881096" data-name="Trazado 881096" d="M54.225,80.605l-2.931,5.862H46.9l-2.931-5.862L46.9,77.674h4.4Z" fill="#cad8ed"/>
        <path id="Trazado_881097" data-name="Trazado 881097" d="M38.1,23.449v26.38a2.931,2.931,0,0,1-2.931,2.931H7.328A2.931,2.931,0,0,1,4.4,49.829V23.449Z" fill="#5771e5"/>
        <g id="Grupo_1105584" data-name="Grupo 1105584">
          <path id="Trazado_881098" data-name="Trazado 881098" d="M8.793,27.845h2.931v2.931H8.793Z" fill="#3d44d1"/>
          <path id="Trazado_881099" data-name="Trazado 881099" d="M14.656,27.845h7.328v2.931H14.656Z" fill="#3d44d1"/>
          <path id="Trazado_881100" data-name="Trazado 881100" d="M8.793,33.708h2.931v2.931H8.793Z" fill="#3d44d1"/>
          <path id="Trazado_881101" data-name="Trazado 881101" d="M17.587,33.708h7.328v2.931H17.587Z" fill="#3d44d1"/>
          <path id="Trazado_881102" data-name="Trazado 881102" d="M27.845,33.708h2.931v2.931H27.845Z" fill="#3d44d1"/>
          <path id="Trazado_881103" data-name="Trazado 881103" d="M21.983,39.57H32.242V42.5H21.983Z" fill="#3d44d1"/>
          <path id="Trazado_881104" data-name="Trazado 881104" d="M19.052,45.432H26.38v2.931H19.052Z" fill="#3d44d1"/>
          <path id="Trazado_881105" data-name="Trazado 881105" d="M13.19,45.432h2.931v2.931H13.19Z" fill="#3d44d1"/>
          <path id="Trazado_881106" data-name="Trazado 881106" d="M48.363,17.587h2.931v2.931H48.363Z" fill="#3d44d1"/>
          <path id="Trazado_881107" data-name="Trazado 881107" d="M54.225,17.587h7.328v2.931H54.225Z" fill="#3d44d1"/>
          <path id="Trazado_881108" data-name="Trazado 881108" d="M48.363,23.449h2.931V26.38H48.363Z" fill="#3d44d1"/>
          <path id="Trazado_881109" data-name="Trazado 881109" d="M57.156,23.449h7.328V26.38H57.156Z" fill="#3d44d1"/>
          <path id="Trazado_881110" data-name="Trazado 881110" d="M67.415,23.449h2.931V26.38H67.415Z" fill="#3d44d1"/>
          <path id="Trazado_881111" data-name="Trazado 881111" d="M82.071,41.035H85v2.931H82.071Z" fill="#3d44d1"/>
          <path id="Trazado_881112" data-name="Trazado 881112" d="M61.553,29.311H71.812v2.931H61.553Z" fill="#3d44d1"/>
          <path id="Trazado_881113" data-name="Trazado 881113" d="M64.484,41.035H79.14v2.931H64.484Z" fill="#3d44d1"/>
          <path id="Trazado_881114" data-name="Trazado 881114" d="M61.553,35.173h13.19V38.1H61.553Z" fill="#3d44d1"/>
          <path id="Trazado_881115" data-name="Trazado 881115" d="M55.691,35.173h2.931V38.1H55.691Z" fill="#3d44d1"/>
        </g>
        <path id="Trazado_881116" data-name="Trazado 881116" d="M48.363,60.088a4.4,4.4,0,1,1,4.4-4.4,4.4,4.4,0,0,1-4.4,4.4Zm0-5.862a1.466,1.466,0,1,0,1.466,1.466A1.466,1.466,0,0,0,48.363,54.225Z" fill="#cad8ed"/>
        <path id="Trazado_881117" data-name="Trazado 881117" d="M58.256,79.14l-1.1,1.466v1.466H54.225a1.467,1.467,0,0,1-1.037-.429l-2.5-2.5H47.5l-2.5,2.5a1.467,1.467,0,0,1-1.037.429H41.035V80.605l-1.1-1.466H43.36l2.5-2.5a1.467,1.467,0,0,1,1.037-.429h4.4a1.467,1.467,0,0,1,1.037.429l2.5,2.5Z" fill="#cad8ed"/>
        <circle id="Elipse_11867" data-name="Elipse 11867" cx="2.931" cy="2.931" r="2.931" transform="translate(24.914 74.743)" fill="#a6bce3"/>
        <circle id="Elipse_11868" data-name="Elipse 11868" cx="2.931" cy="2.931" r="2.931" transform="translate(13.19 65.95)" fill="#a6bce3"/>
        <circle id="Elipse_11869" data-name="Elipse 11869" cx="2.931" cy="2.931" r="2.931" transform="translate(33.708 63.019)" fill="#a6bce3"/>
        <circle id="Elipse_11870" data-name="Elipse 11870" cx="1.466" cy="1.466" r="1.466" transform="translate(7.328 17.587)" fill="#f28868"/>
        <circle id="Elipse_11871" data-name="Elipse 11871" cx="1.466" cy="1.466" r="1.466" transform="translate(11.724 17.587)" fill="#f7c04a"/>
        <circle id="Elipse_11872" data-name="Elipse 11872" cx="1.466" cy="1.466" r="1.466" transform="translate(16.121 17.587)" fill="#90d4b1"/>
        <circle id="Elipse_11873" data-name="Elipse 11873" cx="1.466" cy="1.466" r="1.466" transform="translate(46.898 7.328)" fill="#f28868"/>
        <circle id="Elipse_11874" data-name="Elipse 11874" cx="1.466" cy="1.466" r="1.466" transform="translate(51.294 7.328)" fill="#f7c04a"/>
        <circle id="Elipse_11875" data-name="Elipse 11875" cx="1.466" cy="1.466" r="1.466" transform="translate(55.691 7.328)" fill="#90d4b1"/>
      </g>
    </g>
  </g>
</svg>
