<svg xmlns="http://www.w3.org/2000/svg" xmlns:xlink="http://www.w3.org/1999/xlink" width="117.473" height="119.15" viewBox="0 0 117.473 119.15">
  <defs>
    <clipPath id="clip-path">
      <rect id="Rectángulo_404783" data-name="Rectángulo 404783" width="70" height="70" transform="translate(652 6994.168)" fill="#fff" stroke="#707070" stroke-width="1"/>
    </clipPath>
  </defs>
  <g id="Grupo_1103880" data-name="Grupo 1103880" transform="translate(-621.527 -6963.85)">
    <circle id="Elipse_11687" data-name="Elipse 11687" cx="50" cy="50" r="50" transform="translate(636 6980)" fill="#b299db"/>
    <g id="Elipse_11688" data-name="Elipse 11688" transform="translate(633 6977)" fill="none" stroke="#4f08c2" stroke-width="1">
      <circle cx="53" cy="53" r="53" stroke="none"/>
      <circle cx="53" cy="53" r="52.5" fill="none"/>
    </g>
    <g id="Enmascarar_grupo_1098916" data-name="Enmascarar grupo 1098916" clip-path="url(#clip-path)">
      <g id="latido-del-corazon" transform="translate(652 7000.054)">
        <path id="Trazado_881191" data-name="Trazado 881191" d="M63.991,16.641A15.547,15.547,0,0,0,35,8.834,15.547,15.547,0,0,0,6.008,16.641C6.008,38.4,35,57.135,35,57.135S63.991,38.4,63.991,16.641Zm0,0" fill="#f55"/>
        <path id="Trazado_881192" data-name="Trazado 881192" d="M63.992,16.642C63.992,38.4,35,57.135,35,57.135a84.372,84.372,0,0,1-7.008-5.242C32.619,48.712,56.2,31.55,56.2,11.928a15.476,15.476,0,0,0-3.963-10.37,15.554,15.554,0,0,1,11.76,15.084Zm0,0" fill="#f72b2b"/>
        <path id="Trazado_881193" data-name="Trazado 881193" d="M34.807,45.108a1.753,1.753,0,0,1-1.723-1.429L28.8,20.928l-4.558,10.83a1.754,1.754,0,0,1-3.183.108l-1.218-2.421H2.779a1.754,1.754,0,1,1,0-3.508H20.923a1.755,1.755,0,0,1,1.562.956l5.344-12.7a1.754,1.754,0,0,1,3.34.356L34.7,33.31l1.461-8.778a1.754,1.754,0,0,1,1.73-1.465h5.724a1.754,1.754,0,0,1,1.469.8l2.688,4.125,1.159-1.41a1.754,1.754,0,0,1,1.355-.64H67.221a1.754,1.754,0,0,1,0,3.508H51.115l-2.151,2.617a1.754,1.754,0,0,1-2.824-.156l-3.475-5.333H39.378L36.537,43.642a1.754,1.754,0,0,1-1.711,1.466h-.019Zm0,0" fill="#60daff"/>
        <path id="Trazado_881194" data-name="Trazado 881194" d="M67.221,24.912H63.729a28.427,28.427,0,0,0,1.287-8.27A16.615,16.615,0,0,0,61.361,6.26a1.025,1.025,0,0,0-1.6,1.285,14.362,14.362,0,0,1,3.2,9.1,26.663,26.663,0,0,1-1.387,8.27H58.33a1.025,1.025,0,0,0,0,2.051h8.89a.728.728,0,0,1,0,1.457H51.115a1.026,1.026,0,0,0-.792.374l-2.151,2.618A.729.729,0,0,1,47,31.347l-3.475-5.333a1.025,1.025,0,0,0-.859-.466H39.378a1.025,1.025,0,0,0-1.012.857L35.525,43.474a.724.724,0,0,1-.7.608h-.019a.728.728,0,0,1-.716-.593L29.808,20.738a1.026,1.026,0,0,0-1.953-.208L23.3,31.361a.728.728,0,0,1-1.322.044l-1.218-2.421a1.026,1.026,0,0,0-.916-.564H2.779a.728.728,0,1,1,0-1.457H20.923a.725.725,0,0,1,.649.4,1.025,1.025,0,0,0,1.859-.068l5.344-12.7a.734.734,0,0,1,.749-.442.724.724,0,0,1,.639.59L33.693,33.5a1.025,1.025,0,0,0,1.008.835h.011a1.026,1.026,0,0,0,1-.857L37.173,24.7a.726.726,0,0,1,.719-.608h5.723a.724.724,0,0,1,.61.331l2.688,4.125a1.026,1.026,0,0,0,1.652.091l1.158-1.41a.728.728,0,0,1,.563-.266h3.372a1.025,1.025,0,0,0,0-2.051H50.286a2.77,2.77,0,0,0-2.147,1.015l-.271.33L45.944,23.3a2.769,2.769,0,0,0-2.328-1.262H37.891a2.771,2.771,0,0,0-2.741,2.323l-.512,3.075L32.176,14.36a2.762,2.762,0,0,0-2.437-2.249A2.8,2.8,0,0,0,26.884,13.8L22.1,25.17a2.784,2.784,0,0,0-1.175-.258H8.42a26.647,26.647,0,0,1-1.387-8.27A14.521,14.521,0,0,1,34.113,9.35a1.025,1.025,0,0,0,1.772,0A14.523,14.523,0,0,1,56.543,4.587a1.026,1.026,0,0,0,1.146-1.7A16.571,16.571,0,0,0,35,6.955,16.57,16.57,0,0,0,4.983,16.641a28.409,28.409,0,0,0,1.287,8.27H2.779a2.779,2.779,0,1,0,0,5.558H8.494a58.507,58.507,0,0,0,9.642,13.575,1.026,1.026,0,0,0,1.506-1.392A57.8,57.8,0,0,1,10.8,30.47H19.21l.934,1.857a2.779,2.779,0,0,0,5.044-.171l3.235-7.689,3.652,19.4a2.781,2.781,0,0,0,2.731,2.265h.029a2.776,2.776,0,0,0,2.712-2.323l2.7-16.212h1.863l3.171,4.867a2.779,2.779,0,0,0,4.475.247L51.6,30.47h7.6C55.3,37.91,49.035,44.355,44.355,48.531A95.446,95.446,0,0,1,35,55.9a96.594,96.594,0,0,1-12.13-9.947,1.025,1.025,0,0,0-1.426,1.473A94.4,94.4,0,0,0,34.443,58a1.026,1.026,0,0,0,1.113,0,91.464,91.464,0,0,0,10.136-7.909C50.708,45.614,57.495,38.6,61.5,30.47h5.716a2.779,2.779,0,1,0,0-5.558Zm0,0"/>
      </g>
    </g>
    <g id="Trazado_879043" data-name="Trazado 879043" transform="translate(646.174 6969.821) rotate(41)" fill="none">
      <path d="M16.471,0,32.941,28.467H0L14.037,4.206Z" stroke="none"/>
      <path d="M 16.47053527832031 3.993585586547852 L 3.467817306518555 26.46679878234863 L 29.4732666015625 26.46679878234863 L 16.47053527832031 3.993585586547852 M 16.47053337097168 0 L 32.94108200073242 28.46679878234863 L 3.814697265625e-06 28.46679878234863 L 16.47053337097168 0 Z" stroke="none" fill="#2f0474"/>
    </g>
  </g>
</svg>
